<?xml version="1.0" encoding="utf-8"?>
<!-- Generator: Adobe Illustrator 28.3.0, SVG Export Plug-In . SVG Version: 6.00 Build 0)  -->
<svg version="1.1" id="Laag_1" xmlns="http://www.w3.org/2000/svg" xmlns:xlink="http://www.w3.org/1999/xlink" x="0px" y="0px"
	 viewBox="0 0 454.3 353.6" style="enable-background:new 0 0 454.3 353.6;" xml:space="preserve">
<style type="text/css">
	.st0{fill:#F39214;}
	.st1{fill:#CC3F17;}
	.st2{fill:#902E14;}
	.st3{fill:#D88016;}
	.st4{fill:#97995E;}
	.st5{fill:none;stroke:#8F2E12;stroke-width:2.4677;stroke-miterlimit:10;}
	.st6{fill:#F39211;}
</style>
<g id="Group_45">
	<g id="Group_36">
		<path id="Path_1113" class="st0" d="M452.7,169.2c0.2,0,0.5-0.1,0.7-0.3c0.3-0.4,0.4-0.9,0.2-1.4c-0.8-1.7-1.8-3.3-2.8-4.9
			c-0.9-1.8-2.1-3.5-3.3-5.1c-1.1-1.5-2.4-2.9-4-3.9c-2.1-1.4-4.6-1.9-7-1.4c-3.6,0.9-5.9,4.3-5.4,7.9c0.2,2,1,3.8,2.2,5.3
			c1.2,1.2,2.8,2.1,4.5,2.4c2.3,0.5,4.6,0.9,6.9,1.1c1.4,0.1,2.8,0.2,4.2,0.2c0.7,0,1.5,0,2.2,0
			C451.6,169.3,452.2,169.3,452.7,169.2"/>
		<path id="Path_1114" class="st1" d="M452.9,169.1c0.2,0,0.4-0.1,0.5-0.2c0.2-0.3,0.3-0.7,0.1-1.1c-0.6-1.3-1.4-2.5-2.1-3.7
			c-0.7-1.4-1.6-2.7-2.5-3.9c-0.8-1.2-1.9-2.2-3-3c-1.6-1.1-3.5-1.4-5.3-1c-2.7,0.6-4.5,3.3-4.1,6c0.1,1.5,0.7,2.9,1.7,4.1
			c0.9,0.9,2.1,1.6,3.4,1.8c1.7,0.4,3.5,0.7,5.3,0.8c1.1,0.1,2.1,0.1,3.2,0.2c0.5,0,1.1,0,1.6,0C452,169.2,452.4,169.2,452.9,169.1"
			/>
		<path id="Path_1115" class="st2" d="M453,169.1c0.1,0,0.2-0.1,0.3-0.2c0.2-0.2,0.2-0.5,0.1-0.7c-0.4-0.8-0.9-1.6-1.4-2.4
			c-0.5-0.9-1-1.8-1.7-2.6c-0.5-0.8-1.2-1.4-2-2c-1-0.7-2.3-0.9-3.5-0.7c-1.8,0.4-3,2.1-2.7,4c0.1,1,0.5,1.9,1.1,2.7
			c0.6,0.6,1.4,1,2.2,1.2c1.1,0.3,2.3,0.4,3.5,0.5c0.7,0.1,1.4,0.1,2.1,0.1c0.4,0,0.7,0,1.1,0C452.5,169.1,452.8,169.1,453,169.1"/>
		<path id="Path_1119" class="st0" d="M452.6,169.7c0.2,0,0.5,0.1,0.7,0.3c0.3,0.4,0.4,0.9,0.2,1.4c-0.8,1.7-1.8,3.3-2.8,4.9
			c-0.9,1.8-2.1,3.5-3.3,5.1c-1.1,1.5-2.4,2.9-4,3.9c-2.1,1.4-4.6,1.9-7,1.4c-3.6-0.9-5.9-4.3-5.4-7.9c0.2-2,1-3.8,2.2-5.3
			c1.2-1.2,2.8-2.1,4.5-2.4c2.3-0.5,4.6-0.9,6.9-1.1c1.4-0.1,2.8-0.2,4.2-0.2c0.7,0,1.5,0,2.2,0C451.5,169.7,452,169.6,452.6,169.7"
			/>
		<path id="Path_1120" class="st1" d="M452.7,169.8c0.2,0,0.4,0.1,0.5,0.2c0.2,0.3,0.3,0.7,0.1,1.1c-0.6,1.3-1.4,2.5-2.1,3.7
			c-0.7,1.4-1.6,2.7-2.5,3.9c-0.8,1.2-1.9,2.2-3,3c-1.6,1.1-3.5,1.4-5.3,1c-2.7-0.6-4.5-3.3-4.1-6c0.1-1.5,0.7-2.9,1.7-4.1
			c0.9-0.9,2.1-1.6,3.4-1.8c1.7-0.4,3.5-0.7,5.3-0.8c1.1-0.1,2.1-0.1,3.2-0.2c0.5,0,1.1,0,1.6,0
			C451.9,169.8,452.3,169.8,452.7,169.8"/>
		<path id="Path_1121" class="st2" d="M452.9,169.9c0.1,0,0.2,0.1,0.3,0.2c0.2,0.2,0.2,0.5,0.1,0.7c-0.4,0.8-0.9,1.6-1.4,2.4
			c-0.5,0.9-1,1.8-1.7,2.6c-0.5,0.8-1.2,1.4-2,2c-1,0.7-2.3,0.9-3.5,0.7c-1.8-0.4-3-2.1-2.7-4c0.1-1,0.5-1.9,1.1-2.7
			c0.6-0.6,1.4-1,2.2-1.2c1.1-0.3,2.3-0.4,3.5-0.5c0.7-0.1,1.4-0.1,2.1-0.1c0.4,0,0.7,0,1.1,0C452.4,169.8,452.6,169.8,452.9,169.9"
			/>
		<path id="Path_1161" class="st0" d="M369.7,106.7c0.2-0.2,0.4-0.3,0.6-0.4c0.5-0.1,1,0.2,1.3,0.6c1,1.6,1.9,3.2,2.7,4.9
			c1.1,1.8,1.9,3.6,2.6,5.5c0.7,1.7,1.2,3.6,1.3,5.4c0.1,2.5-0.8,4.9-2.5,6.7c-2.6,2.6-6.8,2.8-9.6,0.5c-1.6-1.2-2.8-2.8-3.4-4.7
			c-0.4-1.7-0.3-3.5,0.3-5.1c0.7-2.2,1.6-4.4,2.7-6.5c0.6-1.2,1.3-2.5,2-3.7c0.4-0.6,0.7-1.2,1.1-1.9
			C369.1,107.6,369.4,107.1,369.7,106.7"/>
		<path id="Path_1162" class="st1" d="M369.9,106.6c0.1-0.2,0.3-0.2,0.5-0.3c0.4-0.1,0.8,0.1,1,0.4c0.8,1.2,1.4,2.5,2,3.7
			c0.8,1.3,1.5,2.7,2,4.2c0.6,1.3,0.9,2.7,1,4.1c0.1,1.9-0.6,3.7-1.9,5.1c-2,2-5.1,2.2-7.3,0.4c-1.2-0.9-2.1-2.1-2.6-3.6
			c-0.3-1.3-0.2-2.6,0.2-3.9c0.6-1.7,1.2-3.3,2-4.9c0.5-0.9,1-1.9,1.5-2.8c0.3-0.5,0.6-0.9,0.8-1.4
			C369.4,107.3,369.6,106.9,369.9,106.6"/>
		<path id="Path_1163" class="st2" d="M370.1,106.5c0.1-0.1,0.2-0.2,0.3-0.2c0.2,0,0.5,0.1,0.6,0.3c0.5,0.8,1,1.6,1.4,2.5
			c0.5,0.9,1,1.8,1.3,2.8c0.4,0.9,0.6,1.8,0.6,2.7c0,1.2-0.4,2.4-1.2,3.3c-1.3,1.3-3.4,1.4-4.8,0.2c-0.8-0.6-1.4-1.4-1.7-2.3
			c-0.2-0.8-0.1-1.7,0.2-2.5c0.4-1.1,0.8-2.2,1.3-3.2c0.3-0.6,0.6-1.2,1-1.8c0.2-0.3,0.4-0.6,0.6-0.9
			C369.8,106.9,369.9,106.7,370.1,106.5"/>
		<path id="Path_1164" class="st0" d="M369.7,102.4c0.2,0.2,0.4,0.3,0.6,0.4c0.5,0.1,1-0.2,1.3-0.6c1-1.6,1.9-3.2,2.7-4.9
			c1.1-1.8,1.9-3.6,2.6-5.5c0.7-1.7,1.2-3.6,1.3-5.4c0.1-2.5-0.8-4.9-2.5-6.7c-2.6-2.6-6.8-2.8-9.6-0.5c-1.6,1.2-2.8,2.8-3.4,4.7
			c-0.4,1.7-0.3,3.5,0.3,5.1c0.7,2.2,1.6,4.4,2.7,6.5c0.6,1.2,1.3,2.5,2,3.7c0.4,0.6,0.7,1.2,1.1,1.9
			C369.1,101.5,369.4,101.9,369.7,102.4"/>
		<path id="Path_1165" class="st1" d="M369.9,102.5c0.1,0.2,0.3,0.2,0.5,0.3c0.4,0.1,0.8-0.1,1-0.4c0.8-1.2,1.4-2.5,2-3.7
			c0.8-1.3,1.5-2.7,2-4.2c0.6-1.3,0.9-2.7,1-4.1c0.1-1.9-0.6-3.7-1.9-5.1c-2-2-5.1-2.2-7.3-0.4c-1.2,0.9-2.1,2.1-2.6,3.6
			c-0.3,1.3-0.2,2.6,0.2,3.9c0.6,1.7,1.2,3.3,2,4.9c0.5,0.9,1,1.9,1.5,2.8c0.3,0.5,0.6,0.9,0.8,1.4
			C369.4,101.8,369.6,102.2,369.9,102.5"/>
		<path id="Path_1166" class="st2" d="M370.1,102.6c0.1,0.1,0.2,0.2,0.3,0.2c0.2,0,0.5-0.1,0.6-0.3c0.5-0.8,1-1.6,1.4-2.5
			c0.5-0.9,1-1.8,1.3-2.8c0.4-0.9,0.6-1.8,0.6-2.7c0-1.2-0.4-2.4-1.2-3.3c-1.3-1.3-3.4-1.4-4.8-0.2c-0.8,0.6-1.4,1.4-1.7,2.3
			c-0.2,0.8-0.1,1.7,0.2,2.5c0.4,1.1,0.8,2.2,1.3,3.2c0.3,0.6,0.6,1.2,1,1.8c0.2,0.3,0.4,0.6,0.6,0.9
			C369.8,102.2,369.9,102.4,370.1,102.6"/>
		<path id="Path_1167" class="st0" d="M368.2,104.6c0.2,0,0.5-0.2,0.7-0.3c0.3-0.4,0.4-0.9,0.2-1.4c-0.8-1.7-1.8-3.3-2.8-4.9
			c-0.9-1.8-2.1-3.5-3.3-5.1c-1.1-1.5-2.4-2.8-4-3.9c-2.1-1.4-4.6-1.9-7-1.4c-3.6,0.8-5.9,4.3-5.4,7.9c0.2,2,1,3.8,2.2,5.3
			c1.2,1.2,2.8,2.1,4.5,2.4c2.3,0.5,4.6,0.9,6.9,1.1c1.4,0.1,2.8,0.2,4.2,0.2c0.7,0,1.5,0,2.2,0
			C367.2,104.7,367.7,104.7,368.2,104.6"/>
		<path id="Path_1168" class="st1" d="M368.4,104.6c0.2,0,0.4-0.1,0.5-0.2c0.3-0.3,0.3-0.7,0.1-1.1c-0.6-1.3-1.4-2.5-2.1-3.7
			c-0.7-1.4-1.6-2.7-2.5-3.9c-0.8-1.2-1.9-2.2-3-3c-1.6-1.1-3.5-1.4-5.3-1c-2.7,0.7-4.5,3.3-4.1,6c0.1,1.5,0.7,2.9,1.7,4.1
			c0.9,0.9,2.1,1.6,3.4,1.8c1.7,0.4,3.5,0.7,5.3,0.8c1.1,0.1,2.1,0.1,3.2,0.2c0.5,0,1.1,0,1.6,0C367.6,104.6,368,104.6,368.4,104.6"
			/>
		<path id="Path_1169" class="st2" d="M368.6,104.5c0.1,0,0.2-0.1,0.3-0.2c0.2-0.2,0.2-0.5,0.1-0.7c-0.4-0.8-0.9-1.7-1.4-2.4
			c-0.5-0.9-1-1.8-1.7-2.6c-0.5-0.8-1.2-1.4-2-2c-1-0.7-2.3-0.9-3.5-0.7c-1.8,0.4-3,2.2-2.7,4c0.1,1,0.5,1.9,1.1,2.7
			c0.6,0.6,1.4,1,2.2,1.2c1.1,0.3,2.3,0.4,3.5,0.5c0.7,0.1,1.4,0.1,2.1,0.1c0.4,0,0.7,0,1.1,0C368,104.5,368.3,104.5,368.6,104.5"/>
		<path id="Path_1170" class="st0" d="M373,104.5c-0.2,0-0.5-0.2-0.7-0.3c-0.3-0.4-0.4-0.9-0.2-1.4c0.8-1.7,1.8-3.3,2.8-4.9
			c0.9-1.8,2.1-3.5,3.3-5.1c1.1-1.5,2.4-2.8,4-3.9c2.1-1.4,4.6-1.9,7-1.4c3.6,0.8,5.9,4.3,5.4,7.9c-0.2,2-1,3.8-2.2,5.3
			c-1.2,1.2-2.8,2.1-4.5,2.4c-2.3,0.5-4.6,0.9-6.9,1.1c-1.4,0.1-2.8,0.2-4.2,0.2c-0.7,0-1.5,0-2.2,0
			C374,104.5,373.5,104.5,373,104.5"/>
		<path id="Path_1171" class="st1" d="M372.8,104.4c-0.2,0-0.4-0.1-0.5-0.2c-0.2-0.3-0.3-0.7-0.1-1.1c0.6-1.3,1.4-2.5,2.1-3.7
			c0.7-1.4,1.6-2.7,2.5-3.9c0.8-1.2,1.9-2.2,3-3c1.6-1.1,3.5-1.4,5.3-1c2.7,0.7,4.5,3.3,4.1,6c-0.1,1.5-0.7,2.9-1.7,4.1
			c-0.9,0.9-2.1,1.6-3.4,1.8c-1.7,0.4-3.5,0.7-5.3,0.8c-1.1,0.1-2.1,0.1-3.2,0.2c-0.5,0-1.1,0-1.6,0
			C373.6,104.4,373.2,104.4,372.8,104.4"/>
		<path id="Path_1172" class="st2" d="M372.6,104.3c-0.1,0-0.2-0.1-0.3-0.2c-0.2-0.2-0.2-0.5-0.1-0.7c0.4-0.8,0.9-1.7,1.4-2.4
			c0.5-0.9,1-1.8,1.7-2.6c0.5-0.8,1.2-1.4,2-2c1-0.7,2.3-0.9,3.5-0.7c1.8,0.4,3,2.2,2.7,4c-0.1,1-0.5,1.9-1.1,2.7
			c-0.6,0.6-1.4,1-2.2,1.2c-1.1,0.3-2.3,0.4-3.5,0.5c-0.7,0.1-1.4,0.1-2.1,0.1c-0.4,0-0.7,0-1.1,0
			C373.2,104.3,372.9,104.3,372.6,104.3"/>
		<path id="Path_1173" class="st0" d="M368.1,105.1c0.2,0,0.5,0.2,0.7,0.3c0.3,0.4,0.4,0.9,0.2,1.4c-0.8,1.7-1.8,3.3-2.8,4.9
			c-0.9,1.8-2.1,3.5-3.3,5.1c-1.1,1.5-2.4,2.8-4,3.9c-2.1,1.4-4.6,1.9-7,1.4c-3.6-0.8-5.9-4.3-5.4-7.9c0.2-2,1-3.8,2.2-5.3
			c1.2-1.2,2.8-2.1,4.5-2.4c2.3-0.5,4.6-0.9,6.9-1.1c1.4-0.1,2.8-0.2,4.2-0.2c0.7,0,1.5,0,2.2,0C367,105.1,367.6,105.1,368.1,105.1"
			/>
		<path id="Path_1174" class="st1" d="M368.3,105.2c0.2,0,0.4,0.1,0.5,0.2c0.3,0.3,0.3,0.7,0.1,1.1c-0.6,1.3-1.4,2.5-2.1,3.7
			c-0.7,1.4-1.6,2.7-2.5,3.9c-0.8,1.2-1.9,2.2-3,3c-1.6,1.1-3.5,1.4-5.3,1c-2.7-0.7-4.5-3.3-4.1-6c0.1-1.5,0.7-2.9,1.7-4.1
			c0.9-0.9,2.1-1.6,3.4-1.8c1.7-0.4,3.5-0.7,5.3-0.8c1.1-0.1,2.1-0.1,3.2-0.2c0.5,0,1.1,0,1.6,0
			C367.4,105.2,367.9,105.2,368.3,105.2"/>
		<path id="Path_1175" class="st2" d="M368.5,105.3c0.1,0,0.2,0.1,0.3,0.2c0.2,0.2,0.2,0.5,0.1,0.7c-0.4,0.8-0.9,1.7-1.4,2.4
			c-0.5,0.9-1,1.8-1.7,2.6c-0.5,0.8-1.2,1.4-2,2c-1,0.7-2.3,0.9-3.5,0.7c-1.8-0.4-3-2.2-2.7-4c0.1-1,0.5-1.9,1.1-2.7
			c0.6-0.6,1.4-1,2.2-1.2c1.1-0.3,2.3-0.4,3.5-0.5c0.7-0.1,1.4-0.1,2.1-0.1c0.4,0,0.7,0,1.1,0C367.9,105.3,368.2,105.3,368.5,105.3"
			/>
		<path id="Path_1176" class="st0" d="M373.1,104.9c-0.2,0-0.5,0.2-0.7,0.3c-0.3,0.4-0.4,0.9-0.2,1.4c0.8,1.7,1.8,3.3,2.8,4.9
			c0.9,1.8,2.1,3.5,3.3,5.1c1.1,1.5,2.4,2.8,4,3.9c2.1,1.4,4.6,1.9,7,1.4c3.6-0.8,5.9-4.3,5.4-7.9c-0.2-2-1-3.8-2.2-5.3
			c-1.2-1.2-2.8-2.1-4.5-2.4c-2.3-0.5-4.6-0.9-6.9-1.1c-1.4-0.1-2.8-0.2-4.2-0.2c-0.7,0-1.5,0-2.2,0
			C374.2,104.9,373.6,104.9,373.1,104.9"/>
		<path id="Path_1177" class="st1" d="M372.9,105c-0.2,0-0.4,0.1-0.5,0.2c-0.3,0.3-0.3,0.7-0.1,1.1c0.6,1.3,1.4,2.5,2.1,3.7
			c0.7,1.4,1.6,2.7,2.5,3.9c0.8,1.2,1.9,2.2,3,3c1.6,1,3.5,1.4,5.3,1c2.7-0.7,4.5-3.3,4.1-6c-0.1-1.5-0.7-2.9-1.7-4.1
			c-0.9-0.9-2.1-1.6-3.4-1.8c-1.7-0.4-3.5-0.7-5.3-0.8c-1.1-0.1-2.1-0.1-3.2-0.2c-0.5,0-1.1,0-1.6,0C373.8,105,373.4,105,372.9,105"
			/>
		<path id="Path_1178" class="st2" d="M372.7,105.1c-0.1,0-0.2,0.1-0.3,0.2c-0.2,0.2-0.2,0.5-0.1,0.7c0.4,0.8,0.9,1.7,1.4,2.4
			c0.5,0.9,1,1.8,1.7,2.6c0.5,0.8,1.2,1.4,2,2c1,0.7,2.3,0.9,3.5,0.7c1.8-0.4,3-2.2,2.7-4c-0.1-1-0.5-1.9-1.1-2.7
			c-0.6-0.6-1.4-1-2.2-1.2c-1.1-0.3-2.3-0.4-3.5-0.5c-0.7-0.1-1.4-0.1-2.1-0.1c-0.4,0-0.7,0-1.1,0
			C373.3,105.1,373,105.1,372.7,105.1"/>
		<path id="Path_1179" class="st0" d="M429.2,115.2c0.2-0.2,0.4-0.3,0.6-0.4c0.5-0.1,1,0.2,1.3,0.6c1,1.6,1.9,3.2,2.7,4.9
			c1.1,1.8,1.9,3.6,2.6,5.5c0.7,1.7,1.2,3.6,1.3,5.4c0.1,2.5-0.8,4.9-2.5,6.7c-2.6,2.6-6.8,2.8-9.6,0.5c-1.6-1.2-2.8-2.8-3.4-4.7
			c-0.4-1.7-0.3-3.5,0.3-5.1c0.7-2.2,1.6-4.4,2.7-6.5c0.6-1.2,1.3-2.5,2-3.7c0.4-0.6,0.7-1.2,1.1-1.9
			C428.6,116.1,428.8,115.6,429.2,115.2"/>
		<path id="Path_1180" class="st1" d="M429.3,115.1c0.1-0.2,0.3-0.2,0.5-0.3c0.4-0.1,0.8,0.1,1,0.4c0.8,1.2,1.4,2.5,2,3.7
			c0.8,1.3,1.5,2.7,2,4.2c0.6,1.3,0.9,2.7,1,4.1c0.1,1.9-0.6,3.7-1.9,5.1c-2,2-5.1,2.1-7.3,0.4c-1.2-0.9-2.1-2.1-2.6-3.6
			c-0.3-1.3-0.2-2.6,0.2-3.9c0.6-1.7,1.2-3.3,2-4.9c0.5-0.9,1-1.9,1.5-2.8c0.3-0.5,0.6-0.9,0.8-1.4
			C428.9,115.8,429.1,115.4,429.3,115.1"/>
		<path id="Path_1181" class="st2" d="M429.5,114.9c0.1-0.1,0.2-0.2,0.3-0.2c0.2,0,0.5,0.1,0.6,0.3c0.5,0.8,1,1.6,1.4,2.5
			c0.5,0.9,1,1.8,1.3,2.8c0.4,0.9,0.6,1.8,0.6,2.7c0,1.2-0.4,2.4-1.2,3.3c-1.3,1.3-3.4,1.4-4.8,0.2c-0.8-0.6-1.4-1.4-1.7-2.3
			c-0.2-0.8-0.1-1.7,0.2-2.5c0.4-1.1,0.8-2.2,1.3-3.2c0.3-0.6,0.6-1.2,1-1.8c0.2-0.3,0.4-0.6,0.6-0.9
			C429.2,115.4,429.3,115.2,429.5,114.9"/>
		<path id="Path_1182" class="st0" d="M429.2,110.9c0.2,0.2,0.4,0.3,0.6,0.4c0.5,0.1,1-0.2,1.3-0.6c1-1.6,1.9-3.2,2.7-4.9
			c1.1-1.8,1.9-3.6,2.6-5.5c0.7-1.7,1.2-3.6,1.3-5.4c0.1-2.5-0.8-4.9-2.5-6.7c-2.6-2.6-6.8-2.8-9.6-0.5c-1.6,1.2-2.8,2.8-3.4,4.7
			c-0.4,1.7-0.3,3.5,0.3,5.1c0.7,2.2,1.6,4.4,2.7,6.5c0.6,1.2,1.3,2.5,2,3.7c0.4,0.6,0.7,1.2,1.1,1.9
			C428.6,110,428.8,110.4,429.2,110.9"/>
		<path id="Path_1183" class="st1" d="M429.3,111c0.1,0.2,0.3,0.2,0.5,0.3c0.4,0.1,0.8-0.1,1-0.4c0.8-1.2,1.4-2.5,2-3.7
			c0.8-1.3,1.5-2.7,2-4.2c0.6-1.3,0.9-2.7,1-4.1c0.1-1.9-0.6-3.7-1.9-5.1c-2-2-5.1-2.2-7.3-0.4c-1.2,0.9-2.1,2.1-2.6,3.6
			c-0.3,1.3-0.2,2.6,0.2,3.9c0.6,1.7,1.2,3.3,2,4.9c0.5,0.9,1,1.9,1.5,2.8c0.3,0.5,0.6,0.9,0.8,1.4
			C428.9,110.3,429.1,110.7,429.3,111"/>
		<path id="Path_1184" class="st2" d="M429.5,111.1c0.1,0.1,0.2,0.2,0.3,0.2c0.2,0,0.5-0.1,0.6-0.3c0.5-0.8,1-1.6,1.4-2.5
			c0.5-0.9,1-1.8,1.3-2.8c0.4-0.9,0.6-1.8,0.6-2.7c0-1.2-0.4-2.4-1.2-3.3c-1.3-1.3-3.4-1.4-4.8-0.2c-0.8,0.6-1.4,1.4-1.7,2.3
			c-0.2,0.8-0.1,1.7,0.2,2.5c0.4,1.1,0.8,2.2,1.3,3.2c0.3,0.6,0.6,1.2,1,1.8c0.2,0.3,0.4,0.6,0.6,0.9
			C429.2,110.7,429.3,110.9,429.5,111.1"/>
		<path id="Path_1185" class="st0" d="M427.7,113.1c0.2,0,0.5-0.2,0.7-0.3c0.3-0.4,0.4-0.9,0.2-1.4c-0.8-1.7-1.8-3.3-2.8-4.9
			c-0.9-1.8-2.1-3.5-3.3-5.1c-1.1-1.5-2.4-2.8-4-3.9c-2.1-1.4-4.6-1.9-7-1.4c-3.6,0.8-5.9,4.3-5.4,7.9c0.2,2,1,3.8,2.2,5.3
			c1.2,1.2,2.8,2.1,4.5,2.4c2.3,0.5,4.6,0.9,6.9,1.1c1.4,0.1,2.8,0.2,4.2,0.2c0.7,0,1.5,0,2.2,0
			C426.6,113.2,427.1,113.2,427.7,113.1"/>
		<path id="Path_1186" class="st1" d="M427.8,113.1c0.2,0,0.4-0.1,0.5-0.2c0.3-0.3,0.3-0.7,0.1-1.1c-0.6-1.3-1.4-2.5-2.1-3.7
			c-0.7-1.4-1.6-2.7-2.5-3.9c-0.8-1.2-1.9-2.2-3-3c-1.6-1.1-3.5-1.4-5.3-1c-2.7,0.7-4.5,3.3-4.1,6c0.1,1.5,0.7,2.9,1.7,4.1
			c0.9,0.9,2.1,1.6,3.4,1.8c1.7,0.4,3.5,0.7,5.3,0.8c1.1,0.1,2.1,0.1,3.2,0.2c0.5,0,1.1,0,1.6,0C427,113.1,427.4,113.1,427.8,113.1"
			/>
		<path id="Path_1187" class="st2" d="M428,113c0.1,0,0.2-0.1,0.3-0.2c0.2-0.2,0.2-0.5,0.1-0.7c-0.4-0.8-0.9-1.7-1.4-2.4
			c-0.5-0.9-1-1.8-1.7-2.6c-0.5-0.8-1.2-1.4-2-2c-1-0.7-2.3-0.9-3.5-0.7c-1.8,0.4-3,2.2-2.7,4c0.1,1,0.5,1.9,1.1,2.7
			c0.6,0.6,1.4,1,2.2,1.2c1.1,0.3,2.3,0.4,3.5,0.5c0.7,0.1,1.4,0.1,2.1,0.1c0.4,0,0.7,0,1.1,0C427.5,113,427.7,113,428,113"/>
		<path id="Path_1188" class="st0" d="M432.4,112.9c-0.2,0-0.5-0.2-0.7-0.3c-0.3-0.4-0.4-0.9-0.2-1.4c0.8-1.7,1.8-3.3,2.8-4.9
			c0.9-1.8,2.1-3.5,3.3-5.1c1.1-1.5,2.4-2.8,4-3.9c2.1-1.4,4.6-1.9,7-1.4c3.6,0.8,5.9,4.3,5.4,7.9c-0.2,2-1,3.8-2.2,5.3
			c-1.2,1.2-2.8,2.1-4.5,2.4c-2.3,0.5-4.6,0.9-6.9,1.1c-1.4,0.1-2.8,0.2-4.2,0.2c-0.7,0-1.5,0-2.2,0
			C433.5,113,432.9,113,432.4,112.9"/>
		<path id="Path_1189" class="st1" d="M432.2,112.9c-0.2,0-0.4-0.1-0.5-0.2c-0.2-0.3-0.3-0.7-0.1-1.1c0.6-1.3,1.4-2.5,2.1-3.7
			c0.7-1.4,1.6-2.7,2.5-3.9c0.8-1.2,1.9-2.2,3-3c1.6-1.1,3.5-1.4,5.3-1c2.7,0.7,4.5,3.3,4.1,6c-0.1,1.5-0.7,2.9-1.7,4.1
			c-0.9,0.9-2.1,1.6-3.4,1.8c-1.7,0.4-3.5,0.7-5.3,0.8c-1.1,0.1-2.1,0.1-3.2,0.2c-0.5,0-1.1,0-1.6,0
			C433,112.9,432.6,112.9,432.2,112.9"/>
		<path id="Path_1190" class="st2" d="M432,112.8c-0.1,0-0.2-0.1-0.3-0.2c-0.2-0.2-0.2-0.5-0.1-0.7c0.4-0.8,0.9-1.7,1.4-2.4
			c0.5-0.9,1-1.8,1.7-2.6c0.5-0.8,1.2-1.4,2-2c1-0.7,2.3-0.9,3.5-0.7c1.8,0.4,3,2.2,2.7,4c-0.1,1-0.5,1.9-1.1,2.7
			c-0.6,0.6-1.4,1-2.2,1.2c-1.1,0.3-2.3,0.4-3.5,0.5c-0.7,0.1-1.4,0.1-2.1,0.1c-0.4,0-0.7,0-1.1,0
			C432.6,112.8,432.3,112.8,432,112.8"/>
		<path id="Path_1191" class="st0" d="M427.5,113.6c0.2,0,0.5,0.2,0.7,0.3c0.3,0.4,0.4,0.9,0.2,1.4c-0.8,1.7-1.8,3.3-2.8,4.9
			c-0.9,1.8-2.1,3.5-3.3,5.1c-1.1,1.5-2.4,2.8-4,3.9c-2.1,1.4-4.6,1.9-7,1.4c-3.6-0.9-5.9-4.3-5.4-7.9c0.2-2,1-3.8,2.2-5.3
			c1.2-1.2,2.8-2.1,4.5-2.4c2.3-0.5,4.6-0.9,6.9-1.1c1.4-0.1,2.8-0.2,4.2-0.2c0.7,0,1.5,0,2.2,0C426.4,113.6,427,113.5,427.5,113.6"
			/>
		<path id="Path_1192" class="st1" d="M427.7,113.7c0.2,0,0.4,0.1,0.5,0.2c0.2,0.3,0.3,0.7,0.1,1.1c-0.6,1.3-1.4,2.5-2.1,3.7
			c-0.7,1.4-1.6,2.7-2.5,3.9c-0.8,1.2-1.9,2.2-3,3c-1.6,1.1-3.5,1.4-5.3,1c-2.7-0.7-4.5-3.3-4.1-6c0.1-1.5,0.7-2.9,1.7-4.1
			c0.9-0.9,2.1-1.6,3.4-1.8c1.7-0.4,3.5-0.7,5.3-0.8c1.1-0.1,2.1-0.1,3.2-0.2c0.5,0,1.1,0,1.6,0
			C426.9,113.7,427.3,113.7,427.7,113.7"/>
		<path id="Path_1193" class="st2" d="M427.9,113.8c0.1,0,0.2,0.1,0.3,0.2c0.2,0.2,0.2,0.5,0.1,0.7c-0.4,0.8-0.9,1.7-1.4,2.4
			c-0.5,0.9-1,1.8-1.7,2.6c-0.5,0.8-1.2,1.4-2,2c-1,0.7-2.3,0.9-3.5,0.7c-1.8-0.4-3-2.2-2.7-4c0.1-1,0.5-1.9,1.1-2.7
			c0.6-0.6,1.4-1,2.2-1.2c1.1-0.3,2.3-0.4,3.5-0.5c0.7-0.1,1.4-0.1,2.1-0.1c0.4,0,0.7,0,1.1,0C427.3,113.8,427.6,113.7,427.9,113.8"
			/>
		<path id="Path_1194" class="st0" d="M432.5,113.4c-0.2,0-0.5,0.2-0.7,0.3c-0.3,0.4-0.4,0.9-0.2,1.4c0.8,1.7,1.8,3.3,2.8,4.9
			c0.9,1.8,2.1,3.5,3.3,5.1c1.1,1.5,2.4,2.8,4,3.9c2.1,1.4,4.6,1.9,7,1.4c3.6-0.9,5.9-4.3,5.4-7.9c-0.2-2-1-3.8-2.2-5.3
			c-1.2-1.2-2.8-2.1-4.5-2.4c-2.3-0.5-4.6-0.9-6.9-1.1c-1.4-0.1-2.8-0.2-4.2-0.2c-0.7,0-1.5,0-2.2,0
			C433.6,113.4,433,113.4,432.5,113.4"/>
		<path id="Path_1195" class="st1" d="M432.3,113.5c-0.2,0-0.4,0.1-0.5,0.2c-0.2,0.3-0.3,0.7-0.1,1.1c0.6,1.3,1.4,2.5,2.1,3.7
			c0.7,1.4,1.6,2.7,2.5,3.9c0.8,1.2,1.9,2.2,3,3c1.6,1.1,3.5,1.4,5.3,1c2.7-0.7,4.5-3.3,4.1-6c-0.1-1.5-0.7-2.9-1.7-4.1
			c-0.9-0.9-2.1-1.6-3.4-1.8c-1.7-0.4-3.5-0.7-5.3-0.8c-1.1-0.1-2.1-0.1-3.2-0.2c-0.5,0-1.1,0-1.6,0
			C433.2,113.5,432.8,113.5,432.3,113.5"/>
		<path id="Path_1196" class="st2" d="M432.1,113.6c-0.1,0-0.2,0.1-0.3,0.2c-0.2,0.2-0.2,0.5-0.1,0.7c0.4,0.8,0.9,1.7,1.4,2.4
			c0.5,0.9,1,1.8,1.7,2.6c0.5,0.8,1.2,1.4,2,2c1,0.7,2.3,0.9,3.5,0.7c1.8-0.4,3-2.2,2.7-4c-0.1-1-0.5-1.9-1.1-2.7
			c-0.6-0.6-1.4-1-2.2-1.2c-1.1-0.3-2.3-0.4-3.5-0.5c-0.7-0.1-1.4-0.1-2.1-0.1c-0.4,0-0.7,0-1.1,0
			C432.7,113.6,432.4,113.6,432.1,113.6"/>
		<path id="Path_1197" class="st0" d="M354.3,209.2c0.2-0.2,0.4-0.3,0.6-0.4c0.5-0.1,1,0.1,1.3,0.6c1,1.6,1.9,3.2,2.7,4.9
			c1.1,1.8,1.9,3.6,2.6,5.5c0.7,1.7,1.2,3.6,1.3,5.4c0.1,2.5-0.8,4.9-2.5,6.7c-2.6,2.6-6.8,2.8-9.6,0.5c-1.6-1.2-2.8-2.8-3.4-4.7
			c-0.4-1.7-0.3-3.5,0.3-5.1c0.7-2.2,1.6-4.4,2.7-6.5c0.6-1.2,1.3-2.5,2-3.7c0.4-0.6,0.7-1.2,1.1-1.9
			C353.7,210.1,354,209.6,354.3,209.2"/>
		<path id="Path_1198" class="st1" d="M354.5,209.1c0.1-0.1,0.3-0.2,0.5-0.3c0.4-0.1,0.8,0.1,1,0.4c0.8,1.2,1.4,2.5,2,3.7
			c0.8,1.3,1.5,2.7,2,4.2c0.6,1.3,0.9,2.7,1,4.1c0.1,1.9-0.6,3.7-1.9,5.1c-2,2-5.1,2.1-7.3,0.4c-1.2-0.9-2.1-2.1-2.6-3.6
			c-0.3-1.3-0.2-2.6,0.2-3.9c0.6-1.7,1.2-3.3,2-4.9c0.5-0.9,1-1.9,1.5-2.8c0.3-0.5,0.6-0.9,0.8-1.4
			C354,209.8,354.2,209.4,354.5,209.1"/>
		<path id="Path_1199" class="st2" d="M354.6,208.9c0.1-0.1,0.2-0.2,0.3-0.2c0.2,0,0.5,0.1,0.6,0.3c0.5,0.8,1,1.6,1.4,2.5
			c0.5,0.9,1,1.8,1.3,2.8c0.4,0.9,0.6,1.8,0.6,2.7c0,1.2-0.4,2.4-1.2,3.4c-1.3,1.3-3.4,1.4-4.8,0.2c-0.8-0.6-1.4-1.4-1.7-2.4
			c-0.2-0.8-0.1-1.7,0.2-2.5c0.4-1.1,0.8-2.2,1.3-3.2c0.3-0.6,0.6-1.2,1-1.9c0.2-0.3,0.4-0.6,0.6-0.9
			C354.3,209.4,354.5,209.2,354.6,208.9"/>
		<path id="Path_1200" class="st0" d="M354.3,204.9c0.2,0.2,0.4,0.3,0.6,0.4c0.5,0.1,1-0.1,1.3-0.6c1-1.6,1.9-3.2,2.7-4.9
			c1.1-1.8,1.9-3.6,2.6-5.5c0.7-1.7,1.2-3.6,1.3-5.4c0.1-2.5-0.8-4.9-2.5-6.7c-2.6-2.6-6.8-2.8-9.6-0.5c-1.6,1.2-2.8,2.8-3.4,4.7
			c-0.4,1.7-0.3,3.5,0.3,5.1c0.7,2.2,1.6,4.4,2.7,6.5c0.6,1.2,1.3,2.5,2,3.7c0.4,0.6,0.7,1.2,1.1,1.9
			C353.7,204,354,204.4,354.3,204.9"/>
		<path id="Path_1201" class="st1" d="M354.5,205c0.1,0.1,0.3,0.2,0.5,0.3c0.4,0.1,0.8-0.1,1-0.4c0.8-1.2,1.4-2.5,2-3.7
			c0.8-1.3,1.5-2.7,2-4.2c0.6-1.3,0.9-2.7,1-4.1c0.1-1.9-0.6-3.7-1.9-5.1c-2-2-5.1-2.1-7.3-0.4c-1.2,0.9-2.1,2.1-2.6,3.6
			c-0.3,1.3-0.2,2.6,0.2,3.9c0.6,1.7,1.2,3.3,2,4.9c0.5,0.9,1,1.9,1.5,2.8c0.3,0.5,0.6,0.9,0.8,1.4C354,204.3,354.2,204.7,354.5,205
			"/>
		<path id="Path_1202" class="st2" d="M354.6,205.1c0.1,0.1,0.2,0.2,0.3,0.2c0.2,0,0.5-0.1,0.6-0.3c0.5-0.8,1-1.6,1.4-2.5
			c0.5-0.9,1-1.8,1.3-2.8c0.4-0.9,0.6-1.8,0.6-2.7c0-1.2-0.4-2.4-1.2-3.4c-1.3-1.3-3.4-1.4-4.8-0.2c-0.8,0.6-1.4,1.4-1.7,2.4
			c-0.2,0.8-0.1,1.7,0.2,2.5c0.4,1.1,0.8,2.2,1.3,3.2c0.3,0.6,0.6,1.2,1,1.9c0.2,0.3,0.4,0.6,0.6,0.9
			C354.3,204.7,354.5,204.9,354.6,205.1"/>
		<path id="Path_1203" class="st0" d="M352.8,207.1c0.2,0,0.5-0.1,0.7-0.3c0.3-0.4,0.4-0.9,0.2-1.4c-0.8-1.7-1.8-3.3-2.8-4.9
			c-0.9-1.8-2.1-3.5-3.3-5.1c-1.1-1.5-2.4-2.9-4-3.9c-2.1-1.4-4.6-1.9-7-1.4c-3.6,0.9-5.9,4.3-5.4,7.9c0.2,2,1,3.8,2.2,5.3
			c1.2,1.2,2.8,2.1,4.5,2.4c2.3,0.5,4.6,0.9,6.9,1.1c1.4,0.1,2.8,0.2,4.2,0.2c0.7,0,1.5,0,2.2,0
			C351.7,207.2,352.3,207.2,352.8,207.1"/>
		<path id="Path_1204" class="st1" d="M353,207.1c0.2,0,0.4-0.1,0.5-0.2c0.2-0.3,0.3-0.7,0.1-1.1c-0.6-1.3-1.4-2.5-2.1-3.7
			c-0.7-1.4-1.6-2.7-2.5-3.9c-0.8-1.2-1.9-2.2-3-3c-1.6-1.1-3.5-1.4-5.3-1c-2.7,0.6-4.5,3.3-4.1,6c0.1,1.5,0.7,2.9,1.7,4.1
			c0.9,0.9,2.1,1.6,3.4,1.8c1.7,0.4,3.5,0.7,5.3,0.8c1.1,0.1,2.1,0.1,3.2,0.2c0.5,0,1.1,0,1.6,0C352.1,207.1,352.5,207.1,353,207.1"
			/>
		<path id="Path_1205" class="st2" d="M353.1,207c0.1,0,0.2-0.1,0.3-0.2c0.2-0.2,0.2-0.5,0.1-0.7c-0.4-0.8-0.9-1.6-1.4-2.4
			c-0.5-0.9-1-1.8-1.7-2.6c-0.5-0.8-1.2-1.4-2-2c-1-0.7-2.3-0.9-3.5-0.7c-1.8,0.4-3,2.1-2.7,4c0.1,1,0.5,1.9,1.1,2.7
			c0.6,0.6,1.4,1,2.2,1.2c1.1,0.3,2.3,0.4,3.5,0.5c0.7,0.1,1.4,0.1,2.1,0.1c0.4,0,0.7,0,1.1,0C352.6,207,352.9,207,353.1,207"/>
		<path id="Path_1206" class="st0" d="M357.5,206.9c-0.2,0-0.5-0.1-0.7-0.3c-0.3-0.4-0.4-0.9-0.2-1.4c0.8-1.7,1.8-3.3,2.8-4.9
			c0.9-1.8,2.1-3.5,3.3-5.1c1.1-1.5,2.4-2.9,4-3.9c2.1-1.4,4.6-1.9,7-1.4c3.6,0.9,5.9,4.3,5.4,7.9c-0.2,2-1,3.8-2.2,5.3
			c-1.2,1.2-2.8,2.1-4.5,2.4c-2.3,0.5-4.6,0.9-6.9,1.1c-1.4,0.1-2.8,0.2-4.2,0.2c-0.7,0-1.5,0-2.2,0C358.6,207,358,207,357.5,206.9"
			/>
		<path id="Path_1207" class="st1" d="M357.4,206.9c-0.2,0-0.4-0.1-0.5-0.2c-0.2-0.3-0.3-0.7-0.1-1.1c0.6-1.3,1.4-2.5,2.1-3.7
			c0.7-1.4,1.6-2.7,2.5-3.9c0.8-1.2,1.9-2.2,3-3c1.6-1.1,3.5-1.4,5.3-1c2.7,0.6,4.5,3.3,4.1,6c-0.1,1.5-0.7,2.9-1.7,4.1
			c-0.9,0.9-2.1,1.6-3.4,1.8c-1.7,0.4-3.5,0.7-5.3,0.8c-1.1,0.1-2.1,0.1-3.2,0.2c-0.5,0-1.1,0-1.6,0
			C358.2,206.9,357.8,206.9,357.4,206.9"/>
		<path id="Path_1208" class="st2" d="M357.2,206.8c-0.1,0-0.2-0.1-0.3-0.2c-0.2-0.2-0.2-0.5-0.1-0.7c0.4-0.8,0.9-1.6,1.4-2.4
			c0.5-0.9,1-1.8,1.7-2.6c0.5-0.8,1.2-1.4,2-2c1-0.7,2.3-0.9,3.5-0.7c1.8,0.4,3,2.1,2.7,4c-0.1,1-0.5,1.9-1.1,2.7
			c-0.6,0.6-1.4,1-2.2,1.2c-1.1,0.3-2.3,0.4-3.5,0.5c-0.7,0.1-1.4,0.1-2.1,0.1c-0.4,0-0.7,0-1.1,0
			C357.7,206.8,357.4,206.8,357.2,206.8"/>
		<path id="Path_1209" class="st0" d="M352.7,207.6c0.2,0,0.5,0.1,0.7,0.3c0.3,0.4,0.4,0.9,0.2,1.4c-0.8,1.7-1.8,3.3-2.8,4.9
			c-0.9,1.8-2.1,3.5-3.3,5.1c-1.1,1.5-2.4,2.9-4,3.9c-2.1,1.4-4.6,1.9-7,1.4c-3.6-0.9-5.9-4.3-5.4-7.9c0.2-2,1-3.8,2.2-5.3
			c1.2-1.2,2.8-2.1,4.5-2.4c2.3-0.5,4.6-0.9,6.9-1.1c1.4-0.1,2.8-0.2,4.2-0.2c0.7,0,1.5,0,2.2,0
			C351.6,207.6,352.1,207.6,352.7,207.6"/>
		<path id="Path_1210" class="st1" d="M352.8,207.7c0.2,0,0.4,0.1,0.5,0.2c0.2,0.3,0.3,0.7,0.1,1.1c-0.6,1.3-1.4,2.5-2.1,3.7
			c-0.7,1.4-1.6,2.7-2.5,3.9c-0.8,1.2-1.9,2.2-3,3c-1.6,1.1-3.5,1.4-5.3,1c-2.7-0.6-4.5-3.3-4.1-6c0.1-1.5,0.7-2.9,1.7-4.1
			c0.9-0.9,2.1-1.6,3.4-1.8c1.7-0.4,3.5-0.7,5.3-0.8c1.1-0.1,2.1-0.1,3.2-0.2c0.5,0,1.1,0,1.6,0C352,207.7,352.4,207.7,352.8,207.7"
			/>
		<path id="Path_1211" class="st2" d="M353,207.8c0.1,0,0.2,0.1,0.3,0.2c0.2,0.2,0.2,0.5,0.1,0.7c-0.4,0.8-0.9,1.6-1.4,2.4
			c-0.5,0.9-1,1.8-1.7,2.6c-0.5,0.8-1.2,1.4-2,2c-1,0.7-2.3,0.9-3.5,0.7c-1.8-0.4-3-2.1-2.7-4c0.1-1,0.5-1.9,1.1-2.7
			c0.6-0.6,1.4-1,2.2-1.2c1.1-0.3,2.3-0.4,3.5-0.5c0.7-0.1,1.4-0.1,2.1-0.1c0.4,0,0.7,0,1.1,0C352.5,207.8,352.7,207.7,353,207.8"/>
		<path id="Path_1212" class="st0" d="M357.6,207.4c-0.2,0-0.5,0.1-0.7,0.3c-0.3,0.4-0.4,0.9-0.2,1.4c0.8,1.7,1.8,3.3,2.8,4.9
			c0.9,1.8,2.1,3.5,3.3,5.1c1.1,1.5,2.4,2.9,4,3.9c2.1,1.4,4.6,1.9,7,1.4c3.6-0.9,5.9-4.3,5.4-7.9c-0.2-2-1-3.8-2.2-5.3
			c-1.2-1.2-2.8-2.1-4.5-2.4c-2.3-0.5-4.6-0.9-6.9-1.1c-1.4-0.1-2.8-0.2-4.2-0.2c-0.7,0-1.5,0-2.2,0
			C358.7,207.4,358.2,207.4,357.6,207.4"/>
		<path id="Path_1213" class="st1" d="M357.5,207.5c-0.2,0-0.4,0.1-0.5,0.2c-0.2,0.3-0.3,0.7-0.1,1.1c0.6,1.3,1.4,2.5,2.1,3.7
			c0.7,1.4,1.6,2.7,2.5,3.9c0.8,1.2,1.9,2.2,3,3c1.6,1,3.5,1.4,5.3,1c2.7-0.6,4.5-3.3,4.1-6c-0.1-1.5-0.7-2.9-1.7-4.1
			c-0.9-0.9-2.1-1.6-3.4-1.8c-1.7-0.4-3.5-0.7-5.3-0.8c-1.1-0.1-2.1-0.1-3.2-0.2c-0.5,0-1.1,0-1.6,0
			C358.3,207.5,357.9,207.5,357.5,207.5"/>
		<path id="Path_1214" class="st2" d="M357.3,207.6c-0.1,0-0.2,0.1-0.3,0.2c-0.2,0.2-0.2,0.5-0.1,0.7c0.4,0.8,0.9,1.6,1.4,2.4
			c0.5,0.9,1,1.8,1.7,2.6c0.5,0.8,1.2,1.4,2,2c1,0.7,2.3,0.9,3.5,0.7c1.8-0.4,3-2.1,2.7-4c-0.1-1-0.5-1.9-1.1-2.7
			c-0.6-0.6-1.4-1-2.2-1.2c-1.1-0.3-2.3-0.4-3.5-0.5c-0.7-0.1-1.4-0.1-2.1-0.1c-0.4,0-0.7,0-1.1,0
			C357.9,207.6,357.6,207.6,357.3,207.6"/>
		<path id="Path_1215" class="st0" d="M392.5,166.7c0.2-0.2,0.4-0.3,0.6-0.4c0.5-0.1,1,0.1,1.3,0.6c1,1.6,1.9,3.2,2.7,4.9
			c1.1,1.8,1.9,3.6,2.6,5.5c0.7,1.7,1.2,3.6,1.3,5.4c0.1,2.5-0.8,4.9-2.5,6.7c-2.6,2.6-6.8,2.8-9.6,0.5c-1.6-1.2-2.8-2.8-3.4-4.7
			c-0.4-1.7-0.3-3.5,0.3-5.1c0.7-2.2,1.6-4.4,2.7-6.5c0.6-1.2,1.3-2.5,2-3.7c0.4-0.6,0.7-1.2,1.1-1.9
			C391.9,167.7,392.2,167.2,392.5,166.7"/>
		<path id="Path_1216" class="st1" d="M392.6,166.6c0.1-0.1,0.3-0.2,0.5-0.3c0.4-0.1,0.8,0.1,1,0.4c0.8,1.2,1.4,2.5,2,3.7
			c0.8,1.3,1.5,2.7,2,4.2c0.6,1.3,0.9,2.7,1,4.1c0.1,1.9-0.6,3.7-1.9,5.1c-2,2-5.1,2.1-7.3,0.4c-1.2-0.9-2.1-2.1-2.6-3.6
			c-0.3-1.3-0.2-2.6,0.2-3.9c0.6-1.7,1.2-3.3,2-4.9c0.5-0.9,1-1.9,1.5-2.8c0.3-0.5,0.6-0.9,0.8-1.4
			C392.2,167.3,392.4,167,392.6,166.6"/>
		<path id="Path_1217" class="st2" d="M392.8,166.5c0.1-0.1,0.2-0.2,0.3-0.2c0.2,0,0.5,0.1,0.6,0.3c0.5,0.8,1,1.6,1.4,2.5
			c0.5,0.9,1,1.8,1.3,2.8c0.4,0.9,0.6,1.8,0.6,2.7c0,1.2-0.4,2.4-1.2,3.4c-1.3,1.3-3.4,1.4-4.8,0.2c-0.8-0.6-1.4-1.4-1.7-2.4
			c-0.2-0.8-0.1-1.7,0.2-2.5c0.4-1.1,0.8-2.2,1.3-3.2c0.3-0.6,0.6-1.2,1-1.9c0.2-0.3,0.4-0.6,0.6-0.9
			C392.5,167,392.7,166.8,392.8,166.5"/>
		<path id="Path_1218" class="st0" d="M392.5,162.5c0.2,0.2,0.4,0.3,0.6,0.4c0.5,0.1,1-0.1,1.3-0.6c1-1.6,1.9-3.2,2.7-4.9
			c1.1-1.8,1.9-3.6,2.6-5.5c0.7-1.7,1.2-3.6,1.3-5.4c0.1-2.5-0.8-4.9-2.5-6.7c-2.6-2.6-6.8-2.8-9.6-0.5c-1.6,1.2-2.8,2.8-3.4,4.7
			c-0.4,1.7-0.3,3.5,0.3,5.1c0.7,2.2,1.6,4.4,2.7,6.5c0.6,1.2,1.3,2.5,2,3.7c0.4,0.6,0.7,1.2,1.1,1.9
			C391.9,161.6,392.2,162,392.5,162.5"/>
		<path id="Path_1219" class="st1" d="M392.6,162.6c0.1,0.1,0.3,0.2,0.5,0.3c0.4,0.1,0.8-0.1,1-0.4c0.8-1.2,1.4-2.5,2-3.7
			c0.8-1.3,1.5-2.7,2-4.2c0.6-1.3,0.9-2.7,1-4.1c0.1-1.9-0.6-3.7-1.9-5.1c-2-2-5.1-2.1-7.3-0.4c-1.2,0.9-2.1,2.1-2.6,3.6
			c-0.3,1.3-0.2,2.6,0.2,3.9c0.6,1.7,1.2,3.3,2,4.9c0.5,0.9,1,1.9,1.5,2.8c0.3,0.5,0.6,0.9,0.8,1.4
			C392.2,161.9,392.4,162.2,392.6,162.6"/>
		<path id="Path_1220" class="st2" d="M392.8,162.7c0.1,0.1,0.2,0.2,0.3,0.2c0.2,0,0.5-0.1,0.6-0.3c0.5-0.8,1-1.6,1.4-2.5
			c0.5-0.9,1-1.8,1.3-2.8c0.4-0.9,0.6-1.8,0.6-2.7c0-1.2-0.4-2.4-1.2-3.4c-1.3-1.3-3.4-1.4-4.8-0.2c-0.8,0.6-1.4,1.4-1.7,2.4
			c-0.2,0.8-0.1,1.7,0.2,2.5c0.4,1.1,0.8,2.2,1.3,3.2c0.3,0.6,0.6,1.2,1,1.9c0.2,0.3,0.4,0.6,0.6,0.9
			C392.5,162.2,392.7,162.5,392.8,162.7"/>
		<path id="Path_1221" class="st0" d="M391,164.7c0.2,0,0.5-0.1,0.7-0.3c0.3-0.4,0.4-0.9,0.2-1.4c-0.8-1.7-1.8-3.3-2.8-4.9
			c-0.9-1.8-2.1-3.5-3.3-5.1c-1.1-1.5-2.4-2.9-4-3.9c-2.1-1.4-4.6-1.9-7-1.4c-3.6,0.9-5.9,4.3-5.4,7.9c0.2,2,1,3.8,2.2,5.3
			c1.2,1.2,2.8,2.1,4.5,2.4c2.3,0.5,4.6,0.9,6.9,1.1c1.4,0.1,2.8,0.2,4.2,0.2c0.7,0,1.5,0,2.2,0C389.9,164.8,390.5,164.8,391,164.7"
			/>
		<path id="Path_1222" class="st1" d="M391.2,164.6c0.2,0,0.4-0.1,0.5-0.2c0.2-0.3,0.3-0.7,0.1-1.1c-0.6-1.3-1.4-2.5-2.1-3.7
			c-0.7-1.4-1.6-2.7-2.5-3.9c-0.8-1.2-1.9-2.2-3-3c-1.6-1.1-3.5-1.4-5.3-1c-2.7,0.6-4.5,3.3-4.1,6c0.1,1.5,0.7,2.9,1.7,4.1
			c0.9,0.9,2.1,1.6,3.4,1.8c1.7,0.4,3.5,0.7,5.3,0.8c1.1,0.1,2.1,0.1,3.2,0.2c0.5,0,1.1,0,1.6,0
			C390.3,164.7,390.7,164.7,391.2,164.6"/>
		<path id="Path_1223" class="st2" d="M391.4,164.6c0.1,0,0.2-0.1,0.3-0.2c0.2-0.2,0.2-0.5,0.1-0.7c-0.4-0.8-0.9-1.6-1.4-2.4
			c-0.5-0.9-1-1.8-1.7-2.6c-0.5-0.8-1.2-1.4-2-2c-1-0.7-2.3-0.9-3.5-0.7c-1.8,0.4-3,2.1-2.7,4c0.1,1,0.5,1.9,1.1,2.7
			c0.6,0.6,1.4,1,2.2,1.2c1.1,0.3,2.3,0.4,3.5,0.5c0.7,0.1,1.4,0.1,2.1,0.1c0.4,0,0.7,0,1.1,0C390.8,164.6,391.1,164.6,391.4,164.6"
			/>
		<path id="Path_1224" class="st0" d="M395.7,164.5c-0.2,0-0.5-0.1-0.7-0.3c-0.3-0.4-0.4-0.9-0.2-1.4c0.8-1.7,1.8-3.3,2.8-4.9
			c0.9-1.8,2.1-3.5,3.3-5.1c1.1-1.5,2.4-2.9,4-3.9c2.1-1.4,4.6-1.9,7-1.4c3.6,0.9,5.9,4.3,5.4,7.9c-0.2,2-1,3.8-2.2,5.3
			c-1.2,1.2-2.8,2.1-4.5,2.4c-2.3,0.5-4.6,0.9-6.9,1.1c-1.4,0.1-2.8,0.2-4.2,0.2c-0.7,0-1.5,0-2.2,0
			C396.8,164.6,396.2,164.6,395.7,164.5"/>
		<path id="Path_1225" class="st1" d="M395.5,164.5c-0.2,0-0.4-0.1-0.5-0.2c-0.2-0.3-0.3-0.7-0.1-1.1c0.6-1.3,1.4-2.5,2.1-3.7
			c0.7-1.4,1.6-2.7,2.5-3.9c0.8-1.2,1.9-2.2,3-3c1.6-1.1,3.5-1.4,5.3-1c2.7,0.6,4.5,3.3,4.1,6c-0.1,1.5-0.7,2.9-1.7,4.1
			c-0.9,0.9-2.1,1.6-3.4,1.8c-1.7,0.4-3.5,0.7-5.3,0.8c-1.1,0.1-2.1,0.1-3.2,0.2c-0.5,0-1.1,0-1.6,0
			C396.4,164.5,396,164.5,395.5,164.5"/>
		<path id="Path_1226" class="st2" d="M395.4,164.4c-0.1,0-0.2-0.1-0.3-0.2c-0.2-0.2-0.2-0.5-0.1-0.7c0.4-0.8,0.9-1.6,1.4-2.4
			c0.5-0.9,1-1.8,1.7-2.6c0.5-0.8,1.2-1.4,2-2c1-0.7,2.3-0.9,3.5-0.7c1.8,0.4,3,2.1,2.7,4c-0.1,1-0.5,1.9-1.1,2.7
			c-0.6,0.6-1.4,1-2.2,1.2c-1.1,0.3-2.3,0.4-3.5,0.5c-0.7,0.1-1.4,0.1-2.1,0.1c-0.4,0-0.7,0-1.1,0
			C395.9,164.4,395.6,164.4,395.4,164.4"/>
		<path id="Path_1227" class="st0" d="M390.9,165.2c0.2,0,0.5,0.1,0.7,0.3c0.3,0.4,0.4,0.9,0.2,1.4c-0.8,1.7-1.8,3.3-2.8,4.9
			c-0.9,1.8-2.1,3.5-3.3,5.1c-1.1,1.5-2.4,2.9-4,3.9c-2.1,1.4-4.6,1.9-7,1.4c-3.6-0.9-5.9-4.3-5.4-7.9c0.2-2,1-3.8,2.2-5.3
			c1.2-1.2,2.8-2.1,4.5-2.4c2.3-0.5,4.6-0.9,6.9-1.1c1.4-0.1,2.8-0.2,4.2-0.2c0.7,0,1.5,0,2.2,0
			C389.8,165.2,390.3,165.1,390.9,165.2"/>
		<path id="Path_1228" class="st1" d="M391,165.3c0.2,0,0.4,0.1,0.5,0.2c0.3,0.3,0.3,0.7,0.1,1.1c-0.6,1.3-1.4,2.5-2.1,3.7
			c-0.7,1.4-1.6,2.7-2.5,3.9c-0.8,1.2-1.9,2.2-3,3c-1.6,1.1-3.5,1.4-5.3,1c-2.7-0.6-4.5-3.3-4.1-6c0.1-1.5,0.7-2.9,1.7-4.1
			c0.9-0.9,2.1-1.6,3.4-1.8c1.7-0.4,3.5-0.7,5.3-0.8c1.1-0.1,2.1-0.1,3.2-0.2c0.5,0,1.1,0,1.6,0C390.2,165.3,390.6,165.3,391,165.3"
			/>
		<path id="Path_1229" class="st2" d="M391.2,165.4c0.1,0,0.2,0.1,0.3,0.2c0.2,0.2,0.2,0.5,0.1,0.7c-0.4,0.8-0.9,1.6-1.4,2.4
			c-0.5,0.9-1,1.8-1.7,2.6c-0.5,0.8-1.2,1.4-2,2c-1,0.7-2.3,0.9-3.5,0.7c-1.8-0.4-3-2.1-2.7-4c0.1-1,0.5-1.9,1.1-2.7
			c0.6-0.6,1.4-1,2.2-1.2c1.1-0.3,2.3-0.4,3.5-0.5c0.7-0.1,1.4-0.1,2.1-0.1c0.4,0,0.7,0,1.1,0C390.7,165.3,390.9,165.3,391.2,165.4"
			/>
		<path id="Path_1230" class="st0" d="M395.8,165c-0.2,0-0.5,0.1-0.7,0.3c-0.3,0.4-0.4,0.9-0.2,1.4c0.8,1.7,1.8,3.3,2.8,4.9
			c0.9,1.8,2.1,3.5,3.3,5.1c1.1,1.5,2.4,2.9,4,3.9c2.1,1.4,4.6,1.9,7,1.4c3.6-0.9,5.9-4.3,5.4-7.9c-0.2-2-1-3.8-2.2-5.3
			c-1.2-1.2-2.8-2.1-4.5-2.4c-2.3-0.5-4.6-0.9-6.9-1.1c-1.4-0.1-2.8-0.2-4.2-0.2c-0.7,0-1.5,0-2.2,0
			C396.9,165,396.4,164.9,395.8,165"/>
		<path id="Path_1231" class="st1" d="M395.7,165.1c-0.2,0-0.4,0.1-0.5,0.2c-0.2,0.3-0.3,0.7-0.1,1.1c0.6,1.3,1.4,2.5,2.1,3.7
			c0.7,1.4,1.6,2.7,2.5,3.9c0.8,1.2,1.9,2.2,3,3c1.6,1.1,3.5,1.4,5.3,1c2.7-0.6,4.5-3.3,4.1-6c-0.1-1.5-0.7-2.9-1.7-4.1
			c-0.9-0.9-2.1-1.6-3.4-1.8c-1.7-0.4-3.5-0.7-5.3-0.8c-1.1-0.1-2.1-0.1-3.2-0.2c-0.5,0-1.1,0-1.6,0
			C396.5,165.1,396.1,165.1,395.7,165.1"/>
		<path id="Path_1232" class="st2" d="M395.5,165.2c-0.1,0-0.2,0.1-0.3,0.2c-0.2,0.2-0.2,0.5-0.1,0.7c0.4,0.8,0.9,1.6,1.4,2.4
			c0.5,0.9,1,1.8,1.7,2.6c0.5,0.8,1.2,1.4,2,2c1,0.7,2.3,0.9,3.5,0.7c1.8-0.4,3-2.1,2.7-4c-0.1-1-0.5-1.9-1.1-2.7
			c-0.6-0.6-1.4-1-2.2-1.2c-1.1-0.3-2.3-0.4-3.5-0.5c-0.7-0.1-1.4-0.1-2.1-0.1c-0.4,0-0.7,0-1.1,0
			C396,165.2,395.8,165.2,395.5,165.2"/>
		<path id="Path_1233" class="st0" d="M419.1,223.3c0.2-0.2,0.4-0.3,0.6-0.4c0.5-0.1,1,0.1,1.3,0.6c1,1.6,1.9,3.2,2.7,4.9
			c1.1,1.8,1.9,3.6,2.6,5.5c0.7,1.7,1.2,3.6,1.3,5.4c0.1,2.5-0.8,4.9-2.5,6.7c-2.6,2.6-6.8,2.8-9.6,0.5c-1.6-1.2-2.8-2.8-3.4-4.7
			c-0.4-1.7-0.3-3.5,0.3-5.1c0.7-2.2,1.6-4.4,2.7-6.5c0.6-1.2,1.3-2.5,2-3.7c0.4-0.6,0.7-1.2,1.1-1.9
			C418.5,224.2,418.7,223.8,419.1,223.3"/>
		<path id="Path_1234" class="st1" d="M419.2,223.2c0.1-0.1,0.3-0.2,0.5-0.3c0.4-0.1,0.8,0.1,1,0.4c0.8,1.2,1.4,2.5,2,3.7
			c0.8,1.3,1.5,2.7,2,4.2c0.6,1.3,0.9,2.7,1,4.1c0.1,1.9-0.6,3.7-1.9,5.1c-2,2-5.1,2.1-7.3,0.4c-1.2-0.9-2.1-2.1-2.6-3.6
			c-0.3-1.3-0.2-2.6,0.2-3.9c0.6-1.7,1.2-3.3,2-4.9c0.5-0.9,1-1.9,1.5-2.8c0.3-0.5,0.6-0.9,0.8-1.4
			C418.8,223.9,419,223.5,419.2,223.2"/>
		<path id="Path_1235" class="st2" d="M419.4,223.1c0.1-0.1,0.2-0.2,0.3-0.2c0.2,0,0.5,0.1,0.6,0.3c0.5,0.8,1,1.6,1.4,2.5
			c0.5,0.9,1,1.8,1.3,2.8c0.4,0.9,0.6,1.8,0.6,2.7c0,1.2-0.4,2.4-1.2,3.4c-1.3,1.3-3.4,1.4-4.8,0.2c-0.8-0.6-1.4-1.4-1.7-2.4
			c-0.2-0.8-0.1-1.7,0.2-2.5c0.4-1.1,0.8-2.2,1.3-3.2c0.3-0.6,0.6-1.2,1-1.9c0.2-0.3,0.4-0.6,0.6-0.9
			C419.1,223.5,419.2,223.3,419.4,223.1"/>
		<path id="Path_1236" class="st0" d="M419.1,219c0.2,0.2,0.4,0.3,0.6,0.4c0.5,0.1,1-0.1,1.3-0.6c1-1.6,1.9-3.2,2.7-4.9
			c1.1-1.8,1.9-3.6,2.6-5.5c0.7-1.7,1.2-3.6,1.3-5.4c0.1-2.5-0.8-4.9-2.5-6.7c-2.6-2.6-6.8-2.8-9.6-0.5c-1.6,1.2-2.8,2.8-3.4,4.7
			c-0.4,1.7-0.3,3.5,0.3,5.1c0.7,2.2,1.6,4.4,2.7,6.5c0.6,1.2,1.3,2.5,2,3.7c0.4,0.6,0.7,1.2,1.1,1.9
			C418.5,218.1,418.7,218.6,419.1,219"/>
		<path id="Path_1237" class="st1" d="M419.2,219.1c0.1,0.1,0.3,0.2,0.5,0.3c0.4,0.1,0.8-0.1,1-0.4c0.8-1.2,1.4-2.5,2-3.7
			c0.8-1.3,1.5-2.7,2-4.2c0.6-1.3,0.9-2.7,1-4.1c0.1-1.9-0.6-3.7-1.9-5.1c-2-2-5.1-2.1-7.3-0.4c-1.2,0.9-2.1,2.1-2.6,3.6
			c-0.3,1.3-0.2,2.6,0.2,3.9c0.6,1.7,1.2,3.3,2,4.9c0.5,0.9,1,1.9,1.5,2.8c0.3,0.5,0.6,0.9,0.8,1.4
			C418.8,218.4,419,218.8,419.2,219.1"/>
		<path id="Path_1238" class="st2" d="M419.4,219.3c0.1,0.1,0.2,0.2,0.3,0.2c0.2,0,0.5-0.1,0.6-0.3c0.5-0.8,1-1.6,1.4-2.5
			c0.5-0.9,1-1.8,1.3-2.8c0.4-0.9,0.6-1.8,0.6-2.7c0-1.2-0.4-2.4-1.2-3.3c-1.3-1.3-3.4-1.4-4.8-0.2c-0.8,0.6-1.4,1.4-1.7,2.4
			c-0.2,0.8-0.1,1.7,0.2,2.5c0.4,1.1,0.8,2.2,1.3,3.2c0.3,0.6,0.6,1.2,1,1.9c0.2,0.3,0.4,0.6,0.6,0.9
			C419.1,218.8,419.2,219.1,419.4,219.3"/>
		<path id="Path_1239" class="st0" d="M417.6,221.3c0.2,0,0.5-0.1,0.7-0.3c0.3-0.4,0.4-0.9,0.2-1.4c-0.8-1.7-1.8-3.3-2.8-4.9
			c-0.9-1.8-2.1-3.5-3.3-5.1c-1.1-1.5-2.4-2.9-4-3.9c-2.1-1.4-4.6-1.9-7-1.4c-3.6,0.9-5.9,4.3-5.4,7.9c0.2,2,1,3.8,2.2,5.3
			c1.2,1.2,2.8,2.1,4.5,2.4c2.3,0.5,4.6,0.9,6.9,1.1c1.4,0.1,2.8,0.2,4.2,0.2c0.7,0,1.5,0,2.2,0C416.5,221.3,417,221.3,417.6,221.3"
			/>
		<path id="Path_1240" class="st1" d="M417.7,221.2c0.2,0,0.4-0.1,0.5-0.2c0.2-0.3,0.3-0.7,0.1-1.1c-0.6-1.3-1.4-2.5-2.1-3.7
			c-0.7-1.4-1.6-2.7-2.5-3.9c-0.8-1.2-1.9-2.2-3-3c-1.6-1.1-3.5-1.4-5.3-1c-2.7,0.6-4.5,3.3-4.1,6c0.1,1.5,0.7,2.9,1.7,4.1
			c0.9,0.9,2.1,1.6,3.4,1.8c1.7,0.4,3.5,0.7,5.3,0.8c1.1,0.1,2.1,0.1,3.2,0.2c0.5,0,1.1,0,1.6,0
			C416.9,221.2,417.3,221.2,417.7,221.2"/>
		<path id="Path_1241" class="st2" d="M417.9,221.1c0.1,0,0.2-0.1,0.3-0.2c0.2-0.2,0.2-0.5,0.1-0.7c-0.4-0.8-0.9-1.6-1.4-2.4
			c-0.5-0.9-1-1.8-1.7-2.6c-0.5-0.8-1.2-1.4-2-2c-1-0.7-2.3-0.9-3.5-0.7c-1.8,0.4-3,2.1-2.7,4c0.1,1,0.5,1.9,1.1,2.7
			c0.6,0.6,1.4,1,2.2,1.2c1.1,0.3,2.3,0.4,3.5,0.5c0.7,0.1,1.4,0.1,2.1,0.1c0.4,0,0.7,0,1.1,0C417.4,221.1,417.6,221.1,417.9,221.1"
			/>
		<path id="Path_1242" class="st0" d="M422.3,221.1c-0.2,0-0.5-0.1-0.7-0.3c-0.3-0.4-0.4-0.9-0.2-1.4c0.8-1.7,1.8-3.3,2.8-4.9
			c0.9-1.8,2.1-3.5,3.3-5.1c1.1-1.5,2.4-2.9,4-3.9c2.1-1.4,4.6-1.9,7-1.4c3.6,0.9,5.9,4.3,5.4,7.9c-0.2,2-1,3.8-2.2,5.3
			c-1.2,1.2-2.8,2.1-4.5,2.4c-2.3,0.5-4.6,0.9-6.9,1.1c-1.4,0.1-2.8,0.2-4.2,0.2c-0.7,0-1.5,0-2.2,0
			C423.4,221.1,422.8,221.1,422.3,221.1"/>
		<path id="Path_1243" class="st1" d="M422.1,221c-0.2,0-0.4-0.1-0.5-0.2c-0.2-0.3-0.3-0.7-0.1-1.1c0.6-1.3,1.4-2.5,2.1-3.7
			c0.7-1.4,1.6-2.7,2.5-3.9c0.8-1.2,1.9-2.2,3-3c1.6-1,3.5-1.4,5.3-1c2.7,0.6,4.5,3.3,4.1,6c-0.1,1.5-0.7,2.9-1.7,4.1
			c-0.9,0.9-2.1,1.6-3.4,1.8c-1.7,0.4-3.5,0.7-5.3,0.8c-1.1,0.1-2.1,0.1-3.2,0.2c-0.5,0-1.1,0-1.6,0C423,221,422.5,221,422.1,221"/>
		<path id="Path_1244" class="st2" d="M421.9,220.9c-0.1,0-0.2-0.1-0.3-0.2c-0.2-0.2-0.2-0.5-0.1-0.7c0.4-0.8,0.9-1.6,1.4-2.4
			c0.5-0.9,1-1.8,1.7-2.6c0.5-0.8,1.2-1.4,2-2c1-0.7,2.3-0.9,3.5-0.7c1.8,0.4,3,2.1,2.7,4c-0.1,1-0.5,1.9-1.1,2.7
			c-0.6,0.6-1.4,1-2.2,1.2c-1.1,0.3-2.3,0.4-3.5,0.5c-0.7,0.1-1.4,0.1-2.1,0.1c-0.4,0-0.7,0-1.1,0
			C422.5,220.9,422.2,220.9,421.9,220.9"/>
		<path id="Path_1245" class="st0" d="M417.4,221.7c0.2,0,0.5,0.1,0.7,0.3c0.3,0.4,0.4,0.9,0.2,1.4c-0.8,1.7-1.8,3.3-2.8,4.9
			c-0.9,1.8-2.1,3.5-3.3,5.1c-1.1,1.5-2.4,2.9-4,3.9c-2.1,1.4-4.6,1.9-7,1.4c-3.6-0.9-5.9-4.3-5.4-7.9c0.2-2,1-3.8,2.2-5.3
			c1.2-1.2,2.8-2.1,4.5-2.4c2.3-0.5,4.6-0.9,6.9-1.1c1.4-0.1,2.8-0.2,4.2-0.2c0.7,0,1.5,0,2.2,0
			C416.3,221.7,416.9,221.7,417.4,221.7"/>
		<path id="Path_1246" class="st1" d="M417.6,221.8c0.2,0,0.4,0.1,0.5,0.2c0.2,0.3,0.3,0.7,0.1,1.1c-0.6,1.3-1.4,2.5-2.1,3.7
			c-0.7,1.4-1.6,2.7-2.5,3.9c-0.8,1.2-1.9,2.2-3,3c-1.6,1.1-3.5,1.4-5.3,1c-2.7-0.6-4.5-3.3-4.1-6c0.1-1.5,0.7-2.9,1.7-4.1
			c0.9-0.9,2.1-1.6,3.4-1.8c1.7-0.4,3.5-0.7,5.3-0.8c1.1-0.1,2.1-0.1,3.2-0.2c0.5,0,1.1,0,1.6,0
			C416.8,221.8,417.2,221.8,417.6,221.8"/>
		<path id="Path_1247" class="st2" d="M417.8,221.9c0.1,0,0.2,0.1,0.3,0.2c0.2,0.2,0.2,0.5,0.1,0.7c-0.4,0.8-0.9,1.6-1.4,2.4
			c-0.5,0.9-1,1.8-1.7,2.6c-0.5,0.8-1.2,1.4-2,2c-1,0.7-2.3,0.9-3.5,0.7c-1.8-0.4-3-2.1-2.7-4c0.1-1,0.5-1.9,1.1-2.7
			c0.6-0.6,1.4-1,2.2-1.2c1.1-0.3,2.3-0.4,3.5-0.5c0.7-0.1,1.4-0.1,2.1-0.1c0.4,0,0.7,0,1.1,0C417.2,221.9,417.5,221.9,417.8,221.9"
			/>
		<path id="Path_1248" class="st0" d="M422.4,221.6c-0.2,0-0.5,0.1-0.7,0.3c-0.3,0.4-0.4,0.9-0.2,1.4c0.8,1.7,1.8,3.3,2.8,4.9
			c0.9,1.8,2.1,3.5,3.3,5.1c1.1,1.5,2.4,2.9,4,3.9c2.1,1.4,4.6,1.9,7,1.4c3.6-0.9,5.9-4.3,5.4-7.9c-0.2-2-1-3.8-2.2-5.3
			c-1.2-1.2-2.8-2.1-4.5-2.4c-2.3-0.5-4.6-0.9-6.9-1.1c-1.4-0.1-2.8-0.2-4.2-0.2c-0.7,0-1.5,0-2.2,0
			C423.5,221.5,422.9,221.5,422.4,221.6"/>
		<path id="Path_1249" class="st1" d="M422.2,221.6c-0.2,0-0.4,0.1-0.5,0.2c-0.2,0.3-0.3,0.7-0.1,1.1c0.6,1.3,1.4,2.5,2.1,3.7
			c0.7,1.4,1.6,2.7,2.5,3.9c0.8,1.2,1.9,2.2,3,3c1.6,1.1,3.5,1.4,5.3,1c2.7-0.6,4.5-3.3,4.1-6c-0.1-1.5-0.7-2.9-1.7-4.1
			c-0.9-0.9-2.1-1.6-3.4-1.8c-1.7-0.4-3.5-0.7-5.3-0.8c-1.1-0.1-2.1-0.1-3.2-0.2c-0.5,0-1.1,0-1.6,0
			C423.1,221.6,422.7,221.6,422.2,221.6"/>
		<path id="Path_1250" class="st2" d="M422.1,221.7c-0.1,0-0.2,0.1-0.3,0.2c-0.2,0.2-0.2,0.5-0.1,0.7c0.4,0.8,0.9,1.6,1.4,2.4
			c0.5,0.9,1,1.8,1.7,2.6c0.5,0.8,1.2,1.4,2,2c1,0.7,2.3,0.9,3.5,0.7c1.8-0.4,3-2.1,2.7-4c-0.1-1-0.5-1.9-1.1-2.7
			c-0.6-0.6-1.4-1-2.2-1.2c-1.1-0.3-2.3-0.4-3.5-0.5c-0.7-0.1-1.4-0.1-2.1-0.1c-0.4,0-0.7,0-1.1,0
			C422.6,221.7,422.3,221.7,422.1,221.7"/>
		<path id="Path_1269" class="st0" d="M332.1,155.9c0.2-0.2,0.4-0.3,0.6-0.4c0.5-0.1,1,0.1,1.3,0.6c1,1.6,1.9,3.2,2.7,4.9
			c1.1,1.8,1.9,3.6,2.6,5.5c0.7,1.7,1.2,3.6,1.3,5.4c0.1,2.5-0.8,4.9-2.5,6.7c-2.6,2.6-6.8,2.8-9.6,0.5c-1.6-1.2-2.8-2.8-3.4-4.7
			c-0.4-1.7-0.3-3.5,0.3-5.1c0.7-2.2,1.6-4.4,2.7-6.5c0.6-1.2,1.3-2.5,2-3.7c0.4-0.6,0.7-1.2,1.1-1.9
			C331.5,156.8,331.8,156.3,332.1,155.9"/>
		<path id="Path_1270" class="st1" d="M332.3,155.8c0.1-0.1,0.3-0.2,0.5-0.3c0.4-0.1,0.8,0.1,1,0.4c0.8,1.2,1.4,2.5,2,3.7
			c0.8,1.3,1.5,2.7,2,4.2c0.6,1.3,0.9,2.7,1,4.1c0.1,1.9-0.6,3.7-1.9,5.1c-2,2-5.1,2.1-7.3,0.4c-1.2-0.9-2.1-2.1-2.6-3.6
			c-0.3-1.3-0.2-2.6,0.2-3.9c0.6-1.7,1.2-3.3,2-4.9c0.5-0.9,1-1.9,1.5-2.8c0.3-0.5,0.6-0.9,0.8-1.4
			C331.8,156.5,332,156.1,332.3,155.8"/>
		<path id="Path_1271" class="st2" d="M332.5,155.7c0.1-0.1,0.2-0.2,0.3-0.2c0.2,0,0.5,0.1,0.6,0.3c0.5,0.8,1,1.6,1.4,2.5
			c0.5,0.9,1,1.8,1.3,2.8c0.4,0.9,0.6,1.8,0.6,2.7c0,1.2-0.4,2.4-1.2,3.4c-1.3,1.3-3.4,1.4-4.8,0.2c-0.8-0.6-1.4-1.4-1.7-2.4
			c-0.2-0.8-0.1-1.7,0.2-2.5c0.4-1.1,0.8-2.2,1.3-3.2c0.3-0.6,0.6-1.2,1-1.9c0.2-0.3,0.4-0.6,0.6-0.9
			C332.2,156.1,332.3,155.9,332.5,155.7"/>
		<path id="Path_1272" class="st0" d="M332.1,151.6c0.2,0.2,0.4,0.3,0.6,0.4c0.5,0.1,1-0.1,1.3-0.6c1-1.6,1.9-3.2,2.7-4.9
			c1.1-1.8,1.9-3.6,2.6-5.5c0.7-1.7,1.2-3.6,1.3-5.4c0.1-2.5-0.8-4.9-2.5-6.7c-2.6-2.6-6.8-2.8-9.6-0.5c-1.6,1.2-2.8,2.8-3.4,4.7
			c-0.4,1.7-0.3,3.5,0.3,5.1c0.7,2.2,1.6,4.4,2.7,6.5c0.6,1.2,1.3,2.5,2,3.7c0.4,0.6,0.7,1.2,1.1,1.9
			C331.5,150.7,331.8,151.2,332.1,151.6"/>
		<path id="Path_1273" class="st1" d="M332.3,151.7c0.1,0.1,0.3,0.2,0.5,0.3c0.4,0.1,0.8-0.1,1-0.4c0.8-1.2,1.4-2.5,2-3.7
			c0.8-1.3,1.5-2.7,2-4.2c0.6-1.3,0.9-2.7,1-4.1c0.1-1.9-0.6-3.7-1.9-5.1c-2-2-5.1-2.1-7.3-0.4c-1.2,0.9-2.1,2.1-2.6,3.6
			c-0.3,1.3-0.2,2.6,0.2,3.9c0.6,1.7,1.2,3.3,2,4.9c0.5,0.9,1,1.9,1.5,2.8c0.3,0.5,0.6,0.9,0.8,1.4C331.8,151,332,151.4,332.3,151.7
			"/>
		<path id="Path_1274" class="st2" d="M332.5,151.8c0.1,0.1,0.2,0.2,0.3,0.2c0.2,0,0.5-0.1,0.6-0.3c0.5-0.8,1-1.6,1.4-2.5
			c0.5-0.9,1-1.8,1.3-2.8c0.4-0.9,0.6-1.8,0.6-2.7c0-1.2-0.4-2.4-1.2-3.4c-1.3-1.3-3.4-1.4-4.8-0.2c-0.8,0.6-1.4,1.4-1.7,2.4
			c-0.2,0.8-0.1,1.7,0.2,2.5c0.4,1.1,0.8,2.2,1.3,3.2c0.3,0.6,0.6,1.2,1,1.9c0.2,0.3,0.4,0.6,0.6,0.9
			C332.2,151.4,332.3,151.6,332.5,151.8"/>
		<path id="Path_1275" class="st0" d="M330.6,153.9c0.2,0,0.5-0.1,0.7-0.3c0.3-0.4,0.4-0.9,0.2-1.4c-0.8-1.7-1.8-3.3-2.8-4.9
			c-0.9-1.8-2.1-3.5-3.3-5.1c-1.1-1.5-2.4-2.9-4-3.9c-2.1-1.4-4.6-1.9-7-1.4c-3.6,0.9-5.9,4.3-5.4,7.9c0.2,2,1,3.8,2.2,5.3
			c1.2,1.2,2.8,2.1,4.5,2.4c2.3,0.5,4.6,0.9,6.9,1.1c1.4,0.1,2.8,0.2,4.2,0.2c0.7,0,1.5,0,2.2,0
			C329.6,153.9,330.1,153.9,330.6,153.9"/>
		<path id="Path_1276" class="st1" d="M330.8,153.8c0.2,0,0.4-0.1,0.5-0.2c0.2-0.3,0.3-0.7,0.1-1.1c-0.6-1.3-1.4-2.5-2.1-3.7
			c-0.7-1.4-1.6-2.7-2.5-3.9c-0.8-1.2-1.9-2.2-3-3c-1.6-1.1-3.5-1.4-5.3-1c-2.7,0.6-4.5,3.3-4.1,6c0.1,1.5,0.7,2.9,1.7,4.1
			c0.9,0.9,2.1,1.6,3.4,1.8c1.7,0.4,3.5,0.7,5.3,0.8c1.1,0.1,2.1,0.1,3.2,0.2c0.5,0,1.1,0,1.6,0C330,153.8,330.4,153.8,330.8,153.8"
			/>
		<path id="Path_1277" class="st2" d="M331,153.7c0.1,0,0.2-0.1,0.3-0.2c0.2-0.2,0.2-0.5,0.1-0.7c-0.4-0.8-0.9-1.6-1.4-2.4
			c-0.5-0.9-1-1.8-1.7-2.6c-0.5-0.8-1.2-1.4-2-2c-1-0.7-2.3-0.9-3.5-0.7c-1.8,0.4-3,2.1-2.7,4c0.1,1,0.5,1.9,1.1,2.7
			c0.6,0.6,1.4,1,2.3,1.2c1.1,0.3,2.3,0.4,3.5,0.5c0.7,0.1,1.4,0.1,2.1,0.1c0.4,0,0.7,0,1.1,0C330.4,153.7,330.7,153.7,331,153.7"/>
		<path id="Path_1278" class="st0" d="M335.3,153.7c-0.2,0-0.5-0.1-0.7-0.3c-0.3-0.4-0.4-0.9-0.2-1.4c0.8-1.7,1.8-3.3,2.8-4.9
			c0.9-1.8,2.1-3.5,3.3-5.1c1.1-1.5,2.4-2.9,4-3.9c2.1-1.4,4.6-1.9,7-1.4c3.6,0.9,5.9,4.3,5.4,7.9c-0.2,2-1,3.8-2.2,5.3
			c-1.2,1.2-2.8,2.1-4.5,2.4c-2.3,0.5-4.6,0.9-6.9,1.1c-1.4,0.1-2.8,0.2-4.2,0.2c-0.7,0-1.5,0-2.2,0
			C336.4,153.7,335.9,153.7,335.3,153.7"/>
		<path id="Path_1279" class="st1" d="M335.2,153.6c-0.2,0-0.4-0.1-0.5-0.2c-0.2-0.3-0.3-0.7-0.1-1.1c0.6-1.3,1.4-2.5,2.1-3.7
			c0.7-1.4,1.6-2.7,2.5-3.9c0.8-1.2,1.9-2.2,3-3c1.6-1.1,3.5-1.4,5.3-1c2.7,0.6,4.5,3.3,4.1,6c-0.1,1.5-0.7,2.9-1.7,4.1
			c-0.9,0.9-2.1,1.6-3.4,1.8c-1.7,0.4-3.5,0.7-5.3,0.8c-1.1,0.1-2.1,0.1-3.2,0.2c-0.5,0-1.1,0-1.6,0
			C336,153.6,335.6,153.6,335.2,153.6"/>
		<path id="Path_1280" class="st2" d="M335,153.5c-0.1,0-0.2-0.1-0.3-0.2c-0.2-0.2-0.2-0.5-0.1-0.7c0.4-0.8,0.9-1.6,1.4-2.4
			c0.5-0.9,1-1.8,1.7-2.6c0.5-0.8,1.2-1.4,2-2c1-0.7,2.3-0.9,3.5-0.7c1.8,0.4,3,2.1,2.7,4c-0.1,1-0.5,1.9-1.1,2.7
			c-0.6,0.6-1.4,1-2.2,1.2c-1.1,0.3-2.3,0.4-3.5,0.5c-0.7,0.1-1.4,0.1-2.1,0.1c-0.4,0-0.7,0-1.1,0
			C335.6,153.5,335.3,153.5,335,153.5"/>
		<path id="Path_1281" class="st0" d="M330.5,154.3c0.2,0,0.5,0.1,0.7,0.3c0.3,0.4,0.4,0.9,0.2,1.4c-0.8,1.7-1.8,3.3-2.8,4.9
			c-0.9,1.8-2.1,3.5-3.3,5.1c-1.1,1.5-2.4,2.9-4,3.9c-2.1,1.4-4.6,1.9-7,1.4c-3.6-0.9-5.9-4.3-5.4-7.9c0.2-2,1-3.8,2.2-5.3
			c1.2-1.2,2.8-2.1,4.5-2.4c2.3-0.5,4.6-0.9,6.9-1.1c1.4-0.1,2.8-0.2,4.2-0.2c0.7,0,1.5,0,2.2,0C329.4,154.3,330,154.3,330.5,154.3"
			/>
		<path id="Path_1282" class="st1" d="M330.7,154.4c0.2,0,0.4,0.1,0.5,0.2c0.2,0.3,0.3,0.7,0.1,1.1c-0.6,1.3-1.4,2.5-2.1,3.7
			c-0.7,1.4-1.6,2.7-2.5,3.9c-0.8,1.2-1.9,2.2-3,3c-1.6,1.1-3.5,1.4-5.3,1c-2.7-0.6-4.5-3.3-4.1-6c0.1-1.5,0.7-2.9,1.7-4.1
			c0.9-0.9,2.1-1.6,3.4-1.8c1.7-0.4,3.5-0.7,5.3-0.8c1.1-0.1,2.1-0.1,3.2-0.2c0.5,0,1.1,0,1.6,0
			C329.8,154.4,330.2,154.4,330.7,154.4"/>
		<path id="Path_1283" class="st2" d="M330.9,154.5c0.1,0,0.2,0.1,0.3,0.2c0.2,0.2,0.2,0.5,0.1,0.7c-0.4,0.8-0.9,1.6-1.4,2.4
			c-0.5,0.9-1,1.8-1.7,2.6c-0.5,0.8-1.2,1.4-2,2c-1,0.7-2.3,0.9-3.5,0.7c-1.8-0.4-3-2.1-2.7-4c0.1-1,0.5-1.9,1.1-2.7
			c0.6-0.6,1.4-1,2.2-1.2c1.1-0.3,2.3-0.4,3.5-0.5c0.7-0.1,1.4-0.1,2.1-0.1c0.4,0,0.7,0,1.1,0C330.3,154.5,330.6,154.5,330.9,154.5"
			/>
		<path id="Path_1284" class="st0" d="M335.5,154.1c-0.2,0-0.5,0.1-0.7,0.3c-0.3,0.4-0.4,0.9-0.2,1.4c0.8,1.7,1.8,3.3,2.8,4.9
			c0.9,1.8,2.1,3.5,3.3,5.1c1.1,1.5,2.4,2.9,4,3.9c2.1,1.4,4.6,1.9,7,1.4c3.6-0.9,5.9-4.3,5.4-7.9c-0.2-2-1-3.8-2.2-5.3
			c-1.2-1.2-2.8-2.1-4.5-2.4c-2.3-0.5-4.6-0.9-6.9-1.1c-1.4-0.1-2.8-0.2-4.2-0.2c-0.7,0-1.5,0-2.2,0
			C336.6,154.1,336,154.1,335.5,154.1"/>
		<path id="Path_1285" class="st1" d="M335.3,154.2c-0.2,0-0.4,0.1-0.5,0.2c-0.3,0.3-0.3,0.7-0.1,1.1c0.6,1.3,1.4,2.5,2.1,3.7
			c0.7,1.4,1.6,2.7,2.5,3.9c0.8,1.2,1.9,2.2,3,3c1.6,1.1,3.5,1.4,5.3,1c2.7-0.6,4.5-3.3,4.1-6c-0.1-1.5-0.7-2.9-1.7-4.1
			c-0.9-0.9-2.1-1.6-3.4-1.8c-1.7-0.4-3.5-0.7-5.3-0.8c-1.1-0.1-2.1-0.1-3.2-0.2c-0.5,0-1.1,0-1.6,0
			C336.2,154.2,335.7,154.2,335.3,154.2"/>
		<path id="Path_1286" class="st2" d="M335.1,154.3c-0.1,0-0.2,0.1-0.3,0.2c-0.2,0.2-0.2,0.5-0.1,0.7c0.4,0.8,0.9,1.6,1.4,2.4
			c0.5,0.9,1,1.8,1.7,2.6c0.5,0.8,1.2,1.4,2,2c1,0.7,2.3,0.9,3.5,0.7c1.8-0.4,3-2.1,2.7-4c-0.1-1-0.5-1.9-1.1-2.7
			c-0.6-0.6-1.4-1-2.2-1.2c-1.1-0.3-2.3-0.4-3.5-0.5c-0.7-0.1-1.4-0.1-2.1-0.1c-0.4,0-0.7,0-1.1,0
			C335.7,154.3,335.4,154.3,335.1,154.3"/>
		<path id="Path_1287" class="st0" d="M394,328.7c0.2-0.2,0.4-0.3,0.6-0.4c0.5-0.1,1,0.1,1.3,0.6c1,1.6,1.9,3.2,2.7,4.9
			c1.1,1.8,1.9,3.6,2.6,5.5c0.7,1.7,1.2,3.5,1.3,5.4c0.1,2.5-0.8,4.9-2.5,6.7c-2.6,2.6-6.8,2.8-9.6,0.5c-1.6-1.2-2.8-2.8-3.4-4.7
			c-0.4-1.7-0.3-3.5,0.3-5.1c0.7-2.2,1.6-4.4,2.7-6.5c0.6-1.2,1.3-2.5,2-3.7c0.4-0.6,0.7-1.2,1.1-1.9
			C393.4,329.6,393.7,329.2,394,328.7"/>
		<path id="Path_1288" class="st1" d="M394.2,328.6c0.1-0.1,0.3-0.2,0.5-0.3c0.4-0.1,0.8,0.1,1,0.5c0.8,1.2,1.4,2.5,2,3.7
			c0.8,1.3,1.5,2.7,2,4.2c0.6,1.3,0.9,2.7,1,4.1c0.1,1.9-0.6,3.7-1.9,5.1c-2,2-5.1,2.1-7.3,0.4c-1.2-0.9-2.1-2.1-2.6-3.6
			c-0.3-1.3-0.2-2.6,0.2-3.9c0.6-1.7,1.2-3.3,2-4.9c0.5-1,1-1.9,1.5-2.8c0.3-0.5,0.6-1,0.8-1.4C393.7,329.3,393.9,329,394.2,328.6"
			/>
		<path id="Path_1289" class="st2" d="M394.4,328.5c0.1-0.1,0.2-0.2,0.3-0.2c0.2,0,0.5,0.1,0.6,0.3c0.5,0.8,1,1.6,1.4,2.5
			c0.5,0.9,1,1.8,1.3,2.8c0.4,0.9,0.6,1.8,0.6,2.7c0,1.2-0.4,2.4-1.2,3.4c-1.3,1.3-3.4,1.4-4.8,0.2c-0.8-0.6-1.4-1.4-1.7-2.4
			c-0.2-0.8-0.1-1.7,0.2-2.5c0.4-1.1,0.8-2.2,1.3-3.2c0.3-0.6,0.6-1.2,1-1.9c0.2-0.3,0.4-0.6,0.6-0.9
			C394.1,329,394.2,328.7,394.4,328.5"/>
		<path id="Path_1290" class="st0" d="M394,324.5c0.2,0.2,0.4,0.3,0.6,0.4c0.5,0.1,1-0.1,1.3-0.6c1-1.6,1.9-3.2,2.7-4.9
			c1.1-1.8,1.9-3.6,2.6-5.5c0.7-1.7,1.2-3.5,1.3-5.4c0.1-2.5-0.8-4.9-2.5-6.7c-2.6-2.6-6.8-2.8-9.6-0.5c-1.6,1.2-2.8,2.8-3.4,4.7
			c-0.4,1.7-0.3,3.5,0.3,5.1c0.7,2.2,1.6,4.4,2.7,6.5c0.6,1.2,1.3,2.5,2,3.7c0.4,0.6,0.7,1.2,1.1,1.9
			C393.4,323.5,393.7,324,394,324.5"/>
		<path id="Path_1291" class="st1" d="M394.2,324.6c0.1,0.1,0.3,0.2,0.5,0.3c0.4,0.1,0.8-0.1,1-0.5c0.8-1.2,1.4-2.5,2-3.7
			c0.8-1.3,1.5-2.7,2-4.2c0.6-1.3,0.9-2.7,1-4.1c0.1-1.9-0.6-3.7-1.9-5.1c-2-2-5.1-2.1-7.3-0.4c-1.2,0.9-2.1,2.1-2.6,3.6
			c-0.3,1.3-0.2,2.6,0.2,3.9c0.6,1.7,1.2,3.3,2,4.9c0.5,1,1,1.9,1.5,2.8c0.3,0.5,0.6,1,0.8,1.4C393.7,323.9,393.9,324.2,394.2,324.6
			"/>
		<path id="Path_1292" class="st2" d="M394.4,324.7c0.1,0.1,0.2,0.2,0.3,0.2c0.2,0,0.5-0.1,0.6-0.3c0.5-0.8,1-1.6,1.4-2.5
			c0.5-0.9,1-1.8,1.3-2.8c0.4-0.9,0.6-1.8,0.6-2.7c0-1.2-0.4-2.4-1.2-3.4c-1.3-1.3-3.4-1.4-4.8-0.2c-0.8,0.6-1.4,1.4-1.7,2.4
			c-0.2,0.8-0.1,1.7,0.2,2.5c0.4,1.1,0.8,2.2,1.3,3.2c0.3,0.6,0.6,1.2,1,1.9c0.2,0.3,0.4,0.6,0.6,0.9
			C394.1,324.2,394.2,324.5,394.4,324.7"/>
		<path id="Path_1293" class="st0" d="M392.5,326.7c0.2,0,0.5-0.1,0.7-0.3c0.3-0.4,0.4-1,0.2-1.4c-0.8-1.7-1.8-3.3-2.8-4.9
			c-0.9-1.8-2.1-3.5-3.3-5.1c-1.1-1.5-2.4-2.9-4-3.9c-2.1-1.4-4.6-1.9-7-1.4c-3.6,0.9-5.9,4.3-5.4,8c0.2,2,1,3.8,2.2,5.3
			c1.2,1.2,2.8,2.1,4.5,2.4c2.3,0.5,4.6,0.9,6.9,1.1c1.4,0.1,2.8,0.2,4.2,0.2c0.7,0,1.5,0,2.2,0C391.4,326.7,392,326.7,392.5,326.7"
			/>
		<path id="Path_1294" class="st1" d="M392.7,326.6c0.2,0,0.4-0.1,0.5-0.2c0.2-0.3,0.3-0.7,0.1-1.1c-0.6-1.3-1.4-2.5-2.1-3.7
			c-0.7-1.4-1.6-2.7-2.5-3.9c-0.8-1.2-1.9-2.2-3-3c-1.6-1-3.5-1.4-5.3-1c-2.7,0.6-4.5,3.3-4.1,6c0.1,1.5,0.7,2.9,1.7,4
			c0.9,0.9,2.1,1.6,3.4,1.8c1.7,0.4,3.5,0.7,5.3,0.8c1.1,0.1,2.1,0.1,3.2,0.2c0.5,0,1.1,0,1.6,0
			C391.9,326.6,392.3,326.6,392.7,326.6"/>
		<path id="Path_1295" class="st2" d="M392.9,326.5c0.1,0,0.2-0.1,0.3-0.2c0.2-0.2,0.2-0.5,0.1-0.7c-0.4-0.8-0.9-1.6-1.4-2.4
			c-0.5-0.9-1-1.8-1.7-2.6c-0.5-0.8-1.2-1.4-2-2c-1-0.7-2.3-0.9-3.5-0.7c-1.8,0.4-3,2.1-2.7,4c0.1,1,0.5,1.9,1.1,2.7
			c0.6,0.6,1.4,1,2.2,1.2c1.1,0.3,2.3,0.4,3.5,0.5c0.7,0.1,1.4,0.1,2.1,0.1c0.4,0,0.7,0,1.1,0C392.3,326.5,392.6,326.5,392.9,326.5"
			/>
		<path id="Path_1296" class="st0" d="M397.2,326.5c-0.2,0-0.5-0.1-0.7-0.3c-0.3-0.4-0.4-1-0.2-1.4c0.8-1.7,1.8-3.3,2.8-4.9
			c0.9-1.8,2.1-3.5,3.3-5.1c1.1-1.5,2.4-2.9,4-3.9c2.1-1.4,4.6-1.9,7-1.4c3.6,0.9,5.9,4.3,5.4,8c-0.2,2-1,3.8-2.2,5.3
			c-1.2,1.2-2.8,2.1-4.5,2.4c-2.3,0.5-4.6,0.9-6.9,1.1c-1.4,0.1-2.8,0.2-4.2,0.2c-0.7,0-1.5,0-2.2,0
			C398.3,326.5,397.8,326.6,397.2,326.5"/>
		<path id="Path_1297" class="st1" d="M397.1,326.4c-0.2,0-0.4-0.1-0.5-0.2c-0.2-0.3-0.3-0.7-0.1-1.1c0.6-1.3,1.4-2.5,2.1-3.7
			c0.7-1.4,1.6-2.7,2.5-3.9c0.8-1.2,1.9-2.2,3-3c1.6-1,3.5-1.4,5.3-1c2.7,0.6,4.5,3.3,4.1,6c-0.1,1.5-0.7,2.9-1.7,4
			c-0.9,0.9-2.1,1.6-3.4,1.8c-1.7,0.4-3.5,0.7-5.3,0.8c-1.1,0.1-2.1,0.1-3.2,0.2c-0.5,0-1.1,0-1.6,0
			C397.9,326.4,397.5,326.4,397.1,326.4"/>
		<path id="Path_1298" class="st2" d="M396.9,326.3c-0.1,0-0.2-0.1-0.3-0.2c-0.2-0.2-0.2-0.5-0.1-0.7c0.4-0.8,0.9-1.6,1.4-2.4
			c0.5-0.9,1-1.8,1.7-2.6c0.5-0.8,1.2-1.4,2-2c1-0.7,2.3-0.9,3.5-0.7c1.8,0.4,3,2.1,2.7,4c-0.1,1-0.5,1.9-1.1,2.7
			c-0.6,0.6-1.4,1-2.2,1.2c-1.1,0.3-2.3,0.4-3.5,0.5c-0.7,0.1-1.4,0.1-2.1,0.1c-0.4,0-0.7,0-1.1,0
			C397.4,326.3,397.2,326.4,396.9,326.3"/>
		<path id="Path_1299" class="st0" d="M392.4,327.2c0.2,0,0.5,0.1,0.7,0.3c0.3,0.4,0.4,1,0.2,1.4c-0.8,1.7-1.8,3.3-2.8,4.9
			c-0.9,1.8-2.1,3.5-3.3,5.1c-1.1,1.5-2.4,2.9-4,3.9c-2.1,1.4-4.6,1.9-7,1.4c-3.6-0.9-5.9-4.3-5.4-8c0.2-2,1-3.8,2.2-5.3
			c1.2-1.2,2.8-2.1,4.5-2.4c2.3-0.5,4.6-0.9,6.9-1.1c1.4-0.1,2.8-0.2,4.2-0.2c0.7,0,1.5,0,2.2,0
			C391.3,327.1,391.9,327.1,392.4,327.2"/>
		<path id="Path_1300" class="st1" d="M392.6,327.2c0.2,0,0.4,0.1,0.5,0.2c0.2,0.3,0.3,0.7,0.1,1.1c-0.6,1.3-1.4,2.5-2.1,3.7
			c-0.7,1.4-1.6,2.7-2.5,3.9c-0.8,1.2-1.9,2.2-3,3c-1.6,1-3.5,1.4-5.3,1c-2.7-0.6-4.5-3.3-4.1-6c0.1-1.5,0.7-2.9,1.7-4
			c0.9-0.9,2.1-1.6,3.4-1.8c1.7-0.4,3.5-0.7,5.3-0.8c1.1-0.1,2.1-0.1,3.2-0.2c0.5,0,1.1,0,1.6,0
			C391.7,327.2,392.1,327.2,392.6,327.2"/>
		<path id="Path_1301" class="st2" d="M392.8,327.3c0.1,0,0.2,0.1,0.3,0.2c0.2,0.2,0.2,0.5,0.1,0.7c-0.4,0.8-0.9,1.6-1.4,2.4
			c-0.5,0.9-1,1.8-1.7,2.6c-0.5,0.8-1.2,1.4-2,2c-1,0.7-2.3,0.9-3.5,0.7c-1.8-0.4-3-2.1-2.7-4c0.1-1,0.5-1.9,1.1-2.7
			c0.6-0.6,1.4-1,2.2-1.2c1.1-0.3,2.3-0.4,3.5-0.5c0.7-0.1,1.4-0.1,2.1-0.1c0.4,0,0.7,0,1.1,0C392.2,327.3,392.5,327.3,392.8,327.3"
			/>
		<path id="Path_1302" class="st0" d="M397.4,327c-0.2,0-0.5,0.1-0.7,0.3c-0.3,0.4-0.4,1-0.2,1.4c0.8,1.7,1.8,3.3,2.8,4.9
			c0.9,1.8,2.1,3.5,3.3,5.1c1.1,1.5,2.4,2.9,4,3.9c2.1,1.4,4.6,1.9,7,1.4c3.6-0.9,5.9-4.3,5.4-8c-0.2-2-1-3.8-2.2-5.3
			c-1.2-1.2-2.8-2.1-4.5-2.4c-2.3-0.5-4.6-0.9-6.9-1.1c-1.4-0.1-2.8-0.2-4.2-0.2c-0.7,0-1.5,0-2.2,0
			C398.5,326.9,397.9,326.9,397.4,327"/>
		<path id="Path_1303" class="st1" d="M397.2,327.1c-0.2,0-0.4,0.1-0.5,0.2c-0.2,0.3-0.3,0.7-0.1,1.1c0.6,1.3,1.4,2.5,2.1,3.7
			c0.7,1.4,1.6,2.7,2.5,3.9c0.8,1.2,1.9,2.2,3,3c1.6,1,3.5,1.4,5.3,1c2.7-0.6,4.5-3.3,4.1-6c-0.1-1.5-0.7-2.9-1.7-4
			c-0.9-0.9-2.1-1.6-3.4-1.8c-1.7-0.4-3.5-0.7-5.3-0.8c-1.1-0.1-2.1-0.1-3.2-0.2c-0.5,0-1.1,0-1.6,0C398,327,397.6,327,397.2,327.1"
			/>
		<path id="Path_1304" class="st2" d="M397,327.1c-0.1,0-0.2,0.1-0.3,0.2c-0.2,0.2-0.2,0.5-0.1,0.7c0.4,0.8,0.9,1.6,1.4,2.4
			c0.5,0.9,1,1.8,1.7,2.6c0.5,0.8,1.2,1.4,2,2c1,0.7,2.3,0.9,3.5,0.7c1.8-0.4,3-2.1,2.7-4c-0.1-1-0.5-1.9-1.1-2.7
			c-0.6-0.6-1.4-1-2.2-1.2c-1.1-0.3-2.3-0.4-3.5-0.5c-0.7-0.1-1.4-0.1-2.1-0.1c-0.4,0-0.7,0-1.1,0
			C397.6,327.1,397.3,327.1,397,327.1"/>
		<path id="Path_1311" class="st0" d="M453.1,334.9c0.2,0,0.5-0.1,0.7-0.3c0.3-0.4,0.4-1,0.2-1.4c-0.8-1.7-1.8-3.3-2.8-4.9
			c-0.9-1.8-2.1-3.5-3.3-5.1c-1.1-1.5-2.4-2.9-4-3.9c-2.1-1.4-4.6-1.9-7-1.4c-3.6,0.9-5.9,4.3-5.4,8c0.2,2,1,3.8,2.2,5.3
			c1.2,1.2,2.8,2.1,4.5,2.4c2.3,0.5,4.6,0.9,6.9,1.1c1.4,0.1,2.8,0.2,4.2,0.2c0.7,0,1.5,0,2.2,0C452,334.9,452.6,334.9,453.1,334.9"
			/>
		<path id="Path_1312" class="st1" d="M453.3,334.8c0.2,0,0.4-0.1,0.5-0.2c0.2-0.3,0.3-0.7,0.1-1.1c-0.6-1.3-1.4-2.5-2.1-3.7
			c-0.7-1.4-1.6-2.7-2.5-3.9c-0.8-1.2-1.9-2.2-3-3c-1.6-1-3.5-1.4-5.3-1c-2.7,0.6-4.5,3.3-4.1,6c0.1,1.5,0.7,2.9,1.7,4
			c0.9,0.9,2.1,1.6,3.4,1.8c1.7,0.4,3.5,0.7,5.3,0.8c1.1,0.1,2.1,0.1,3.2,0.2c0.5,0,1.1,0,1.6,0
			C452.5,334.8,452.9,334.8,453.3,334.8"/>
		<path id="Path_1313" class="st2" d="M453.5,334.7c0.1,0,0.2-0.1,0.3-0.2c0.2-0.2,0.2-0.5,0.1-0.7c-0.4-0.8-0.9-1.6-1.4-2.4
			c-0.5-0.9-1-1.8-1.7-2.6c-0.5-0.8-1.2-1.4-2-2c-1-0.7-2.3-0.9-3.5-0.7c-1.8,0.4-3,2.1-2.7,4c0.1,1,0.5,1.9,1.1,2.7
			c0.6,0.6,1.4,1,2.2,1.2c1.1,0.3,2.3,0.4,3.5,0.5c0.7,0.1,1.4,0.1,2.1,0.1c0.4,0,0.7,0,1.1,0C452.9,334.7,453.2,334.7,453.5,334.7"
			/>
		<path id="Path_1317" class="st0" d="M453,335.3c0.2,0,0.5,0.1,0.7,0.3c0.3,0.4,0.4,1,0.2,1.4c-0.8,1.7-1.8,3.3-2.8,4.9
			c-0.9,1.8-2.1,3.5-3.3,5.1c-1.1,1.5-2.4,2.9-4,3.9c-2.1,1.4-4.6,1.9-7,1.4c-1.9-0.5-3.6-1.8-4.6-3.5c-0.7-1.4-1-3-0.8-4.5
			c0.2-2,1-3.8,2.2-5.3c1.2-1.2,2.8-2.1,4.5-2.4c2.3-0.5,4.6-0.9,6.9-1.1c1.4-0.1,2.8-0.2,4.2-0.2c0.7,0,1.5,0,2.2,0
			C451.9,335.3,452.5,335.3,453,335.3"/>
		<path id="Path_1318" class="st1" d="M453.2,335.4c0.2,0,0.4,0.1,0.5,0.2c0.2,0.3,0.3,0.7,0.1,1.1c-0.6,1.3-1.4,2.5-2.1,3.7
			c-0.7,1.4-1.6,2.7-2.5,3.9c-0.8,1.2-1.9,2.2-3,3c-1.6,1-3.5,1.4-5.3,1c-1.5-0.4-2.7-1.3-3.5-2.6c-0.6-1-0.8-2.2-0.6-3.4
			c0.1-1.5,0.7-2.9,1.7-4c0.9-0.9,2.1-1.6,3.4-1.8c1.7-0.4,3.5-0.7,5.3-0.8c1.1-0.1,2.1-0.1,3.2-0.2c0.5,0,1.1,0,1.6,0
			C452.3,335.4,452.7,335.4,453.2,335.4"/>
		<path id="Path_1319" class="st2" d="M453.4,335.5c0.1,0,0.2,0.1,0.3,0.2c0.2,0.2,0.2,0.5,0.1,0.7c-0.4,0.8-0.9,1.6-1.4,2.4
			c-0.5,0.9-1,1.8-1.7,2.6c-0.5,0.8-1.2,1.4-2,2c-1,0.7-2.3,0.9-3.5,0.7c-1.8-0.4-3-2.1-2.7-4c0.1-1,0.5-1.9,1.1-2.7
			c0.6-0.6,1.4-1,2.2-1.2c1.1-0.3,2.3-0.4,3.5-0.5c0.7-0.1,1.4-0.1,2.1-0.1c0.4,0,0.7,0,1.1,0C452.8,335.5,453.1,335.5,453.4,335.5"
			/>
		<path id="Path_1323" class="st0" d="M413.8,56.8c0.2-0.2,0.4-0.3,0.6-0.4c0.5-0.1,1,0.2,1.3,0.6c1,1.6,1.9,3.2,2.7,4.9
			c1.1,1.8,1.9,3.6,2.6,5.5c0.7,1.7,1.2,3.6,1.3,5.4c0.1,2.5-0.8,4.9-2.5,6.7c-2.6,2.6-6.8,2.8-9.6,0.5c-1.6-1.2-2.8-2.8-3.4-4.7
			c-0.4-1.7-0.3-3.5,0.3-5.1c0.7-2.2,1.6-4.4,2.7-6.5c0.6-1.2,1.3-2.5,2-3.7c0.4-0.6,0.7-1.2,1.1-1.9
			C413.2,57.7,413.5,57.3,413.8,56.8"/>
		<path id="Path_1324" class="st1" d="M414,56.7c0.1-0.2,0.3-0.2,0.5-0.3c0.4-0.1,0.8,0.1,1,0.5c0.8,1.2,1.4,2.5,2,3.7
			c0.8,1.3,1.5,2.7,2,4.2c0.6,1.3,0.9,2.7,1,4.1c0.1,1.9-0.6,3.7-1.9,5.1c-2,2-5.1,2.2-7.3,0.4c-1.2-0.9-2.1-2.1-2.6-3.6
			c-0.3-1.3-0.2-2.6,0.2-3.9c0.6-1.7,1.2-3.3,2-4.9c0.5-1,1-1.9,1.5-2.8c0.3-0.5,0.6-1,0.8-1.4C413.5,57.4,413.7,57.1,414,56.7"/>
		<path id="Path_1325" class="st2" d="M414.1,56.6c0.1-0.1,0.2-0.2,0.3-0.2c0.2,0,0.5,0.1,0.6,0.3c0.5,0.8,1,1.6,1.4,2.5
			c0.5,0.9,1,1.8,1.3,2.8c0.4,0.9,0.6,1.8,0.6,2.7c0,1.2-0.4,2.4-1.2,3.3c-1.3,1.3-3.4,1.4-4.8,0.2c-0.8-0.6-1.4-1.4-1.7-2.3
			c-0.2-0.8-0.1-1.7,0.2-2.5c0.4-1.1,0.8-2.2,1.3-3.2c0.3-0.6,0.6-1.2,1-1.8c0.2-0.3,0.4-0.6,0.6-0.9
			C413.9,57.1,414,56.8,414.1,56.6"/>
		<path id="Path_1326" class="st0" d="M413.8,52.6c0.2,0.2,0.4,0.3,0.6,0.4c0.5,0.1,1-0.2,1.3-0.6c1-1.6,1.9-3.2,2.7-4.9
			c1.1-1.8,1.9-3.6,2.6-5.5c0.7-1.7,1.2-3.5,1.3-5.4c0.1-2.5-0.8-4.9-2.5-6.7c-2.6-2.6-6.8-2.8-9.6-0.5c-1.6,1.2-2.8,2.8-3.4,4.7
			c-0.4,1.7-0.3,3.5,0.3,5.1c0.7,2.2,1.6,4.4,2.7,6.5c0.6,1.2,1.3,2.5,2,3.7c0.4,0.6,0.7,1.2,1.1,1.9
			C413.2,51.6,413.5,52.1,413.8,52.6"/>
		<path id="Path_1327" class="st1" d="M414,52.7c0.1,0.2,0.3,0.2,0.5,0.3c0.4,0.1,0.8-0.1,1-0.5c0.8-1.2,1.4-2.5,2-3.7
			c0.8-1.3,1.5-2.7,2-4.2c0.6-1.3,0.9-2.7,1-4.1c0.1-1.9-0.6-3.7-1.9-5.1c-2-2-5.1-2.2-7.3-0.4c-1.2,0.9-2.1,2.1-2.6,3.6
			c-0.3,1.3-0.2,2.6,0.2,3.9c0.6,1.7,1.2,3.3,2,4.9c0.5,1,1,1.9,1.5,2.8c0.3,0.5,0.6,1,0.8,1.4C413.5,52,413.7,52.3,414,52.7"/>
		<path id="Path_1328" class="st2" d="M414.1,52.8c0.1,0.1,0.2,0.2,0.3,0.2c0.2,0,0.5-0.1,0.6-0.3c0.5-0.8,1-1.6,1.4-2.5
			c0.5-0.9,1-1.8,1.3-2.8c0.4-0.9,0.6-1.8,0.6-2.7c0-1.2-0.4-2.4-1.2-3.3c-1.3-1.3-3.4-1.4-4.8-0.2c-0.8,0.6-1.4,1.4-1.7,2.3
			c-0.2,0.8-0.1,1.7,0.2,2.5c0.4,1.1,0.8,2.2,1.3,3.2c0.3,0.6,0.6,1.2,1,1.8c0.2,0.3,0.4,0.6,0.6,0.9
			C413.9,52.3,414,52.6,414.1,52.8"/>
		<path id="Path_1329" class="st0" d="M412.3,54.8c0.2,0,0.5-0.2,0.7-0.3c0.3-0.4,0.4-1,0.2-1.4c-0.8-1.7-1.8-3.3-2.8-4.9
			c-0.9-1.8-2.1-3.5-3.3-5.1c-1.1-1.5-2.4-2.8-4-3.9c-2.1-1.4-4.6-1.9-7-1.4c-3.6,0.8-5.9,4.3-5.4,8c0.2,2,1,3.8,2.2,5.3
			c1.2,1.2,2.8,2.1,4.5,2.4c2.3,0.5,4.6,0.9,6.9,1.1c1.4,0.1,2.8,0.2,4.2,0.2c0.7,0,1.5,0,2.2,0C411.2,54.8,411.8,54.8,412.3,54.8"
			/>
		<path id="Path_1330" class="st1" d="M412.5,54.7c0.2,0,0.4-0.1,0.5-0.2c0.3-0.3,0.3-0.7,0.1-1.1c-0.6-1.3-1.4-2.5-2.1-3.7
			c-0.7-1.4-1.6-2.7-2.5-3.9c-0.8-1.2-1.9-2.2-3-3c-1.6-1-3.5-1.4-5.3-1c-2.7,0.7-4.5,3.3-4.1,6c0.1,1.5,0.7,2.9,1.7,4
			c0.9,0.9,2.1,1.6,3.4,1.8c1.7,0.4,3.5,0.7,5.3,0.8c1.1,0.1,2.1,0.1,3.2,0.2c0.5,0,1.1,0,1.6,0C411.7,54.7,412.1,54.7,412.5,54.7"
			/>
		<path id="Path_1331" class="st2" d="M412.7,54.6c0.1,0,0.2-0.1,0.3-0.2c0.2-0.2,0.2-0.5,0.1-0.7c-0.4-0.8-0.9-1.7-1.4-2.4
			c-0.5-0.9-1-1.8-1.7-2.6c-0.5-0.8-1.2-1.4-2-2c-1-0.7-2.3-0.9-3.5-0.7c-1.8,0.4-3,2.2-2.7,4c0.1,1,0.5,1.9,1.1,2.7
			c0.6,0.6,1.4,1,2.2,1.2c1.1,0.3,2.3,0.4,3.5,0.5c0.7,0.1,1.4,0.1,2.1,0.1c0.4,0,0.7,0,1.1,0C412.1,54.6,412.4,54.6,412.7,54.6"/>
		<path id="Path_1332" class="st0" d="M417,54.6c-0.2,0-0.5-0.2-0.7-0.3c-0.3-0.4-0.4-1-0.2-1.4c0.8-1.7,1.8-3.3,2.8-4.9
			c0.9-1.8,2.1-3.5,3.3-5.1c1.1-1.5,2.4-2.8,4-3.9c2.1-1.4,4.6-1.9,7-1.4c3.6,0.8,5.9,4.3,5.4,8c-0.2,2-1,3.8-2.2,5.3
			c-1.2,1.2-2.8,2.1-4.5,2.4c-2.3,0.5-4.6,0.9-6.9,1.1c-1.4,0.1-2.8,0.2-4.2,0.2c-0.7,0-1.5,0-2.2,0C418.1,54.6,417.6,54.7,417,54.6
			"/>
		<path id="Path_1333" class="st1" d="M416.9,54.5c-0.2,0-0.4-0.1-0.5-0.2c-0.2-0.3-0.3-0.7-0.1-1.1c0.6-1.3,1.4-2.5,2.1-3.7
			c0.7-1.4,1.6-2.7,2.5-3.9c0.8-1.2,1.9-2.2,3-3c1.6-1,3.5-1.4,5.3-1c2.7,0.7,4.5,3.3,4.1,6c-0.1,1.5-0.7,2.9-1.7,4
			c-0.9,0.9-2.1,1.6-3.4,1.8c-1.7,0.4-3.5,0.7-5.3,0.8c-1.1,0.1-2.1,0.1-3.2,0.2c-0.5,0-1.1,0-1.6,0
			C417.7,54.5,417.3,54.5,416.9,54.5"/>
		<path id="Path_1334" class="st2" d="M416.7,54.4c-0.1,0-0.2-0.1-0.3-0.2c-0.2-0.2-0.2-0.5-0.1-0.7c0.4-0.8,0.9-1.7,1.4-2.4
			c0.5-0.9,1-1.8,1.7-2.6c0.5-0.8,1.2-1.4,2-2c1-0.7,2.3-0.9,3.5-0.7c1.8,0.4,3,2.2,2.7,4c-0.1,1-0.5,1.9-1.1,2.7
			c-0.6,0.6-1.4,1-2.2,1.2c-1.1,0.3-2.3,0.4-3.5,0.5c-0.7,0.1-1.4,0.1-2.1,0.1c-0.4,0-0.7,0-1.1,0C417.3,54.4,417,54.5,416.7,54.4"
			/>
		<path id="Path_1335" class="st0" d="M412.2,55.3c0.2,0,0.5,0.2,0.7,0.3c0.3,0.4,0.4,1,0.2,1.4c-0.8,1.7-1.8,3.3-2.8,4.9
			c-0.9,1.8-2.1,3.5-3.3,5.1c-1.1,1.5-2.4,2.8-4,3.9c-2.1,1.4-4.6,1.9-7,1.4c-3.6-0.8-5.9-4.3-5.4-7.9c0.2-2,1-3.8,2.2-5.3
			c1.2-1.2,2.8-2.1,4.5-2.4c2.3-0.5,4.6-0.9,6.9-1.1c1.4-0.1,2.8-0.2,4.2-0.2c0.7,0,1.5,0,2.2,0C411.1,55.2,411.7,55.2,412.2,55.3"
			/>
		<path id="Path_1336" class="st1" d="M412.4,55.3c0.2,0,0.4,0.1,0.5,0.2c0.3,0.3,0.3,0.7,0.1,1.1c-0.6,1.3-1.4,2.5-2.1,3.7
			c-0.7,1.4-1.6,2.7-2.5,3.9c-0.8,1.2-1.9,2.2-3,3c-1.6,1.1-3.5,1.4-5.3,1c-2.7-0.7-4.5-3.3-4.1-6c0.1-1.5,0.7-2.9,1.7-4
			c0.9-0.9,2.1-1.6,3.4-1.8c1.7-0.4,3.5-0.7,5.3-0.8c1.1-0.1,2.1-0.1,3.2-0.2c0.5,0,1.1,0,1.6,0C411.5,55.3,411.9,55.3,412.4,55.3"
			/>
		<path id="Path_1337" class="st2" d="M412.5,55.4c0.1,0,0.2,0.1,0.3,0.2c0.2,0.2,0.2,0.5,0.1,0.7c-0.4,0.8-0.9,1.7-1.4,2.4
			c-0.5,0.9-1,1.8-1.7,2.6c-0.5,0.8-1.2,1.4-2,2c-1,0.7-2.3,0.9-3.5,0.7c-1.8-0.4-3-2.2-2.7-4c0.1-1,0.5-1.9,1.1-2.7
			c0.6-0.6,1.4-1,2.2-1.2c1.1-0.3,2.3-0.4,3.5-0.5c0.7-0.1,1.4-0.1,2.1-0.1c0.4,0,0.7,0,1.1,0C412,55.4,412.3,55.4,412.5,55.4"/>
		<path id="Path_1338" class="st0" d="M417.2,55.1c-0.2,0-0.5,0.2-0.7,0.3c-0.3,0.4-0.4,1-0.2,1.4c0.8,1.7,1.8,3.3,2.8,4.9
			c0.9,1.8,2.1,3.5,3.3,5.1c1.1,1.5,2.4,2.8,4,3.9c2.1,1.4,4.6,1.9,7,1.4c3.6-0.8,5.9-4.3,5.4-7.9c-0.2-2-1-3.8-2.2-5.3
			c-1.2-1.2-2.8-2.1-4.5-2.4c-2.3-0.5-4.6-0.9-6.9-1.1c-1.4-0.1-2.8-0.2-4.2-0.2c-0.7,0-1.5,0-2.2,0C418.3,55,417.7,55,417.2,55.1"
			/>
		<path id="Path_1339" class="st1" d="M417,55.2c-0.2,0-0.4,0.1-0.5,0.2c-0.2,0.3-0.3,0.7-0.1,1.1c0.6,1.3,1.4,2.5,2.1,3.7
			c0.7,1.4,1.6,2.7,2.5,3.9c0.8,1.2,1.9,2.2,3,3c1.6,1.1,3.5,1.4,5.3,1c2.7-0.7,4.5-3.3,4.1-6c-0.1-1.5-0.7-2.9-1.7-4
			c-0.9-0.9-2.1-1.6-3.4-1.8c-1.7-0.4-3.5-0.7-5.3-0.8c-1.1-0.1-2.1-0.1-3.2-0.2c-0.5,0-1.1,0-1.6,0C417.9,55.1,417.4,55.1,417,55.2
			"/>
		<path id="Path_1340" class="st2" d="M416.8,55.2c-0.1,0-0.2,0.1-0.3,0.2c-0.2,0.2-0.2,0.5-0.1,0.7c0.4,0.8,0.9,1.7,1.4,2.4
			c0.5,0.9,1,1.8,1.7,2.6c0.5,0.8,1.2,1.4,2,2c1,0.7,2.3,0.9,3.5,0.7c1.8-0.4,3-2.2,2.7-4c-0.1-1-0.5-1.9-1.1-2.7
			c-0.6-0.6-1.4-1-2.2-1.2c-1.1-0.3-2.3-0.4-3.5-0.5c-0.7-0.1-1.4-0.1-2.1-0.1c-0.4,0-0.7,0-1.1,0C417.4,55.2,417.1,55.2,416.8,55.2
			"/>
		<path id="Path_1341" class="st0" d="M294.3,205.6c0.2-0.2,0.4-0.3,0.6-0.4c0.5-0.1,1,0.1,1.3,0.6c1,1.6,1.9,3.2,2.7,4.9
			c1.1,1.8,1.9,3.6,2.6,5.5c0.7,1.7,1.2,3.6,1.3,5.4c0.1,2.5-0.8,4.9-2.5,6.7c-2.6,2.6-6.8,2.8-9.6,0.5c-1.6-1.2-2.8-2.8-3.4-4.7
			c-0.4-1.7-0.3-3.5,0.3-5.1c0.7-2.2,1.6-4.4,2.7-6.5c0.6-1.2,1.3-2.5,2-3.7c0.4-0.6,0.7-1.2,1.1-1.9
			C293.7,206.5,294,206,294.3,205.6"/>
		<path id="Path_1342" class="st1" d="M294.5,205.5c0.1-0.1,0.3-0.2,0.5-0.3c0.4-0.1,0.8,0.1,1,0.4c0.8,1.2,1.4,2.5,2,3.7
			c0.8,1.3,1.5,2.7,2,4.2c0.6,1.3,0.9,2.7,1,4.1c0.1,1.9-0.6,3.7-1.9,5.1c-2,2-5.1,2.1-7.3,0.4c-1.2-0.9-2.1-2.1-2.6-3.6
			c-0.3-1.3-0.2-2.6,0.2-3.9c0.6-1.7,1.2-3.3,2-4.9c0.5-0.9,1-1.9,1.5-2.8c0.3-0.5,0.6-0.9,0.8-1.4
			C294,206.2,294.2,205.8,294.5,205.5"/>
		<path id="Path_1343" class="st2" d="M294.7,205.4c0.1-0.1,0.2-0.2,0.3-0.2c0.2,0,0.5,0.1,0.6,0.3c0.5,0.8,1,1.6,1.4,2.5
			c0.5,0.9,1,1.8,1.3,2.8c0.4,0.9,0.6,1.8,0.6,2.7c0,1.2-0.4,2.4-1.2,3.4c-1.3,1.3-3.4,1.4-4.8,0.2c-0.8-0.6-1.4-1.4-1.7-2.4
			c-0.2-0.8-0.1-1.7,0.2-2.5c0.4-1.1,0.8-2.2,1.3-3.2c0.3-0.6,0.6-1.2,1-1.9c0.2-0.3,0.4-0.6,0.6-0.9
			C294.4,205.8,294.5,205.6,294.7,205.4"/>
		<path id="Path_1344" class="st0" d="M294.3,201.3c0.2,0.2,0.4,0.3,0.6,0.4c0.5,0.1,1-0.1,1.3-0.6c1-1.6,1.9-3.2,2.7-4.9
			c1.1-1.8,1.9-3.6,2.6-5.5c0.7-1.7,1.2-3.6,1.3-5.4c0.1-2.5-0.8-4.9-2.5-6.7c-2.6-2.6-6.8-2.8-9.6-0.5c-1.6,1.2-2.8,2.8-3.4,4.7
			c-0.4,1.7-0.3,3.5,0.3,5.1c0.7,2.2,1.6,4.4,2.7,6.5c0.6,1.2,1.3,2.5,2,3.7c0.4,0.6,0.7,1.2,1.1,1.9
			C293.7,200.4,294,200.8,294.3,201.3"/>
		<path id="Path_1345" class="st1" d="M294.5,201.4c0.1,0.1,0.3,0.2,0.5,0.3c0.4,0.1,0.8-0.1,1-0.4c0.8-1.2,1.4-2.5,2-3.7
			c0.8-1.3,1.5-2.7,2-4.2c0.6-1.3,0.9-2.7,1-4.1c0.1-1.9-0.6-3.7-1.9-5.1c-2-2-5.1-2.1-7.3-0.4c-1.2,0.9-2.1,2.1-2.6,3.6
			c-0.3,1.3-0.2,2.6,0.2,3.9c0.6,1.7,1.2,3.3,2,4.9c0.5,0.9,1,1.9,1.5,2.8c0.3,0.5,0.6,0.9,0.8,1.4
			C294,200.7,294.2,201.1,294.5,201.4"/>
		<path id="Path_1346" class="st2" d="M294.7,201.5c0.1,0.1,0.2,0.2,0.3,0.2c0.2,0,0.5-0.1,0.6-0.3c0.5-0.8,1-1.6,1.4-2.5
			c0.5-0.9,1-1.8,1.3-2.8c0.4-0.9,0.6-1.8,0.6-2.7c0-1.2-0.4-2.4-1.2-3.4c-1.3-1.3-3.4-1.4-4.8-0.2c-0.8,0.6-1.4,1.4-1.7,2.4
			c-0.2,0.8-0.1,1.7,0.2,2.5c0.4,1.1,0.8,2.2,1.3,3.2c0.3,0.6,0.6,1.2,1,1.9c0.2,0.3,0.4,0.6,0.6,0.9
			C294.4,201.1,294.5,201.3,294.7,201.5"/>
		<path id="Path_1347" class="st0" d="M292.8,203.5c0.2,0,0.5-0.1,0.7-0.3c0.3-0.4,0.4-0.9,0.2-1.4c-0.8-1.7-1.8-3.3-2.8-4.9
			c-0.9-1.8-2.1-3.5-3.3-5.1c-1.1-1.5-2.4-2.9-4-3.9c-2.1-1.4-4.6-1.9-7-1.4c-3.6,0.9-5.9,4.3-5.4,7.9c0.2,2,1,3.8,2.2,5.3
			c1.2,1.2,2.8,2.1,4.5,2.4c2.3,0.5,4.6,0.9,6.9,1.1c1.4,0.1,2.8,0.2,4.2,0.2c0.7,0,1.5,0,2.2,0
			C291.8,203.6,292.3,203.6,292.8,203.5"/>
		<path id="Path_1348" class="st1" d="M293,203.5c0.2,0,0.4-0.1,0.5-0.2c0.2-0.3,0.3-0.7,0.1-1.1c-0.6-1.3-1.4-2.5-2.1-3.7
			c-0.7-1.4-1.6-2.7-2.5-3.9c-0.8-1.2-1.9-2.2-3-3c-1.6-1.1-3.5-1.4-5.3-1c-2.7,0.6-4.5,3.3-4.1,6c0.1,1.5,0.7,2.9,1.7,4.1
			c0.9,0.9,2.1,1.6,3.4,1.8c1.7,0.4,3.5,0.7,5.3,0.8c1.1,0.1,2.1,0.1,3.2,0.2c0.5,0,1.1,0,1.6,0C292.2,203.5,292.6,203.5,293,203.5"
			/>
		<path id="Path_1349" class="st2" d="M293.2,203.4c0.1,0,0.2-0.1,0.3-0.2c0.2-0.2,0.2-0.5,0.1-0.7c-0.4-0.8-0.9-1.6-1.4-2.4
			c-0.5-0.9-1-1.8-1.7-2.6c-0.5-0.8-1.2-1.4-2-2c-1-0.7-2.3-0.9-3.5-0.7c-1.8,0.4-3,2.1-2.7,4c0.1,1,0.5,1.9,1.1,2.7
			c0.6,0.6,1.4,1,2.2,1.2c1.1,0.3,2.3,0.4,3.5,0.5c0.7,0.1,1.4,0.1,2.1,0.1c0.4,0,0.7,0,1.1,0C292.6,203.4,292.9,203.4,293.2,203.4"
			/>
		<path id="Path_1350" class="st0" d="M297.5,203.4c-0.2,0-0.5-0.1-0.7-0.3c-0.3-0.4-0.4-0.9-0.2-1.4c0.8-1.7,1.8-3.3,2.8-4.9
			c0.9-1.8,2.1-3.5,3.3-5.1c1.1-1.5,2.4-2.9,4-3.9c2.1-1.4,4.6-1.9,7-1.4c3.6,0.9,5.9,4.3,5.4,7.9c-0.2,2-1,3.8-2.2,5.3
			c-1.2,1.2-2.8,2.1-4.5,2.4c-2.3,0.5-4.6,0.9-6.9,1.1c-1.4,0.1-2.8,0.2-4.2,0.2c-0.7,0-1.5,0-2.2,0
			C298.6,203.4,298.1,203.4,297.5,203.4"/>
		<path id="Path_1351" class="st1" d="M297.4,203.3c-0.2,0-0.4-0.1-0.5-0.2c-0.2-0.3-0.3-0.7-0.1-1.1c0.6-1.3,1.4-2.5,2.1-3.7
			c0.7-1.4,1.6-2.7,2.5-3.9c0.8-1.2,1.9-2.2,3-3c1.6-1,3.5-1.4,5.3-1c2.7,0.6,4.5,3.3,4.1,6c-0.1,1.5-0.7,2.9-1.7,4.1
			c-0.9,0.9-2.1,1.6-3.4,1.8c-1.7,0.4-3.5,0.7-5.3,0.8c-1.1,0.1-2.1,0.1-3.2,0.2c-0.5,0-1.1,0-1.6,0
			C298.2,203.3,297.8,203.3,297.4,203.3"/>
		<path id="Path_1352" class="st2" d="M297.2,203.2c-0.1,0-0.2-0.1-0.3-0.2c-0.2-0.2-0.2-0.5-0.1-0.7c0.4-0.8,0.9-1.6,1.4-2.4
			c0.5-0.9,1-1.8,1.7-2.6c0.5-0.8,1.2-1.4,2-2c1-0.7,2.3-0.9,3.5-0.7c1.8,0.4,3,2.1,2.7,4c-0.1,1-0.5,1.9-1.1,2.7
			c-0.6,0.6-1.4,1-2.2,1.2c-1.1,0.3-2.3,0.4-3.5,0.5c-0.7,0.1-1.4,0.1-2.1,0.1c-0.4,0-0.7,0-1.1,0
			C297.8,203.2,297.5,203.2,297.2,203.2"/>
		<path id="Path_1353" class="st0" d="M292.7,204c0.2,0,0.5,0.1,0.7,0.3c0.3,0.4,0.4,0.9,0.2,1.4c-0.8,1.7-1.8,3.3-2.8,4.9
			c-0.9,1.8-2.1,3.5-3.3,5.1c-1.1,1.5-2.4,2.9-4,3.9c-2.1,1.4-4.6,1.9-7,1.4c-3.6-0.9-5.9-4.3-5.4-7.9c0.2-2,1-3.8,2.2-5.3
			c1.2-1.2,2.8-2.1,4.5-2.4c2.3-0.5,4.6-0.9,6.9-1.1c1.4-0.1,2.8-0.2,4.2-0.2c0.7,0,1.5,0,2.2,0C291.6,204,292.2,204,292.7,204"/>
		<path id="Path_1354" class="st1" d="M292.9,204.1c0.2,0,0.4,0.1,0.5,0.2c0.2,0.3,0.3,0.7,0.1,1.1c-0.6,1.3-1.4,2.5-2.1,3.7
			c-0.7,1.4-1.6,2.7-2.5,3.9c-0.8,1.2-1.9,2.2-3,3c-1.6,1.1-3.5,1.4-5.3,1c-2.7-0.6-4.5-3.3-4.1-6c0.1-1.5,0.7-2.9,1.7-4.1
			c0.9-0.9,2.1-1.6,3.4-1.8c1.7-0.4,3.5-0.7,5.3-0.8c1.1-0.1,2.1-0.1,3.2-0.2c0.5,0,1.1,0,1.6,0C292,204.1,292.5,204.1,292.9,204.1"
			/>
		<path id="Path_1355" class="st2" d="M293.1,204.2c0.1,0,0.2,0.1,0.3,0.2c0.2,0.2,0.2,0.5,0.1,0.7c-0.4,0.8-0.9,1.6-1.4,2.4
			c-0.5,0.9-1,1.8-1.7,2.6c-0.5,0.8-1.2,1.4-2,2c-1,0.7-2.3,0.9-3.5,0.7c-1.8-0.4-3-2.1-2.7-4c0.1-1,0.5-1.9,1.1-2.7
			c0.6-0.6,1.4-1,2.2-1.2c1.1-0.3,2.3-0.4,3.5-0.5c0.7-0.1,1.4-0.1,2.1-0.1c0.4,0,0.7,0,1.1,0C292.5,204.2,292.8,204.1,293.1,204.2"
			/>
		<path id="Path_1356" class="st0" d="M297.7,203.8c-0.2,0-0.5,0.1-0.7,0.3c-0.3,0.4-0.4,0.9-0.2,1.4c0.8,1.7,1.8,3.3,2.8,4.9
			c0.9,1.8,2.1,3.5,3.3,5.1c1.1,1.5,2.4,2.9,4,3.9c2.1,1.4,4.6,1.9,7,1.4c3.6-0.9,5.9-4.3,5.4-7.9c-0.2-2-1-3.8-2.2-5.3
			c-1.2-1.2-2.8-2.1-4.5-2.4c-2.3-0.5-4.6-0.9-6.9-1.1c-1.4-0.1-2.8-0.2-4.2-0.2c-0.7,0-1.5,0-2.2,0
			C298.8,203.8,298.2,203.8,297.7,203.8"/>
		<path id="Path_1357" class="st1" d="M297.5,203.9c-0.2,0-0.4,0.1-0.5,0.2c-0.2,0.3-0.3,0.7-0.1,1.1c0.6,1.3,1.4,2.5,2.1,3.7
			c0.7,1.4,1.6,2.7,2.5,3.9c0.8,1.2,1.9,2.2,3,3c1.6,1.1,3.5,1.4,5.3,1c2.7-0.6,4.5-3.3,4.1-6c-0.1-1.5-0.7-2.9-1.7-4.1
			c-0.9-0.9-2.1-1.6-3.4-1.8c-1.7-0.4-3.5-0.7-5.3-0.8c-1.1-0.1-2.1-0.1-3.2-0.2c-0.5,0-1.1,0-1.6,0
			C298.4,203.9,297.9,203.9,297.5,203.9"/>
		<path id="Path_1358" class="st2" d="M297.3,204c-0.1,0-0.2,0.1-0.3,0.2c-0.2,0.2-0.2,0.5-0.1,0.7c0.4,0.8,0.9,1.6,1.4,2.4
			c0.5,0.9,1,1.8,1.7,2.6c0.5,0.8,1.2,1.4,2,2c1,0.7,2.3,0.9,3.5,0.7c1.8-0.4,3-2.1,2.7-4c-0.1-1-0.5-1.9-1.1-2.7
			c-0.6-0.6-1.4-1-2.2-1.2c-1.1-0.3-2.3-0.4-3.5-0.5c-0.7-0.1-1.4-0.1-2.1-0.1c-0.4,0-0.7,0-1.1,0C297.9,204,297.6,204,297.3,204"/>
		<path id="Path_1377" class="st0" d="M428.6,283.4c0.2-0.2,0.4-0.3,0.6-0.4c0.5-0.1,1,0.1,1.3,0.6c1,1.6,1.9,3.2,2.7,4.9
			c1.1,1.8,1.9,3.6,2.6,5.5c0.7,1.7,1.2,3.5,1.3,5.4c0.1,2.5-0.8,4.9-2.5,6.7c-2.6,2.6-6.8,2.8-9.6,0.5c-1.6-1.2-2.8-2.8-3.4-4.7
			c-0.4-1.7-0.3-3.5,0.3-5.1c0.7-2.2,1.6-4.4,2.7-6.5c0.6-1.2,1.3-2.5,2-3.7c0.4-0.6,0.7-1.2,1.1-1.9
			C428,284.3,428.3,283.8,428.6,283.4"/>
		<path id="Path_1378" class="st1" d="M428.8,283.3c0.1-0.1,0.3-0.2,0.5-0.3c0.4-0.1,0.8,0.1,1,0.5c0.8,1.2,1.4,2.5,2,3.7
			c0.8,1.3,1.5,2.7,2,4.2c0.6,1.3,0.9,2.7,1,4.1c0.1,1.9-0.6,3.7-1.9,5.1c-2,2-5.1,2.1-7.3,0.4c-1.2-0.9-2.1-2.1-2.6-3.6
			c-0.3-1.3-0.2-2.6,0.2-3.9c0.6-1.7,1.2-3.3,2-4.9c0.5-1,1-1.9,1.5-2.8c0.3-0.5,0.6-1,0.8-1.4C428.3,284,428.5,283.6,428.8,283.3"
			/>
		<path id="Path_1379" class="st2" d="M428.9,283.1c0.1-0.1,0.2-0.2,0.3-0.2c0.2,0,0.5,0.1,0.6,0.3c0.5,0.8,1,1.6,1.4,2.5
			c0.5,0.9,1,1.8,1.3,2.8c0.4,0.9,0.6,1.8,0.6,2.7c0,1.2-0.4,2.4-1.2,3.4c-1.3,1.3-3.4,1.4-4.8,0.2c-0.8-0.6-1.4-1.4-1.7-2.4
			c-0.2-0.8-0.1-1.7,0.2-2.5c0.4-1.1,0.8-2.2,1.3-3.2c0.3-0.6,0.6-1.2,1-1.9c0.2-0.3,0.4-0.6,0.6-0.9
			C428.6,283.6,428.8,283.4,428.9,283.1"/>
		<path id="Path_1380" class="st0" d="M428.6,279.1c0.2,0.2,0.4,0.3,0.6,0.4c0.5,0.1,1-0.1,1.3-0.6c1-1.6,1.9-3.2,2.7-4.9
			c1.1-1.8,1.9-3.6,2.6-5.5c0.7-1.7,1.2-3.5,1.3-5.4c0.1-2.5-0.8-4.9-2.5-6.7c-2.6-2.6-6.8-2.8-9.6-0.5c-1.6,1.2-2.8,2.8-3.4,4.7
			c-0.4,1.7-0.3,3.5,0.3,5.1c0.7,2.2,1.6,4.4,2.7,6.5c0.6,1.2,1.3,2.5,2,3.7c0.4,0.6,0.7,1.2,1.1,1.9
			C428,278.2,428.3,278.6,428.6,279.1"/>
		<path id="Path_1381" class="st1" d="M428.8,279.2c0.1,0.1,0.3,0.2,0.5,0.3c0.4,0.1,0.8-0.1,1-0.5c0.8-1.2,1.4-2.5,2-3.7
			c0.8-1.3,1.5-2.7,2-4.2c0.6-1.3,0.9-2.7,1-4.1c0.1-1.9-0.6-3.7-1.9-5.1c-2-2-5.1-2.1-7.3-0.4c-1.2,0.9-2.1,2.1-2.6,3.6
			c-0.3,1.3-0.2,2.6,0.2,3.9c0.6,1.7,1.2,3.3,2,4.9c0.5,1,1,1.9,1.5,2.8c0.3,0.5,0.6,1,0.8,1.4C428.3,278.5,428.5,278.9,428.8,279.2
			"/>
		<path id="Path_1382" class="st2" d="M428.9,279.3c0.1,0.1,0.2,0.2,0.3,0.2c0.2,0,0.5-0.1,0.6-0.3c0.5-0.8,1-1.6,1.4-2.5
			c0.5-0.9,1-1.8,1.3-2.8c0.4-0.9,0.6-1.8,0.6-2.7c0-1.2-0.4-2.4-1.2-3.4c-1.3-1.3-3.4-1.4-4.8-0.2c-0.8,0.6-1.4,1.4-1.7,2.4
			c-0.2,0.8-0.1,1.7,0.2,2.5c0.4,1.1,0.8,2.2,1.3,3.2c0.3,0.6,0.6,1.2,1,1.9c0.2,0.3,0.4,0.6,0.6,0.9
			C428.6,278.9,428.8,279.1,428.9,279.3"/>
		<path id="Path_1383" class="st0" d="M427.1,281.3c0.2,0,0.5-0.1,0.7-0.3c0.3-0.4,0.4-1,0.2-1.4c-0.8-1.7-1.8-3.3-2.8-4.9
			c-0.9-1.8-2.1-3.5-3.3-5.1c-1.1-1.5-2.4-2.9-4-3.9c-2.1-1.4-4.6-1.9-7-1.4c-3.6,0.9-5.9,4.3-5.4,8c0.2,2,1,3.8,2.2,5.3
			c1.2,1.2,2.8,2.1,4.5,2.4c2.3,0.5,4.6,0.9,6.9,1.1c1.4,0.1,2.8,0.2,4.2,0.2c0.7,0,1.5,0,2.2,0C426,281.4,426.6,281.4,427.1,281.3"
			/>
		<path id="Path_1384" class="st1" d="M427.3,281.2c0.2,0,0.4-0.1,0.5-0.2c0.2-0.3,0.3-0.7,0.1-1.1c-0.6-1.3-1.4-2.5-2.1-3.7
			c-0.7-1.4-1.6-2.7-2.5-3.9c-0.8-1.2-1.9-2.2-3-3c-1.6-1-3.5-1.4-5.3-1c-2.7,0.6-4.5,3.3-4.1,6c0.1,1.5,0.7,2.9,1.7,4
			c0.9,0.9,2.1,1.6,3.4,1.8c1.7,0.4,3.5,0.7,5.3,0.8c1.1,0.1,2.1,0.1,3.2,0.2c0.5,0,1.1,0,1.6,0
			C426.4,281.3,426.8,281.3,427.3,281.2"/>
		<path id="Path_1385" class="st2" d="M427.4,281.2c0.1,0,0.2-0.1,0.3-0.2c0.2-0.2,0.2-0.5,0.1-0.7c-0.4-0.8-0.9-1.6-1.4-2.4
			c-0.5-0.9-1-1.8-1.7-2.6c-0.5-0.8-1.2-1.4-2-2c-1-0.7-2.3-0.9-3.5-0.7c-1.8,0.4-3,2.1-2.7,4c0.1,1,0.5,1.9,1.1,2.7
			c0.6,0.6,1.4,1,2.2,1.2c1.1,0.3,2.3,0.4,3.5,0.5c0.7,0.1,1.4,0.1,2.1,0.1c0.4,0,0.7,0,1.1,0C426.9,281.2,427.2,281.2,427.4,281.2"
			/>
		<path id="Path_1386" class="st0" d="M431.8,281.1c-0.2,0-0.5-0.1-0.7-0.3c-0.3-0.4-0.4-1-0.2-1.4c0.8-1.7,1.8-3.3,2.8-4.9
			c0.9-1.8,2.1-3.5,3.3-5.1c1.1-1.5,2.4-2.9,4-3.9c2.1-1.4,4.6-1.9,7-1.4c3.6,0.9,5.9,4.3,5.4,8c-0.2,2-1,3.8-2.2,5.3
			c-1.2,1.2-2.8,2.1-4.5,2.4c-2.3,0.5-4.6,0.9-6.9,1.1c-1.4,0.1-2.8,0.2-4.2,0.2c-0.7,0-1.5,0-2.2,0
			C432.9,281.2,432.3,281.2,431.8,281.1"/>
		<path id="Path_1387" class="st1" d="M431.6,281.1c-0.2,0-0.4-0.1-0.5-0.2c-0.2-0.3-0.3-0.7-0.1-1.1c0.6-1.3,1.4-2.5,2.1-3.7
			c0.7-1.4,1.6-2.7,2.5-3.9c0.8-1.2,1.9-2.2,3-3c1.6-1,3.5-1.4,5.3-1c2.7,0.6,4.5,3.3,4.1,6c-0.1,1.5-0.7,2.9-1.7,4
			c-0.9,0.9-2.1,1.6-3.4,1.8c-1.7,0.4-3.5,0.7-5.3,0.8c-1.1,0.1-2.1,0.1-3.2,0.2c-0.5,0-1.1,0-1.6,0
			C432.5,281.1,432.1,281.1,431.6,281.1"/>
		<path id="Path_1388" class="st2" d="M431.5,281c-0.1,0-0.2-0.1-0.3-0.2c-0.2-0.2-0.2-0.5-0.1-0.7c0.4-0.8,0.9-1.6,1.4-2.4
			c0.5-0.9,1-1.8,1.7-2.6c0.5-0.8,1.2-1.4,2-2c1-0.7,2.3-0.9,3.5-0.7c1.8,0.4,3,2.1,2.7,4c-0.1,1-0.5,1.9-1.1,2.7
			c-0.6,0.6-1.4,1-2.2,1.2c-1.1,0.3-2.3,0.4-3.5,0.5c-0.7,0.1-1.4,0.1-2.1,0.1c-0.4,0-0.7,0-1.1,0C432,281,431.7,281,431.5,281"/>
		<path id="Path_1389" class="st0" d="M427,281.8c0.2,0,0.5,0.1,0.7,0.3c0.3,0.4,0.4,1,0.2,1.4c-0.8,1.7-1.8,3.3-2.8,4.9
			c-0.9,1.8-2.1,3.5-3.3,5.1c-1.1,1.5-2.4,2.9-4,3.9c-2.1,1.4-4.6,1.9-7,1.4c-3.6-0.9-5.9-4.3-5.4-8c0.2-2,1-3.8,2.2-5.3
			c1.2-1.2,2.8-2.1,4.5-2.4c2.3-0.5,4.6-0.9,6.9-1.1c1.4-0.1,2.8-0.2,4.2-0.2c0.7,0,1.5,0,2.2,0C425.9,281.8,426.4,281.7,427,281.8"
			/>
		<path id="Path_1390" class="st1" d="M427.1,281.9c0.2,0,0.4,0.1,0.5,0.2c0.2,0.3,0.3,0.7,0.1,1.1c-0.6,1.3-1.4,2.5-2.1,3.7
			c-0.7,1.4-1.6,2.7-2.5,3.9c-0.8,1.2-1.9,2.2-3,3c-1.6,1-3.5,1.4-5.3,1c-2.7-0.6-4.5-3.3-4.1-6c0.1-1.5,0.7-2.9,1.7-4
			c0.9-0.9,2.1-1.6,3.4-1.8c1.7-0.4,3.5-0.7,5.3-0.8c1.1-0.1,2.1-0.1,3.2-0.2c0.5,0,1.1,0,1.6,0
			C426.3,281.9,426.7,281.9,427.1,281.9"/>
		<path id="Path_1391" class="st2" d="M427.3,282c0.1,0,0.2,0.1,0.3,0.2c0.2,0.2,0.2,0.5,0.1,0.7c-0.4,0.8-0.9,1.6-1.4,2.4
			c-0.5,0.9-1,1.8-1.7,2.6c-0.5,0.8-1.2,1.4-2,2c-1,0.7-2.3,0.9-3.5,0.7c-1.8-0.4-3-2.1-2.7-4c0.1-1,0.5-1.9,1.1-2.7
			c0.6-0.6,1.4-1,2.2-1.2c1.1-0.3,2.3-0.4,3.5-0.5c0.7-0.1,1.4-0.1,2.1-0.1c0.4,0,0.7,0,1.1,0C426.8,282,427,281.9,427.3,282"/>
		<path id="Path_1392" class="st0" d="M431.9,281.6c-0.2,0-0.5,0.1-0.7,0.3c-0.3,0.4-0.4,1-0.2,1.4c0.8,1.7,1.8,3.3,2.8,4.9
			c0.9,1.8,2.1,3.5,3.3,5.1c1.1,1.5,2.4,2.9,4,3.9c2.1,1.4,4.6,1.9,7,1.4c3.6-0.9,5.9-4.3,5.4-8c-0.2-2-1-3.8-2.2-5.3
			c-1.2-1.2-2.8-2.1-4.5-2.4c-2.3-0.5-4.6-0.9-6.9-1.1c-1.4-0.1-2.8-0.2-4.2-0.2c-0.7,0-1.5,0-2.2,0
			C433,281.6,432.5,281.6,431.9,281.6"/>
		<path id="Path_1393" class="st1" d="M431.8,281.7c-0.2,0-0.4,0.1-0.5,0.2c-0.2,0.3-0.3,0.7-0.1,1.1c0.6,1.3,1.4,2.5,2.1,3.7
			c0.7,1.4,1.6,2.7,2.5,3.9c0.8,1.2,1.9,2.2,3,3c1.6,1,3.5,1.4,5.3,1c2.7-0.6,4.5-3.3,4.1-6c-0.1-1.5-0.7-2.9-1.7-4
			c-0.9-0.9-2.1-1.6-3.4-1.8c-1.7-0.4-3.5-0.7-5.3-0.8c-1.1-0.1-2.1-0.1-3.2-0.2c-0.5,0-1.1,0-1.6,0
			C432.6,281.7,432.2,281.7,431.8,281.7"/>
		<path id="Path_1394" class="st2" d="M431.6,281.8c-0.1,0-0.2,0.1-0.3,0.2c-0.2,0.2-0.2,0.5-0.1,0.7c0.4,0.8,0.9,1.6,1.4,2.4
			c0.5,0.9,1,1.8,1.7,2.6c0.5,0.8,1.2,1.4,2,2c1,0.7,2.3,0.9,3.5,0.7c1.8-0.4,3-2.1,2.7-4c-0.1-1-0.5-1.9-1.1-2.7
			c-0.6-0.6-1.4-1-2.2-1.2c-1.1-0.3-2.3-0.4-3.5-0.5c-0.7-0.1-1.4-0.1-2.1-0.1c-0.4,0-0.7,0-1.1,0
			C432.1,281.8,431.9,281.8,431.6,281.8"/>
		<path id="Path_1395" class="st0" d="M373.6,270.3c0.2-0.2,0.4-0.3,0.6-0.4c0.5-0.1,1,0.1,1.3,0.6c1,1.6,1.9,3.2,2.7,4.9
			c1.1,1.8,1.9,3.6,2.6,5.5c0.7,1.7,1.2,3.5,1.3,5.4c0.1,2.5-0.8,4.9-2.5,6.7c-2.6,2.6-6.8,2.8-9.6,0.5c-1.6-1.2-2.8-2.8-3.4-4.7
			c-0.4-1.7-0.3-3.5,0.3-5.1c0.7-2.2,1.6-4.4,2.7-6.5c0.6-1.2,1.3-2.5,2-3.7c0.4-0.6,0.7-1.2,1.1-1.9
			C373.1,271.2,373.3,270.7,373.6,270.3"/>
		<path id="Path_1396" class="st1" d="M373.8,270.2c0.1-0.1,0.3-0.2,0.5-0.3c0.4-0.1,0.8,0.1,1,0.5c0.8,1.2,1.4,2.5,2,3.7
			c0.8,1.3,1.5,2.7,2,4.2c0.6,1.3,0.9,2.7,1,4.1c0.1,1.9-0.6,3.7-1.9,5.1c-2,2-5.1,2.1-7.3,0.4c-1.2-0.9-2.1-2.1-2.6-3.6
			c-0.3-1.3-0.2-2.6,0.2-3.9c0.6-1.7,1.2-3.3,2-4.9c0.5-1,1-1.9,1.5-2.8c0.3-0.5,0.6-1,0.8-1.4C373.4,270.9,373.6,270.5,373.8,270.2
			"/>
		<path id="Path_1397" class="st2" d="M374,270c0.1-0.1,0.2-0.2,0.3-0.2c0.2,0,0.5,0.1,0.6,0.3c0.5,0.8,1,1.6,1.4,2.5
			c0.5,0.9,1,1.8,1.3,2.8c0.4,0.9,0.6,1.8,0.6,2.7c0,1.2-0.4,2.4-1.2,3.4c-1.3,1.3-3.4,1.4-4.8,0.2c-0.8-0.6-1.4-1.4-1.7-2.4
			c-0.2-0.8-0.1-1.7,0.2-2.5c0.4-1.1,0.8-2.2,1.3-3.2c0.3-0.6,0.6-1.2,1-1.9c0.2-0.3,0.4-0.6,0.6-0.9
			C373.7,270.5,373.8,270.3,374,270"/>
		<path id="Path_1398" class="st0" d="M373.6,266c0.2,0.2,0.4,0.3,0.6,0.4c0.5,0.1,1-0.1,1.3-0.6c1-1.6,1.9-3.2,2.7-4.9
			c1.1-1.8,1.9-3.6,2.6-5.5c0.7-1.7,1.2-3.6,1.3-5.4c0.1-2.5-0.8-4.9-2.5-6.7c-2.6-2.6-6.8-2.8-9.6-0.5c-1.6,1.2-2.8,2.8-3.4,4.7
			c-0.4,1.7-0.3,3.5,0.3,5.1c0.7,2.2,1.6,4.4,2.7,6.5c0.6,1.2,1.3,2.5,2,3.7c0.4,0.6,0.7,1.2,1.1,1.9
			C373.1,265.1,373.3,265.5,373.6,266"/>
		<path id="Path_1399" class="st1" d="M373.8,266.1c0.1,0.1,0.3,0.2,0.5,0.3c0.4,0.1,0.8-0.1,1-0.5c0.8-1.2,1.4-2.5,2-3.7
			c0.8-1.3,1.5-2.7,2-4.2c0.6-1.3,0.9-2.7,1-4.1c0.1-1.9-0.6-3.7-1.9-5.1c-2-2-5.1-2.1-7.3-0.4c-1.2,0.9-2.1,2.1-2.6,3.6
			c-0.3,1.3-0.2,2.6,0.2,3.9c0.6,1.7,1.2,3.3,2,4.9c0.5,1,1,1.9,1.5,2.8c0.3,0.5,0.6,1,0.8,1.4C373.3,265.4,373.6,265.8,373.8,266.1
			"/>
		<path id="Path_1400" class="st2" d="M374,266.2c0.1,0.1,0.2,0.2,0.3,0.2c0.2,0,0.5-0.1,0.6-0.3c0.5-0.8,1-1.6,1.4-2.5
			c0.5-0.9,1-1.8,1.3-2.8c0.4-0.9,0.6-1.8,0.6-2.7c0-1.2-0.4-2.4-1.2-3.4c-1.3-1.3-3.4-1.4-4.8-0.2c-0.8,0.6-1.4,1.4-1.7,2.4
			c-0.2,0.8-0.1,1.7,0.2,2.5c0.4,1.1,0.8,2.2,1.3,3.2c0.3,0.6,0.6,1.2,1,1.9c0.2,0.3,0.4,0.6,0.6,0.9
			C373.7,265.8,373.8,266,374,266.2"/>
		<path id="Path_1401" class="st0" d="M372.2,268.2c0.2,0,0.5-0.1,0.7-0.3c0.3-0.4,0.4-1,0.2-1.4c-0.8-1.7-1.8-3.3-2.8-4.9
			c-0.9-1.8-2.1-3.5-3.3-5.1c-1.1-1.5-2.4-2.9-4-3.9c-2.1-1.4-4.6-1.9-7-1.4c-3.6,0.9-5.9,4.3-5.4,8c0.2,2,1,3.8,2.2,5.3
			c1.2,1.2,2.8,2.1,4.5,2.4c2.3,0.5,4.6,0.9,6.9,1.1c1.4,0.1,2.8,0.2,4.2,0.2c0.7,0,1.5,0,2.2,0
			C371.1,268.3,371.6,268.3,372.2,268.2"/>
		<path id="Path_1402" class="st1" d="M372.3,268.1c0.2,0,0.4-0.1,0.5-0.2c0.2-0.3,0.3-0.7,0.1-1.1c-0.6-1.3-1.4-2.5-2.1-3.7
			c-0.7-1.4-1.6-2.7-2.5-3.9c-0.8-1.2-1.9-2.2-3-3c-1.6-1.1-3.5-1.4-5.3-1c-2.7,0.6-4.5,3.3-4.1,6c0.1,1.5,0.7,2.9,1.7,4
			c0.9,0.9,2.1,1.6,3.4,1.8c1.7,0.4,3.5,0.7,5.3,0.8c1.1,0.1,2.1,0.1,3.2,0.2c0.5,0,1.1,0,1.6,0
			C371.5,268.2,371.9,268.2,372.3,268.1"/>
		<path id="Path_1403" class="st2" d="M372.5,268.1c0.1,0,0.2-0.1,0.3-0.2c0.2-0.2,0.2-0.5,0.1-0.7c-0.4-0.8-0.9-1.6-1.4-2.4
			c-0.5-0.9-1-1.8-1.7-2.6c-0.5-0.8-1.2-1.4-2-2c-1-0.7-2.3-0.9-3.5-0.7c-1.8,0.4-3,2.1-2.7,4c0.1,1,0.5,1.9,1.1,2.7
			c0.6,0.6,1.4,1,2.2,1.2c1.1,0.3,2.3,0.4,3.5,0.5c0.7,0.1,1.4,0.1,2.1,0.1c0.4,0,0.7,0,1.1,0C371.9,268.1,372.2,268.1,372.5,268.1"
			/>
		<path id="Path_1404" class="st0" d="M376.9,268c-0.2,0-0.5-0.1-0.7-0.3c-0.3-0.4-0.4-1-0.2-1.4c0.8-1.7,1.8-3.3,2.8-4.9
			c0.9-1.8,2.1-3.5,3.3-5.1c1.1-1.5,2.4-2.9,4-3.9c2.1-1.4,4.6-1.9,7-1.4c3.6,0.9,5.9,4.3,5.4,8c-0.2,2-1,3.8-2.2,5.3
			c-1.2,1.2-2.8,2.1-4.5,2.4c-2.3,0.5-4.6,0.9-6.9,1.1c-1.4,0.1-2.8,0.2-4.2,0.2c-0.7,0-1.5,0-2.2,0
			C378,268.1,377.4,268.1,376.9,268"/>
		<path id="Path_1405" class="st1" d="M376.7,268c-0.2,0-0.4-0.1-0.5-0.2c-0.2-0.3-0.3-0.7-0.1-1.1c0.6-1.3,1.4-2.5,2.1-3.7
			c0.7-1.4,1.6-2.7,2.5-3.9c0.8-1.2,1.9-2.2,3-3c1.6-1.1,3.5-1.4,5.3-1c2.7,0.6,4.5,3.3,4.1,6c-0.1,1.5-0.7,2.9-1.7,4
			c-0.9,0.9-2.1,1.6-3.4,1.8c-1.7,0.4-3.5,0.7-5.3,0.8c-1.1,0.1-2.1,0.1-3.2,0.2c-0.5,0-1.1,0-1.6,0C377.5,268,377.1,268,376.7,268"
			/>
		<path id="Path_1406" class="st2" d="M376.5,267.9c-0.1,0-0.2-0.1-0.3-0.2c-0.2-0.2-0.2-0.5-0.1-0.7c0.4-0.8,0.9-1.6,1.4-2.4
			c0.5-0.9,1-1.8,1.7-2.6c0.5-0.8,1.2-1.4,2-2c1-0.7,2.3-0.9,3.5-0.7c1.8,0.4,3,2.1,2.7,4c-0.1,1-0.5,1.9-1.1,2.7
			c-0.6,0.6-1.4,1-2.2,1.2c-1.1,0.3-2.3,0.4-3.5,0.5c-0.7,0.1-1.4,0.1-2.1,0.1c-0.4,0-0.7,0-1.1,0
			C377.1,267.9,376.8,267.9,376.5,267.9"/>
		<path id="Path_1407" class="st0" d="M372,268.7c0.2,0,0.5,0.1,0.7,0.3c0.3,0.4,0.4,1,0.2,1.4c-0.8,1.7-1.8,3.3-2.8,4.9
			c-0.9,1.8-2.1,3.5-3.3,5.1c-1.1,1.5-2.4,2.9-4,3.9c-2.1,1.4-4.6,1.9-7,1.4c-3.6-0.9-5.9-4.3-5.4-8c0.2-2,1-3.8,2.2-5.3
			c1.2-1.2,2.8-2.1,4.5-2.4c2.3-0.5,4.6-0.9,6.9-1.1c1.4-0.1,2.8-0.2,4.2-0.2c0.7,0,1.5,0,2.2,0C370.9,268.7,371.5,268.6,372,268.7"
			/>
		<path id="Path_1408" class="st1" d="M372.2,268.8c0.2,0,0.4,0.1,0.5,0.2c0.2,0.3,0.3,0.7,0.1,1.1c-0.6,1.3-1.4,2.5-2.1,3.7
			c-0.7,1.4-1.6,2.7-2.5,3.9c-0.8,1.2-1.9,2.2-3,3c-1.6,1-3.5,1.4-5.3,1c-2.7-0.6-4.5-3.3-4.1-6c0.1-1.5,0.7-2.9,1.7-4
			c0.9-0.9,2.1-1.6,3.4-1.8c1.7-0.4,3.5-0.7,5.3-0.8c1.1-0.1,2.1-0.1,3.2-0.2c0.5,0,1.1,0,1.6,0
			C371.4,268.8,371.8,268.8,372.2,268.8"/>
		<path id="Path_1409" class="st2" d="M372.4,268.9c0.1,0,0.2,0.1,0.3,0.2c0.2,0.2,0.2,0.5,0.1,0.7c-0.4,0.8-0.9,1.6-1.4,2.4
			c-0.5,0.9-1,1.8-1.7,2.6c-0.5,0.8-1.2,1.4-2,2c-1,0.7-2.3,0.9-3.5,0.7c-1.8-0.4-3-2.1-2.7-4c0.1-1,0.5-1.9,1.1-2.7
			c0.6-0.6,1.4-1,2.2-1.2c1.1-0.3,2.3-0.4,3.5-0.5c0.7-0.1,1.4-0.1,2.1-0.1c0.4,0,0.7,0,1.1,0C371.8,268.9,372.1,268.8,372.4,268.9"
			/>
		<path id="Path_1410" class="st0" d="M377,268.5c-0.2,0-0.5,0.1-0.7,0.3c-0.3,0.4-0.4,1-0.2,1.4c0.8,1.7,1.8,3.3,2.8,4.9
			c0.9,1.8,2.1,3.5,3.3,5.1c1.1,1.5,2.4,2.9,4,3.9c2.1,1.4,4.6,1.9,7,1.4c3.6-0.9,5.9-4.3,5.4-8c-0.2-2-1-3.8-2.2-5.3
			c-1.2-1.2-2.8-2.1-4.5-2.4c-2.3-0.5-4.6-0.9-6.9-1.1c-1.4-0.1-2.8-0.2-4.2-0.2c-0.7,0-1.5,0-2.2,0
			C378.1,268.5,377.5,268.5,377,268.5"/>
		<path id="Path_1411" class="st1" d="M376.8,268.6c-0.2,0-0.4,0.1-0.5,0.2c-0.2,0.3-0.3,0.7-0.1,1.1c0.6,1.3,1.4,2.5,2.1,3.7
			c0.7,1.4,1.6,2.7,2.5,3.9c0.8,1.2,1.9,2.2,3,3c1.6,1,3.5,1.4,5.3,1c2.7-0.6,4.5-3.3,4.1-6c-0.1-1.5-0.7-2.9-1.7-4
			c-0.9-0.9-2.1-1.6-3.4-1.8c-1.7-0.4-3.5-0.7-5.3-0.8c-1.1-0.1-2.1-0.1-3.2-0.2c-0.5,0-1.1,0-1.6,0
			C377.7,268.6,377.3,268.6,376.8,268.6"/>
		<path id="Path_1412" class="st2" d="M376.6,268.7c-0.1,0-0.2,0.1-0.3,0.2c-0.2,0.2-0.2,0.5-0.1,0.7c0.4,0.8,0.9,1.6,1.4,2.4
			c0.5,0.9,1,1.8,1.7,2.6c0.5,0.8,1.2,1.4,2,2c1,0.7,2.3,0.9,3.5,0.7c1.8-0.4,3-2.1,2.7-4c-0.1-1-0.5-1.9-1.1-2.7
			c-0.6-0.6-1.4-1-2.2-1.2c-1.1-0.3-2.3-0.4-3.5-0.5c-0.7-0.1-1.4-0.1-2.1-0.1c-0.4,0-0.7,0-1.1,0
			C377.2,268.7,376.9,268.7,376.6,268.7"/>
		<path id="Path_1413" class="st0" d="M319.4,259.6c0.2-0.2,0.4-0.3,0.6-0.4c0.5-0.1,1,0.1,1.3,0.6c1,1.6,1.9,3.2,2.7,4.9
			c1.1,1.8,1.9,3.6,2.6,5.5c0.7,1.7,1.2,3.6,1.3,5.4c0.1,2.5-0.8,4.9-2.5,6.7c-2.6,2.6-6.8,2.8-9.6,0.5c-1.6-1.2-2.8-2.8-3.4-4.7
			c-0.4-1.7-0.3-3.5,0.3-5.1c0.7-2.2,1.6-4.4,2.7-6.5c0.6-1.2,1.3-2.5,2-3.7c0.4-0.6,0.7-1.2,1.1-1.9
			C318.8,260.5,319.1,260,319.4,259.6"/>
		<path id="Path_1414" class="st1" d="M319.6,259.5c0.1-0.1,0.3-0.2,0.5-0.3c0.4-0.1,0.8,0.1,1,0.5c0.8,1.2,1.4,2.5,2,3.7
			c0.8,1.3,1.5,2.7,2,4.2c0.6,1.3,0.9,2.7,1,4.1c0.1,1.9-0.6,3.7-1.9,5.1c-2,2-5.1,2.1-7.3,0.4c-1.2-0.9-2.1-2.1-2.6-3.6
			c-0.3-1.3-0.2-2.6,0.2-3.9c0.6-1.7,1.2-3.3,2-4.9c0.5-1,1-1.9,1.5-2.8c0.3-0.5,0.6-1,0.8-1.4C319.1,260.2,319.3,259.8,319.6,259.5
			"/>
		<path id="Path_1415" class="st2" d="M319.8,259.4c0.1-0.1,0.2-0.2,0.3-0.2c0.2,0,0.5,0.1,0.6,0.3c0.5,0.8,1,1.6,1.4,2.5
			c0.5,0.9,1,1.8,1.3,2.8c0.4,0.9,0.6,1.8,0.6,2.7c0,1.2-0.4,2.4-1.2,3.4c-1.3,1.3-3.4,1.4-4.8,0.2c-0.8-0.6-1.4-1.4-1.7-2.4
			c-0.2-0.8-0.1-1.7,0.2-2.5c0.4-1.1,0.8-2.2,1.3-3.2c0.3-0.6,0.6-1.2,1-1.9c0.2-0.3,0.4-0.6,0.6-0.9
			C319.5,259.8,319.6,259.6,319.8,259.4"/>
		<path id="Path_1416" class="st0" d="M319.4,255.3c0.2,0.2,0.4,0.3,0.6,0.4c0.5,0.1,1-0.1,1.3-0.6c1-1.6,1.9-3.2,2.7-4.9
			c1.1-1.8,1.9-3.6,2.6-5.5c0.7-1.7,1.2-3.6,1.3-5.4c0.1-2.5-0.8-4.9-2.5-6.7c-2.6-2.6-6.8-2.8-9.6-0.5c-1.6,1.2-2.8,2.8-3.4,4.7
			c-0.4,1.7-0.3,3.5,0.3,5.1c0.7,2.2,1.6,4.4,2.7,6.5c0.6,1.2,1.3,2.5,2,3.7c0.4,0.6,0.7,1.2,1.1,1.9
			C318.8,254.4,319.1,254.9,319.4,255.3"/>
		<path id="Path_1417" class="st1" d="M319.6,255.4c0.1,0.1,0.3,0.2,0.5,0.3c0.4,0.1,0.8-0.1,1-0.4c0.8-1.2,1.4-2.5,2-3.7
			c0.8-1.3,1.5-2.7,2-4.2c0.6-1.3,0.9-2.7,1-4.1c0.1-1.9-0.6-3.7-1.9-5.1c-2-2-5.1-2.1-7.3-0.4c-1.2,0.9-2.1,2.1-2.6,3.6
			c-0.3,1.3-0.2,2.6,0.2,3.9c0.6,1.7,1.2,3.3,2,4.9c0.5,0.9,1,1.9,1.5,2.8c0.3,0.5,0.6,0.9,0.8,1.4
			C319.1,254.7,319.3,255.1,319.6,255.4"/>
		<path id="Path_1418" class="st2" d="M319.8,255.5c0.1,0.1,0.2,0.2,0.3,0.2c0.2,0,0.5-0.1,0.6-0.3c0.5-0.8,1-1.6,1.4-2.5
			c0.5-0.9,1-1.8,1.3-2.8c0.4-0.9,0.6-1.8,0.6-2.7c0-1.2-0.4-2.4-1.2-3.4c-1.3-1.3-3.4-1.4-4.8-0.2c-0.8,0.6-1.4,1.4-1.7,2.4
			c-0.2,0.8-0.1,1.7,0.2,2.5c0.4,1.1,0.8,2.2,1.3,3.2c0.3,0.6,0.6,1.2,1,1.9c0.2,0.3,0.4,0.6,0.6,0.9
			C319.5,255.1,319.6,255.3,319.8,255.5"/>
		<path id="Path_1419" class="st0" d="M317.9,257.5c0.2,0,0.5-0.1,0.7-0.3c0.3-0.4,0.4-1,0.2-1.4c-0.8-1.7-1.8-3.3-2.8-4.9
			c-0.9-1.8-2.1-3.5-3.3-5.1c-1.1-1.5-2.4-2.9-4-3.9c-2.1-1.4-4.6-1.9-7-1.4c-3.6,0.9-5.9,4.3-5.4,7.9c0.2,2,1,3.8,2.2,5.3
			c1.2,1.2,2.8,2.1,4.5,2.4c2.3,0.5,4.6,0.9,6.9,1.1c1.4,0.1,2.8,0.2,4.2,0.2c0.7,0,1.5,0,2.2,0
			C316.9,257.6,317.4,257.6,317.9,257.5"/>
		<path id="Path_1420" class="st1" d="M318.1,257.5c0.2,0,0.4-0.1,0.5-0.2c0.2-0.3,0.3-0.7,0.1-1.1c-0.6-1.3-1.4-2.5-2.1-3.7
			c-0.7-1.4-1.6-2.7-2.5-3.9c-0.8-1.2-1.9-2.2-3-3c-1.6-1-3.5-1.4-5.3-1c-2.7,0.6-4.5,3.3-4.1,6c0.1,1.5,0.7,2.9,1.7,4.1
			c0.9,0.9,2.1,1.6,3.4,1.8c1.7,0.4,3.5,0.7,5.3,0.8c1.1,0.1,2.1,0.1,3.2,0.2c0.5,0,1.1,0,1.6,0
			C317.3,257.5,317.7,257.5,318.1,257.5"/>
		<path id="Path_1421" class="st2" d="M318.3,257.4c0.1,0,0.2-0.1,0.3-0.2c0.2-0.2,0.2-0.5,0.1-0.7c-0.4-0.8-0.9-1.7-1.4-2.4
			c-0.5-0.9-1-1.8-1.7-2.6c-0.5-0.8-1.2-1.4-2-2c-1-0.7-2.3-0.9-3.5-0.7c-1.8,0.4-3,2.1-2.7,4c0.1,1,0.5,1.9,1.1,2.7
			c0.6,0.6,1.4,1,2.2,1.2c1.1,0.3,2.3,0.4,3.5,0.5c0.7,0.1,1.4,0.1,2.1,0.1c0.4,0,0.7,0,1.1,0C317.7,257.4,318,257.4,318.3,257.4"/>
		<path id="Path_1422" class="st0" d="M322.6,257.4c-0.2,0-0.5-0.1-0.7-0.3c-0.3-0.4-0.4-1-0.2-1.4c0.8-1.7,1.8-3.3,2.8-4.9
			c0.9-1.8,2.1-3.5,3.3-5.1c1.1-1.5,2.4-2.9,4-3.9c2.1-1.4,4.6-1.9,7-1.4c3.6,0.9,5.9,4.3,5.4,7.9c-0.2,2-1,3.8-2.2,5.3
			c-1.2,1.2-2.8,2.1-4.5,2.4c-2.3,0.5-4.6,0.9-6.9,1.1c-1.4,0.1-2.8,0.2-4.2,0.2c-0.7,0-1.5,0-2.2,0
			C323.7,257.4,323.2,257.4,322.6,257.4"/>
		<path id="Path_1423" class="st1" d="M322.5,257.3c-0.2,0-0.4-0.1-0.5-0.2c-0.2-0.3-0.3-0.7-0.1-1.1c0.6-1.3,1.4-2.5,2.1-3.7
			c0.7-1.4,1.6-2.7,2.5-3.9c0.8-1.2,1.9-2.2,3-3c1.6-1.1,3.5-1.4,5.3-1c2.7,0.6,4.5,3.3,4.1,6c-0.1,1.5-0.7,2.9-1.7,4.1
			c-0.9,0.9-2.1,1.6-3.4,1.8c-1.7,0.4-3.5,0.7-5.3,0.8c-1.1,0.1-2.1,0.1-3.2,0.2c-0.5,0-1.1,0-1.6,0
			C323.3,257.3,322.9,257.3,322.5,257.3"/>
		<path id="Path_1424" class="st2" d="M322.3,257.2c-0.1,0-0.2-0.1-0.3-0.2c-0.2-0.2-0.2-0.5-0.1-0.7c0.4-0.8,0.9-1.7,1.4-2.4
			c0.5-0.9,1-1.8,1.7-2.6c0.5-0.8,1.2-1.4,2-2c1-0.7,2.3-0.9,3.5-0.7c1.8,0.4,3,2.1,2.7,4c-0.1,1-0.5,1.9-1.1,2.7
			c-0.6,0.6-1.4,1-2.2,1.2c-1.1,0.3-2.3,0.4-3.5,0.5c-0.7,0.1-1.4,0.1-2.1,0.1c-0.4,0-0.7,0-1.1,0
			C322.9,257.2,322.6,257.2,322.3,257.2"/>
		<path id="Path_1425" class="st0" d="M317.8,258c0.2,0,0.5,0.1,0.7,0.3c0.3,0.4,0.4,1,0.2,1.4c-0.8,1.7-1.8,3.3-2.8,4.9
			c-0.9,1.8-2.1,3.5-3.3,5.1c-1.1,1.5-2.4,2.9-4,3.9c-2.1,1.4-4.6,1.9-7,1.4c-3.6-0.9-5.9-4.3-5.4-8c0.2-2,1-3.8,2.2-5.3
			c1.2-1.2,2.8-2.1,4.5-2.4c2.3-0.5,4.6-0.9,6.9-1.1c1.4-0.1,2.8-0.2,4.2-0.2c0.7,0,1.5,0,2.2,0C316.7,258,317.3,258,317.8,258"/>
		<path id="Path_1426" class="st1" d="M318,258.1c0.2,0,0.4,0.1,0.5,0.2c0.2,0.3,0.3,0.7,0.1,1.1c-0.6,1.3-1.4,2.5-2.1,3.7
			c-0.7,1.4-1.6,2.7-2.5,3.9c-0.8,1.2-1.9,2.2-3,3c-1.6,1-3.5,1.4-5.3,1c-2.7-0.6-4.5-3.3-4.1-6c0.1-1.5,0.7-2.9,1.7-4
			c0.9-0.9,2.1-1.6,3.4-1.8c1.7-0.4,3.5-0.7,5.3-0.8c1.1-0.1,2.1-0.1,3.2-0.2c0.5,0,1.1,0,1.6,0C317.1,258.1,317.5,258.1,318,258.1"
			/>
		<path id="Path_1427" class="st2" d="M318.1,258.2c0.1,0,0.2,0.1,0.3,0.2c0.2,0.2,0.2,0.5,0.1,0.7c-0.4,0.8-0.9,1.6-1.4,2.4
			c-0.5,0.9-1,1.8-1.7,2.6c-0.5,0.8-1.2,1.4-2,2c-1,0.7-2.3,0.9-3.5,0.7c-1.8-0.4-3-2.1-2.7-4c0.1-1,0.5-1.9,1.1-2.7
			c0.6-0.6,1.4-1,2.2-1.2c1.1-0.3,2.3-0.4,3.5-0.5c0.7-0.1,1.4-0.1,2.1-0.1c0.4,0,0.7,0,1.1,0C317.6,258.2,317.9,258.2,318.1,258.2"
			/>
		<path id="Path_1428" class="st0" d="M322.8,257.8c-0.2,0-0.5,0.1-0.7,0.3c-0.3,0.4-0.4,1-0.2,1.4c0.8,1.7,1.8,3.3,2.8,4.9
			c0.9,1.8,2.1,3.5,3.3,5.1c1.1,1.5,2.4,2.9,4,3.9c2.1,1.4,4.6,1.9,7,1.4c3.6-0.9,5.9-4.3,5.4-8c-0.2-2-1-3.8-2.2-5.3
			c-1.2-1.2-2.8-2.1-4.5-2.4c-2.3-0.5-4.6-0.9-6.9-1.1c-1.4-0.1-2.8-0.2-4.2-0.2c-0.7,0-1.5,0-2.2,0
			C323.9,257.8,323.3,257.8,322.8,257.8"/>
		<path id="Path_1429" class="st1" d="M322.6,257.9c-0.2,0-0.4,0.1-0.5,0.2c-0.2,0.3-0.3,0.7-0.1,1.1c0.6,1.3,1.4,2.5,2.1,3.7
			c0.7,1.4,1.6,2.7,2.5,3.9c0.8,1.2,1.9,2.2,3,3c1.6,1,3.5,1.4,5.3,1c2.7-0.6,4.5-3.3,4.1-6c-0.1-1.5-0.7-2.9-1.7-4
			c-0.9-0.9-2.1-1.6-3.4-1.8c-1.7-0.4-3.5-0.7-5.3-0.8c-1.1-0.1-2.1-0.1-3.2-0.2c-0.5,0-1.1,0-1.6,0
			C323.5,257.9,323,257.9,322.6,257.9"/>
		<path id="Path_1430" class="st2" d="M322.4,258c-0.1,0-0.2,0.1-0.3,0.2c-0.2,0.2-0.2,0.5-0.1,0.7c0.4,0.8,0.9,1.6,1.4,2.4
			c0.5,0.9,1,1.8,1.7,2.6c0.5,0.8,1.2,1.4,2,2c1,0.7,2.3,0.9,3.5,0.7c1.8-0.4,3-2.1,2.7-4c-0.1-1-0.5-1.9-1.1-2.7
			c-0.6-0.6-1.4-1-2.2-1.2c-1.1-0.3-2.3-0.4-3.5-0.5c-0.7-0.1-1.4-0.1-2.1-0.1c-0.4,0-0.7,0-1.1,0C323,258,322.7,258,322.4,258"/>
	</g>
</g>
<g id="Group_37">
	<g id="Group_36-2">
		<path id="Path_1269-2" class="st0" d="M331.7,316.7c0.2,0.1,0.4,0.3,0.5,0.5c0.2,0.5,0.1,1-0.3,1.4c-1.3,1.3-2.7,2.6-4.1,3.8
			c-1.4,1.4-3,2.7-4.7,3.9c-1.5,1.1-3.2,2-5,2.5c-2.4,0.7-4.9,0.4-7.1-0.8c-3.2-1.9-4.4-5.9-2.8-9.2c0.7-1.8,2.1-3.4,3.8-4.4
			c1.5-0.8,3.3-1.1,5-0.9c2.3,0.2,4.6,0.5,6.9,1.1c1.4,0.3,2.7,0.7,4.1,1.1c0.7,0.2,1.4,0.4,2.1,0.6
			C330.6,316.3,331.2,316.5,331.7,316.7"/>
		<path id="Path_1270-2" class="st1" d="M331.8,316.8c0.2,0.1,0.3,0.2,0.4,0.4c0.2,0.4,0.1,0.8-0.2,1c-1,1-2,2-3.1,2.9
			c-1.1,1.1-2.3,2.1-3.6,2.9c-1.1,0.9-2.4,1.5-3.8,1.9c-1.8,0.5-3.7,0.3-5.4-0.6c-2.4-1.4-3.3-4.5-2.1-7c0.6-1.4,1.6-2.6,2.9-3.3
			c1.2-0.6,2.5-0.9,3.8-0.7c1.8,0.1,3.5,0.4,5.3,0.8c1,0.2,2.1,0.5,3.1,0.8c0.5,0.2,1.1,0.3,1.6,0.5
			C331,316.5,331.4,316.7,331.8,316.8"/>
		<path id="Path_1271-2" class="st2" d="M332,317c0.1,0.1,0.2,0.1,0.3,0.3c0.1,0.2,0,0.5-0.1,0.7c-0.6,0.7-1.3,1.3-2.1,1.9
			c-0.7,0.7-1.5,1.4-2.4,1.9c-0.7,0.6-1.6,1-2.5,1.3c-1.2,0.3-2.5,0.2-3.5-0.4c-1.6-0.9-2.2-2.9-1.4-4.6c0.4-0.9,1-1.7,1.9-2.2
			c0.8-0.4,1.6-0.6,2.5-0.5c1.2,0.1,2.3,0.3,3.5,0.5c0.7,0.2,1.4,0.3,2,0.5c0.3,0.1,0.7,0.2,1,0.3C331.5,316.8,331.7,316.8,332,317"
			/>
		<path id="Path_1272-2" class="st0" d="M335.8,315.7c-0.1,0.2-0.2,0.4-0.2,0.7c0,0.5,0.4,1,0.9,1.1c1.8,0.6,3.6,1.1,5.4,1.4
			c2,0.6,3.9,1,6,1.2c1.8,0.3,3.7,0.3,5.6,0c2.4-0.5,4.6-1.9,5.9-4c1.9-3.1,1.1-7.2-1.8-9.4c-1.5-1.3-3.4-2-5.4-2.2
			c-1.7,0-3.4,0.5-4.9,1.5c-2,1.2-3.9,2.6-5.6,4.2c-1.1,0.9-2.1,1.9-3.1,2.8c-0.5,0.5-1,1-1.6,1.5
			C336.6,314.9,336.2,315.3,335.8,315.7"/>
		<path id="Path_1273-2" class="st1" d="M335.8,315.8c-0.1,0.2-0.2,0.3-0.2,0.5c0,0.4,0.3,0.7,0.7,0.8c1.4,0.4,2.7,0.8,4.1,1.1
			c1.5,0.5,3,0.8,4.5,0.9c1.4,0.2,2.8,0.2,4.2,0c1.8-0.4,3.5-1.5,4.5-3c1.5-2.4,0.9-5.5-1.4-7.2c-1.1-1-2.6-1.6-4.1-1.6
			c-1.3,0-2.6,0.4-3.7,1.2c-1.5,0.9-2.9,2-4.3,3.2c-0.8,0.7-1.6,1.4-2.4,2.2c-0.4,0.4-0.8,0.8-1.2,1.2
			C336.3,315.2,336,315.5,335.8,315.8"/>
		<path id="Path_1274-2" class="st2" d="M335.7,316c-0.1,0.1-0.1,0.2-0.1,0.3c0,0.3,0.2,0.5,0.4,0.5c0.9,0.3,1.8,0.5,2.7,0.7
			c1,0.3,2,0.5,3,0.6c0.9,0.2,1.9,0.1,2.8,0c1.2-0.2,2.3-1,3-2c1-1.6,0.6-3.6-0.9-4.7c-0.8-0.6-1.7-1-2.7-1.1
			c-0.9,0-1.7,0.3-2.4,0.8c-1,0.6-1.9,1.3-2.8,2.1c-0.5,0.5-1,0.9-1.6,1.4c-0.3,0.2-0.5,0.5-0.8,0.8
			C336.1,315.6,335.9,315.8,335.7,316"/>
		<path id="Path_1275-2" class="st0" d="M333.3,314.8c0.1,0.2,0.3,0.4,0.5,0.6c0.5,0.2,1,0.2,1.4-0.2c1.4-1.2,2.8-2.5,4.1-3.9
			c1.5-1.3,2.9-2.8,4.2-4.5c1.2-1.4,2.2-3,2.9-4.8c0.8-2.3,0.7-4.9-0.4-7.1c-1.7-3.3-5.6-4.7-9-3.3c-1.9,0.6-3.5,1.8-4.6,3.5
			c-0.9,1.5-1.3,3.2-1.2,4.9c0,2.3,0.2,4.7,0.6,7c0.2,1.4,0.5,2.8,0.8,4.1c0.2,0.7,0.3,1.4,0.5,2.1
			C333,313.7,333.1,314.2,333.3,314.8"/>
		<path id="Path_1276-2" class="st1" d="M333.4,314.9c0.1,0.2,0.2,0.3,0.4,0.4c0.4,0.2,0.8,0.1,1.1-0.1c1.1-0.9,2.1-1.9,3.1-3
			c1.2-1,2.2-2.2,3.2-3.4c0.9-1.1,1.7-2.3,2.2-3.6c0.6-1.8,0.5-3.7-0.3-5.4c-1.3-2.5-4.2-3.6-6.8-2.5c-1.4,0.5-2.7,1.4-3.5,2.6
			c-0.7,1.1-1,2.4-0.9,3.8c0,1.8,0.2,3.5,0.5,5.3c0.2,1.1,0.4,2.1,0.6,3.1c0.1,0.5,0.2,1.1,0.4,1.6
			C333.2,314.1,333.3,314.5,333.4,314.9"/>
		<path id="Path_1277-2" class="st2" d="M333.5,315.1c0.1,0.1,0.1,0.2,0.2,0.3c0.2,0.1,0.5,0.1,0.7-0.1c0.7-0.6,1.4-1.3,2-1.9
			c0.8-0.7,1.5-1.4,2.1-2.2c0.6-0.7,1.1-1.5,1.4-2.4c0.4-1.2,0.4-2.4-0.2-3.6c-0.8-1.6-2.8-2.4-4.5-1.7c-0.9,0.3-1.8,0.9-2.3,1.7
			c-0.4,0.7-0.7,1.6-0.6,2.5c0,1.2,0.1,2.3,0.3,3.5c0.1,0.7,0.2,1.4,0.4,2.1c0.1,0.3,0.2,0.7,0.3,1.1
			C333.4,314.5,333.5,314.8,333.5,315.1"/>
		<path id="Path_1278-2" class="st0" d="M334.6,319.3c0-0.2,0-0.5,0.2-0.7c0.3-0.4,0.8-0.6,1.3-0.5c1.8,0.4,3.6,0.9,5.4,1.6
			c2,0.5,3.9,1.2,5.8,2c1.7,0.7,3.3,1.7,4.7,2.9c1.8,1.7,2.9,4,3,6.5c0,3.7-2.8,6.8-6.4,7.1c-2,0.3-4,0-5.7-0.9
			c-1.5-0.9-2.7-2.2-3.4-3.8c-1.1-2.1-2-4.2-2.7-6.5c-0.4-1.3-0.8-2.7-1.2-4c-0.2-0.7-0.4-1.4-0.5-2.1
			C334.8,320.3,334.7,319.8,334.6,319.3"/>
		<path id="Path_1279-2" class="st1" d="M334.6,319.1c0-0.2,0-0.4,0.1-0.5c0.2-0.3,0.6-0.5,1-0.4c1.4,0.3,2.8,0.7,4.1,1.2
			c1.5,0.4,3,0.9,4.4,1.5c1.3,0.5,2.5,1.3,3.6,2.2c1.4,1.3,2.2,3,2.3,4.9c0,2.8-2.1,5.1-4.9,5.4c-1.5,0.2-3,0-4.3-0.7
			c-1.1-0.7-2-1.7-2.6-2.9c-0.8-1.6-1.5-3.2-2-4.9c-0.3-1-0.6-2-0.9-3.1c-0.1-0.5-0.3-1.1-0.4-1.6
			C334.8,319.9,334.7,319.5,334.6,319.1"/>
		<path id="Path_1280-2" class="st2" d="M334.7,318.9c0-0.1,0-0.2,0.1-0.4c0.2-0.2,0.4-0.3,0.7-0.2c0.9,0.2,1.8,0.5,2.7,0.8
			c1,0.2,2,0.6,2.9,1c0.9,0.3,1.7,0.8,2.4,1.5c0.9,0.8,1.4,2,1.5,3.2c0,1.8-1.4,3.4-3.2,3.6c-1,0.2-2,0-2.9-0.5
			c-0.7-0.4-1.3-1.1-1.7-1.9c-0.5-1-1-2.1-1.3-3.2c-0.2-0.7-0.4-1.3-0.6-2c-0.1-0.3-0.2-0.7-0.3-1.1
			C334.8,319.4,334.7,319.2,334.7,318.9"/>
		<path id="Path_1281-2" class="st0" d="M332.8,314.7c0,0.2,0,0.5-0.2,0.7c-0.3,0.4-0.8,0.6-1.3,0.5c-1.8-0.4-3.6-0.9-5.4-1.6
			c-2-0.5-3.9-1.2-5.8-2c-1.7-0.7-3.3-1.7-4.7-2.9c-1.8-1.7-2.9-4-3-6.5c0-3.7,2.8-6.8,6.4-7.1c2-0.3,4,0,5.7,0.9
			c1.5,0.9,2.7,2.2,3.4,3.8c1.1,2.1,2,4.2,2.7,6.5c0.4,1.3,0.8,2.7,1.2,4c0.2,0.7,0.4,1.4,0.5,2.1
			C332.6,313.7,332.7,314.2,332.8,314.7"/>
		<path id="Path_1282-2" class="st1" d="M332.8,314.9c0,0.2,0,0.4-0.1,0.5c-0.2,0.3-0.6,0.5-1,0.4c-1.4-0.3-2.8-0.7-4.1-1.2
			c-1.5-0.4-3-0.9-4.4-1.5c-1.3-0.5-2.5-1.3-3.6-2.2c-1.4-1.3-2.2-3-2.3-4.9c0-2.8,2.1-5.1,4.9-5.4c1.5-0.2,3,0,4.3,0.7
			c1.1,0.7,2,1.7,2.6,2.9c0.8,1.6,1.5,3.2,2,4.9c0.3,1,0.6,2,0.9,3.1c0.1,0.5,0.3,1.1,0.4,1.6C332.6,314.1,332.7,314.5,332.8,314.9"
			/>
		<path id="Path_1283-2" class="st2" d="M332.7,315.1c0,0.1,0,0.2-0.1,0.4c-0.2,0.2-0.4,0.3-0.7,0.2c-0.9-0.2-1.8-0.5-2.7-0.8
			c-1-0.2-2-0.6-2.9-1c-0.9-0.3-1.7-0.8-2.4-1.5c-0.9-0.8-1.4-2-1.5-3.2c0-1.8,1.4-3.4,3.2-3.6c1-0.2,2,0,2.9,0.5
			c0.7,0.4,1.3,1.1,1.7,1.9c0.5,1,1,2.1,1.3,3.2c0.2,0.7,0.4,1.3,0.6,2c0.1,0.3,0.2,0.7,0.3,1.1
			C332.6,314.6,332.7,314.8,332.7,315.1"/>
		<path id="Path_1284-2" class="st0" d="M334.2,319.5c-0.1-0.2-0.3-0.4-0.5-0.6c-0.5-0.2-1-0.2-1.4,0.2c-1.4,1.2-2.8,2.5-4.1,3.9
			c-1.5,1.3-2.9,2.8-4.2,4.5c-1.2,1.4-2.2,3-2.9,4.8c-0.8,2.3-0.7,4.9,0.4,7.1c1.7,3.3,5.6,4.7,9,3.3c1.9-0.6,3.5-1.8,4.6-3.5
			c0.9-1.5,1.3-3.2,1.2-4.9c0-2.3-0.2-4.7-0.6-7c-0.2-1.4-0.5-2.8-0.8-4.1c-0.2-0.7-0.3-1.4-0.5-2.1
			C334.5,320.6,334.4,320,334.2,319.5"/>
		<path id="Path_1285-2" class="st1" d="M334.1,319.4c-0.1-0.2-0.2-0.3-0.4-0.4c-0.4-0.2-0.8-0.1-1.1,0.1c-1.1,0.9-2.1,1.9-3.1,3
			c-1.2,1-2.2,2.2-3.2,3.4c-0.9,1.1-1.7,2.3-2.2,3.6c-0.6,1.8-0.5,3.7,0.3,5.4c1.3,2.5,4.2,3.6,6.8,2.5c1.4-0.5,2.7-1.4,3.5-2.6
			c0.7-1.1,1-2.4,0.9-3.8c0-1.8-0.2-3.5-0.5-5.3c-0.2-1.1-0.4-2.1-0.6-3.1c-0.1-0.5-0.2-1.1-0.4-1.6
			C334.3,320.2,334.2,319.8,334.1,319.4"/>
		<path id="Path_1286-2" class="st2" d="M333.9,319.2c0-0.1-0.1-0.2-0.2-0.3c-0.2-0.1-0.5-0.1-0.7,0.1c-0.7,0.6-1.4,1.3-2,1.9
			c-0.8,0.7-1.5,1.4-2.1,2.2c-0.6,0.7-1.1,1.5-1.4,2.4c-0.4,1.2-0.4,2.4,0.2,3.6c0.8,1.6,2.8,2.4,4.5,1.7c0.9-0.3,1.8-0.9,2.3-1.7
			c0.4-0.7,0.7-1.6,0.6-2.5c0-1.2-0.1-2.3-0.3-3.5c-0.1-0.7-0.2-1.4-0.4-2.1c-0.1-0.3-0.2-0.7-0.3-1.1
			C334.1,319.8,334,319.5,333.9,319.2"/>
	</g>
</g>
<g>
	<g id="Group_68">
		<path id="Path_1516" class="st3" d="M175.7,206.8c43.1-5.7,86.8-6.1,129.9-0.9l-9.4,24.1H187.9L175.7,206.8z"/>
		<path id="Path_1517" class="st4" d="M251.9,30.5c0,0-45.2,61.7-2,103.1C249.9,133.6,276.6,100.1,251.9,30.5"/>
		<path id="Path_1518" class="st4" d="M193.4,75.4c0,0-4.1,76.1,54.9,87.6C248.1,163.1,252.3,120.6,193.4,75.4"/>
		<path id="Path_1519" class="st4" d="M173.8,124.4c0,0,12.2,66.2,65.2,64.2C238.9,188.5,233.6,151.3,173.8,124.4"/>
		<path id="Path_1520" class="st4" d="M308.8,89.9c0,0-15.9,65.2-61.1,64.4C247.6,154.3,255.2,117.8,308.8,89.9"/>
		<path id="Path_1521" class="st4" d="M306.5,141.7c0,0-23.7,62.6-68.7,56.4C237.9,198.1,249.9,162.7,306.5,141.7"/>
		<path id="Path_1522" class="st5" d="M247.7,71.7l2.2,61.7c0,0-1,40.2-22.9,100.9"/>
		<path id="Path_1523" class="st5" d="M247.6,154.3c0,0,34.2-39.8,53.1-50.7"/>
		<path id="Path_1524" class="st5" d="M237.9,198.1c0,0,40.5-37.5,53.1-43.5"/>
		<path id="Path_1525" class="st5" d="M206.2,96c0,0,18.2,32.1,39.2,62.8"/>
		<path id="Path_1526" class="st5" d="M184.6,138.9c0,0,29.9,31,54.2,49.6"/>
		<path id="Path_1527" class="st6" d="M175.7,206.8c0,0,63.4,9.9,129.9-0.9l-3.1,84.5c-0.1,5.7-1.5,11.3-4.1,16.4
			c-5.9,12-20.8,28.9-56.3,28.4c-26.1-0.5-41-10.6-49.5-20.9c-6.9-8.5-10.8-19-11.5-29.8L175.7,206.8L175.7,206.8z"/>
	</g>
</g>
</svg>
