<?xml version="1.0" encoding="UTF-8"?><svg id="Laag_1" xmlns="http://www.w3.org/2000/svg" viewBox="0 0 218.97 126.94"><defs><style>.cls-1{fill:#f3a624;}.cls-1,.cls-2,.cls-3,.cls-4{stroke-width:0px;}.cls-2{fill:#1d1d1b;}.cls-3{fill:#d75515;}.cls-4{fill:#a1411a;}</style></defs><path class="cls-1" d="m10.87,36.27c1.62.41,2.18-.63,1.66-1.97-.9-2.31-4.12-3.54-6.44-6.13-2.51-2.81-1.9-7.7,1.55-9.88,6.31-3.99,20.69-3.75,21.14,5.78.17,3.53-1.66,6.96-5.06,6.5-1.68-.22-2.55-1.77-3.39-3.15-1.54-2.55-4.22-1.73-2.57.7,3,4.41,7.06,5.54,9.45,9.01,2.2,3.19,2.84,10.37,1.22,15.36-2.86,8.76-17.34,7.77-22.69,3.22C.74,51.45-.09,42.96.68,37.79c.48-3.19,2.49-5.67,4.82-5.73,2.75-.07,3.79,3.81,5.37,4.21Z"/><path class="cls-1" d="m29.93,24.78c-.84-12.35,32.58-11.66,34.11-.31.3,2.22.22,4.36-.53,5.44-.95,1.36-2.85,2-4.55,1.5-2.89-.85-6.16-2.73-7.41,1.37-.87,2.85,1.66,9.84,2.76,14.57,1.23,5.27-1.73,11.37-9.05,11.39-4.89.02-9.53-3.78-8.32-11.16.7-4.3,2.7-9.22,3.42-12.12.42-1.66,1.02-4.25-.59-5.46-2.06-1.56-3.8,1.85-6.26,1.31-2.3-.5-3.38-3.49-3.59-6.53Z"/><path class="cls-1" d="m83.49,54.56c-1.04,6.1-15.75,5.91-18.34.09-2.62-5.91,4.01-14.12,3.41-20.17-.31-3.2-4.32-7.28-3.25-11.61,2.01-8.13,16.84-8.4,17.97,1.25.46,3.92-2.46,8.54-3.3,11.98-1.75,7.17,4.62,11.98,3.51,18.46Z"/><path class="cls-1" d="m94.06,31.32c1.21,1.48,1.15,3.54,2.99,3.99,2.32.57,3.5-1.61,2.85-3.66-1.03-3.28-3.2-6.7-1.75-10.17,2.4-5.78,14.85-5.77,15.77-.33.8,4.78-2.97,10.25-3.31,13.54-.35,3.48,1.29,5.97,1.8,10.53.66,5.86-1.77,9.73-5.48,11.81-2.8,1.57-6.33,2.11-9.81,1.74-11.14-1.18-14.34-11.68-11.75-21.42.71-2.68,2.38-6.67,5.37-7.27,1.19-.24,2.41.11,3.33,1.24Z"/><path class="cls-1" d="m0,72.78c.02-5.36,2.53-8.65,7.83-8.32,3.52.22,6.13,2.86,6.13,6.83,0,2.96,0,12.25,4.5,11.85,3.78-.34,1.51-9.5,3-13.91,2.11-6.28,13.54-6.17,12.66,2.2-.54,5.13-3.09,7.9-4.87,14.91-1.29,5.09-.72,10.51-2.01,14.43-1.03,3.14-2.57,5.37-7.69,5.85-5.94.56-9.23-2.33-10.38-5.99-1.01-3.21-.7-8.54-2.41-12.06C4.13,83.19-.02,77.85,0,72.78Z"/><path class="cls-1" d="m53.67,102.35c-1.04,6.1-15.75,5.91-18.34.09-2.62-5.91,4-14.12,3.41-20.17-.31-3.2-4.32-7.28-3.25-11.61,2.01-8.13,16.84-8.4,17.97,1.25.46,3.92-2.46,8.54-3.3,11.98-1.75,7.17,4.62,11.98,3.51,18.46Z"/><path class="cls-1" d="m72.26,72.16c1.3,3.64,2.44,7.72,5.1,6.8.55-.19.9-.76.77-1.79-.19-1.52-.87-3.74-.96-5.98-.32-7.83,16.17-10.39,14.46-.49-.82,4.72-4.88,9.93-3.46,17.62.65,3.52,2.64,7.33,3.18,10.33.91,5.02-2.89,7.77-6.99,7.96-5.57.25-8.4-2.44-9.06-5.86-.8-4.13-.91-7.53-2.35-11.14-1.34-3.36-3.57-5.59-3.55-1.95.01,2.48,1.3,7.45,2.41,12.37,2.09,9.32-16.26,9.51-16.96,1.58-.4-4.6,3.5-11.77,4.4-16.31.95-4.78-2.52-8.99-2.02-13.62.67-6.22,11.49-9.44,15.03.48Z"/><path class="cls-1" d="m92.11,72.57c-.84-12.35,32.58-11.66,34.11-.31.3,2.22.22,4.36-.53,5.44-.95,1.36-2.85,2-4.55,1.5-2.88-.85-6.16-2.73-7.41,1.37-.87,2.85,1.66,9.84,2.76,14.57,1.23,5.27-1.74,11.37-9.05,11.39-4.89.02-9.53-3.78-8.32-11.16.7-4.3,2.7-9.22,3.42-12.12.41-1.66,1.02-4.25-.59-5.46-2.06-1.56-3.8,1.85-6.26,1.31-2.3-.5-3.38-3.49-3.59-6.53Z"/><path class="cls-1" d="m172.98,64.78c5.29-.91,11.37-.18,14.57,1.96,4.09,2.73,2.73,9.85-5.1,8.51-3.66-.63-8.25-.6-9.67,3.54-.56,1.63-.58,3.42-.56,5.12.04,2.68-.32,5.7.75,8.25,1.33,3.17,6.38,3.32,6.28-.79-.02-1.05-.44-1.92-1.27-2.55-.79-.59-1.73-.66-2.14-1.65-.77-1.83.65-3.81,2.42-4.27,1.15-.3,3.53-.45,5.16-.1,2.95.64,5.8,2.78,5.24,7.74-.36,3.14,0,6.37-.62,9.48-.43,2.19-1.37,4.59-3.4,5.7-2.15,1.18-4.66,1.6-7.09,1.53-6.29-.18-14.71-1.93-16.51-8.99-.64-2.49-.45-5.11-.07-7.65.41-2.78.97-5.55,1.14-8.35s-.4-5.82-.03-8.74c.58-4.61,5.08-7.72,10.89-8.72Z"/><path class="cls-1" d="m194.9,68.36c6.96-5.76,23.71-4.54,22.84,4.34-.33,3.39-3.04,6.27-7.86,4.59-1.88-.68-3.55-1.5-5.5-.37-2.31,1.35-.97,3.52,2.1,3.62,2.93.1,5.16-1.65,7.37,1.01s.94,8.32-5.3,6.66c-1.91-.51-3.07-1.35-4.25-1.09-2.46.54-1.72,4.47.63,5.05,1.47.36,2.69.3,3.78.02,2.25-.57,3.23-2.45,5.97-2.35,2.6.09,4.35,3.48,4.29,7.31-.18,12.33-30.31,13.52-27.4-.97.67-3.32,1.53-7.34,1.5-10.41-.05-6.13-3.48-13.03,1.83-17.43Z"/><path class="cls-1" d="m131.69,24.85c-.04,2.07-.2,4.15-.41,6.2-.11,1.1-.24,2.24.12,3.28.35,1.05,1.34,1.97,2.44,1.86,1.1-.11,1.86-1.16,2.33-2.16s.87-2.13,1.79-2.75c1.1-.74,2.65-.5,3.72.28s1.75,1.98,2.28,3.2c2.38,5.46,3.49,14.62-.27,19.74-4.49,6.11-19.23,7.04-23.09-.29-2.13-4.05-.83-10.02-.42-14.34.49-5.2,1-10.49.11-15.68-.45-2.6-1.28-5.23-3.02-7.22-2.03-2.32-5.1-3.54-8.17-3.82-2.53-.23-5.41,0-7.25-1.74-2.92-2.77-1.54-7.53,1.56-9.43,3.57-2.2,8.94-2.3,12.93-1.51,7.52,1.49,12.56,7.53,14.38,14.76.79,3.15,1.03,6.39.97,9.64Z"/><path class="cls-1" d="m172.68,126.35c-5.62.04-11.21-.97-15.88-4.23-9.03-6.3-11.05-17.38-12.51-27.58-.14-.97-.28-2.01-.74-2.83-.34-.6-1.22-1.25-1.83-1.22-.62.03-1.6.76-1.74,1.35-.31,1.32-.38,2.76-.21,4.11.18,1.42.73,2.8,1.18,4.18,1.09,3.3-.11,6.63-3.2,8.21-3.29,1.68-6.75,1.68-10.15.39-2.37-.9-3.58-2.99-3.53-5.36.05-2.32.52-4.72,1.3-6.91.95-2.67,2.59-5.08,3.58-7.74.61-1.63.73-3.51.74-5.28.01-2.32-.41-4.63-.46-6.95-.15-6.59,3.3-10.66,9.86-11.48,5.9-.74,11.1.96,15.25,5.24.96.99,1.48,2.66,1.63,4.08.19,1.81-.08,3.71-.35,5.54-1.18,8.01.51,15.58,3.99,22.67,1.62,3.29,3.89,6.43,6.97,8.5,3.88,2.6,7.92,2.43,12.4,2.76,2.52.18,5.85.77,7.46,2.95,1.6,2.17.71,5.05-1.22,6.68-2.48,2.09-5.44,2.51-8.47,2.75-1.34.11-2.7.17-4.05.18Zm-27.37-47.56c-.08-.38-.16-1.2-.43-1.95-.77-2.15-3.3-2.86-4.68-1.13-.78.98-1.12,2.53-1.14,3.82-.03,2.28,1.18,3.28,3.22,3.18,1.96-.1,3.03-1.32,3.03-3.92Z"/><path class="cls-2" d="m9.36,117.35c0-.17.08-.25.24-.25h2.48c.38,0,.74.05,1.08.14.34.09.66.22.95.39.29.17.56.37.79.61.24.24.44.51.61.8.17.29.3.61.39.94.09.34.14.69.14,1.06s-.05.71-.14,1.05c-.09.33-.23.65-.4.94-.17.29-.38.56-.62.79-.24.24-.51.44-.8.61s-.61.3-.95.39c-.34.09-.69.14-1.06.14h-2.48c-.06,0-.12-.02-.17-.04-.05-.03-.07-.09-.07-.18v-7.39Zm2.69,6.6c.43,0,.83-.08,1.19-.24.36-.16.68-.37.94-.64.26-.27.47-.59.62-.95s.22-.74.22-1.15c0-.43-.08-.82-.23-1.18-.16-.35-.37-.66-.63-.91-.27-.25-.58-.45-.93-.58-.36-.14-.74-.21-1.14-.21h-1.7v5.85h1.67Z"/><path class="cls-2" d="m23.12,117.1c.16,0,.24.08.24.25v.52c0,.07-.02.13-.06.18-.04.05-.11.07-.19.07h-4.27v2.18h3.36c.06,0,.12.02.17.06s.07.1.07.19v.54c0,.06-.02.12-.06.17-.04.05-.1.07-.17.07h-3.36v2.61h4.29c.16,0,.24.08.24.25v.55c0,.16-.08.23-.23.23h-5.1c-.16,0-.23-.07-.23-.22v-7.4c0-.16.08-.24.23-.24h5.08Z"/><path class="cls-2" d="m32.99,118.81s-.13-.09-.24-.19c-.11-.09-.25-.19-.42-.28-.16-.1-.35-.18-.55-.26s-.43-.11-.66-.11c-.28,0-.52.03-.72.1-.2.07-.37.16-.5.27-.13.11-.23.24-.29.38-.06.14-.09.28-.09.42,0,.2.07.36.2.5.13.13.3.25.52.35.22.1.46.19.73.27s.55.16.84.25c.28.09.56.19.84.3.27.11.52.25.73.41.22.16.39.36.52.58s.2.5.2.82c0,.37-.08.71-.23,1.01-.15.3-.36.56-.63.77s-.58.38-.94.5-.75.17-1.16.17c-.28,0-.55-.03-.82-.09-.27-.06-.53-.15-.78-.27-.25-.12-.48-.26-.7-.43-.22-.17-.41-.36-.58-.58-.05-.06-.07-.11-.07-.17s.03-.11.09-.16l.42-.35c.06-.05.12-.07.17-.07s.11.04.15.09l.07.07c.15.17.32.31.51.43.19.12.38.22.57.3.19.08.37.14.54.18.17.04.32.06.44.06.21,0,.44-.03.66-.08.23-.06.43-.14.62-.26s.34-.26.46-.44.18-.39.18-.63c0-.2-.06-.37-.18-.51-.12-.14-.28-.26-.48-.37-.2-.1-.44-.2-.71-.28s-.56-.17-.87-.26c-.42-.12-.79-.25-1.09-.39-.3-.14-.55-.29-.75-.45-.2-.16-.34-.35-.43-.55s-.14-.43-.14-.69c0-.32.06-.62.19-.88.13-.27.31-.5.55-.69.24-.19.52-.35.86-.45.33-.11.71-.16,1.12-.16.22,0,.45.03.69.08s.47.14.7.24c.23.1.44.22.64.36s.37.29.52.46c.05.05.08.11.08.17,0,.06-.03.11-.08.17l-.38.36c-.06.05-.11.08-.17.07s-.11-.03-.16-.08Z"/><path class="cls-2" d="m40.9,117.1c.06,0,.12.02.17.06.05.04.08.1.09.17v.54c0,.07-.02.13-.06.18-.04.05-.11.08-.2.08h-2.21v6.6c0,.06-.02.12-.06.17-.04.05-.1.07-.18.07h-.54c-.06,0-.12-.02-.17-.07s-.07-.1-.07-.17v-6.6h-2.21c-.07,0-.13-.02-.17-.06s-.07-.11-.07-.2v-.54c0-.07.02-.13.07-.17s.1-.06.17-.06h5.44Z"/><path class="cls-2" d="m42.62,117.33c0-.06.02-.12.06-.16s.1-.07.17-.07h.55c.06,0,.12.02.17.06.05.04.07.1.07.17v7.4c0,.16-.08.23-.24.23h-.55c-.16,0-.23-.08-.23-.23v-7.4Z"/><path class="cls-2" d="m43.28,126.28s-.04-.06-.04-.11c0-.07.03-.14.09-.2l.35-.36.05-.02s.05-.03.07-.04c.02,0,.04-.01.06-.01.05,0,.1.02.15.06.05.04.11.09.17.14.07.05.15.1.24.14s.21.06.36.06c.13,0,.25-.02.35-.07.11-.05.2-.11.28-.19.08-.08.14-.18.19-.29s.07-.23.07-.35v-7.72c0-.06.02-.11.05-.15.04-.04.09-.06.17-.07h.57c.16,0,.23.08.23.23v7.71c0,.27-.05.52-.15.75s-.24.43-.41.6c-.17.17-.37.31-.61.4-.23.1-.48.15-.75.15-.3,0-.58-.05-.84-.16-.27-.11-.48-.27-.65-.5Z"/><path class="cls-2" d="m53.41,123.94c.06,0,.12.02.16.07.05.04.07.11.07.18v.55c0,.06-.02.12-.06.16-.04.05-.1.07-.17.07h-4.5c-.16,0-.23-.08-.23-.23v-7.4c0-.06.02-.12.06-.16.04-.05.1-.07.18-.07h.55c.07,0,.12.02.17.06.04.04.07.1.07.17v6.61h3.71Z"/><path class="cls-2" d="m59.12,117.29c.05.13.12.31.21.53.09.22.19.47.3.74.11.27.23.57.36.88.13.31.25.63.38.95.13.32.26.63.38.94.13.31.24.59.35.85.11.26.2.49.28.69.08.2.15.36.19.47.04-.11.11-.27.19-.47.08-.2.18-.43.28-.69.11-.26.22-.55.34-.85.12-.31.25-.62.38-.94.13-.32.25-.63.38-.95.12-.31.24-.61.35-.88s.21-.52.3-.74c.09-.22.16-.4.21-.53.03-.06.06-.11.11-.14.05-.04.1-.05.17-.05h.56c.17,0,.25.06.25.19,0,.01,0,.03,0,.04,0,.01,0,.03,0,.05,0,.02,0,.04-.01.05l-3.03,7.34s-.02.04-.03.06c-.01.02-.03.04-.04.06-.02.02-.04.04-.08.05-.03.01-.08.02-.13.02h-.35c-.05,0-.1,0-.13-.02s-.06-.03-.08-.05c-.02-.02-.03-.04-.04-.06s-.02-.04-.03-.06l-3.06-7.34s0-.02-.01-.04c0-.03-.01-.06-.01-.11,0-.12.08-.19.24-.19h.56c.07,0,.13.02.17.05.05.04.08.08.1.14Z"/><path class="cls-2" d="m66.08,124.77c-.02.06-.06.11-.11.14-.05.04-.1.05-.17.05h-.56c-.16,0-.24-.06-.24-.19,0-.02,0-.04,0-.06,0-.02,0-.03,0-.04,0-.01,0-.03.01-.04l3.06-7.34s.02-.04.03-.06.02-.04.04-.06c.02-.02.04-.04.08-.05.03-.01.08-.02.13-.02h.35c.05,0,.1,0,.13.02.03.01.06.03.08.05.02.02.03.04.04.06,0,.02.02.04.03.06l3.03,7.34s0,.04.01.05c0,.02,0,.03,0,.05,0,.02,0,.03,0,.04,0,.12-.08.19-.24.19h-.56c-.07,0-.13-.02-.17-.05-.05-.04-.08-.08-.11-.14l-.58-1.46h-3.72c-.12.31-.24.6-.34.85s-.18.46-.23.6Zm.99-2.49h2.89l-1.43-3.62-1.46,3.62Z"/><path class="cls-2" d="m79.34,124.97c-.08,0-.15-.04-.2-.12l-4.63-6.2v6.08c0,.16-.08.23-.24.23h-.54c-.16,0-.23-.08-.23-.23v-7.39c0-.07.02-.13.06-.17.04-.05.1-.07.17-.07h.71c.09,0,.17.04.22.12l4.51,5.99v-5.91c.02-.13.1-.2.23-.2h.54c.06,0,.12.02.18.06s.08.1.08.17v7.4c0,.16-.09.23-.26.23h-.6Z"/><path class="cls-2" d="m86.26,117.29c.05.13.12.31.21.53.09.22.19.47.3.74.11.27.23.57.36.88.13.31.25.63.38.95.13.32.26.63.38.94.13.31.24.59.35.85.11.26.2.49.28.69.08.2.15.36.19.47.04-.11.11-.27.19-.47.08-.2.18-.43.28-.69.11-.26.22-.55.34-.85.12-.31.25-.62.38-.94.13-.32.25-.63.38-.95.12-.31.24-.61.35-.88s.21-.52.3-.74c.09-.22.16-.4.21-.53.03-.06.06-.11.11-.14.05-.04.1-.05.17-.05h.56c.17,0,.25.06.25.19,0,.01,0,.03,0,.04,0,.01,0,.03,0,.05,0,.02,0,.04-.01.05l-3.03,7.34s-.02.04-.03.06c-.01.02-.03.04-.04.06-.02.02-.04.04-.08.05-.03.01-.08.02-.13.02h-.35c-.05,0-.1,0-.13-.02s-.06-.03-.08-.05c-.02-.02-.03-.04-.04-.06s-.02-.04-.03-.06l-3.06-7.34s0-.02-.01-.04c0-.03-.01-.06-.01-.11,0-.12.08-.19.24-.19h.56c.07,0,.13.02.17.05.05.04.08.08.1.14Z"/><path class="cls-2" d="m93.65,117.35c0-.17.08-.25.23-.25h3.06c.35,0,.68.07.99.2s.57.31.79.54c.23.23.4.49.53.8s.19.63.19.98c0,.25-.03.48-.1.71s-.17.44-.29.63c-.12.19-.27.37-.45.52-.17.15-.37.28-.58.38l1.4,2.87v.07c0,.11-.07.16-.2.16h-.64c-.11,0-.19-.07-.25-.2l-1.27-2.67s-.06,0-.09,0-.08,0-.14,0c-.06,0-.14,0-.25,0h-1.91v2.62c0,.16-.08.23-.24.23h-.55c-.16,0-.23-.08-.23-.23v-7.38Zm4.78,2.25c0-.19-.04-.38-.11-.56s-.18-.34-.31-.48-.29-.25-.47-.33-.38-.12-.59-.12h-2.26v2.99h2.28c.21,0,.4-.04.58-.12.18-.08.33-.19.47-.33.13-.14.23-.3.31-.48s.11-.37.11-.57Z"/><path class="cls-2" d="m104.99,116.99c.37,0,.73.05,1.07.14.34.1.67.23.96.41s.57.39.82.63c.25.25.46.52.63.82.17.3.31.63.41.97.1.35.15.71.15,1.08s-.05.73-.14,1.07c-.1.34-.23.67-.41.96-.18.3-.39.57-.63.82-.25.25-.52.46-.82.63-.3.18-.62.31-.97.41-.35.1-.71.14-1.08.14s-.73-.05-1.08-.14c-.34-.1-.67-.23-.96-.41-.3-.18-.57-.39-.82-.63s-.46-.52-.63-.82c-.17-.3-.31-.62-.41-.96-.1-.34-.14-.7-.14-1.08s.05-.73.14-1.07.23-.67.41-.97.39-.57.63-.82c.25-.25.52-.46.82-.63.3-.17.62-.31.97-.41.34-.1.7-.15,1.08-.15Zm-3.03,4.03c0,.28.04.55.11.8.07.26.17.5.3.72.13.22.29.43.47.61s.39.34.61.47c.22.13.46.23.72.3.26.07.52.11.8.11s.54-.04.8-.11.5-.17.72-.3.43-.29.61-.47.34-.39.47-.61c.13-.22.23-.46.3-.72.07-.26.11-.52.11-.8,0-.42-.08-.81-.24-1.17s-.37-.68-.65-.96c-.27-.27-.59-.49-.96-.65-.37-.16-.76-.24-1.17-.24-.28,0-.55.04-.8.11-.26.07-.5.17-.72.3-.22.13-.43.29-.61.47s-.34.39-.47.61-.23.46-.3.72c-.07.26-.11.52-.11.8Z"/><path class="cls-2" d="m116.09,117.1c.16,0,.24.08.24.25v.52c0,.07-.02.13-.06.18-.04.05-.11.07-.19.07h-4.27v2.18h3.36c.06,0,.12.02.17.06s.07.1.07.19v.54c0,.06-.02.12-.06.17-.04.05-.1.07-.17.07h-3.36v2.61h4.29c.16,0,.24.08.24.25v.55c0,.16-.08.23-.23.23h-5.1c-.16,0-.23-.07-.23-.22v-7.4c0-.16.08-.24.23-.24h5.08Z"/><path class="cls-2" d="m123.15,121.72c0-.16.08-.23.23-.23h.55c.06,0,.12.02.17.06.05.04.07.1.07.17v2.37s0,.08-.03.12c-.02.04-.05.07-.09.09l-.04.03c-.33.24-.7.43-1.1.55-.4.13-.83.19-1.29.19-.37,0-.73-.05-1.08-.14-.34-.1-.67-.23-.96-.41-.3-.18-.57-.39-.82-.63-.25-.25-.46-.52-.63-.82-.17-.3-.31-.62-.41-.96-.1-.34-.14-.7-.14-1.08s.05-.73.14-1.07c.1-.34.23-.66.41-.96s.39-.57.63-.82c.25-.25.52-.46.82-.64.3-.18.62-.31.96-.41.34-.1.7-.15,1.08-.15.43,0,.85.07,1.26.2s.78.32,1.13.57c.04.03.07.06.1.1.02.04.04.08.04.11,0,.05-.01.09-.04.13l-.28.47c-.06.08-.12.13-.18.13-.03,0-.05,0-.08-.02-.03-.01-.06-.03-.1-.06-.25-.18-.53-.32-.83-.43-.3-.1-.62-.16-.96-.16-.44,0-.84.08-1.22.25-.37.17-.7.39-.97.67-.27.28-.49.6-.64.96s-.23.74-.23,1.14c0,.42.08.81.24,1.18.16.37.38.68.65.95.27.27.59.48.95.64.36.16.75.23,1.16.23.26,0,.52-.04.77-.12s.52-.18.78-.29v-1.91Z"/><path class="cls-2" d="m131.24,117.1c.16,0,.24.08.24.25v.52c0,.07-.02.13-.06.18-.04.05-.11.07-.19.07h-4.27v2.18h3.36c.06,0,.12.02.17.06s.07.1.07.19v.54c0,.06-.02.12-.06.17-.04.05-.1.07-.17.07h-3.36v2.61h4.29c.16,0,.24.08.24.25v.55c0,.16-.08.23-.23.23h-5.1c-.16,0-.23-.07-.23-.22v-7.4c0-.16.08-.24.23-.24h5.08Z"/><path class="cls-2" d="m133,117.35c0-.17.08-.25.23-.25h3.06c.35,0,.68.07.99.2s.57.31.79.54c.23.23.4.49.53.8s.19.63.19.98c0,.25-.03.48-.1.71s-.17.44-.29.63c-.12.19-.27.37-.45.52-.17.15-.37.28-.58.38l1.4,2.87v.07c0,.11-.07.16-.2.16h-.64c-.11,0-.19-.07-.25-.2l-1.27-2.67s-.06,0-.09,0-.08,0-.14,0c-.06,0-.14,0-.25,0h-1.91v2.62c0,.16-.08.23-.24.23h-.55c-.16,0-.23-.08-.23-.23v-7.38Zm4.78,2.25c0-.19-.04-.38-.11-.56s-.18-.34-.31-.48-.29-.25-.47-.33-.38-.12-.59-.12h-2.26v2.99h2.28c.21,0,.4-.04.58-.12.18-.08.33-.19.47-.33.13-.14.23-.3.31-.48s.11-.37.11-.57Z"/><path class="cls-1" d="m173.06,32.21c-.13.14-.28.25-.47.3-.41.09-.74-.14-.97-.45-.84-1.13-1.33-2.5-2.04-3.72-.77-1.32-1.49-2.71-1.99-4.16-.44-1.29-1.01-2.7-.97-4.1.03-1.07.11-3.37,1.88-5.05.34-.32,1.83-1.67,4.02-1.59,1.6.06,2.69.84,3.23,1.23.35.25,1.95,1.46,2.55,3.54.37,1.29.17,2.58-.24,3.84-.54,1.67-1.24,3.32-2.03,4.88-.48.95-.99,1.88-1.52,2.79-.27.47-.56.94-.84,1.41-.19.31-.35.77-.62,1.07Z"/><path class="cls-3" d="m172.94,32.29c-.1.11-.21.19-.36.23-.31.07-.56-.11-.73-.34-.64-.86-1.01-1.9-1.55-2.82-.58-1-1.13-2.06-1.51-3.16-.33-.98-.77-2.05-.73-3.11.03-.82.08-2.56,1.42-3.84.26-.24,1.39-1.27,3.05-1.21,1.21.04,2.05.64,2.45.93.27.19,1.48,1.11,1.94,2.69.28.98.13,1.96-.18,2.91-.41,1.27-.94,2.52-1.54,3.71-.36.72-.75,1.43-1.15,2.12-.21.36-.42.72-.64,1.07-.14.23-.27.58-.47.82Z"/><path class="cls-4" d="m172.81,32.37c-.06.07-.14.13-.24.15-.2.05-.37-.07-.48-.23-.42-.57-.67-1.25-1.02-1.86-.38-.66-.75-1.35-.99-2.08-.22-.65-.51-1.35-.48-2.05.02-.54.05-1.68.94-2.53.17-.16.92-.83,2.01-.8.8.03,1.35.42,1.61.61.18.13.98.73,1.28,1.77.19.65.08,1.29-.12,1.92-.27.84-.62,1.66-1.01,2.44-.24.47-.49.94-.76,1.4-.14.24-.28.47-.42.71-.09.15-.18.38-.31.54Z"/><path class="cls-1" d="m173.06,35.43c-.13-.14-.28-.25-.47-.3-.41-.09-.74.14-.97.45-.84,1.13-1.33,2.5-2.04,3.72-.77,1.32-1.49,2.71-1.99,4.16-.44,1.29-1.01,2.7-.97,4.1.03,1.07.11,3.37,1.88,5.05.34.32,1.83,1.67,4.02,1.59,1.6-.06,2.69-.84,3.23-1.23.35-.25,1.95-1.46,2.55-3.54.37-1.29.17-2.58-.24-3.84-.54-1.67-1.24-3.32-2.03-4.88-.48-.95-.99-1.88-1.52-2.79-.27-.47-.56-.94-.84-1.41-.19-.31-.35-.77-.62-1.07Z"/><path class="cls-3" d="m172.94,35.35c-.1-.11-.21-.19-.36-.23-.31-.07-.56.11-.73.34-.64.86-1.01,1.9-1.55,2.82-.58,1-1.13,2.06-1.51,3.16-.33.98-.77,2.05-.73,3.11.03.82.08,2.56,1.42,3.84.26.24,1.39,1.27,3.05,1.21,1.21-.04,2.05-.64,2.45-.93.27-.19,1.48-1.11,1.94-2.69.28-.98.13-1.96-.18-2.91-.41-1.27-.94-2.52-1.54-3.71-.36-.72-.75-1.43-1.15-2.12-.21-.36-.42-.72-.64-1.07-.14-.23-.27-.58-.47-.82Z"/><path class="cls-4" d="m172.81,35.27c-.06-.07-.14-.13-.24-.15-.2-.05-.37.07-.48.23-.42.57-.67,1.25-1.02,1.86-.38.66-.75,1.35-.99,2.08-.22.65-.51,1.35-.48,2.05.02.54.05,1.68.94,2.53.17.16.92.83,2.01.8.8-.03,1.35-.42,1.61-.61.18-.13.98-.73,1.28-1.77.19-.65.08-1.29-.12-1.92-.27-.84-.62-1.66-1.01-2.44-.24-.47-.49-.94-.76-1.4-.14-.24-.28-.47-.42-.71-.09-.15-.18-.38-.31-.54Z"/><path class="cls-1" d="m174.19,33.74c-.19.03-.36.11-.5.25-.29.3-.26.7-.12,1.06.53,1.31,1.45,2.44,2.12,3.67.73,1.34,1.54,2.68,2.52,3.86.88,1.05,1.78,2.27,3,2.95.94.53,2.94,1.66,5.29,1.03.45-.12,2.38-.7,3.45-2.6.78-1.39.68-2.74.63-3.4-.03-.43-.23-2.43-1.7-4.02-.91-.99-2.12-1.48-3.4-1.79-1.71-.41-3.48-.66-5.23-.81-1.06-.09-2.12-.13-3.18-.16-.55-.01-1.1-.02-1.64-.02-.36,0-.84-.1-1.24-.03Z"/><path class="cls-3" d="m174.06,33.8c-.14.03-.28.08-.38.19-.22.23-.2.53-.09.8.4.99,1.1,1.85,1.61,2.79.56,1.02,1.17,2.04,1.92,2.93.67.8,1.36,1.72,2.28,2.24.71.4,2.23,1.26,4.02.78.34-.09,1.81-.53,2.62-1.98.6-1.06.52-2.08.48-2.58-.03-.33-.18-1.84-1.29-3.06-.69-.75-1.61-1.13-2.59-1.36-1.3-.31-2.64-.5-3.97-.61-.8-.06-1.61-.1-2.41-.12-.42,0-.83-.01-1.25-.01-.28,0-.64-.08-.94-.02Z"/><path class="cls-4" d="m173.93,33.87c-.1.02-.18.05-.25.12-.14.15-.13.35-.06.53.26.65.72,1.22,1.06,1.84.37.67.77,1.34,1.26,1.93.44.52.89,1.13,1.5,1.48.47.26,1.47.83,2.65.51.22-.06,1.19-.35,1.72-1.3.39-.7.34-1.37.31-1.7-.02-.22-.12-1.21-.85-2.01-.45-.5-1.06-.74-1.7-.89-.85-.2-1.74-.33-2.61-.4-.53-.04-1.06-.07-1.59-.08-.27,0-.55,0-.82,0-.18,0-.42-.05-.62-.01Z"/><path class="cls-1" d="m170.63,33.88c.19.03.36.11.5.25.29.3.26.7.12,1.06-.53,1.31-1.45,2.44-2.12,3.67-.73,1.34-1.54,2.68-2.52,3.86-.88,1.05-1.78,2.27-3,2.95-.94.53-2.94,1.66-5.29,1.03-.45-.12-2.38-.7-3.45-2.6-.78-1.39-.68-2.74-.63-3.4.03-.43.23-2.43,1.7-4.02.91-.99,2.12-1.48,3.4-1.79,1.71-.41,3.48-.66,5.23-.81,1.06-.09,2.12-.13,3.18-.16.55-.01,1.1-.02,1.64-.02.36,0,.84-.1,1.24-.03Z"/><path class="cls-3" d="m170.76,33.94c.14.03.28.08.38.19.22.23.2.53.09.8-.4.99-1.1,1.85-1.61,2.79-.56,1.02-1.17,2.04-1.92,2.93-.67.8-1.36,1.72-2.28,2.24-.71.4-2.23,1.26-4.02.78-.34-.09-1.81-.53-2.62-1.98-.6-1.06-.52-2.08-.48-2.58.03-.33.18-1.84,1.29-3.06.69-.75,1.61-1.13,2.59-1.36,1.3-.31,2.64-.5,3.97-.61.8-.06,1.61-.1,2.41-.12.42,0,.83-.01,1.25-.01.28,0,.64-.08.94-.02Z"/><path class="cls-4" d="m170.89,34.01c.1.02.18.05.25.12.14.15.13.35.06.53-.26.65-.72,1.22-1.06,1.84-.37.67-.77,1.34-1.26,1.93-.44.52-.89,1.13-1.5,1.48-.47.26-1.47.83-2.65.51-.22-.06-1.19-.35-1.72-1.3-.39-.7-.34-1.37-.31-1.7.02-.22.12-1.21.85-2.01.45-.5,1.06-.74,1.7-.89.85-.2,1.74-.33,2.61-.4.53-.04,1.06-.07,1.59-.08.27,0,.55,0,.82,0,.18,0,.42-.05.62-.01Z"/><path class="cls-1" d="m174.29,33.39c-.19-.03-.36-.11-.5-.25-.29-.3-.26-.7-.12-1.06.53-1.31,1.45-2.44,2.12-3.67.73-1.34,1.54-2.68,2.52-3.86.88-1.05,1.78-2.27,3-2.95.94-.53,2.94-1.66,5.29-1.03.45.12,2.38.7,3.45,2.6.78,1.39.68,2.74.63,3.4-.03.43-.23,2.43-1.7,4.02-.91.99-2.12,1.48-3.4,1.79-1.71.41-3.48.66-5.23.81-1.06.09-2.12.13-3.18.16-.55.01-1.1.02-1.64.02-.36,0-.84.1-1.24.03Z"/><path class="cls-3" d="m174.16,33.33c-.14-.03-.28-.08-.38-.19-.22-.23-.2-.53-.09-.8.4-.99,1.1-1.85,1.61-2.79.56-1.02,1.17-2.04,1.92-2.93.67-.8,1.36-1.72,2.28-2.24.71-.4,2.23-1.26,4.02-.78.34.09,1.81.53,2.62,1.98.6,1.06.52,2.08.48,2.58-.03.33-.18,1.84-1.29,3.06-.69.75-1.61,1.13-2.59,1.36-1.3.31-2.64.5-3.97.61-.8.06-1.61.1-2.41.12-.42,0-.83.01-1.25.01-.28,0-.64.08-.94.02Z"/><path class="cls-4" d="m174.02,33.26c-.1-.02-.18-.05-.25-.12-.14-.15-.13-.35-.06-.53.26-.65.72-1.22,1.06-1.84.37-.67.77-1.34,1.26-1.93.44-.52.89-1.13,1.5-1.48.47-.26,1.47-.83,2.65-.51.22.06,1.19.35,1.72,1.3.39.7.34,1.37.31,1.7-.02.22-.12,1.21-.85,2.01-.45.5-1.06.74-1.7.89-.85.2-1.74.33-2.61.4-.53.04-1.06.07-1.59.08-.27,0-.55,0-.82,0-.18,0-.42.05-.62.01Z"/><path class="cls-1" d="m170.53,33.53c.19-.03.36-.11.5-.25.29-.3.26-.7.12-1.06-.53-1.31-1.45-2.44-2.12-3.67-.73-1.34-1.54-2.68-2.52-3.86-.88-1.05-1.78-2.27-3-2.95-.94-.53-2.94-1.66-5.29-1.03-.45.12-2.38.7-3.45,2.6-.78,1.39-.68,2.74-.63,3.4.03.43.23,2.43,1.7,4.02.91.99,2.12,1.48,3.4,1.79,1.71.41,3.48.66,5.23.81,1.06.09,2.12.13,3.18.16.55.01,1.1.02,1.64.02.36,0,.84.1,1.24.03Z"/><path class="cls-3" d="m170.66,33.47c.14-.03.28-.08.38-.19.22-.23.2-.53.09-.8-.4-.99-1.1-1.85-1.61-2.79-.56-1.02-1.17-2.04-1.92-2.93-.67-.8-1.36-1.72-2.28-2.24-.71-.4-2.23-1.26-4.02-.78-.34.09-1.81.53-2.62,1.98-.6,1.06-.52,2.08-.48,2.58.03.33.18,1.84,1.29,3.06.69.75,1.61,1.13,2.59,1.36,1.3.31,2.64.5,3.97.61.8.06,1.61.1,2.41.12.42,0,.83.01,1.25.01.28,0,.64.08.94.02Z"/><path class="cls-4" d="m170.8,33.4c.1-.02.18-.05.25-.12.14-.15.13-.35.06-.53-.26-.65-.72-1.22-1.06-1.84-.37-.67-.77-1.34-1.26-1.93-.44-.52-.89-1.13-1.5-1.48-.47-.26-1.47-.83-2.65-.51-.22.06-1.19.35-1.72,1.3-.39.7-.34,1.37-.31,1.7.02.22.12,1.21.85,2.01.45.5,1.06.74,1.7.89.85.2,1.74.33,2.61.4.53.04,1.06.07,1.59.08.27,0,.55,0,.82,0,.18,0,.42.05.62.01Z"/></svg>