<?xml version="1.0" encoding="UTF-8"?><svg id="Laag_1" xmlns="http://www.w3.org/2000/svg" xmlns:xlink="http://www.w3.org/1999/xlink" viewBox="0 0 455.63 355.46"><defs><style>.cls-1{clip-path:url(#clippath);}.cls-2,.cls-3{fill:none;}.cls-2,.cls-4,.cls-5,.cls-6,.cls-7,.cls-8,.cls-9,.cls-10,.cls-11,.cls-12,.cls-13,.cls-14{stroke-width:0px;}.cls-15{clip-path:url(#clippath-1);}.cls-16{clip-path:url(#clippath-4);}.cls-17{clip-path:url(#clippath-3);}.cls-18{clip-path:url(#clippath-2);}.cls-19{clip-path:url(#clippath-7);}.cls-20{clip-path:url(#clippath-6);}.cls-21{clip-path:url(#clippath-5);}.cls-3{stroke:#8f2e12;stroke-miterlimit:10;stroke-width:1.12px;}.cls-22{opacity:.51;}.cls-23{isolation:isolate;}.cls-5{fill:#cc3e0c;}.cls-6{fill:#d65515;}.cls-7{fill:#8e2f12;}.cls-8{fill:#97995e;}.cls-9{fill:#a1421a;}.cls-10{fill:#fddaa3;}.cls-11{fill:#f2a523;}.cls-12{fill:#f39210;}.cls-13{fill:#f39211;}.cls-14{fill:#e5e7b7;}</style><clipPath id="clippath"><rect class="cls-2" x="30.52" y="79.28" width="150.98" height="196.21"/></clipPath><clipPath id="clippath-1"><rect class="cls-2" x="30.52" y="79.28" width="150.98" height="196.21"/></clipPath><clipPath id="clippath-2"><rect class="cls-2" x="40.46" y="89.86" width="131.12" height="172.56"/></clipPath><clipPath id="clippath-3"><rect class="cls-2" x="30.52" y="79.28" width="150.98" height="196.21"/></clipPath><clipPath id="clippath-4"><rect class="cls-2" x="31.57" y="79.28" width="11.42" height="13.55"/></clipPath><clipPath id="clippath-5"><rect class="cls-2" x="169.37" y="81.28" width="11.61" height="11.55"/></clipPath><clipPath id="clippath-6"><rect class="cls-2" x="169.37" y="259.46" width="11.61" height="15.05"/></clipPath><clipPath id="clippath-7"><rect class="cls-2" x="31.37" y="259.46" width="11.61" height="15.05"/></clipPath></defs><path class="cls-5" d="m455.63,354.41l-20.49-.23-28.73.23h-142.95c4.97-11.53,10.73-22.7,17.22-33.45,6.77-11.17,14.62-21.65,23.43-31.29,10.45-11.33,22.33-19.18,34.25-26.91,10.94-7.1,21.86-14.25,33.02-20.7,7.46-4.3,14.98-8.41,22.64-11.91,8.76-4,17.59-7.81,26.52-11.06,7.79-2.84,15.54-5.92,23.37-8.53l11.2-3.65"/><path class="cls-12" d="m455.63,277.04v77.37h-82.82c-.61.35-1.2.7-1.8,1.05-.09-.35-.16-.7-.24-1.05-4.96-21.93-5.7-43.94.84-66.13,9.03-30.62,33.01-51.44,58.75-31.99,8.61,6.5,16.79,13.95,25.26,20.75Z"/><path class="cls-8" d="m189.44.59c-.03.1-.06.2-.09.3-.22.72-.38,1.43-.54,2.19-4.21,9.41-9.07,17.96-15.37,24.72-.51.31-1.05.57-1.56.87-2.36,1.33-4.59,2.88-5.61,6.28-.29.93-.47,1.9-.53,2.87-1.66,3.82-4.46,5.79-7,7.94-4,3.33-6.98,8.88-11.7,10.51-.54-.1-1.09-.09-1.61.04-1.59.45-2.69,2.04-3.76,3.66-.56.9-1.21,1.74-1.93,2.5-2.28,1.33-4.25,3.71-6.85,3.75-.57-.08-1.15-.07-1.71.04-1.31.08-2.58.44-3.73,1.05-1.9,1.03-3.66,2.28-5.24,3.75t-.05,0s-.03.03-.05.03c-.48.42-.86.84-1.34,1.29-.26.07-.52.12-.78.15-.14.04-.29.07-.43.08-1.61.28-3.19.74-4.7,1.36-5.37,1.77-10.57,4.95-16.18,5.03-9.74.15-19.48.03-29.22.07-1.8.01-3.58-.38-5.21-1.13-4.93-2.15-10.13-3.62-15.45-4.35-.35-.03-.67-.07-1.02-.11-.87.23-1.8.11-2.58-.34-1.05-1.02-2.17-1.97-3.35-2.84,0,0-.03-.03-.06-.03-5.26-3.82-11-5.82-16.61-8.4h-.05c-.36-.02-.72-.08-1.07-.18l-1.61-1.48c-1.13-1.22-2.58-2.08-4.19-2.5h-.03c-.29-.07-.58-.11-.88-.11-.36,0-.72-.04-1.08-.12-1.39-1.05-2.79-2.15-4.45-1.43-2.91-1.22-5.51-3.06-7.62-5.41-.2-.55-.35-1.12-.43-1.7-.16-.68-.35-1.25-.83-1.4-.54-.17-1.07-.4-1.6-.67V.59h188.1Z"/><path class="cls-7" d="m212.03.59c-12.66,18.24-27.67,34.02-45.02,47.32C118.67,85.02,57.15,103.21,1.27,126.03c.01-16.7.03-33.4.04-50.09.01-15.68-3.24-35.69.45-50.8-.18.75,29.53,15.53,32.02,16.7,19.89,9.28,43.19,11.75,64.77,6.24,23.51-6.01,45.01-23.66,59.94-42.31,6.67-8.34,21.2-5.16,31.01-5.16h22.52Z"/><g id="DE_STIJL_VAN_VROEGER" class="cls-23"><g class="cls-23"><path class="cls-4" d="m206.71,149.34h7.98c2.07,0,3.9.42,5.49,1.25,1.59.83,2.82,1.99,3.7,3.47.88,1.48,1.32,3.18,1.32,5.08s-.44,3.6-1.32,5.08c-.88,1.48-2.11,2.64-3.7,3.47-1.59.83-3.42,1.25-5.49,1.25h-7.98v-19.6Zm7.87,17.81c1.72,0,3.22-.34,4.51-1.02,1.29-.68,2.29-1.62,3-2.83.71-1.2,1.06-2.59,1.06-4.16s-.35-2.95-1.06-4.16c-.71-1.2-1.71-2.15-3-2.83-1.29-.68-2.79-1.02-4.51-1.02h-5.8v16.02h5.8Z"/><path class="cls-4" d="m243.7,167.15v1.79h-13.86v-19.6h13.44v1.79h-11.37v6.97h10.14v1.76h-10.14v7.28h11.79Z"/><path class="cls-4" d="m257.13,168.41c-1.33-.47-2.37-1.08-3.09-1.85l.81-1.6c.71.71,1.65,1.28,2.83,1.72,1.18.44,2.39.66,3.64.66,1.75,0,3.07-.32,3.95-.97.88-.64,1.32-1.48,1.32-2.51,0-.78-.24-1.41-.71-1.88-.48-.47-1.06-.83-1.75-1.08-.69-.25-1.65-.53-2.88-.83-1.47-.37-2.65-.73-3.53-1.08-.88-.35-1.63-.87-2.25-1.58s-.94-1.67-.94-2.88c0-.99.26-1.89.78-2.7.52-.81,1.33-1.46,2.41-1.95,1.08-.49,2.43-.73,4.03-.73,1.12,0,2.22.15,3.29.46,1.07.31,2,.73,2.79,1.27l-.7,1.65c-.82-.54-1.7-.95-2.63-1.22s-1.85-.41-2.74-.41c-1.72,0-3.01.33-3.88.99-.87.66-1.3,1.52-1.3,2.56,0,.78.24,1.41.71,1.89.48.48,1.07.84,1.79,1.09s1.68.53,2.9.83c1.44.35,2.6.7,3.49,1.05s1.64.87,2.25,1.57c.62.7.92,1.65.92,2.84,0,.99-.27,1.89-.8,2.7-.53.81-1.35,1.46-2.45,1.93-1.1.48-2.45.71-4.06.71-1.46,0-2.85-.23-4.19-.7Z"/><path class="cls-4" d="m276.65,151.13h-6.89v-1.79h15.85v1.79h-6.89v17.81h-2.07v-17.81Z"/><path class="cls-4" d="m288.92,149.34h2.07v19.6h-2.07v-19.6Z"/><path class="cls-4" d="m296.37,168.38c-.95-.49-1.73-1.18-2.32-2.07l1.23-1.4c1.08,1.61,2.49,2.41,4.23,2.41,2.43,0,3.64-1.44,3.64-4.31v-11.87h-7.17v-1.79h9.21v13.58c0,2.05-.48,3.6-1.44,4.63-.96,1.04-2.38,1.55-4.27,1.55-1.12,0-2.16-.24-3.11-.73Z"/><path class="cls-4" d="m311.4,149.34h2.07v17.81h10.98v1.79h-13.05v-19.6Z"/><path class="cls-4" d="m351.52,149.34l-8.68,19.6h-2.04l-8.68-19.6h2.24l7.5,17.02,7.56-17.02h2.1Z"/><path class="cls-4" d="m366.06,163.7h-10.92l-2.35,5.24h-2.16l8.96-19.6h2.04l8.96,19.6h-2.18l-2.35-5.24Zm-.76-1.68l-4.7-10.53-4.7,10.53h9.41Z"/><path class="cls-4" d="m390.22,149.34v19.6h-1.71l-12.6-15.9v15.9h-2.07v-19.6h1.71l12.63,15.9v-15.9h2.04Z"/></g><g class="cls-23"><path class="cls-4" d="m223.01,185.34l-8.68,19.6h-2.04l-8.68-19.6h2.24l7.5,17.02,7.56-17.02h2.1Z"/><path class="cls-4" d="m239.22,204.94l-4.48-6.3c-.5.06-1.03.08-1.57.08h-5.26v6.22h-2.07v-19.6h7.34c2.5,0,4.46.6,5.88,1.79,1.42,1.19,2.13,2.84,2.13,4.93,0,1.53-.39,2.82-1.16,3.88-.78,1.05-1.88,1.82-3.32,2.28l4.79,6.72h-2.27Zm-1.65-9.27c1.03-.86,1.54-2.06,1.54-3.61s-.51-2.8-1.54-3.65c-1.03-.85-2.51-1.27-4.45-1.27h-5.21v9.83h5.21c1.94,0,3.42-.43,4.45-1.29Z"/><path class="cls-4" d="m249.37,203.81c-1.58-.87-2.81-2.06-3.7-3.57s-1.33-3.21-1.33-5.1.44-3.58,1.33-5.1c.89-1.51,2.12-2.7,3.7-3.57,1.58-.87,3.34-1.3,5.28-1.3s3.69.43,5.25,1.29c1.56.86,2.79,2.05,3.68,3.57.9,1.52,1.34,3.22,1.34,5.11s-.45,3.59-1.34,5.11c-.9,1.52-2.12,2.71-3.68,3.57-1.56.86-3.31,1.29-5.25,1.29s-3.7-.43-5.28-1.3Zm9.48-1.6c1.25-.7,2.23-1.67,2.94-2.91.71-1.24,1.06-2.63,1.06-4.16s-.35-2.92-1.06-4.16c-.71-1.24-1.69-2.21-2.94-2.91s-2.65-1.05-4.2-1.05-2.95.35-4.21,1.05c-1.26.7-2.25,1.67-2.97,2.91s-1.08,2.63-1.08,4.16.36,2.92,1.08,4.16,1.71,2.21,2.97,2.91c1.26.7,2.67,1.05,4.21,1.05s2.95-.35,4.2-1.05Z"/><path class="cls-4" d="m283.43,203.15v1.79h-13.86v-19.6h13.44v1.79h-11.37v6.97h10.14v1.76h-10.14v7.28h11.79Z"/><path class="cls-4" d="m302,195.14h1.99v7.48c-.91.8-2,1.42-3.25,1.85-1.25.43-2.57.64-3.95.64-1.96,0-3.72-.43-5.29-1.29-1.57-.86-2.8-2.05-3.7-3.57-.9-1.52-1.34-3.22-1.34-5.11s.45-3.59,1.34-5.11c.9-1.52,2.13-2.71,3.7-3.57,1.57-.86,3.34-1.29,5.32-1.29,1.49,0,2.87.24,4.12.71,1.25.48,2.31,1.18,3.16,2.11l-1.29,1.32c-1.55-1.53-3.52-2.3-5.91-2.3-1.59,0-3.02.35-4.3,1.05s-2.28,1.67-3.01,2.91c-.73,1.24-1.09,2.63-1.09,4.16s.36,2.91,1.09,4.14c.73,1.23,1.73,2.2,3,2.91,1.27.71,2.7,1.06,4.28,1.06,2.02,0,3.72-.5,5.12-1.51v-6.61Z"/><path class="cls-4" d="m323.69,203.15v1.79h-13.86v-19.6h13.44v1.79h-11.37v6.97h10.14v1.76h-10.14v7.28h11.79Z"/><path class="cls-4" d="m341.95,204.94l-4.48-6.3c-.5.06-1.03.08-1.57.08h-5.26v6.22h-2.07v-19.6h7.34c2.5,0,4.46.6,5.88,1.79,1.42,1.19,2.13,2.84,2.13,4.93,0,1.53-.39,2.82-1.16,3.88s-1.88,1.82-3.32,2.28l4.79,6.72h-2.27Zm-1.65-9.27c1.03-.86,1.54-2.06,1.54-3.61s-.51-2.8-1.54-3.65c-1.03-.85-2.51-1.27-4.45-1.27h-5.21v9.83h5.21c1.94,0,3.42-.43,4.45-1.29Z"/></g></g><g id="Group_71"><g class="cls-1"><g id="Group_70"><rect id="Rectangle_98" class="cls-13" x="30.52" y="79.55" width="150.98" height="195.95"/><g id="Group_55"><g class="cls-15"><g id="Group_54"><g id="Group_53" class="cls-22"><g id="Group_52"><g class="cls-18"><g id="Group_51"><rect id="Rectangle_99" class="cls-14" x="40.45" y="89.86" width="131.12" height="172.56"/></g></g></g></g></g></g></g><rect id="Rectangle_102" class="cls-10" x="43.46" y="93.82" width="125.1" height="164.64"/><g id="Group_69"><g class="cls-17"><g id="Group_68"><g id="Group_58" class="cls-22"><g id="Group_57"><g class="cls-16"><g id="Group_56"><path id="Path_1512" class="cls-14" d="m42.22,92.83c-.22,0-.43-.1-.57-.27l-9.89-11.93c-.28-.34-.25-.84.06-1.14.29-.28.75-.27,1.03.02.01.02.03.03.04.05l9.9,11.93c.28.34.25.84-.07,1.14-.14.13-.32.2-.5.2"/></g></g></g></g><g id="Group_61" class="cls-22"><g id="Group_60"><g class="cls-21"><g id="Group_59"><path id="Path_1513" class="cls-14" d="m170.14,92.83c-.19,0-.37-.06-.51-.17-.28-.21-.34-.61-.13-.9.02-.03.04-.05.07-.08l10.07-10.17c.3-.29.76-.31,1.09-.06.28.21.34.61.13.9-.02.03-.04.05-.07.08l-10.07,10.17c-.15.15-.36.24-.58.23"/></g></g></g></g><g id="Group_64" class="cls-22"><g id="Group_63"><g class="cls-20"><g id="Group_62"><path id="Path_1514" class="cls-14" d="m180.21,274.5c-.23,0-.44-.12-.58-.3l-10.07-13.25c-.28-.39-.26-.92.07-1.27.26-.28.71-.3.99-.04.04.03.07.07.1.12l10.07,13.25c.28.39.25.92-.07,1.27-.13.14-.32.22-.51.22"/></g></g></g></g><g id="Group_67" class="cls-22"><g id="Group_66"><g class="cls-19"><g id="Group_65"><path id="Path_1515" class="cls-14" d="m32.15,274.5c-.19,0-.38-.08-.51-.22-.32-.36-.35-.89-.06-1.27l10.06-13.25c.22-.32.66-.4.97-.18.04.03.08.06.12.1.32.35.35.89.07,1.27l-10.06,13.25c-.13.19-.35.3-.58.3"/></g></g></g></g><path id="Path_1516" class="cls-13" d="m76.71,187.31c19.5-2.62,39.25-2.77,58.79-.45l-4.26,10.97h-48.99l-5.54-10.52Z"/><path id="Path_1517" class="cls-8" d="m111.22,106.99s-20.39,28.1-.89,46.94c0,0,12.06-15.19.89-46.94"/><path id="Path_1518" class="cls-8" d="m84.7,127.48s-1.8,34.67,24.81,39.86c0,0,1.85-19.31-24.81-39.86"/><path id="Path_1519" class="cls-8" d="m75.86,149.77s5.54,30.18,29.48,29.2c0,0-2.36-16.98-29.48-29.2"/><path id="Path_1520" class="cls-8" d="m136.96,134.07s-7.19,29.63-27.67,29.33c0,0,3.39-16.65,27.67-29.33"/><path id="Path_1521" class="cls-8" d="m135.96,157.62s-10.75,28.53-31.05,25.73c0,0,5.4-16.11,31.05-25.73"/><path id="Path_1522" class="cls-3" d="m109.35,125.81l.97,28.12s-.5,18.27-10.35,45.94"/><path id="Path_1523" class="cls-3" d="m109.29,163.41s15.52-18.14,23.98-23.1"/><path id="Path_1524" class="cls-3" d="m104.91,183.35s18.28-17.12,23.96-19.83"/><path id="Path_1525" class="cls-3" d="m90.52,136.9s8.22,14.58,17.75,28.61"/><path id="Path_1526" class="cls-3" d="m80.81,156.39s13.55,14.15,24.53,22.58"/><path id="Path_1527" class="cls-13" d="m76.71,187.31s28.68,4.53,58.8-.45l-1.42,38.51c-.08,2.59-.7,5.14-1.84,7.47-2.7,5.43-9.37,13.16-25.48,12.91-11.76-.18-18.53-4.77-22.4-9.54-3.08-3.88-4.9-8.62-5.2-13.57l-2.47-35.32Z"/></g></g></g></g></g></g><path class="cls-4" d="m372.81,354.41c-.61.35-1.2.7-1.8,1.05-.09-.35-.16-.7-.24-1.05h2.04Z"/><path class="cls-11" d="m417.63,107.87c-.14.16-.31.28-.52.33-.45.1-.81-.15-1.07-.5-.93-1.25-1.48-2.77-2.26-4.12-.85-1.47-1.65-3-2.2-4.61-.49-1.43-1.12-3-1.07-4.54.04-1.19.12-3.73,2.08-5.6.37-.36,2.03-1.85,4.45-1.77,1.77.06,2.99.93,3.58,1.36.39.28,2.16,1.62,2.83,3.93.41,1.43.18,2.86-.27,4.25-.6,1.85-1.38,3.68-2.25,5.41-.53,1.05-1.09,2.08-1.68,3.1-.3.53-.62,1.05-.93,1.56-.21.34-.39.85-.69,1.19Z"/><path class="cls-6" d="m417.5,107.95c-.11.12-.24.21-.4.25-.34.08-.62-.12-.81-.38-.71-.95-1.12-2.11-1.71-3.13-.65-1.11-1.26-2.28-1.67-3.5-.37-1.09-.85-2.28-.81-3.45.03-.9.09-2.84,1.58-4.26.28-.27,1.54-1.4,3.38-1.34,1.34.05,2.27.71,2.72,1.03.3.21,1.64,1.23,2.15,2.98.31,1.09.14,2.17-.2,3.23-.46,1.41-1.04,2.79-1.71,4.11-.4.8-.83,1.58-1.28,2.35-.23.4-.47.79-.71,1.19-.16.26-.3.65-.52.9Z"/><path class="cls-9" d="m417.36,108.04c-.07.08-.16.14-.26.16-.23.05-.41-.08-.54-.25-.47-.63-.74-1.39-1.13-2.06-.43-.73-.83-1.5-1.1-2.31-.24-.72-.56-1.5-.54-2.27.02-.6.06-1.87,1.04-2.8.19-.18,1.02-.92,2.23-.88.89.03,1.49.47,1.79.68.19.14,1.08.81,1.42,1.96.21.72.09,1.43-.13,2.13-.3.93-.69,1.84-1.12,2.71-.26.52-.55,1.04-.84,1.55-.15.26-.31.52-.47.78-.1.17-.19.43-.34.6Z"/><path class="cls-11" d="m417.63,111.43c-.14-.16-.31-.28-.52-.33-.45-.1-.81.15-1.07.5-.93,1.25-1.48,2.77-2.26,4.12-.85,1.47-1.65,3-2.2,4.61-.49,1.43-1.12,3-1.07,4.54.04,1.19.12,3.73,2.08,5.6.37.36,2.03,1.85,4.45,1.77,1.77-.06,2.99-.93,3.58-1.36.39-.28,2.16-1.62,2.83-3.93.41-1.43.18-2.86-.27-4.25-.6-1.85-1.38-3.68-2.25-5.41-.53-1.05-1.09-2.08-1.68-3.1-.3-.53-.62-1.05-.93-1.56-.21-.34-.39-.85-.69-1.19Z"/><path class="cls-6" d="m417.5,111.35c-.11-.12-.24-.21-.4-.25-.34-.08-.62.12-.81.38-.71.95-1.12,2.11-1.71,3.13-.65,1.11-1.26,2.28-1.67,3.5-.37,1.09-.85,2.28-.81,3.45.03.9.09,2.84,1.58,4.26.28.27,1.54,1.4,3.38,1.34,1.34-.05,2.27-.71,2.72-1.03.3-.21,1.64-1.23,2.15-2.98.31-1.09.14-2.17-.2-3.23-.46-1.41-1.04-2.79-1.71-4.11-.4-.8-.83-1.58-1.28-2.35-.23-.4-.47-.79-.71-1.19-.16-.26-.3-.65-.52-.9Z"/><path class="cls-9" d="m417.36,111.26c-.07-.08-.16-.14-.26-.16-.23-.05-.41.08-.54.25-.47.63-.74,1.39-1.13,2.06-.43.73-.83,1.5-1.1,2.31-.24.72-.56,1.5-.54,2.27.02.6.06,1.87,1.04,2.8.19.18,1.02.92,2.23.88.89-.03,1.49-.47,1.79-.68.19-.14,1.08-.81,1.42-1.96.21-.72.09-1.43-.13-2.13-.3-.93-.69-1.84-1.12-2.71-.26-.52-.55-1.04-.84-1.55-.15-.26-.31-.52-.47-.78-.1-.17-.19-.43-.34-.6Z"/><path class="cls-11" d="m418.88,109.56c-.21.04-.4.12-.55.27-.32.33-.29.78-.13,1.17.59,1.45,1.6,2.7,2.35,4.07.81,1.49,1.71,2.97,2.8,4.28.97,1.16,1.98,2.52,3.32,3.27,1.04.59,3.25,1.84,5.87,1.14.5-.13,2.64-.77,3.82-2.88.87-1.54.75-3.04.7-3.77-.04-.48-.26-2.69-1.88-4.46-1.01-1.1-2.35-1.64-3.77-1.98-1.89-.45-3.86-.74-5.79-.89-1.17-.09-2.35-.15-3.52-.17-.61-.01-1.21-.02-1.82-.02-.4,0-.93-.11-1.38-.03Z"/><path class="cls-6" d="m418.74,109.63c-.16.03-.31.09-.42.21-.24.25-.22.59-.1.89.45,1.1,1.22,2.05,1.78,3.09.62,1.13,1.3,2.26,2.12,3.25.74.88,1.5,1.91,2.52,2.49.79.45,2.47,1.4,4.46.86.38-.1,2-.59,2.9-2.19.66-1.17.57-2.31.53-2.86-.03-.36-.2-2.04-1.43-3.39-.77-.83-1.78-1.25-2.87-1.51-1.44-.34-2.93-.56-4.4-.68-.89-.07-1.78-.11-2.67-.13-.46,0-.92-.01-1.38-.01-.3,0-.71-.08-1.04-.02Z"/><path class="cls-9" d="m418.59,109.7c-.11.02-.2.06-.28.14-.16.17-.15.39-.07.59.29.72.8,1.35,1.17,2.04.41.74.85,1.49,1.4,2.14.49.58.99,1.26,1.66,1.64.52.29,1.63.92,2.93.57.25-.07,1.32-.39,1.91-1.44.43-.77.38-1.52.35-1.88-.02-.24-.13-1.34-.94-2.23-.5-.55-1.17-.82-1.89-.99-.95-.22-1.93-.37-2.9-.45-.59-.05-1.17-.07-1.76-.09-.3,0-.61,0-.91,0-.2,0-.47-.06-.69-.02Z"/><path class="cls-11" d="m414.94,109.71c.21.04.4.12.55.27.32.33.29.78.13,1.17-.59,1.45-1.6,2.7-2.35,4.07-.81,1.49-1.71,2.97-2.8,4.28-.97,1.16-1.98,2.52-3.32,3.27-1.04.59-3.25,1.84-5.87,1.14-.5-.13-2.64-.77-3.82-2.88-.87-1.54-.75-3.04-.7-3.77.04-.48.26-2.69,1.88-4.46,1.01-1.1,2.35-1.64,3.77-1.98,1.89-.45,3.86-.74,5.79-.89,1.17-.09,2.35-.15,3.52-.17.61-.01,1.21-.02,1.82-.02.4,0,.93-.11,1.38-.03Z"/><path class="cls-6" d="m415.08,109.78c.16.03.31.09.42.21.24.25.22.59.1.89-.45,1.1-1.22,2.05-1.78,3.09-.62,1.13-1.3,2.26-2.12,3.25-.74.88-1.5,1.91-2.52,2.49-.79.45-2.47,1.4-4.46.86-.38-.1-2-.59-2.9-2.19-.66-1.17-.57-2.31-.53-2.86.03-.36.2-2.04,1.43-3.39.77-.83,1.78-1.25,2.87-1.51,1.44-.34,2.93-.56,4.4-.68.89-.07,1.78-.11,2.67-.13.46,0,.92-.01,1.38-.01.3,0,.71-.08,1.04-.02Z"/><path class="cls-9" d="m415.23,109.86c.11.02.2.06.28.14.16.17.15.39.07.59-.29.72-.8,1.35-1.17,2.04-.41.74-.85,1.49-1.4,2.14-.49.58-.99,1.26-1.66,1.64-.52.29-1.63.92-2.93.57-.25-.07-1.32-.39-1.91-1.44-.43-.77-.38-1.52-.35-1.88.02-.24.13-1.34.94-2.23.5-.55,1.17-.82,1.89-.99.95-.22,1.93-.37,2.9-.45.59-.05,1.17-.07,1.76-.09.3,0,.61,0,.91,0,.2,0,.47-.06.69-.02Z"/><path class="cls-11" d="m418.99,109.17c-.21-.04-.4-.12-.55-.27-.32-.33-.29-.78-.13-1.17.59-1.45,1.6-2.7,2.35-4.07.81-1.49,1.71-2.97,2.8-4.28.97-1.16,1.98-2.52,3.32-3.27,1.04-.59,3.25-1.84,5.87-1.14.5.13,2.64.77,3.82,2.88.87,1.54.75,3.04.7,3.77-.04.48-.26,2.69-1.88,4.46-1.01,1.1-2.35,1.64-3.77,1.98-1.89.45-3.86.74-5.79.89-1.17.09-2.35.15-3.52.17-.61.01-1.21.02-1.82.02-.4,0-.93.11-1.38.03Z"/><path class="cls-6" d="m418.85,109.1c-.16-.03-.31-.09-.42-.21-.24-.25-.22-.59-.1-.89.45-1.1,1.22-2.05,1.78-3.09.62-1.13,1.3-2.26,2.12-3.25.74-.88,1.5-1.91,2.52-2.49.79-.45,2.47-1.4,4.46-.86.38.1,2,.59,2.9,2.19.66,1.17.57,2.31.53,2.86-.03.36-.2,2.04-1.43,3.39-.77.83-1.78,1.25-2.87,1.51-1.44.34-2.93.56-4.4.68-.89.07-1.78.11-2.67.13-.46,0-.92.01-1.38.01-.3,0-.71.08-1.04.02Z"/><path class="cls-9" d="m418.7,109.03c-.11-.02-.2-.06-.28-.14-.16-.17-.15-.39-.07-.59.29-.72.8-1.35,1.17-2.04.41-.74.85-1.49,1.4-2.14.49-.58.99-1.26,1.66-1.64.52-.29,1.63-.92,2.93-.57.25.07,1.32.39,1.91,1.44.43.77.38,1.52.35,1.88-.02.24-.13,1.34-.94,2.23-.5.55-1.17.82-1.89.99-.95.22-1.93.37-2.9.45-.59.05-1.17.07-1.76.09-.3,0-.61,0-.91,0-.2,0-.47.06-.69.02Z"/><path class="cls-11" d="m414.83,109.32c.21-.04.4-.12.55-.27.32-.33.29-.78.13-1.17-.59-1.45-1.6-2.7-2.35-4.07-.81-1.49-1.71-2.97-2.8-4.28-.97-1.16-1.98-2.52-3.32-3.27-1.04-.59-3.25-1.84-5.87-1.14-.5.13-2.64.77-3.82,2.88-.87,1.54-.75,3.04-.7,3.77.04.48.26,2.69,1.88,4.46,1.01,1.1,2.35,1.64,3.77,1.98,1.89.45,3.86.74,5.79.89,1.17.09,2.35.15,3.52.17.61.01,1.21.02,1.82.02.4,0,.93.11,1.38.03Z"/><path class="cls-6" d="m414.97,109.26c.16-.03.31-.09.42-.21.24-.25.22-.59.1-.89-.45-1.1-1.22-2.05-1.78-3.09-.62-1.13-1.3-2.26-2.12-3.25-.74-.88-1.5-1.91-2.52-2.49-.79-.45-2.47-1.4-4.46-.86-.38.1-2,.59-2.9,2.19-.66,1.17-.57,2.31-.53,2.86.03.36.2,2.04,1.43,3.39.77.83,1.78,1.25,2.87,1.51,1.44.34,2.93.56,4.4.68.89.07,1.78.11,2.67.13.46,0,.92.01,1.38.01.3,0,.71.08,1.04.02Z"/><path class="cls-9" d="m415.12,109.18c.11-.02.2-.06.28-.14.16-.17.15-.39.07-.59-.29-.72-.8-1.35-1.17-2.04-.41-.74-.85-1.49-1.4-2.14-.49-.58-.99-1.26-1.66-1.64-.52-.29-1.63-.92-2.93-.57-.25.07-1.32.39-1.91,1.44-.43.77-.38,1.52-.35,1.88.02.24.13,1.34.94,2.23.5.55,1.17.82,1.89.99.95.22,1.93.37,2.9.45.59.05,1.17.07,1.76.09.3,0,.61,0,.91,0,.2,0,.47.06.69.02Z"/><path class="cls-11" d="m397.34,48.18c-.14.16-.31.28-.52.33-.45.1-.81-.15-1.07-.5-.93-1.25-1.48-2.77-2.26-4.12-.85-1.47-1.65-3-2.2-4.61-.49-1.43-1.12-3-1.07-4.54.04-1.19.12-3.73,2.08-5.6.37-.36,2.03-1.85,4.45-1.77,1.77.06,2.99.93,3.58,1.36.39.28,2.16,1.62,2.83,3.93.41,1.43.18,2.86-.27,4.25-.6,1.85-1.38,3.68-2.25,5.41-.53,1.05-1.09,2.08-1.68,3.1-.3.53-.62,1.05-.93,1.56-.21.34-.39.85-.69,1.19Z"/><path class="cls-6" d="m397.21,48.26c-.11.12-.24.21-.4.25-.34.08-.62-.12-.81-.38-.71-.95-1.12-2.11-1.71-3.13-.65-1.11-1.26-2.28-1.67-3.5-.37-1.09-.85-2.28-.81-3.45.03-.9.09-2.84,1.58-4.26.28-.27,1.54-1.4,3.38-1.34,1.34.05,2.27.71,2.72,1.03.3.21,1.64,1.23,2.15,2.98.31,1.09.14,2.17-.2,3.23-.46,1.41-1.04,2.79-1.71,4.11-.4.8-.83,1.58-1.28,2.35-.23.4-.47.79-.71,1.19-.16.26-.3.65-.52.9Z"/><path class="cls-9" d="m397.07,48.35c-.07.08-.16.14-.26.16-.23.05-.41-.08-.54-.25-.47-.63-.74-1.39-1.13-2.06-.43-.73-.83-1.5-1.1-2.31-.24-.72-.56-1.5-.54-2.27.02-.6.06-1.87,1.04-2.8.19-.18,1.02-.92,2.23-.88.89.03,1.49.47,1.79.68.19.14,1.08.81,1.42,1.96.21.72.09,1.43-.13,2.13-.3.93-.69,1.84-1.12,2.71-.26.52-.55,1.04-.84,1.55-.15.26-.31.52-.47.78-.1.17-.19.43-.34.6Z"/><path class="cls-11" d="m397.34,51.74c-.14-.16-.31-.28-.52-.33-.45-.1-.81.15-1.07.5-.93,1.25-1.48,2.77-2.26,4.12-.85,1.47-1.65,3-2.2,4.61-.49,1.43-1.12,3-1.07,4.54.04,1.19.12,3.73,2.08,5.6.37.36,2.03,1.85,4.45,1.77,1.77-.06,2.99-.93,3.58-1.36.39-.28,2.16-1.62,2.83-3.93.41-1.43.18-2.86-.27-4.25-.6-1.85-1.38-3.68-2.25-5.41-.53-1.05-1.09-2.08-1.68-3.1-.3-.53-.62-1.05-.93-1.56-.21-.34-.39-.85-.69-1.19Z"/><path class="cls-6" d="m397.21,51.66c-.11-.12-.24-.21-.4-.25-.34-.08-.62.12-.81.38-.71.95-1.12,2.11-1.71,3.13-.65,1.11-1.26,2.28-1.67,3.5-.37,1.09-.85,2.28-.81,3.45.03.9.09,2.84,1.58,4.26.28.27,1.54,1.4,3.38,1.34,1.34-.05,2.27-.71,2.72-1.03.3-.21,1.64-1.23,2.15-2.98.31-1.09.14-2.17-.2-3.23-.46-1.41-1.04-2.79-1.71-4.11-.4-.8-.83-1.58-1.28-2.35-.23-.4-.47-.79-.71-1.19-.16-.26-.3-.65-.52-.9Z"/><path class="cls-9" d="m397.07,51.57c-.07-.08-.16-.14-.26-.16-.23-.05-.41.08-.54.25-.47.63-.74,1.39-1.13,2.06-.43.73-.83,1.5-1.1,2.31-.24.72-.56,1.5-.54,2.27.02.6.06,1.87,1.04,2.8.19.18,1.02.92,2.23.88.89-.03,1.49-.47,1.79-.68.19-.14,1.08-.81,1.42-1.96.21-.72.09-1.43-.13-2.13-.3-.93-.69-1.84-1.12-2.71-.26-.52-.55-1.04-.84-1.55-.15-.26-.31-.52-.47-.78-.1-.17-.19-.43-.34-.6Z"/><path class="cls-11" d="m398.6,49.87c-.21.04-.4.12-.55.27-.32.33-.29.78-.13,1.17.59,1.45,1.6,2.7,2.35,4.07.81,1.49,1.71,2.97,2.8,4.28.97,1.16,1.98,2.52,3.32,3.27,1.04.59,3.25,1.84,5.87,1.14.5-.13,2.64-.77,3.82-2.88.87-1.54.75-3.04.7-3.77-.04-.48-.26-2.69-1.88-4.46-1.01-1.1-2.35-1.64-3.77-1.98-1.89-.45-3.86-.74-5.79-.89-1.17-.09-2.35-.15-3.52-.17-.61-.01-1.21-.02-1.82-.02-.4,0-.93-.11-1.38-.03Z"/><path class="cls-6" d="m398.46,49.94c-.16.03-.31.09-.42.21-.24.25-.22.59-.1.89.45,1.1,1.22,2.05,1.78,3.09.62,1.13,1.3,2.26,2.12,3.25.74.88,1.5,1.91,2.52,2.49.79.45,2.47,1.4,4.46.86.38-.1,2-.59,2.9-2.19.66-1.17.57-2.31.53-2.86-.03-.36-.2-2.04-1.43-3.39-.77-.83-1.78-1.25-2.87-1.51-1.44-.34-2.93-.56-4.4-.68-.89-.07-1.78-.11-2.67-.13-.46,0-.92-.01-1.38-.01-.3,0-.71-.08-1.04-.02Z"/><path class="cls-9" d="m398.31,50.01c-.11.02-.2.06-.28.14-.16.17-.15.39-.07.59.29.72.8,1.35,1.17,2.04.41.74.85,1.49,1.4,2.14.49.58.99,1.26,1.66,1.64.52.29,1.63.92,2.93.57.25-.07,1.32-.39,1.91-1.44.43-.77.38-1.52.35-1.88-.02-.24-.13-1.34-.94-2.23-.5-.55-1.17-.82-1.89-.99-.95-.22-1.93-.37-2.9-.45-.59-.05-1.17-.07-1.76-.09-.3,0-.61,0-.91,0-.2,0-.47-.06-.69-.02Z"/><path class="cls-11" d="m394.65,50.02c.21.04.4.12.55.27.32.33.29.78.13,1.17-.59,1.45-1.6,2.7-2.35,4.07-.81,1.49-1.71,2.97-2.8,4.28-.97,1.16-1.98,2.52-3.32,3.27-1.04.59-3.25,1.84-5.87,1.14-.5-.13-2.64-.77-3.82-2.88-.87-1.54-.75-3.04-.7-3.77.04-.48.26-2.69,1.88-4.46,1.01-1.1,2.35-1.64,3.77-1.98,1.89-.45,3.86-.74,5.79-.89,1.17-.09,2.35-.15,3.52-.17.61-.01,1.21-.02,1.82-.02.4,0,.93-.11,1.38-.03Z"/><path class="cls-6" d="m394.79,50.09c.16.03.31.09.42.21.24.25.22.59.1.89-.45,1.1-1.22,2.05-1.78,3.09-.62,1.13-1.3,2.26-2.12,3.25-.74.88-1.5,1.91-2.52,2.49-.79.45-2.47,1.4-4.46.86-.38-.1-2-.59-2.9-2.19-.66-1.17-.57-2.31-.53-2.86.03-.36.2-2.04,1.43-3.39.77-.83,1.78-1.25,2.87-1.51,1.44-.34,2.93-.56,4.4-.68.89-.07,1.78-.11,2.67-.13.46,0,.92-.01,1.38-.01.3,0,.71-.08,1.04-.02Z"/><path class="cls-9" d="m394.94,50.17c.11.02.2.06.28.14.16.17.15.39.07.59-.29.72-.8,1.35-1.17,2.04-.41.74-.85,1.49-1.4,2.14-.49.58-.99,1.26-1.66,1.64-.52.29-1.63.92-2.93.57-.25-.07-1.32-.39-1.91-1.44-.43-.77-.38-1.52-.35-1.88.02-.24.13-1.34.94-2.23.5-.55,1.17-.82,1.89-.99.95-.22,1.93-.37,2.9-.45.59-.05,1.17-.07,1.76-.09.3,0,.61,0,.91,0,.2,0,.47-.06.69-.02Z"/><path class="cls-11" d="m398.7,49.48c-.21-.04-.4-.12-.55-.27-.32-.33-.29-.78-.13-1.17.59-1.45,1.6-2.7,2.35-4.07.81-1.49,1.71-2.97,2.8-4.28.97-1.16,1.98-2.52,3.32-3.27,1.04-.59,3.25-1.84,5.87-1.14.5.13,2.64.77,3.82,2.88.87,1.54.75,3.04.7,3.77-.04.48-.26,2.69-1.88,4.46-1.01,1.1-2.35,1.64-3.77,1.98-1.89.45-3.86.74-5.79.89-1.17.09-2.35.15-3.52.17-.61.01-1.21.02-1.82.02-.4,0-.93.11-1.38.03Z"/><path class="cls-6" d="m398.56,49.41c-.16-.03-.31-.09-.42-.21-.24-.25-.22-.59-.1-.89.45-1.1,1.22-2.05,1.78-3.09.62-1.13,1.3-2.26,2.12-3.25.74-.88,1.5-1.91,2.52-2.49.79-.45,2.47-1.4,4.46-.86.38.1,2,.59,2.9,2.19.66,1.17.57,2.31.53,2.86-.03.36-.2,2.04-1.43,3.39-.77.83-1.78,1.25-2.87,1.51-1.44.34-2.93.56-4.4.68-.89.07-1.78.11-2.67.13-.46,0-.92.01-1.38.01-.3,0-.71.08-1.04.02Z"/><path class="cls-9" d="m398.41,49.34c-.11-.02-.2-.06-.28-.14-.16-.17-.15-.39-.07-.59.29-.72.8-1.35,1.17-2.04.41-.74.85-1.49,1.4-2.14.49-.58.99-1.26,1.66-1.64.52-.29,1.63-.92,2.93-.57.25.07,1.32.39,1.91,1.44.43.77.38,1.52.35,1.88-.02.24-.13,1.34-.94,2.23-.5.55-1.17.82-1.89.99-.95.22-1.93.37-2.9.45-.59.05-1.17.07-1.76.09-.3,0-.61,0-.91,0-.2,0-.47.06-.69.02Z"/><path class="cls-11" d="m394.55,49.63c.21-.04.4-.12.55-.27.32-.33.29-.78.13-1.17-.59-1.45-1.6-2.7-2.35-4.07-.81-1.49-1.71-2.97-2.8-4.28-.97-1.16-1.98-2.52-3.32-3.27-1.04-.59-3.25-1.84-5.87-1.14-.5.13-2.64.77-3.82,2.88-.87,1.54-.75,3.04-.7,3.77.04.48.26,2.69,1.88,4.46,1.01,1.1,2.35,1.64,3.77,1.98,1.89.45,3.86.74,5.79.89,1.17.09,2.35.15,3.52.17.61.01,1.21.02,1.82.02.4,0,.93.11,1.38.03Z"/><path class="cls-6" d="m394.69,49.57c.16-.03.31-.09.42-.21.24-.25.22-.59.1-.89-.45-1.1-1.22-2.05-1.78-3.09-.62-1.13-1.3-2.26-2.12-3.25-.74-.88-1.5-1.91-2.52-2.49-.79-.45-2.47-1.4-4.46-.86-.38.1-2,.59-2.9,2.19-.66,1.17-.57,2.31-.53,2.86.03.36.2,2.04,1.43,3.39.77.83,1.78,1.25,2.87,1.51,1.44.34,2.93.56,4.4.68.89.07,1.78.11,2.67.13.46,0,.92.01,1.38.01.3,0,.71.08,1.04.02Z"/><path class="cls-9" d="m394.84,49.49c.11-.02.2-.06.28-.14.16-.17.15-.39.07-.59-.29-.72-.8-1.35-1.17-2.04-.41-.74-.85-1.49-1.4-2.14-.49-.58-.99-1.26-1.66-1.64-.52-.29-1.63-.92-2.93-.57-.25.07-1.32.39-1.91,1.44-.43.77-.38,1.52-.35,1.88.02.24.13,1.34.94,2.23.5.55,1.17.82,1.89.99.95.22,1.93.37,2.9.45.59.05,1.17.07,1.76.09.3,0,.61,0,.91,0,.2,0,.47.06.69.02Z"/><path class="cls-11" d="m30.44,273.71c-.14.16-.31.28-.52.33-.45.1-.81-.15-1.07-.5-.93-1.25-1.48-2.77-2.26-4.12-.85-1.47-1.65-3-2.2-4.61-.49-1.43-1.12-3-1.07-4.54.04-1.19.12-3.73,2.08-5.6.37-.36,2.03-1.85,4.45-1.77,1.77.06,2.99.93,3.58,1.36.39.28,2.16,1.62,2.83,3.93.41,1.43.18,2.86-.27,4.25-.6,1.85-1.38,3.68-2.25,5.41-.53,1.05-1.09,2.08-1.68,3.1-.3.53-.62,1.05-.93,1.56-.21.34-.39.85-.69,1.19Z"/><path class="cls-6" d="m30.31,273.79c-.11.12-.24.21-.4.25-.34.08-.62-.12-.81-.38-.71-.95-1.12-2.11-1.71-3.13-.65-1.11-1.26-2.28-1.67-3.5-.37-1.09-.85-2.28-.81-3.45.03-.9.09-2.84,1.58-4.26.28-.27,1.54-1.4,3.38-1.34,1.34.05,2.27.71,2.72,1.03.3.21,1.64,1.23,2.15,2.98.31,1.09.14,2.17-.2,3.23-.46,1.41-1.04,2.79-1.71,4.11-.4.8-.83,1.58-1.28,2.35-.23.4-.47.79-.71,1.19-.16.26-.3.65-.52.9Z"/><path class="cls-9" d="m30.17,273.88c-.07.08-.16.14-.26.16-.23.05-.41-.08-.54-.25-.47-.63-.74-1.39-1.13-2.06-.43-.73-.83-1.5-1.1-2.31-.24-.72-.56-1.5-.54-2.27.02-.6.06-1.87,1.04-2.8.19-.18,1.02-.92,2.23-.88.89.03,1.49.47,1.79.68.19.14,1.08.81,1.42,1.96.21.72.09,1.43-.13,2.13-.3.93-.69,1.84-1.12,2.71-.26.52-.55,1.04-.84,1.55-.15.26-.31.52-.47.78-.1.17-.19.43-.34.6Z"/><path class="cls-11" d="m30.44,277.28c-.14-.16-.31-.28-.52-.33-.45-.1-.81.15-1.07.5-.93,1.25-1.48,2.77-2.26,4.12-.85,1.47-1.65,3-2.2,4.61-.49,1.43-1.12,3-1.07,4.54.04,1.19.12,3.73,2.08,5.6.37.36,2.03,1.85,4.45,1.77,1.77-.06,2.99-.93,3.58-1.36.39-.28,2.16-1.62,2.83-3.93.41-1.43.18-2.86-.27-4.25-.6-1.85-1.38-3.68-2.25-5.41-.53-1.05-1.09-2.08-1.68-3.1-.3-.53-.62-1.05-.93-1.56-.21-.34-.39-.85-.69-1.19Z"/><path class="cls-6" d="m30.31,277.19c-.11-.12-.24-.21-.4-.25-.34-.08-.62.12-.81.38-.71.95-1.12,2.11-1.71,3.13-.65,1.11-1.26,2.28-1.67,3.5-.37,1.09-.85,2.28-.81,3.45.03.9.09,2.84,1.58,4.26.28.27,1.54,1.4,3.38,1.34,1.34-.05,2.27-.71,2.72-1.03.3-.21,1.64-1.23,2.15-2.98.31-1.09.14-2.17-.2-3.23-.46-1.41-1.04-2.79-1.71-4.11-.4-.8-.83-1.58-1.28-2.35-.23-.4-.47-.79-.71-1.19-.16-.26-.3-.65-.52-.9Z"/><path class="cls-9" d="m30.17,277.1c-.07-.08-.16-.14-.26-.16-.23-.05-.41.08-.54.25-.47.63-.74,1.39-1.13,2.06-.43.73-.83,1.5-1.1,2.31-.24.72-.56,1.5-.54,2.27.02.6.06,1.87,1.04,2.8.19.18,1.02.92,2.23.88.89-.03,1.49-.47,1.79-.68.19-.14,1.08-.81,1.42-1.96.21-.72.09-1.43-.13-2.13-.3-.93-.69-1.84-1.12-2.71-.26-.52-.55-1.04-.84-1.55-.15-.26-.31-.52-.47-.78-.1-.17-.19-.43-.34-.6Z"/><path class="cls-11" d="m31.69,275.4c-.21.04-.4.12-.55.27-.32.33-.29.78-.13,1.17.59,1.45,1.6,2.7,2.35,4.07.81,1.49,1.71,2.97,2.8,4.28.97,1.16,1.98,2.52,3.32,3.27,1.04.59,3.25,1.84,5.87,1.14.5-.13,2.64-.77,3.82-2.88.87-1.54.75-3.04.7-3.77-.04-.48-.26-2.69-1.88-4.46-1.01-1.1-2.35-1.64-3.77-1.98-1.89-.45-3.86-.74-5.79-.89-1.17-.09-2.35-.15-3.52-.17-.61-.01-1.21-.02-1.82-.02-.4,0-.93-.11-1.38-.03Z"/><path class="cls-6" d="m31.55,275.47c-.16.03-.31.09-.42.21-.24.25-.22.59-.1.89.45,1.1,1.22,2.05,1.78,3.09.62,1.13,1.3,2.26,2.12,3.25.74.88,1.5,1.91,2.52,2.49.79.45,2.47,1.4,4.46.86.38-.1,2-.59,2.9-2.19.66-1.17.57-2.31.53-2.86-.03-.36-.2-2.04-1.43-3.39-.77-.83-1.78-1.25-2.87-1.51-1.44-.34-2.93-.56-4.4-.68-.89-.07-1.78-.11-2.67-.13-.46,0-.92-.01-1.38-.01-.3,0-.71-.08-1.04-.02Z"/><path class="cls-9" d="m31.4,275.55c-.11.02-.2.06-.28.14-.16.17-.15.39-.07.59.29.72.8,1.35,1.17,2.04.41.74.85,1.49,1.4,2.14.49.58.99,1.26,1.66,1.64.52.29,1.63.92,2.93.57.25-.07,1.32-.39,1.91-1.44.43-.77.38-1.52.35-1.88-.02-.24-.13-1.34-.94-2.23-.5-.55-1.17-.82-1.89-.99-.95-.22-1.93-.37-2.9-.45-.59-.05-1.17-.07-1.76-.09-.3,0-.61,0-.91,0-.2,0-.47-.06-.69-.02Z"/><path class="cls-11" d="m27.75,275.56c.21.04.4.12.55.27.32.33.29.78.13,1.17-.59,1.45-1.6,2.7-2.35,4.07-.81,1.49-1.71,2.97-2.8,4.28-.97,1.16-1.98,2.52-3.32,3.27-1.04.59-3.25,1.84-5.87,1.14-.5-.13-2.64-.77-3.82-2.88-.87-1.54-.75-3.04-.7-3.77.04-.48.26-2.69,1.88-4.46,1.01-1.1,2.35-1.64,3.77-1.98,1.89-.45,3.86-.74,5.79-.89,1.17-.09,2.35-.15,3.52-.17.61-.01,1.21-.02,1.82-.02.4,0,.93-.11,1.38-.03Z"/><path class="cls-6" d="m27.89,275.63c.16.03.31.09.42.21.24.25.22.59.1.89-.45,1.1-1.22,2.05-1.78,3.09-.62,1.13-1.3,2.26-2.12,3.25-.74.88-1.5,1.91-2.52,2.49-.79.45-2.47,1.4-4.46.86-.38-.1-2-.59-2.9-2.19-.66-1.17-.57-2.31-.53-2.86.03-.36.2-2.04,1.43-3.39.77-.83,1.78-1.25,2.87-1.51,1.44-.34,2.93-.56,4.4-.68.89-.07,1.78-.11,2.67-.13.46,0,.92-.01,1.38-.01.3,0,.71-.08,1.04-.02Z"/><path class="cls-9" d="m28.04,275.7c.11.02.2.06.28.14.16.17.15.39.07.59-.29.72-.8,1.35-1.17,2.04-.41.74-.85,1.49-1.4,2.14-.49.58-.99,1.26-1.66,1.64-.52.29-1.63.92-2.93.57-.25-.07-1.32-.39-1.91-1.44-.43-.77-.38-1.52-.35-1.88.02-.24.13-1.34.94-2.23.5-.55,1.17-.82,1.89-.99.95-.22,1.93-.37,2.9-.45.59-.05,1.17-.07,1.76-.09.3,0,.61,0,.91,0,.2,0,.47-.06.69-.02Z"/><path class="cls-11" d="m31.8,275.01c-.21-.04-.4-.12-.55-.27-.32-.33-.29-.78-.13-1.17.59-1.45,1.6-2.7,2.35-4.07.81-1.49,1.71-2.97,2.8-4.28.97-1.16,1.98-2.52,3.32-3.27,1.04-.59,3.25-1.84,5.87-1.14.5.13,2.64.77,3.82,2.88.87,1.54.75,3.04.7,3.77-.04.48-.26,2.69-1.88,4.46-1.01,1.1-2.35,1.64-3.77,1.98-1.89.45-3.86.74-5.79.89-1.17.09-2.35.15-3.52.17-.61.01-1.21.02-1.82.02-.4,0-.93.11-1.38.03Z"/><path class="cls-6" d="m31.66,274.95c-.16-.03-.31-.09-.42-.21-.24-.25-.22-.59-.1-.89.45-1.1,1.22-2.05,1.78-3.09.62-1.13,1.3-2.26,2.12-3.25.74-.88,1.5-1.91,2.52-2.49.79-.45,2.47-1.4,4.46-.86.38.1,2,.59,2.9,2.19.66,1.17.57,2.31.53,2.86-.03.36-.2,2.04-1.43,3.39-.77.83-1.78,1.25-2.87,1.51-1.44.34-2.93.56-4.4.68-.89.07-1.78.11-2.67.13-.46,0-.92.01-1.38.01-.3,0-.71.08-1.04.02Z"/><path class="cls-9" d="m31.51,274.87c-.11-.02-.2-.06-.28-.14-.16-.17-.15-.39-.07-.59.29-.72.8-1.35,1.17-2.04.41-.74.85-1.49,1.4-2.14.49-.58.99-1.26,1.66-1.64.52-.29,1.63-.92,2.93-.57.25.07,1.32.39,1.91,1.44.43.77.38,1.52.35,1.88-.02.24-.13,1.34-.94,2.23-.5.55-1.17.82-1.89.99-.95.22-1.93.37-2.9.45-.59.05-1.17.07-1.76.09-.3,0-.61,0-.91,0-.2,0-.47.06-.69.02Z"/><path class="cls-11" d="m27.64,275.17c.21-.04.4-.12.55-.27.32-.33.29-.78.13-1.17-.59-1.45-1.6-2.7-2.35-4.07-.81-1.49-1.71-2.97-2.8-4.28-.97-1.16-1.98-2.52-3.32-3.27-1.04-.59-3.25-1.84-5.87-1.14-.5.13-2.64.77-3.82,2.88-.87,1.54-.75,3.04-.7,3.77.04.48.26,2.69,1.88,4.46,1.01,1.1,2.35,1.64,3.77,1.98,1.89.45,3.86.74,5.79.89,1.17.09,2.35.15,3.52.17.61.01,1.21.02,1.82.02.4,0,.93.11,1.38.03Z"/><path class="cls-6" d="m27.78,275.1c.16-.03.31-.09.42-.21.24-.25.22-.59.1-.89-.45-1.1-1.22-2.05-1.78-3.09-.62-1.13-1.3-2.26-2.12-3.25-.74-.88-1.5-1.91-2.52-2.49-.79-.45-2.47-1.4-4.46-.86-.38.1-2,.59-2.9,2.19-.66,1.17-.57,2.31-.53,2.86.03.36.2,2.04,1.43,3.39.77.83,1.78,1.25,2.87,1.51,1.44.34,2.93.56,4.4.68.89.07,1.78.11,2.67.13.46,0,.92.01,1.38.01.3,0,.71.08,1.04.02Z"/><path class="cls-9" d="m27.93,275.03c.11-.02.2-.06.28-.14.16-.17.15-.39.07-.59-.29-.72-.8-1.35-1.17-2.04-.41-.74-.85-1.49-1.4-2.14-.49-.58-.99-1.26-1.66-1.64-.52-.29-1.63-.92-2.93-.57-.25.07-1.32.39-1.91,1.44-.43.77-.38,1.52-.35,1.88.02.24.13,1.34.94,2.23.5.55,1.17.82,1.89.99.95.22,1.93.37,2.9.45.59.05,1.17.07,1.76.09.3,0,.61,0,.91,0,.2,0,.47.06.69.02Z"/><path class="cls-11" d="m69.79,315.28c-.14.16-.31.28-.52.33-.45.1-.81-.15-1.07-.5-.93-1.25-1.48-2.77-2.26-4.12-.85-1.47-1.65-3-2.2-4.61-.49-1.43-1.12-3-1.07-4.54.04-1.19.12-3.73,2.08-5.6.37-.36,2.03-1.85,4.45-1.77,1.77.06,2.99.93,3.58,1.36.39.28,2.16,1.62,2.83,3.93.41,1.43.18,2.86-.27,4.25-.6,1.85-1.38,3.68-2.25,5.41-.53,1.05-1.09,2.08-1.68,3.1-.3.53-.62,1.05-.93,1.56-.21.34-.39.85-.69,1.19Z"/><path class="cls-6" d="m69.66,315.36c-.11.12-.24.21-.4.25-.34.08-.62-.12-.81-.38-.71-.95-1.12-2.11-1.71-3.13-.65-1.11-1.26-2.28-1.67-3.5-.37-1.09-.85-2.28-.81-3.45.03-.9.09-2.84,1.58-4.26.28-.27,1.54-1.4,3.38-1.34,1.34.05,2.27.71,2.72,1.03.3.21,1.64,1.23,2.15,2.98.31,1.09.14,2.17-.2,3.23-.46,1.41-1.04,2.79-1.71,4.11-.4.8-.83,1.58-1.28,2.35-.23.4-.47.79-.71,1.19-.16.26-.3.65-.52.9Z"/><path class="cls-9" d="m69.52,315.45c-.07.08-.16.14-.26.16-.23.05-.41-.08-.54-.25-.47-.63-.74-1.39-1.13-2.06-.43-.73-.83-1.5-1.1-2.31-.24-.72-.56-1.5-.54-2.27.02-.6.06-1.87,1.04-2.8.19-.18,1.02-.92,2.23-.88.89.03,1.49.47,1.79.68.19.14,1.08.81,1.42,1.96.21.72.09,1.43-.13,2.13-.3.93-.69,1.84-1.12,2.71-.26.52-.55,1.04-.84,1.55-.15.26-.31.52-.47.78-.1.17-.19.43-.34.6Z"/><path class="cls-11" d="m69.79,318.84c-.14-.16-.31-.28-.52-.33-.45-.1-.81.15-1.07.5-.93,1.25-1.48,2.77-2.26,4.12-.85,1.47-1.65,3-2.2,4.61-.49,1.43-1.12,3-1.07,4.54.04,1.19.12,3.73,2.08,5.6.37.36,2.03,1.85,4.45,1.77,1.77-.06,2.99-.93,3.58-1.36.39-.28,2.16-1.62,2.83-3.93.41-1.43.18-2.86-.27-4.25-.6-1.85-1.38-3.68-2.25-5.41-.53-1.05-1.09-2.08-1.68-3.1-.3-.53-.62-1.05-.93-1.56-.21-.34-.39-.85-.69-1.19Z"/><path class="cls-6" d="m69.66,318.76c-.11-.12-.24-.21-.4-.25-.34-.08-.62.12-.81.38-.71.95-1.12,2.11-1.71,3.13-.65,1.11-1.26,2.28-1.67,3.5-.37,1.09-.85,2.28-.81,3.45.03.9.09,2.84,1.58,4.26.28.27,1.54,1.4,3.38,1.34,1.34-.05,2.27-.71,2.72-1.03.3-.21,1.64-1.23,2.15-2.98.31-1.09.14-2.17-.2-3.23-.46-1.41-1.04-2.79-1.71-4.11-.4-.8-.83-1.58-1.28-2.35-.23-.4-.47-.79-.71-1.19-.16-.26-.3-.65-.52-.9Z"/><path class="cls-9" d="m69.52,318.67c-.07-.08-.16-.14-.26-.16-.23-.05-.41.08-.54.25-.47.63-.74,1.39-1.13,2.06-.43.73-.83,1.5-1.1,2.31-.24.72-.56,1.5-.54,2.27.02.6.06,1.87,1.04,2.8.19.18,1.02.92,2.23.88.89-.03,1.49-.47,1.79-.68.19-.14,1.08-.81,1.42-1.96.21-.72.09-1.43-.13-2.13-.3-.93-.69-1.84-1.12-2.71-.26-.52-.55-1.04-.84-1.55-.15-.26-.31-.52-.47-.78-.1-.17-.19-.43-.34-.6Z"/><path class="cls-11" d="m71.04,316.97c-.21.04-.4.12-.55.27-.32.33-.29.78-.13,1.17.59,1.45,1.6,2.7,2.35,4.07.81,1.49,1.71,2.97,2.8,4.28.97,1.16,1.98,2.52,3.32,3.27,1.04.59,3.25,1.84,5.87,1.14.5-.13,2.64-.77,3.82-2.88.87-1.54.75-3.04.7-3.77-.04-.48-.26-2.69-1.88-4.46-1.01-1.1-2.35-1.64-3.77-1.98-1.89-.45-3.86-.74-5.79-.89-1.17-.09-2.35-.15-3.52-.17-.61-.01-1.21-.02-1.82-.02-.4,0-.93-.11-1.38-.03Z"/><path class="cls-6" d="m70.9,317.04c-.16.03-.31.09-.42.21-.24.25-.22.59-.1.89.45,1.1,1.22,2.05,1.78,3.09.62,1.13,1.3,2.26,2.12,3.25.74.88,1.5,1.91,2.52,2.49.79.45,2.47,1.4,4.46.86.38-.1,2-.59,2.9-2.19.66-1.17.57-2.31.53-2.86-.03-.36-.2-2.04-1.43-3.39-.77-.83-1.78-1.25-2.87-1.51-1.44-.34-2.93-.56-4.4-.68-.89-.07-1.78-.11-2.67-.13-.46,0-.92-.01-1.38-.01-.3,0-.71-.08-1.04-.02Z"/><path class="cls-9" d="m70.75,317.11c-.11.02-.2.06-.28.14-.16.17-.15.39-.07.59.29.72.8,1.35,1.17,2.04.41.74.85,1.49,1.4,2.14.49.58.99,1.26,1.66,1.64.52.29,1.63.92,2.93.57.25-.07,1.32-.39,1.91-1.44.43-.77.38-1.52.35-1.88-.02-.24-.13-1.34-.94-2.23-.5-.55-1.17-.82-1.89-.99-.95-.22-1.93-.37-2.9-.45-.59-.05-1.17-.07-1.76-.09-.3,0-.61,0-.91,0-.2,0-.47-.06-.69-.02Z"/><path class="cls-11" d="m67.1,317.13c.21.04.4.12.55.27.32.33.29.78.13,1.17-.59,1.45-1.6,2.7-2.35,4.07-.81,1.49-1.71,2.97-2.8,4.28-.97,1.16-1.98,2.52-3.32,3.27-1.04.59-3.25,1.84-5.87,1.14-.5-.13-2.64-.77-3.82-2.88-.87-1.54-.75-3.04-.7-3.77.04-.48.26-2.69,1.88-4.46,1.01-1.1,2.35-1.64,3.77-1.98,1.89-.45,3.86-.74,5.79-.89,1.17-.09,2.35-.15,3.52-.17.61-.01,1.21-.02,1.82-.02.4,0,.93-.11,1.38-.03Z"/><path class="cls-6" d="m67.24,317.19c.16.03.31.09.42.21.24.25.22.59.1.89-.45,1.1-1.22,2.05-1.78,3.09-.62,1.13-1.3,2.26-2.12,3.25-.74.88-1.5,1.91-2.52,2.49-.79.45-2.47,1.4-4.46.86-.38-.1-2-.59-2.9-2.19-.66-1.17-.57-2.31-.53-2.86.03-.36.2-2.04,1.43-3.39.77-.83,1.78-1.25,2.87-1.51,1.44-.34,2.93-.56,4.4-.68.89-.07,1.78-.11,2.67-.13.46,0,.92-.01,1.38-.01.3,0,.71-.08,1.04-.02Z"/><path class="cls-9" d="m67.39,317.27c.11.02.2.06.28.14.16.17.15.39.07.59-.29.72-.8,1.35-1.17,2.04-.41.74-.85,1.49-1.4,2.14-.49.58-.99,1.26-1.66,1.64-.52.29-1.63.92-2.93.57-.25-.07-1.32-.39-1.91-1.44-.43-.77-.38-1.52-.35-1.88.02-.24.13-1.34.94-2.23.5-.55,1.17-.82,1.89-.99.95-.22,1.93-.37,2.9-.45.59-.05,1.17-.07,1.76-.09.3,0,.61,0,.91,0,.2,0,.47-.06.69-.02Z"/><path class="cls-11" d="m71.15,316.58c-.21-.04-.4-.12-.55-.27-.32-.33-.29-.78-.13-1.17.59-1.45,1.6-2.7,2.35-4.07.81-1.49,1.71-2.97,2.8-4.28.97-1.16,1.98-2.52,3.32-3.27,1.04-.59,3.25-1.84,5.87-1.14.5.13,2.64.77,3.82,2.88.87,1.54.75,3.04.7,3.77-.04.48-.26,2.69-1.88,4.46-1.01,1.1-2.35,1.64-3.77,1.98-1.89.45-3.86.74-5.79.89-1.17.09-2.35.15-3.52.17-.61.01-1.21.02-1.82.02-.4,0-.93.11-1.38.03Z"/><path class="cls-6" d="m71.01,316.51c-.16-.03-.31-.09-.42-.21-.24-.25-.22-.59-.1-.89.45-1.1,1.22-2.05,1.78-3.09.62-1.13,1.3-2.26,2.12-3.25.74-.88,1.5-1.91,2.52-2.49.79-.45,2.47-1.4,4.46-.86.38.1,2,.59,2.9,2.19.66,1.17.57,2.31.53,2.86-.03.36-.2,2.04-1.43,3.39-.77.83-1.78,1.25-2.87,1.51-1.44.34-2.93.56-4.4.68-.89.07-1.78.11-2.67.13-.46,0-.92.01-1.38.01-.3,0-.71.08-1.04.02Z"/><path class="cls-9" d="m70.86,316.44c-.11-.02-.2-.06-.28-.14-.16-.17-.15-.39-.07-.59.29-.72.8-1.35,1.17-2.04.41-.74.85-1.49,1.4-2.14.49-.58.99-1.26,1.66-1.64.52-.29,1.63-.92,2.93-.57.25.07,1.32.39,1.91,1.44.43.77.38,1.52.35,1.88-.02.24-.13,1.34-.94,2.23-.5.55-1.17.82-1.89.99-.95.22-1.93.37-2.9.45-.59.05-1.17.07-1.76.09-.3,0-.61,0-.91,0-.2,0-.47.06-.69.02Z"/><path class="cls-11" d="m66.99,316.73c.21-.04.4-.12.55-.27.32-.33.29-.78.13-1.17-.59-1.45-1.6-2.7-2.35-4.07-.81-1.49-1.71-2.97-2.8-4.28-.97-1.16-1.98-2.52-3.32-3.27-1.04-.59-3.25-1.84-5.87-1.14-.5.13-2.64.77-3.82,2.88-.87,1.54-.75,3.04-.7,3.77.04.48.26,2.69,1.88,4.46,1.01,1.1,2.35,1.64,3.77,1.98,1.89.45,3.86.74,5.79.89,1.17.09,2.35.15,3.52.17.61.01,1.21.02,1.82.02.4,0,.93.11,1.38.03Z"/><path class="cls-6" d="m67.13,316.67c.16-.03.31-.09.42-.21.24-.25.22-.59.1-.89-.45-1.1-1.22-2.05-1.78-3.09-.62-1.13-1.3-2.26-2.12-3.25-.74-.88-1.5-1.91-2.52-2.49-.79-.45-2.47-1.4-4.46-.86-.38.1-2,.59-2.9,2.19-.66,1.17-.57,2.31-.53,2.86.03.36.2,2.04,1.43,3.39.77.83,1.78,1.25,2.87,1.51,1.44.34,2.93.56,4.4.68.89.07,1.78.11,2.67.13.46,0,.92.01,1.38.01.3,0,.71.08,1.04.02Z"/><path class="cls-9" d="m67.28,316.59c.11-.02.2-.06.28-.14.16-.17.15-.39.07-.59-.29-.72-.8-1.35-1.17-2.04-.41-.74-.85-1.49-1.4-2.14-.49-.58-.99-1.26-1.66-1.64-.52-.29-1.63-.92-2.93-.57-.25.07-1.32.39-1.91,1.44-.43.77-.38,1.52-.35,1.88.02.24.13,1.34.94,2.23.5.55,1.17.82,1.89.99.95.22,1.93.37,2.9.45.59.05,1.17.07,1.76.09.3,0,.61,0,.91,0,.2,0,.47.06.69.02Z"/><path class="cls-11" d="m340.6,85.27c-.14.16-.31.28-.52.33-.45.1-.81-.15-1.07-.5-.93-1.25-1.48-2.77-2.26-4.12-.85-1.47-1.65-3-2.2-4.61-.49-1.43-1.12-3-1.07-4.54.04-1.19.12-3.73,2.08-5.6.37-.36,2.03-1.85,4.45-1.77,1.77.06,2.99.93,3.58,1.36.39.28,2.16,1.62,2.83,3.93.41,1.43.18,2.86-.27,4.25-.6,1.85-1.38,3.68-2.25,5.41-.53,1.05-1.09,2.08-1.68,3.1-.3.53-.62,1.05-.93,1.56-.21.34-.39.85-.69,1.19Z"/><path class="cls-6" d="m340.47,85.35c-.11.12-.24.21-.4.25-.34.08-.62-.12-.81-.38-.71-.95-1.12-2.11-1.71-3.13-.65-1.11-1.26-2.28-1.67-3.5-.37-1.09-.85-2.28-.81-3.45.03-.9.09-2.84,1.58-4.26.28-.27,1.54-1.4,3.38-1.34,1.34.05,2.27.71,2.72,1.03.3.21,1.64,1.23,2.15,2.98.31,1.09.14,2.17-.2,3.23-.46,1.41-1.04,2.79-1.71,4.11-.4.8-.83,1.58-1.28,2.35-.23.4-.47.79-.71,1.19-.16.26-.3.65-.52.9Z"/><path class="cls-9" d="m340.33,85.44c-.07.08-.16.14-.26.16-.23.05-.41-.08-.54-.25-.47-.63-.74-1.39-1.13-2.06-.43-.73-.83-1.5-1.1-2.31-.24-.72-.56-1.5-.54-2.27.02-.6.06-1.87,1.04-2.8.19-.18,1.02-.92,2.23-.88.89.03,1.49.47,1.79.68.19.14,1.08.81,1.42,1.96.21.72.09,1.43-.13,2.13-.3.93-.69,1.84-1.12,2.71-.26.52-.55,1.04-.84,1.55-.15.26-.31.52-.47.78-.1.17-.19.43-.34.6Z"/><path class="cls-11" d="m340.6,88.84c-.14-.16-.31-.28-.52-.33-.45-.1-.81.15-1.07.5-.93,1.25-1.48,2.77-2.26,4.12-.85,1.47-1.65,3-2.2,4.61-.49,1.43-1.12,3-1.07,4.54.04,1.19.12,3.73,2.08,5.6.37.36,2.03,1.85,4.45,1.77,1.77-.06,2.99-.93,3.58-1.36.39-.28,2.16-1.62,2.83-3.93.41-1.43.18-2.86-.27-4.25-.6-1.85-1.38-3.68-2.25-5.41-.53-1.05-1.09-2.08-1.68-3.1-.3-.53-.62-1.05-.93-1.56-.21-.34-.39-.85-.69-1.19Z"/><path class="cls-6" d="m340.47,88.75c-.11-.12-.24-.21-.4-.25-.34-.08-.62.12-.81.38-.71.95-1.12,2.11-1.71,3.13-.65,1.11-1.26,2.28-1.67,3.5-.37,1.09-.85,2.28-.81,3.45.03.9.09,2.84,1.58,4.26.28.27,1.54,1.4,3.38,1.34,1.34-.05,2.27-.71,2.72-1.03.3-.21,1.64-1.23,2.15-2.98.31-1.09.14-2.17-.2-3.23-.46-1.41-1.04-2.79-1.71-4.11-.4-.8-.83-1.58-1.28-2.35-.23-.4-.47-.79-.71-1.19-.16-.26-.3-.65-.52-.9Z"/><path class="cls-9" d="m340.33,88.66c-.07-.08-.16-.14-.26-.16-.23-.05-.41.08-.54.25-.47.63-.74,1.39-1.13,2.06-.43.73-.83,1.5-1.1,2.31-.24.72-.56,1.5-.54,2.27.02.6.06,1.87,1.04,2.8.19.18,1.02.92,2.23.88.89-.03,1.49-.47,1.79-.68.19-.14,1.08-.81,1.42-1.96.21-.72.09-1.43-.13-2.13-.3-.93-.69-1.84-1.12-2.71-.26-.52-.55-1.04-.84-1.55-.15-.26-.31-.52-.47-.78-.1-.17-.19-.43-.34-.6Z"/><path class="cls-11" d="m341.85,86.96c-.21.04-.4.12-.55.27-.32.33-.29.78-.13,1.17.59,1.45,1.6,2.7,2.35,4.07.81,1.49,1.71,2.97,2.8,4.28.97,1.16,1.98,2.52,3.32,3.27,1.04.59,3.25,1.84,5.87,1.14.5-.13,2.64-.77,3.82-2.88.87-1.54.75-3.04.7-3.77-.04-.48-.26-2.69-1.88-4.46-1.01-1.1-2.35-1.64-3.77-1.98-1.89-.45-3.86-.74-5.79-.89-1.17-.09-2.35-.15-3.52-.17-.61-.01-1.21-.02-1.82-.02-.4,0-.93-.11-1.38-.03Z"/><path class="cls-6" d="m341.71,87.03c-.16.03-.31.09-.42.21-.24.25-.22.59-.1.89.45,1.1,1.22,2.05,1.78,3.09.62,1.13,1.3,2.26,2.12,3.25.74.88,1.5,1.91,2.52,2.49.79.45,2.47,1.4,4.46.86.38-.1,2-.59,2.9-2.19.66-1.17.57-2.31.53-2.86-.03-.36-.2-2.04-1.43-3.39-.77-.83-1.78-1.25-2.87-1.51-1.44-.34-2.93-.56-4.4-.68-.89-.07-1.78-.11-2.67-.13-.46,0-.92-.01-1.38-.01-.3,0-.71-.08-1.04-.02Z"/><path class="cls-9" d="m341.56,87.11c-.11.02-.2.06-.28.14-.16.17-.15.39-.07.59.29.72.8,1.35,1.17,2.04.41.74.85,1.49,1.4,2.14.49.58.99,1.26,1.66,1.64.52.29,1.63.92,2.93.57.25-.07,1.32-.39,1.91-1.44.43-.77.38-1.52.35-1.88-.02-.24-.13-1.34-.94-2.23-.5-.55-1.17-.82-1.89-.99-.95-.22-1.93-.37-2.9-.45-.59-.05-1.17-.07-1.76-.09-.3,0-.61,0-.91,0-.2,0-.47-.06-.69-.02Z"/><path class="cls-11" d="m337.91,87.12c.21.04.4.12.55.27.32.33.29.78.13,1.17-.59,1.45-1.6,2.7-2.35,4.07-.81,1.49-1.71,2.97-2.8,4.28-.97,1.16-1.98,2.52-3.32,3.27-1.04.59-3.25,1.84-5.87,1.14-.5-.13-2.64-.77-3.82-2.88-.87-1.54-.75-3.04-.7-3.77.04-.48.26-2.69,1.88-4.46,1.01-1.1,2.35-1.64,3.77-1.98,1.89-.45,3.86-.74,5.79-.89,1.17-.09,2.35-.15,3.52-.17.61-.01,1.21-.02,1.82-.02.4,0,.93-.11,1.38-.03Z"/><path class="cls-6" d="m338.05,87.19c.16.03.31.09.42.21.24.25.22.59.1.89-.45,1.1-1.22,2.05-1.78,3.09-.62,1.13-1.3,2.26-2.12,3.25-.74.88-1.5,1.91-2.52,2.49-.79.45-2.47,1.4-4.46.86-.38-.1-2-.59-2.9-2.19-.66-1.17-.57-2.31-.53-2.86.03-.36.2-2.04,1.43-3.39.77-.83,1.78-1.25,2.87-1.51,1.44-.34,2.93-.56,4.4-.68.89-.07,1.78-.11,2.67-.13.46,0,.92-.01,1.38-.01.3,0,.71-.08,1.04-.02Z"/><path class="cls-9" d="m338.2,87.26c.11.02.2.06.28.14.16.17.15.39.07.59-.29.72-.8,1.35-1.17,2.04-.41.74-.85,1.49-1.4,2.14-.49.58-.99,1.26-1.66,1.64-.52.29-1.63.92-2.93.57-.25-.07-1.32-.39-1.91-1.44-.43-.77-.38-1.52-.35-1.88.02-.24.13-1.34.94-2.23.5-.55,1.17-.82,1.89-.99.95-.22,1.93-.37,2.9-.45.59-.05,1.17-.07,1.76-.09.3,0,.61,0,.91,0,.2,0,.47-.06.69-.02Z"/><path class="cls-11" d="m341.96,86.57c-.21-.04-.4-.12-.55-.27-.32-.33-.29-.78-.13-1.17.59-1.45,1.6-2.7,2.35-4.07.81-1.49,1.71-2.97,2.8-4.28.97-1.16,1.98-2.52,3.32-3.27,1.04-.59,3.25-1.84,5.87-1.14.5.13,2.64.77,3.82,2.88.87,1.54.75,3.04.7,3.77-.04.48-.26,2.69-1.88,4.46-1.01,1.1-2.35,1.64-3.77,1.98-1.89.45-3.86.74-5.79.89-1.17.09-2.35.15-3.52.17-.61.01-1.21.02-1.82.02-.4,0-.93.11-1.38.03Z"/><path class="cls-6" d="m341.82,86.51c-.16-.03-.31-.09-.42-.21-.24-.25-.22-.59-.1-.89.45-1.1,1.22-2.05,1.78-3.09.62-1.13,1.3-2.26,2.12-3.25.74-.88,1.5-1.91,2.52-2.49.79-.45,2.47-1.4,4.46-.86.38.1,2,.59,2.9,2.19.66,1.17.57,2.31.53,2.86-.03.36-.2,2.04-1.43,3.39-.77.83-1.78,1.25-2.87,1.51-1.44.34-2.93.56-4.4.68-.89.07-1.78.11-2.67.13-.46,0-.92.01-1.38.01-.3,0-.71.08-1.04.02Z"/><path class="cls-9" d="m341.67,86.43c-.11-.02-.2-.06-.28-.14-.16-.17-.15-.39-.07-.59.29-.72.8-1.35,1.17-2.04.41-.74.85-1.49,1.4-2.14.49-.58.99-1.26,1.66-1.64.52-.29,1.63-.92,2.93-.57.25.07,1.32.39,1.91,1.44.43.77.38,1.52.35,1.88-.02.24-.13,1.34-.94,2.23-.5.55-1.17.82-1.89.99-.95.22-1.93.37-2.9.45-.59.05-1.17.07-1.76.09-.3,0-.61,0-.91,0-.2,0-.47.06-.69.02Z"/><path class="cls-11" d="m337.8,86.73c.21-.04.4-.12.55-.27.32-.33.29-.78.13-1.17-.59-1.45-1.6-2.7-2.35-4.07-.81-1.49-1.71-2.97-2.8-4.28-.97-1.16-1.98-2.52-3.32-3.27-1.04-.59-3.25-1.84-5.87-1.14-.5.13-2.64.77-3.82,2.88-.87,1.54-.75,3.04-.7,3.77.04.48.26,2.69,1.88,4.46,1.01,1.1,2.35,1.64,3.77,1.98,1.89.45,3.86.74,5.79.89,1.17.09,2.35.15,3.52.17.61.01,1.21.02,1.82.02.4,0,.93.11,1.38.03Z"/><path class="cls-6" d="m337.94,86.66c.16-.03.31-.09.42-.21.24-.25.22-.59.1-.89-.45-1.1-1.22-2.05-1.78-3.09-.62-1.13-1.3-2.26-2.12-3.25-.74-.88-1.5-1.91-2.52-2.49-.79-.45-2.47-1.4-4.46-.86-.38.1-2,.59-2.9,2.19-.66,1.17-.57,2.31-.53,2.86.03.36.2,2.04,1.43,3.39.77.83,1.78,1.25,2.87,1.51,1.44.34,2.93.56,4.4.68.89.07,1.78.11,2.67.13.46,0,.92.01,1.38.01.3,0,.71.08,1.04.02Z"/><path class="cls-9" d="m338.09,86.59c.11-.02.2-.06.28-.14.16-.17.15-.39.07-.59-.29-.72-.8-1.35-1.17-2.04-.41-.74-.85-1.49-1.4-2.14-.49-.58-.99-1.26-1.66-1.64-.52-.29-1.63-.92-2.93-.57-.25.07-1.32.39-1.91,1.44-.43.77-.38,1.52-.35,1.88.02.24.13,1.34.94,2.23.5.55,1.17.82,1.89.99.95.22,1.93.37,2.9.45.59.05,1.17.07,1.76.09.3,0,.61,0,.91,0,.2,0,.47.06.69.02Z"/></svg>