<?xml version="1.0" encoding="UTF-8"?><svg id="Laag_1" xmlns="http://www.w3.org/2000/svg" xmlns:xlink="http://www.w3.org/1999/xlink" viewBox="0 0 455.63 354.41"><defs><style>.cls-1{clip-path:url(#clippath);}.cls-2{fill:none;}.cls-2,.cls-3,.cls-4,.cls-5,.cls-6,.cls-7,.cls-8,.cls-9,.cls-10{stroke-width:0px;}.cls-11{clip-path:url(#clippath-1);}.cls-3{fill:#d65515;}.cls-4{fill:#c0c489;}.cls-5{fill:#8e2f12;}.cls-6{fill:#97995e;}.cls-7{fill:#a1421a;}.cls-8{fill:#f2a523;}.cls-9{fill:#fae1b3;}.cls-10{fill:#fcfdff;}</style><clipPath id="clippath"><path class="cls-2" d="m170.93,112.22c0,4.81-3.9,8.71-8.71,8.71h-16.46c-4.81,0-8.71-3.9-8.71-8.71h0c0-4.81,3.9-8.71,8.71-8.71h16.46c4.81,0,8.71,3.9,8.71,8.71h0Z"/></clipPath><clipPath id="clippath-1"><path class="cls-2" d="m132.88,112.22h158.3c8.02,0,14.52,6.51,14.52,14.52v100.78c0,8.02-6.51,14.52-14.52,14.52h-158.3c-8.02,0-14.52-6.51-14.52-14.52v-100.78c0-8.02,6.51-14.52,14.52-14.52Z"/></clipPath></defs><rect class="cls-9" x="1.08" y=".59" width="454.56" height="353.82"/><path class="cls-6" d="m455.63,354.41l-20.49-.23-28.73.23h-142.95c4.97-11.53,10.73-22.7,17.22-33.45,6.77-11.17,14.62-21.65,23.43-31.29,10.45-11.33,22.33-19.18,34.25-26.91,10.94-7.1,21.86-14.25,33.02-20.7,7.46-4.3,14.98-8.41,22.64-11.91,8.76-4,17.59-7.81,26.52-11.06,7.79-2.84,15.54-5.92,23.37-8.53l11.2-3.65"/><path class="cls-3" d="m370.77,354.41c-4.96-21.93-5.7-43.94.84-66.13,9.03-30.62,33.01-51.44,58.75-31.99,8.61,6.5,16.79,13.95,25.26,20.75h0v77.37h-82.82"/><path class="cls-8" d="m189.44,0c-.03.1-.06.2-.09.3-.22.73-.38,1.44-.55,2.21-4.26,9.48-9.17,18.1-15.54,24.91-.52.31-1.06.57-1.58.88-2.39,1.34-4.64,2.9-5.67,6.33-.29.94-.48,1.91-.54,2.89-1.68,3.85-4.51,5.83-7.08,8-4.04,3.36-7.06,8.95-11.83,10.59-.55-.1-1.1-.09-1.63.04-1.61.45-2.72,2.06-3.8,3.69-.57.91-1.22,1.75-1.95,2.52-2.31,1.34-4.3,3.74-6.93,3.78-.58-.08-1.16-.07-1.73.04-1.32.08-2.61.44-3.77,1.06-1.92,1.04-3.7,2.3-5.3,3.78-1.06.99-1.08.99-.05,0,1.55-1.48-.03.03-.05.03-.49.42-.87.85-1.35,1.3-.26.07-.53.12-.79.15-.14.04-.29.07-.43.08-1.63.28-3.23.75-4.75,1.37-5.43,1.78-10.69,4.99-16.36,5.07-9.85.15-19.69.03-29.54.07-1.82.01-3.62-.38-5.27-1.14-4.98-2.17-10.24-3.65-15.62-4.38-.35-.03-.68-.07-1.03-.11-.88.23-1.82.11-2.61-.34-1.06-1.03-2.19-1.98-3.39-2.86,0,0-.03-.03-.06-.03-5.32-3.85-11.12-5.86-16.79-8.46h-.05c-.36-.02-.73-.08-1.08-.18l-1.63-1.49c-1.14-1.23-2.61-2.1-4.24-2.52h-.03c-.29-.07-.59-.11-.89-.11-.36,0-.73-.04-1.09-.12-1.41-1.06-2.82-2.17-4.5-1.44-2.94-1.23-5.57-3.08-7.7-5.45-.2-.55-.35-1.13-.43-1.71-.16-.69-.35-1.26-.84-1.41-.55-.17-.89-1.75-.89-1.75V0s189.44,0,189.44,0h0Z"/><path class="cls-5" d="m0,24.96c-.18.75,31.29,15.71,33.78,16.88,19.89,9.28,43.19,11.75,64.77,6.24,23.51-6.01,45.01-23.66,59.94-42.31,4.44-5.29,30.95-5.77,30.95-5.77h22.89l-.3.59c-12.66,18.24-27.67,34.02-45.02,47.32C118.67,85.02,55.88,103.21,0,126.03"/><path class="cls-8" d="m417.63,107.87c-.14.16-.31.28-.52.33-.45.1-.81-.15-1.07-.5-.93-1.25-1.48-2.77-2.26-4.12-.85-1.47-1.65-3-2.2-4.61-.49-1.43-1.12-3-1.07-4.54.04-1.19.12-3.73,2.08-5.6.37-.36,2.03-1.85,4.45-1.77,1.77.06,2.99.93,3.58,1.36.39.28,2.16,1.62,2.83,3.93.41,1.43.18,2.86-.27,4.25-.6,1.85-1.38,3.68-2.25,5.41-.53,1.05-1.09,2.08-1.68,3.1-.3.53-.62,1.05-.93,1.56-.21.34-.39.85-.69,1.19h0Z"/><path class="cls-3" d="m417.5,107.95c-.11.12-.24.21-.4.25-.34.08-.62-.12-.81-.38-.71-.95-1.12-2.11-1.71-3.13-.65-1.11-1.26-2.28-1.67-3.5-.37-1.09-.85-2.28-.81-3.45.03-.9.09-2.84,1.58-4.26.28-.27,1.54-1.4,3.38-1.34,1.34.05,2.27.71,2.72,1.03.3.21,1.64,1.23,2.15,2.98.31,1.09.14,2.17-.2,3.23-.46,1.41-1.04,2.79-1.71,4.11-.4.8-.83,1.58-1.28,2.35-.23.4-.47.79-.71,1.19-.16.26-.3.65-.52.9v.02Z"/><path class="cls-7" d="m417.36,108.04c-.07.08-.16.14-.26.16-.23.05-.41-.08-.54-.25-.47-.63-.74-1.39-1.13-2.06-.43-.73-.83-1.5-1.1-2.31-.24-.72-.56-1.5-.54-2.27.02-.6.06-1.87,1.04-2.8.19-.18,1.02-.92,2.23-.88.89.03,1.49.47,1.79.68.19.14,1.08.81,1.42,1.96.21.72.09,1.43-.13,2.13-.3.93-.69,1.84-1.12,2.71-.26.52-.55,1.04-.84,1.55-.15.26-.31.52-.47.78-.1.17-.19.43-.34.6h-.01Z"/><path class="cls-8" d="m417.63,111.43c-.14-.16-.31-.28-.52-.33-.45-.1-.81.15-1.07.5-.93,1.25-1.48,2.77-2.26,4.12-.85,1.47-1.65,3-2.2,4.61-.49,1.43-1.12,3-1.07,4.54.04,1.19.12,3.73,2.08,5.6.37.36,2.03,1.85,4.45,1.77,1.77-.06,2.99-.93,3.58-1.36.39-.28,2.16-1.62,2.83-3.93.41-1.43.18-2.86-.27-4.25-.6-1.85-1.38-3.68-2.25-5.41-.53-1.05-1.09-2.08-1.68-3.1-.3-.53-.62-1.05-.93-1.56-.21-.34-.39-.85-.69-1.19h0Z"/><path class="cls-3" d="m417.5,111.35c-.11-.12-.24-.21-.4-.25-.34-.08-.62.12-.81.38-.71.95-1.12,2.11-1.71,3.13-.65,1.11-1.26,2.28-1.67,3.5-.37,1.09-.85,2.28-.81,3.45.03.9.09,2.84,1.58,4.26.28.27,1.54,1.4,3.38,1.34,1.34-.05,2.27-.71,2.72-1.03.3-.21,1.64-1.23,2.15-2.98.31-1.09.14-2.17-.2-3.23-.46-1.41-1.04-2.79-1.71-4.11-.4-.8-.83-1.58-1.28-2.35-.23-.4-.47-.79-.71-1.19-.16-.26-.3-.65-.52-.9v-.02Z"/><path class="cls-7" d="m417.36,111.26c-.07-.08-.16-.14-.26-.16-.23-.05-.41.08-.54.25-.47.63-.74,1.39-1.13,2.06-.43.73-.83,1.5-1.1,2.31-.24.72-.56,1.5-.54,2.27.02.6.06,1.87,1.04,2.8.19.18,1.02.92,2.23.88.89-.03,1.49-.47,1.79-.68.19-.14,1.08-.81,1.42-1.96.21-.72.09-1.43-.13-2.13-.3-.93-.69-1.84-1.12-2.71-.26-.52-.55-1.04-.84-1.55-.15-.26-.31-.52-.47-.78-.1-.17-.19-.43-.34-.6h-.01Z"/><path class="cls-8" d="m418.88,109.56c-.21.04-.4.12-.55.27-.32.33-.29.78-.13,1.17.59,1.45,1.6,2.7,2.35,4.07.81,1.49,1.71,2.97,2.8,4.28.97,1.16,1.98,2.52,3.32,3.27,1.04.59,3.25,1.84,5.87,1.14.5-.13,2.64-.77,3.82-2.88.87-1.54.75-3.04.7-3.77-.04-.48-.26-2.69-1.88-4.46-1.01-1.1-2.35-1.64-3.77-1.98-1.89-.45-3.86-.74-5.79-.89-1.17-.09-2.35-.15-3.52-.17-.61-.01-1.21-.02-1.82-.02-.4,0-.93-.11-1.38-.03h-.02Z"/><path class="cls-3" d="m418.74,109.63c-.16.03-.31.09-.42.21-.24.25-.22.59-.1.89.45,1.1,1.22,2.05,1.78,3.09.62,1.13,1.3,2.26,2.12,3.25.74.88,1.5,1.91,2.52,2.49.79.45,2.47,1.4,4.46.86.38-.1,2-.59,2.9-2.19.66-1.17.57-2.31.53-2.86-.03-.36-.2-2.04-1.43-3.39-.77-.83-1.78-1.25-2.87-1.51-1.44-.34-2.93-.56-4.4-.68-.89-.07-1.78-.11-2.67-.13-.46,0-.92-.01-1.38-.01-.3,0-.71-.08-1.04-.02h0Z"/><path class="cls-7" d="m418.59,109.7c-.11.02-.2.06-.28.14-.16.17-.15.39-.07.59.29.72.8,1.35,1.17,2.04.41.74.85,1.49,1.4,2.14.49.58.99,1.26,1.66,1.64.52.29,1.63.92,2.93.57.25-.07,1.32-.39,1.91-1.44.43-.77.38-1.52.35-1.88-.02-.24-.13-1.34-.94-2.23-.5-.55-1.17-.82-1.89-.99-.95-.22-1.93-.37-2.9-.45-.59-.05-1.17-.07-1.76-.09h-.91c-.2,0-.47-.06-.69-.02l.02-.02Z"/><path class="cls-8" d="m414.94,109.71c.21.04.4.12.55.27.32.33.29.78.13,1.17-.59,1.45-1.6,2.7-2.35,4.07-.81,1.49-1.71,2.97-2.8,4.28-.97,1.16-1.98,2.52-3.32,3.27-1.04.59-3.25,1.84-5.87,1.14-.5-.13-2.64-.77-3.82-2.88-.87-1.54-.75-3.04-.7-3.77.04-.48.26-2.69,1.88-4.46,1.01-1.1,2.35-1.64,3.77-1.98,1.89-.45,3.86-.74,5.79-.89,1.17-.09,2.35-.15,3.52-.17.61-.01,1.21-.02,1.82-.02.4,0,.93-.11,1.38-.03h.02Z"/><path class="cls-3" d="m415.08,109.78c.16.03.31.09.42.21.24.25.22.59.1.89-.45,1.1-1.22,2.05-1.78,3.09-.62,1.13-1.3,2.26-2.12,3.25-.74.88-1.5,1.91-2.52,2.49-.79.45-2.47,1.4-4.46.86-.38-.1-2-.59-2.9-2.19-.66-1.17-.57-2.31-.53-2.86.03-.36.2-2.04,1.43-3.39.77-.83,1.78-1.25,2.87-1.51,1.44-.34,2.93-.56,4.4-.68.89-.07,1.78-.11,2.67-.13.46,0,.92-.01,1.38-.01.3,0,.71-.08,1.04-.02h0Z"/><path class="cls-7" d="m415.23,109.86c.11.02.2.06.28.14.16.17.15.39.07.59-.29.72-.8,1.35-1.17,2.04-.41.74-.85,1.49-1.4,2.14-.49.58-.99,1.26-1.66,1.64-.52.29-1.63.92-2.93.57-.25-.07-1.32-.39-1.91-1.44-.43-.77-.38-1.52-.35-1.88.02-.24.13-1.34.94-2.23.5-.55,1.17-.82,1.89-.99.95-.22,1.93-.37,2.9-.45.59-.05,1.17-.07,1.76-.09h.91c.2,0,.47-.06.69-.02l-.02-.02Z"/><path class="cls-8" d="m418.99,109.17c-.21-.04-.4-.12-.55-.27-.32-.33-.29-.78-.13-1.17.59-1.45,1.6-2.7,2.35-4.07.81-1.49,1.71-2.97,2.8-4.28.97-1.16,1.98-2.52,3.32-3.27,1.04-.59,3.25-1.84,5.87-1.14.5.13,2.64.77,3.82,2.88.87,1.54.75,3.04.7,3.77-.04.48-.26,2.69-1.88,4.46-1.01,1.1-2.35,1.64-3.77,1.98-1.89.45-3.86.74-5.79.89-1.17.09-2.35.15-3.52.17-.61.01-1.21.02-1.82.02-.4,0-.93.11-1.38.03h-.02Z"/><path class="cls-3" d="m418.85,109.1c-.16-.03-.31-.09-.42-.21-.24-.25-.22-.59-.1-.89.45-1.1,1.22-2.05,1.78-3.09.62-1.13,1.3-2.26,2.12-3.25.74-.88,1.5-1.91,2.52-2.49.79-.45,2.47-1.4,4.46-.86.38.1,2,.59,2.9,2.19.66,1.17.57,2.31.53,2.86-.03.36-.2,2.04-1.43,3.39-.77.83-1.78,1.25-2.87,1.51-1.44.34-2.93.56-4.4.68-.89.07-1.78.11-2.67.13-.46,0-.92.01-1.38.01-.3,0-.71.08-1.04.02h0Z"/><path class="cls-7" d="m418.7,109.03c-.11-.02-.2-.06-.28-.14-.16-.17-.15-.39-.07-.59.29-.72.8-1.35,1.17-2.04.41-.74.85-1.49,1.4-2.14.49-.58.99-1.26,1.66-1.64.52-.29,1.63-.92,2.93-.57.25.07,1.32.39,1.91,1.44.43.77.38,1.52.35,1.88-.02.24-.13,1.34-.94,2.23-.5.55-1.17.82-1.89.99-.95.22-1.93.37-2.9.45-.59.05-1.17.07-1.76.09h-.91c-.2,0-.47.06-.69.02l.02.02Z"/><path class="cls-8" d="m414.83,109.32c.21-.04.4-.12.55-.27.32-.33.29-.78.13-1.17-.59-1.45-1.6-2.7-2.35-4.07-.81-1.49-1.71-2.97-2.8-4.28-.97-1.16-1.98-2.52-3.32-3.27-1.04-.59-3.25-1.84-5.87-1.14-.5.13-2.64.77-3.82,2.88-.87,1.54-.75,3.04-.7,3.77.04.48.26,2.69,1.88,4.46,1.01,1.1,2.35,1.64,3.77,1.98,1.89.45,3.86.74,5.79.89,1.17.09,2.35.15,3.52.17.61.01,1.21.02,1.82.02.4,0,.93.11,1.38.03h.02Z"/><path class="cls-3" d="m414.97,109.26c.16-.03.31-.09.42-.21.24-.25.22-.59.1-.89-.45-1.1-1.22-2.05-1.78-3.09-.62-1.13-1.3-2.26-2.12-3.25-.74-.88-1.5-1.91-2.52-2.49-.79-.45-2.47-1.4-4.46-.86-.38.1-2,.59-2.9,2.19-.66,1.17-.57,2.31-.53,2.86.03.36.2,2.04,1.43,3.39.77.83,1.78,1.25,2.87,1.51,1.44.34,2.93.56,4.4.68.89.07,1.78.11,2.67.13.46,0,.92.01,1.38.01.3,0,.71.08,1.04.02h0Z"/><path class="cls-7" d="m415.12,109.18c.11-.02.2-.06.28-.14.16-.17.15-.39.07-.59-.29-.72-.8-1.35-1.17-2.04-.41-.74-.85-1.49-1.4-2.14-.49-.58-.99-1.26-1.66-1.64-.52-.29-1.63-.92-2.93-.57-.25.07-1.32.39-1.91,1.44-.43.77-.38,1.52-.35,1.88.02.24.13,1.34.94,2.23.5.55,1.17.82,1.89.99.95.22,1.93.37,2.9.45.59.05,1.17.07,1.76.09h.91c.2,0,.47.06.69.02l-.02.02Z"/><path class="cls-8" d="m397.34,48.18c-.14.16-.31.28-.52.33-.45.1-.81-.15-1.07-.5-.93-1.25-1.48-2.77-2.26-4.12-.85-1.47-1.65-3-2.2-4.61-.49-1.43-1.12-3-1.07-4.54.04-1.19.12-3.73,2.08-5.6.37-.36,2.03-1.85,4.45-1.77,1.77.06,2.99.93,3.58,1.36.39.28,2.16,1.62,2.83,3.93.41,1.43.18,2.86-.27,4.25-.6,1.85-1.38,3.68-2.25,5.41-.53,1.05-1.09,2.08-1.68,3.1-.3.53-.62,1.05-.93,1.56-.21.34-.39.85-.69,1.19h0Z"/><path class="cls-3" d="m397.21,48.26c-.11.12-.24.21-.4.25-.34.08-.62-.12-.81-.38-.71-.95-1.12-2.11-1.71-3.13-.65-1.11-1.26-2.28-1.67-3.5-.37-1.09-.85-2.28-.81-3.45.03-.9.09-2.84,1.58-4.26.28-.27,1.54-1.4,3.38-1.34,1.34.05,2.27.71,2.72,1.03.3.21,1.64,1.23,2.15,2.98.31,1.09.14,2.17-.2,3.23-.46,1.41-1.04,2.79-1.71,4.11-.4.8-.83,1.58-1.28,2.35-.23.4-.47.79-.71,1.19-.16.26-.3.65-.52.9v.02Z"/><path class="cls-7" d="m397.07,48.35c-.07.08-.16.14-.26.16-.23.05-.41-.08-.54-.25-.47-.63-.74-1.39-1.13-2.06-.43-.73-.83-1.5-1.1-2.31-.24-.72-.56-1.5-.54-2.27.02-.6.06-1.87,1.04-2.8.19-.18,1.02-.92,2.23-.88.89.03,1.49.47,1.79.68.19.14,1.08.81,1.42,1.96.21.72.09,1.43-.13,2.13-.3.93-.69,1.84-1.12,2.71-.26.52-.55,1.04-.84,1.55-.15.26-.31.52-.47.78-.1.17-.19.43-.34.6h-.01Z"/><path class="cls-8" d="m397.34,51.74c-.14-.16-.31-.28-.52-.33-.45-.1-.81.15-1.07.5-.93,1.25-1.48,2.77-2.26,4.12-.85,1.47-1.65,3-2.2,4.61-.49,1.43-1.12,3-1.07,4.54.04,1.19.12,3.73,2.08,5.6.37.36,2.03,1.85,4.45,1.77,1.77-.06,2.99-.93,3.58-1.36.39-.28,2.16-1.62,2.83-3.93.41-1.43.18-2.86-.27-4.25-.6-1.85-1.38-3.68-2.25-5.41-.53-1.05-1.09-2.08-1.68-3.1-.3-.53-.62-1.05-.93-1.56-.21-.34-.39-.85-.69-1.19h0Z"/><path class="cls-3" d="m397.21,51.66c-.11-.12-.24-.21-.4-.25-.34-.08-.62.12-.81.38-.71.95-1.12,2.11-1.71,3.13-.65,1.11-1.26,2.28-1.67,3.5-.37,1.09-.85,2.28-.81,3.45.03.9.09,2.84,1.58,4.26.28.27,1.54,1.4,3.38,1.34,1.34-.05,2.27-.71,2.72-1.03.3-.21,1.64-1.23,2.15-2.98.31-1.09.14-2.17-.2-3.23-.46-1.41-1.04-2.79-1.71-4.11-.4-.8-.83-1.58-1.28-2.35-.23-.4-.47-.79-.71-1.19-.16-.26-.3-.65-.52-.9v-.02Z"/><path class="cls-7" d="m397.07,51.57c-.07-.08-.16-.14-.26-.16-.23-.05-.41.08-.54.25-.47.63-.74,1.39-1.13,2.06-.43.73-.83,1.5-1.1,2.31-.24.72-.56,1.5-.54,2.27.02.6.06,1.87,1.04,2.8.19.18,1.02.92,2.23.88.89-.03,1.49-.47,1.79-.68.19-.14,1.08-.81,1.42-1.96.21-.72.09-1.43-.13-2.13-.3-.93-.69-1.84-1.12-2.71-.26-.52-.55-1.04-.84-1.55-.15-.26-.31-.52-.47-.78-.1-.17-.19-.43-.34-.6h-.01Z"/><path class="cls-8" d="m398.6,49.87c-.21.04-.4.12-.55.27-.32.33-.29.78-.13,1.17.59,1.45,1.6,2.7,2.35,4.07.81,1.49,1.71,2.97,2.8,4.28.97,1.16,1.98,2.52,3.32,3.27,1.04.59,3.25,1.84,5.87,1.14.5-.13,2.64-.77,3.82-2.88.87-1.54.75-3.04.7-3.77-.04-.48-.26-2.69-1.88-4.46-1.01-1.1-2.35-1.64-3.77-1.98-1.89-.45-3.86-.74-5.79-.89-1.17-.09-2.35-.15-3.52-.17-.61,0-1.21-.02-1.82-.02-.4,0-.93-.11-1.38-.03h-.02Z"/><path class="cls-3" d="m398.46,49.94c-.16.03-.31.09-.42.21-.24.25-.22.59-.1.89.45,1.1,1.22,2.05,1.78,3.09.62,1.13,1.3,2.26,2.12,3.25.74.88,1.5,1.91,2.52,2.49.79.45,2.47,1.4,4.46.86.38-.1,2-.59,2.9-2.19.66-1.17.57-2.31.53-2.86-.03-.36-.2-2.04-1.43-3.39-.77-.83-1.78-1.25-2.87-1.51-1.44-.34-2.93-.56-4.4-.68-.89-.07-1.78-.11-2.67-.13-.46,0-.92,0-1.38,0-.3,0-.71-.08-1.04-.02h0Z"/><path class="cls-7" d="m398.31,50.01c-.11.02-.2.06-.28.14-.16.17-.15.39-.07.59.29.72.8,1.35,1.17,2.04.41.74.85,1.49,1.4,2.14.49.58.99,1.26,1.66,1.64.52.29,1.63.92,2.93.57.25-.07,1.32-.39,1.91-1.44.43-.77.38-1.52.35-1.88-.02-.24-.13-1.34-.94-2.23-.5-.55-1.17-.82-1.89-.99-.95-.22-1.93-.37-2.9-.45-.59-.05-1.17-.07-1.76-.09h-.91c-.2,0-.47-.06-.69-.02l.02-.02Z"/><path class="cls-8" d="m394.65,50.02c.21.04.4.12.55.27.32.33.29.78.13,1.17-.59,1.45-1.6,2.7-2.35,4.07-.81,1.49-1.71,2.97-2.8,4.28-.97,1.16-1.98,2.52-3.32,3.27-1.04.59-3.25,1.84-5.87,1.14-.5-.13-2.64-.77-3.82-2.88-.87-1.54-.75-3.04-.7-3.77.04-.48.26-2.69,1.88-4.46,1.01-1.1,2.35-1.64,3.77-1.98,1.89-.45,3.86-.74,5.79-.89,1.17-.09,2.35-.15,3.52-.17.61,0,1.21-.02,1.82-.02.4,0,.93-.11,1.38-.03h.02Z"/><path class="cls-3" d="m394.79,50.09c.16.03.31.09.42.21.24.25.22.59.1.89-.45,1.1-1.22,2.05-1.78,3.09-.62,1.13-1.3,2.26-2.12,3.25-.74.88-1.5,1.91-2.52,2.49-.79.45-2.47,1.4-4.46.86-.38-.1-2-.59-2.9-2.19-.66-1.17-.57-2.31-.53-2.86.03-.36.2-2.04,1.43-3.39.77-.83,1.78-1.25,2.87-1.51,1.44-.34,2.93-.56,4.4-.68.89-.07,1.78-.11,2.67-.13.46,0,.92,0,1.38,0,.3,0,.71-.08,1.04-.02h0Z"/><path class="cls-7" d="m394.94,50.17c.11.02.2.06.28.14.16.17.15.39.07.59-.29.72-.8,1.35-1.17,2.04-.41.74-.85,1.49-1.4,2.14-.49.58-.99,1.26-1.66,1.64-.52.29-1.63.92-2.93.57-.25-.07-1.32-.39-1.91-1.44-.43-.77-.38-1.52-.35-1.88.02-.24.13-1.34.94-2.23.5-.55,1.17-.82,1.89-.99.95-.22,1.93-.37,2.9-.45.59-.05,1.17-.07,1.76-.09h.91c.2,0,.47-.06.69-.02l-.02-.02Z"/><path class="cls-8" d="m398.7,49.48c-.21-.04-.4-.12-.55-.27-.32-.33-.29-.78-.13-1.17.59-1.45,1.6-2.7,2.35-4.07.81-1.49,1.71-2.97,2.8-4.28.97-1.16,1.98-2.52,3.32-3.27,1.04-.59,3.25-1.84,5.87-1.14.5.13,2.64.77,3.82,2.88.87,1.54.75,3.04.7,3.77-.04.48-.26,2.69-1.88,4.46-1.01,1.1-2.35,1.64-3.77,1.98-1.89.45-3.86.74-5.79.89-1.17.09-2.35.15-3.52.17-.61,0-1.21.02-1.82.02-.4,0-.93.11-1.38.03h-.02Z"/><path class="cls-3" d="m398.56,49.41c-.16-.03-.31-.09-.42-.21-.24-.25-.22-.59-.1-.89.45-1.1,1.22-2.05,1.78-3.09.62-1.13,1.3-2.26,2.12-3.25.74-.88,1.5-1.91,2.52-2.49.79-.45,2.47-1.4,4.46-.86.38.1,2,.59,2.9,2.19.66,1.17.57,2.31.53,2.86-.03.36-.2,2.04-1.43,3.39-.77.83-1.78,1.25-2.87,1.51-1.44.34-2.93.56-4.4.68-.89.07-1.78.11-2.67.13-.46,0-.92,0-1.38,0-.3,0-.71.08-1.04.02h0Z"/><path class="cls-7" d="m398.41,49.34c-.11-.02-.2-.06-.28-.14-.16-.17-.15-.39-.07-.59.29-.72.8-1.35,1.17-2.04.41-.74.85-1.49,1.4-2.14.49-.58.99-1.26,1.66-1.64.52-.29,1.63-.92,2.93-.57.25.07,1.32.39,1.91,1.44.43.77.38,1.52.35,1.88-.02.24-.13,1.34-.94,2.23-.5.55-1.17.82-1.89.99-.95.22-1.93.37-2.9.45-.59.05-1.17.07-1.76.09h-.91c-.2,0-.47.06-.69.02l.02.02Z"/><path class="cls-8" d="m394.55,49.63c.21-.04.4-.12.55-.27.32-.33.29-.78.13-1.17-.59-1.45-1.6-2.7-2.35-4.07-.81-1.49-1.71-2.97-2.8-4.28-.97-1.16-1.98-2.52-3.32-3.27-1.04-.59-3.25-1.84-5.87-1.14-.5.13-2.64.77-3.82,2.88-.87,1.54-.75,3.04-.7,3.77.04.48.26,2.69,1.88,4.46,1.01,1.1,2.35,1.64,3.77,1.98,1.89.45,3.86.74,5.79.89,1.17.09,2.35.15,3.52.17.61,0,1.21.02,1.82.02.4,0,.93.11,1.38.03h.02Z"/><path class="cls-3" d="m394.69,49.57c.16-.03.31-.09.42-.21.24-.25.22-.59.1-.89-.45-1.1-1.22-2.05-1.78-3.09-.62-1.13-1.3-2.26-2.12-3.25-.74-.88-1.5-1.91-2.52-2.49-.79-.45-2.47-1.4-4.46-.86-.38.1-2,.59-2.9,2.19-.66,1.17-.57,2.31-.53,2.86.03.36.2,2.04,1.43,3.39.77.83,1.78,1.25,2.87,1.51,1.44.34,2.93.56,4.4.68.89.07,1.78.11,2.67.13.46,0,.92,0,1.38,0,.3,0,.71.08,1.04.02h0Z"/><path class="cls-7" d="m394.84,49.49c.11-.02.2-.06.28-.14.16-.17.15-.39.07-.59-.29-.72-.8-1.35-1.17-2.04-.41-.74-.85-1.49-1.4-2.14-.49-.58-.99-1.26-1.66-1.64-.52-.29-1.63-.92-2.93-.57-.25.07-1.32.39-1.91,1.44-.43.77-.38,1.52-.35,1.88.02.24.13,1.34.94,2.23.5.55,1.17.82,1.89.99.95.22,1.93.37,2.9.45.59.05,1.17.07,1.76.09h.91c.2,0,.47.06.69.02l-.02.02Z"/><path class="cls-8" d="m61,260.36c-.14.16-.31.28-.52.33-.45.1-.81-.15-1.07-.5-.93-1.25-1.48-2.77-2.26-4.12-.85-1.47-1.65-3-2.2-4.61-.49-1.43-1.12-3-1.07-4.54.04-1.19.12-3.73,2.08-5.6.37-.36,2.03-1.85,4.45-1.77,1.77.06,2.99.93,3.58,1.36.39.28,2.16,1.62,2.83,3.93.41,1.43.18,2.86-.27,4.25-.6,1.85-1.38,3.68-2.25,5.41-.53,1.05-1.09,2.08-1.68,3.1-.3.53-.62,1.05-.93,1.56-.21.34-.39.85-.69,1.19h0Z"/><path class="cls-3" d="m60.87,260.44c-.11.12-.24.21-.4.25-.34.08-.62-.12-.81-.38-.71-.95-1.12-2.11-1.71-3.13-.65-1.11-1.26-2.28-1.67-3.5-.37-1.09-.85-2.28-.81-3.45.03-.9.09-2.84,1.58-4.26.28-.27,1.54-1.4,3.38-1.34,1.34.05,2.27.71,2.72,1.03.3.21,1.64,1.23,2.15,2.98.31,1.09.14,2.17-.2,3.23-.46,1.41-1.04,2.79-1.71,4.11-.4.8-.83,1.58-1.28,2.35-.23.4-.47.79-.71,1.19-.16.26-.3.65-.52.9v.02Z"/><path class="cls-7" d="m60.73,260.53c-.07.08-.16.14-.26.16-.23.05-.41-.08-.54-.25-.47-.63-.74-1.39-1.13-2.06-.43-.73-.83-1.5-1.1-2.31-.24-.72-.56-1.5-.54-2.27.02-.6.06-1.87,1.04-2.8.19-.18,1.02-.92,2.23-.88.89.03,1.49.47,1.79.68.19.14,1.08.81,1.42,1.96.21.72.09,1.43-.13,2.13-.3.93-.69,1.84-1.12,2.71-.26.52-.55,1.04-.84,1.55-.15.26-.31.52-.47.78-.1.17-.19.43-.34.6h0Z"/><path class="cls-8" d="m61,263.93c-.14-.16-.31-.28-.52-.33-.45-.1-.81.15-1.07.5-.93,1.25-1.48,2.77-2.26,4.12-.85,1.47-1.65,3-2.2,4.61-.49,1.43-1.12,3-1.07,4.54.04,1.19.12,3.73,2.08,5.6.37.36,2.03,1.85,4.45,1.77,1.77-.06,2.99-.93,3.58-1.36.39-.28,2.16-1.62,2.83-3.93.41-1.43.18-2.86-.27-4.25-.6-1.85-1.38-3.68-2.25-5.41-.53-1.05-1.09-2.08-1.68-3.1-.3-.53-.62-1.05-.93-1.56-.21-.34-.39-.85-.69-1.19h0Z"/><path class="cls-3" d="m60.87,263.84c-.11-.12-.24-.21-.4-.25-.34-.08-.62.12-.81.38-.71.95-1.12,2.11-1.71,3.13-.65,1.11-1.26,2.28-1.67,3.5-.37,1.09-.85,2.28-.81,3.45.03.9.09,2.84,1.58,4.26.28.27,1.54,1.4,3.38,1.34,1.34-.05,2.27-.71,2.72-1.03.3-.21,1.64-1.23,2.15-2.98.31-1.09.14-2.17-.2-3.23-.46-1.41-1.04-2.79-1.71-4.11-.4-.8-.83-1.58-1.28-2.35-.23-.4-.47-.79-.71-1.19-.16-.26-.3-.65-.52-.9v-.02Z"/><path class="cls-7" d="m60.73,263.75c-.07-.08-.16-.14-.26-.16-.23-.05-.41.08-.54.25-.47.63-.74,1.39-1.13,2.06-.43.73-.83,1.5-1.1,2.31-.24.72-.56,1.5-.54,2.27.02.6.06,1.87,1.04,2.8.19.18,1.02.92,2.23.88.89-.03,1.49-.47,1.79-.68.19-.14,1.08-.81,1.42-1.96.21-.72.09-1.43-.13-2.13-.3-.93-.69-1.84-1.12-2.71-.26-.52-.55-1.04-.84-1.55-.15-.26-.31-.52-.47-.78-.1-.17-.19-.43-.34-.6h0Z"/><path class="cls-8" d="m62.25,262.05c-.21.04-.4.12-.55.27-.32.33-.29.78-.13,1.17.59,1.45,1.6,2.7,2.35,4.07.81,1.49,1.71,2.97,2.8,4.28.97,1.16,1.98,2.52,3.32,3.27,1.04.59,3.25,1.84,5.87,1.14.5-.13,2.64-.77,3.82-2.88.87-1.54.75-3.04.7-3.77-.04-.48-.26-2.69-1.88-4.46-1.01-1.1-2.35-1.64-3.77-1.98-1.89-.45-3.86-.74-5.79-.89-1.17-.09-2.35-.15-3.52-.17-.61-.01-1.21-.02-1.82-.02-.4,0-.93-.11-1.38-.03h-.02Z"/><path class="cls-3" d="m62.11,262.12c-.16.03-.31.09-.42.21-.24.25-.22.59-.1.89.45,1.1,1.22,2.05,1.78,3.09.62,1.13,1.3,2.26,2.12,3.25.74.88,1.5,1.91,2.52,2.49.79.45,2.47,1.4,4.46.86.38-.1,2-.59,2.9-2.19.66-1.17.57-2.31.53-2.86-.03-.36-.2-2.04-1.43-3.39-.77-.83-1.78-1.25-2.87-1.51-1.44-.34-2.93-.56-4.4-.68-.89-.07-1.78-.11-2.67-.13-.46,0-.92-.01-1.38-.01-.3,0-.71-.08-1.04-.02h0Z"/><path class="cls-7" d="m61.96,262.2c-.11.02-.2.06-.28.14-.16.17-.15.39-.07.59.29.72.8,1.35,1.17,2.04.41.74.85,1.49,1.4,2.14.49.58.99,1.26,1.66,1.64.52.29,1.63.92,2.93.57.25-.07,1.32-.39,1.91-1.44.43-.77.38-1.52.35-1.88-.02-.24-.13-1.34-.94-2.23-.5-.55-1.17-.82-1.89-.99-.95-.22-1.93-.37-2.9-.45-.59-.05-1.17-.07-1.76-.09h-.91c-.2,0-.47-.06-.69-.02l.02-.02Z"/><path class="cls-8" d="m58.31,262.21c.21.04.4.12.55.27.32.33.29.78.13,1.17-.59,1.45-1.6,2.7-2.35,4.07-.81,1.49-1.71,2.97-2.8,4.28-.97,1.16-1.98,2.52-3.32,3.27-1.04.59-3.25,1.84-5.87,1.14-.5-.13-2.64-.77-3.82-2.88-.87-1.54-.75-3.04-.7-3.77.04-.48.26-2.69,1.88-4.46,1.01-1.1,2.35-1.64,3.77-1.98,1.89-.45,3.86-.74,5.79-.89,1.17-.09,2.35-.15,3.52-.17.61-.01,1.21-.02,1.82-.02.4,0,.93-.11,1.38-.03h.02Z"/><path class="cls-3" d="m58.45,262.28c.16.03.31.09.42.21.24.25.22.59.1.89-.45,1.1-1.22,2.05-1.78,3.09-.62,1.13-1.3,2.26-2.12,3.25-.74.88-1.5,1.91-2.52,2.49-.79.45-2.47,1.4-4.46.86-.38-.1-2-.59-2.9-2.19-.66-1.17-.57-2.31-.53-2.86.03-.36.2-2.04,1.43-3.39.77-.83,1.78-1.25,2.87-1.51,1.44-.34,2.93-.56,4.4-.68.89-.07,1.78-.11,2.67-.13.46,0,.92-.01,1.38-.01.3,0,.71-.08,1.04-.02h0Z"/><path class="cls-7" d="m58.6,262.35c.11.02.2.06.28.14.16.17.15.39.07.59-.29.72-.8,1.35-1.17,2.04-.41.74-.85,1.49-1.4,2.14-.49.58-.99,1.26-1.66,1.64-.52.29-1.63.92-2.93.57-.25-.07-1.32-.39-1.91-1.44-.43-.77-.38-1.52-.35-1.88.02-.24.13-1.34.94-2.23.5-.55,1.17-.82,1.89-.99.95-.22,1.93-.37,2.9-.45.59-.05,1.17-.07,1.76-.09h.91c.2,0,.47-.06.69-.02l-.02-.02Z"/><path class="cls-8" d="m62.36,261.66c-.21-.04-.4-.12-.55-.27-.32-.33-.29-.78-.13-1.17.59-1.45,1.6-2.7,2.35-4.07.81-1.49,1.71-2.97,2.8-4.28.97-1.16,1.98-2.52,3.32-3.27,1.04-.59,3.25-1.84,5.87-1.14.5.13,2.64.77,3.82,2.88.87,1.54.75,3.04.7,3.77-.04.48-.26,2.69-1.88,4.46-1.01,1.1-2.35,1.64-3.77,1.98-1.89.45-3.86.74-5.79.89-1.17.09-2.35.15-3.52.17-.61.01-1.21.02-1.82.02-.4,0-.93.11-1.38.03h-.02Z"/><path class="cls-3" d="m62.22,261.6c-.16-.03-.31-.09-.42-.21-.24-.25-.22-.59-.1-.89.45-1.1,1.22-2.05,1.78-3.09.62-1.13,1.3-2.26,2.12-3.25.74-.88,1.5-1.91,2.52-2.49.79-.45,2.47-1.4,4.46-.86.38.1,2,.59,2.9,2.19.66,1.17.57,2.31.53,2.86-.03.36-.2,2.04-1.43,3.39-.77.83-1.78,1.25-2.87,1.51-1.44.34-2.93.56-4.4.68-.89.07-1.78.11-2.67.13-.46,0-.92.01-1.38.01-.3,0-.71.08-1.04.02h0Z"/><path class="cls-7" d="m62.07,261.52c-.11-.02-.2-.06-.28-.14-.16-.17-.15-.39-.07-.59.29-.72.8-1.35,1.17-2.04.41-.74.85-1.49,1.4-2.14.49-.58.99-1.26,1.66-1.64.52-.29,1.63-.92,2.93-.57.25.07,1.32.39,1.91,1.44.43.77.38,1.52.35,1.88-.02.24-.13,1.34-.94,2.23-.5.55-1.17.82-1.89.99-.95.22-1.93.37-2.9.45-.59.05-1.17.07-1.76.09h-.91c-.2,0-.47.06-.69.02l.02.02Z"/><path class="cls-8" d="m58.2,261.82c.21-.04.4-.12.55-.27.32-.33.29-.78.13-1.17-.59-1.45-1.6-2.7-2.35-4.07-.81-1.49-1.71-2.97-2.8-4.28-.97-1.16-1.98-2.52-3.32-3.27-1.04-.59-3.25-1.84-5.87-1.14-.5.13-2.64.77-3.82,2.88-.87,1.54-.75,3.04-.7,3.77.04.48.26,2.69,1.88,4.46,1.01,1.1,2.35,1.64,3.77,1.98,1.89.45,3.86.74,5.79.89,1.17.09,2.35.15,3.52.17.61.01,1.21.02,1.82.02.4,0,.93.11,1.38.03h.02Z"/><path class="cls-3" d="m58.34,261.75c.16-.03.31-.09.42-.21.24-.25.22-.59.1-.89-.45-1.1-1.22-2.05-1.78-3.09-.62-1.13-1.3-2.26-2.12-3.25-.74-.88-1.5-1.91-2.52-2.49-.79-.45-2.47-1.4-4.46-.86-.38.1-2,.59-2.9,2.19-.66,1.17-.57,2.31-.53,2.86.03.36.2,2.04,1.43,3.39.77.83,1.78,1.25,2.87,1.51,1.44.34,2.93.56,4.4.68.89.07,1.78.11,2.67.13.46,0,.92.01,1.38.01.3,0,.71.08,1.04.02h0Z"/><path class="cls-7" d="m58.49,261.68c.11-.02.2-.06.28-.14.16-.17.15-.39.07-.59-.29-.72-.8-1.35-1.17-2.04-.41-.74-.85-1.49-1.4-2.14-.49-.58-.99-1.26-1.66-1.64-.52-.29-1.63-.92-2.93-.57-.25.07-1.32.39-1.91,1.44-.43.77-.38,1.52-.35,1.88.02.24.13,1.34.94,2.23.5.55,1.17.82,1.89.99.95.22,1.93.37,2.9.45.59.05,1.17.07,1.76.09h.91c.2,0,.47.06.69.02l-.02.02Z"/><path class="cls-8" d="m100.35,301.93c-.14.16-.31.28-.52.33-.45.1-.81-.15-1.07-.5-.93-1.25-1.48-2.77-2.26-4.12-.85-1.47-1.65-3-2.2-4.61-.49-1.43-1.12-3-1.07-4.54.04-1.19.12-3.73,2.08-5.6.37-.36,2.03-1.85,4.45-1.77,1.77.06,2.99.93,3.58,1.36.39.28,2.16,1.62,2.83,3.93.41,1.43.18,2.86-.27,4.25-.6,1.85-1.38,3.68-2.25,5.41-.53,1.05-1.09,2.08-1.68,3.1-.3.53-.62,1.05-.93,1.56-.21.34-.39.85-.69,1.19h0Z"/><path class="cls-3" d="m100.22,302.01c-.11.12-.24.21-.4.25-.34.08-.62-.12-.81-.38-.71-.95-1.12-2.11-1.71-3.13-.65-1.11-1.26-2.28-1.67-3.5-.37-1.09-.85-2.28-.81-3.45.03-.9.09-2.84,1.58-4.26.28-.27,1.54-1.4,3.38-1.34,1.34.05,2.27.71,2.72,1.03.3.21,1.64,1.23,2.15,2.98.31,1.09.14,2.17-.2,3.23-.46,1.41-1.04,2.79-1.71,4.11-.4.8-.83,1.58-1.28,2.35-.23.4-.47.79-.71,1.19-.16.26-.3.65-.52.9v.02Z"/><path class="cls-7" d="m100.08,302.1c-.07.08-.16.14-.26.16-.23.05-.41-.08-.54-.25-.47-.63-.74-1.39-1.13-2.06-.43-.73-.83-1.5-1.1-2.31-.24-.72-.56-1.5-.54-2.27.02-.6.06-1.87,1.04-2.8.19-.18,1.02-.92,2.23-.88.89.03,1.49.47,1.79.68.19.14,1.08.81,1.42,1.96.21.72.09,1.43-.13,2.13-.3.93-.69,1.84-1.12,2.71-.26.52-.55,1.04-.84,1.55-.15.26-.31.52-.47.78-.1.17-.19.43-.34.6h-.01Z"/><path class="cls-8" d="m100.35,305.49c-.14-.16-.31-.28-.52-.33-.45-.1-.81.15-1.07.5-.93,1.25-1.48,2.77-2.26,4.12-.85,1.47-1.65,3-2.2,4.61-.49,1.43-1.12,3-1.07,4.54.04,1.19.12,3.73,2.08,5.6.37.36,2.03,1.85,4.45,1.77,1.77-.06,2.99-.93,3.58-1.36.39-.28,2.16-1.62,2.83-3.93.41-1.43.18-2.86-.27-4.25-.6-1.85-1.38-3.68-2.25-5.41-.53-1.05-1.09-2.08-1.68-3.1-.3-.53-.62-1.05-.93-1.56-.21-.34-.39-.85-.69-1.19h0Z"/><path class="cls-3" d="m100.22,305.41c-.11-.12-.24-.21-.4-.25-.34-.08-.62.12-.81.38-.71.95-1.12,2.11-1.71,3.13-.65,1.11-1.26,2.28-1.67,3.5-.37,1.09-.85,2.28-.81,3.45.03.9.09,2.84,1.58,4.26.28.27,1.54,1.4,3.38,1.34,1.34-.05,2.27-.71,2.72-1.03.3-.21,1.64-1.23,2.15-2.98.31-1.09.14-2.17-.2-3.23-.46-1.41-1.04-2.79-1.71-4.11-.4-.8-.83-1.58-1.28-2.35-.23-.4-.47-.79-.71-1.19-.16-.26-.3-.65-.52-.9v-.02Z"/><path class="cls-7" d="m100.08,305.32c-.07-.08-.16-.14-.26-.16-.23-.05-.41.08-.54.25-.47.63-.74,1.39-1.13,2.06-.43.73-.83,1.5-1.1,2.31-.24.72-.56,1.5-.54,2.27.02.6.06,1.87,1.04,2.8.19.18,1.02.92,2.23.88.89-.03,1.49-.47,1.79-.68.19-.14,1.08-.81,1.42-1.96.21-.72.09-1.43-.13-2.13-.3-.93-.69-1.84-1.12-2.71-.26-.52-.55-1.04-.84-1.55-.15-.26-.31-.52-.47-.78-.1-.17-.19-.43-.34-.6h-.01Z"/><path class="cls-8" d="m101.6,303.62c-.21.04-.4.12-.55.27-.32.33-.29.78-.13,1.17.59,1.45,1.6,2.7,2.35,4.07.81,1.49,1.71,2.97,2.8,4.28.97,1.16,1.98,2.52,3.32,3.27,1.04.59,3.25,1.84,5.87,1.14.5-.13,2.64-.77,3.82-2.88.87-1.54.75-3.04.7-3.77-.04-.48-.26-2.69-1.88-4.46-1.01-1.1-2.35-1.64-3.77-1.98-1.89-.45-3.86-.74-5.79-.89-1.17-.09-2.35-.15-3.52-.17-.61-.01-1.21-.02-1.82-.02-.4,0-.93-.11-1.38-.03h-.02Z"/><path class="cls-3" d="m101.46,303.69c-.16.03-.31.09-.42.21-.24.25-.22.59-.1.89.45,1.1,1.22,2.05,1.78,3.09.62,1.13,1.3,2.26,2.12,3.25.74.88,1.5,1.91,2.52,2.49.79.45,2.47,1.4,4.46.86.38-.1,2-.59,2.9-2.19.66-1.17.57-2.31.53-2.86-.03-.36-.2-2.04-1.43-3.39-.77-.83-1.78-1.25-2.87-1.51-1.44-.34-2.93-.56-4.4-.68-.89-.07-1.78-.11-2.67-.13-.46,0-.92-.01-1.38-.01-.3,0-.71-.08-1.04-.02h0Z"/><path class="cls-7" d="m101.31,303.76c-.11.02-.2.06-.28.14-.16.17-.15.39-.07.59.29.72.8,1.35,1.17,2.04.41.74.85,1.49,1.4,2.14.49.58.99,1.26,1.66,1.64.52.29,1.63.92,2.93.57.25-.07,1.32-.39,1.91-1.44.43-.77.38-1.52.35-1.88-.02-.24-.13-1.34-.94-2.23-.5-.55-1.17-.82-1.89-.99-.95-.22-1.93-.37-2.9-.45-.59-.05-1.17-.07-1.76-.09h-.91c-.2,0-.47-.06-.69-.02l.02-.02Z"/><path class="cls-8" d="m97.66,303.78c.21.04.4.12.55.27.32.33.29.78.13,1.17-.59,1.45-1.6,2.7-2.35,4.07-.81,1.49-1.71,2.97-2.8,4.28-.97,1.16-1.98,2.52-3.32,3.27-1.04.59-3.25,1.84-5.87,1.14-.5-.13-2.64-.77-3.82-2.88-.87-1.54-.75-3.04-.7-3.77.04-.48.26-2.69,1.88-4.46,1.01-1.1,2.35-1.64,3.77-1.98,1.89-.45,3.86-.74,5.79-.89,1.17-.09,2.35-.15,3.52-.17.61-.01,1.21-.02,1.82-.02.4,0,.93-.11,1.38-.03h.02Z"/><path class="cls-3" d="m97.8,303.84c.16.03.31.09.42.21.24.25.22.59.1.89-.45,1.1-1.22,2.05-1.78,3.09-.62,1.13-1.3,2.26-2.12,3.25-.74.88-1.5,1.91-2.52,2.49-.79.45-2.47,1.4-4.46.86-.38-.1-2-.59-2.9-2.19-.66-1.17-.57-2.31-.53-2.86.03-.36.2-2.04,1.43-3.39.77-.83,1.78-1.25,2.87-1.51,1.44-.34,2.93-.56,4.4-.68.89-.07,1.78-.11,2.67-.13.46,0,.92-.01,1.38-.01.3,0,.71-.08,1.04-.02h0Z"/><path class="cls-7" d="m97.95,303.92c.11.02.2.06.28.14.16.17.15.39.07.59-.29.72-.8,1.35-1.17,2.04-.41.74-.85,1.49-1.4,2.14-.49.58-.99,1.26-1.66,1.64-.52.29-1.63.92-2.93.57-.25-.07-1.32-.39-1.91-1.44-.43-.77-.38-1.52-.35-1.88.02-.24.13-1.34.94-2.23.5-.55,1.17-.82,1.89-.99.95-.22,1.93-.37,2.9-.45.59-.05,1.17-.07,1.76-.09h.91c.2,0,.47-.06.69-.02l-.02-.02Z"/><path class="cls-8" d="m101.71,303.23c-.21-.04-.4-.12-.55-.27-.32-.33-.29-.78-.13-1.17.59-1.45,1.6-2.7,2.35-4.07.81-1.49,1.71-2.97,2.8-4.28.97-1.16,1.98-2.52,3.32-3.27,1.04-.59,3.25-1.84,5.87-1.14.5.13,2.64.77,3.82,2.88.87,1.54.75,3.04.7,3.77-.04.48-.26,2.69-1.88,4.46-1.01,1.1-2.35,1.64-3.77,1.98-1.89.45-3.86.74-5.79.89-1.17.09-2.35.15-3.52.17-.61.01-1.21.02-1.82.02-.4,0-.93.11-1.38.03h-.02Z"/><path class="cls-3" d="m101.57,303.16c-.16-.03-.31-.09-.42-.21-.24-.25-.22-.59-.1-.89.45-1.1,1.22-2.05,1.78-3.09.62-1.13,1.3-2.26,2.12-3.25.74-.88,1.5-1.91,2.52-2.49.79-.45,2.47-1.4,4.46-.86.38.1,2,.59,2.9,2.19.66,1.17.57,2.31.53,2.86-.03.36-.2,2.04-1.43,3.39-.77.83-1.78,1.25-2.87,1.51-1.44.34-2.93.56-4.4.68-.89.07-1.78.11-2.67.13-.46,0-.92.01-1.38.01-.3,0-.71.08-1.04.02h0Z"/><path class="cls-7" d="m101.42,303.09c-.11-.02-.2-.06-.28-.14-.16-.17-.15-.39-.07-.59.29-.72.8-1.35,1.17-2.04.41-.74.85-1.49,1.4-2.14.49-.58.99-1.26,1.66-1.64.52-.29,1.63-.92,2.93-.57.25.07,1.32.39,1.91,1.44.43.77.38,1.52.35,1.88-.02.24-.13,1.34-.94,2.23-.5.55-1.17.82-1.89.99-.95.22-1.93.37-2.9.45-.59.05-1.17.07-1.76.09h-.91c-.2,0-.47.06-.69.02l.02.02Z"/><path class="cls-8" d="m97.55,303.38c.21-.04.4-.12.55-.27.32-.33.29-.78.13-1.17-.59-1.45-1.6-2.7-2.35-4.07-.81-1.49-1.71-2.97-2.8-4.28-.97-1.16-1.98-2.52-3.32-3.27-1.04-.59-3.25-1.84-5.87-1.14-.5.13-2.64.77-3.82,2.88-.87,1.54-.75,3.04-.7,3.77.04.48.26,2.69,1.88,4.46,1.01,1.1,2.35,1.64,3.77,1.98,1.89.45,3.86.74,5.79.89,1.17.09,2.35.15,3.52.17.61.01,1.21.02,1.82.02.4,0,.93.11,1.38.03h.02Z"/><path class="cls-3" d="m97.69,303.32c.16-.03.31-.09.42-.21.24-.25.22-.59.1-.89-.45-1.1-1.22-2.05-1.78-3.09-.62-1.13-1.3-2.26-2.12-3.25-.74-.88-1.5-1.91-2.52-2.49-.79-.45-2.47-1.4-4.46-.86-.38.1-2,.59-2.9,2.19-.66,1.17-.57,2.31-.53,2.86.03.36.2,2.04,1.43,3.39.77.83,1.78,1.25,2.87,1.51,1.44.34,2.93.56,4.4.68.89.07,1.78.11,2.67.13.46,0,.92.01,1.38.01.3,0,.71.08,1.04.02h0Z"/><path class="cls-7" d="m97.84,303.24c.11-.02.2-.06.28-.14.16-.17.15-.39.07-.59-.29-.72-.8-1.35-1.17-2.04-.41-.74-.85-1.49-1.4-2.14-.49-.58-.99-1.26-1.66-1.64-.52-.29-1.63-.92-2.93-.57-.25.07-1.32.39-1.91,1.44-.43.77-.38,1.52-.35,1.88.02.24.13,1.34.94,2.23.5.55,1.17.82,1.89.99.95.22,1.93.37,2.9.45.59.05,1.17.07,1.76.09h.91c.2,0,.47.06.69.02l-.02.02Z"/><path class="cls-8" d="m340.6,85.27c-.14.16-.31.28-.52.33-.45.1-.81-.15-1.07-.5-.93-1.25-1.48-2.77-2.26-4.12-.85-1.47-1.65-3-2.2-4.61-.49-1.43-1.12-3-1.07-4.54.04-1.19.12-3.73,2.08-5.6.37-.36,2.03-1.85,4.45-1.77,1.77.06,2.99.93,3.58,1.36.39.28,2.16,1.62,2.83,3.93.41,1.43.18,2.86-.27,4.25-.6,1.85-1.38,3.68-2.25,5.41-.53,1.05-1.09,2.08-1.68,3.1-.3.53-.62,1.05-.93,1.56-.21.34-.39.85-.69,1.19h0Z"/><path class="cls-3" d="m340.47,85.35c-.11.12-.24.21-.4.25-.34.08-.62-.12-.81-.38-.71-.95-1.12-2.11-1.71-3.13-.65-1.11-1.26-2.28-1.67-3.5-.37-1.09-.85-2.28-.81-3.45.03-.9.09-2.84,1.58-4.26.28-.27,1.54-1.4,3.38-1.34,1.34.05,2.27.71,2.72,1.03.3.21,1.64,1.23,2.15,2.98.31,1.09.14,2.17-.2,3.23-.46,1.41-1.04,2.79-1.71,4.11-.4.8-.83,1.58-1.28,2.35-.23.4-.47.79-.71,1.19-.16.26-.3.65-.52.9v.02Z"/><path class="cls-7" d="m340.33,85.44c-.07.08-.16.14-.26.16-.23.05-.41-.08-.54-.25-.47-.63-.74-1.39-1.13-2.06-.43-.73-.83-1.5-1.1-2.31-.24-.72-.56-1.5-.54-2.27.02-.6.06-1.87,1.04-2.8.19-.18,1.02-.92,2.23-.88.89.03,1.49.47,1.79.68.19.14,1.08.81,1.42,1.96.21.72.09,1.43-.13,2.13-.3.93-.69,1.84-1.12,2.71-.26.52-.55,1.04-.84,1.55-.15.26-.31.52-.47.78-.1.17-.19.43-.34.6h-.01Z"/><path class="cls-8" d="m340.6,88.84c-.14-.16-.31-.28-.52-.33-.45-.1-.81.15-1.07.5-.93,1.25-1.48,2.77-2.26,4.12-.85,1.47-1.65,3-2.2,4.61-.49,1.43-1.12,3-1.07,4.54.04,1.19.12,3.73,2.08,5.6.37.36,2.03,1.85,4.45,1.77,1.77-.06,2.99-.93,3.58-1.36.39-.28,2.16-1.62,2.83-3.93.41-1.43.18-2.86-.27-4.25-.6-1.85-1.38-3.68-2.25-5.41-.53-1.05-1.09-2.08-1.68-3.1-.3-.53-.62-1.05-.93-1.56-.21-.34-.39-.85-.69-1.19h0Z"/><path class="cls-3" d="m340.47,88.75c-.11-.12-.24-.21-.4-.25-.34-.08-.62.12-.81.38-.71.95-1.12,2.11-1.71,3.13-.65,1.11-1.26,2.28-1.67,3.5-.37,1.09-.85,2.28-.81,3.45.03.9.09,2.84,1.58,4.26.28.27,1.54,1.4,3.38,1.34,1.34-.05,2.27-.71,2.72-1.03.3-.21,1.64-1.23,2.15-2.98.31-1.09.14-2.17-.2-3.23-.46-1.41-1.04-2.79-1.71-4.11-.4-.8-.83-1.58-1.28-2.35-.23-.4-.47-.79-.71-1.19-.16-.26-.3-.65-.52-.9v-.02Z"/><path class="cls-7" d="m340.33,88.66c-.07-.08-.16-.14-.26-.16-.23-.05-.41.08-.54.25-.47.63-.74,1.39-1.13,2.06-.43.73-.83,1.5-1.1,2.31-.24.72-.56,1.5-.54,2.27.02.6.06,1.87,1.04,2.8.19.18,1.02.92,2.23.88.89-.03,1.49-.47,1.79-.68.19-.14,1.08-.81,1.42-1.96.21-.72.09-1.43-.13-2.13-.3-.93-.69-1.84-1.12-2.71-.26-.52-.55-1.04-.84-1.55-.15-.26-.31-.52-.47-.78-.1-.17-.19-.43-.34-.6h-.01Z"/><path class="cls-8" d="m341.85,86.96c-.21.04-.4.12-.55.27-.32.33-.29.78-.13,1.17.59,1.45,1.6,2.7,2.35,4.07.81,1.49,1.71,2.97,2.8,4.28.97,1.16,1.98,2.52,3.32,3.27,1.04.59,3.25,1.84,5.87,1.14.5-.13,2.64-.77,3.82-2.88.87-1.54.75-3.04.7-3.77-.04-.48-.26-2.69-1.88-4.46-1.01-1.1-2.35-1.64-3.77-1.98-1.89-.45-3.86-.74-5.79-.89-1.17-.09-2.35-.15-3.52-.17-.61-.01-1.21-.02-1.82-.02-.4,0-.93-.11-1.38-.03h-.02Z"/><path class="cls-3" d="m341.71,87.03c-.16.03-.31.09-.42.21-.24.25-.22.59-.1.89.45,1.1,1.22,2.05,1.78,3.09.62,1.13,1.3,2.26,2.12,3.25.74.88,1.5,1.91,2.52,2.49.79.45,2.47,1.4,4.46.86.38-.1,2-.59,2.9-2.19.66-1.17.57-2.31.53-2.86-.03-.36-.2-2.04-1.43-3.39-.77-.83-1.78-1.25-2.87-1.51-1.44-.34-2.93-.56-4.4-.68-.89-.07-1.78-.11-2.67-.13-.46,0-.92-.01-1.38-.01-.3,0-.71-.08-1.04-.02h0Z"/><path class="cls-7" d="m341.56,87.11c-.11.02-.2.06-.28.14-.16.17-.15.39-.07.59.29.72.8,1.35,1.17,2.04.41.74.85,1.49,1.4,2.14.49.58.99,1.26,1.66,1.64.52.29,1.63.92,2.93.57.25-.07,1.32-.39,1.91-1.44.43-.77.38-1.52.35-1.88-.02-.24-.13-1.34-.94-2.23-.5-.55-1.17-.82-1.89-.99-.95-.22-1.93-.37-2.9-.45-.59-.05-1.17-.07-1.76-.09h-.91c-.2,0-.47-.06-.69-.02l.02-.02Z"/><path class="cls-8" d="m337.91,87.12c.21.04.4.12.55.27.32.33.29.78.13,1.17-.59,1.45-1.6,2.7-2.35,4.07-.81,1.49-1.71,2.97-2.8,4.28-.97,1.16-1.98,2.52-3.32,3.27-1.04.59-3.25,1.84-5.87,1.14-.5-.13-2.64-.77-3.82-2.88-.87-1.54-.75-3.04-.7-3.77.04-.48.26-2.69,1.88-4.46,1.01-1.1,2.35-1.64,3.77-1.98,1.89-.45,3.86-.74,5.79-.89,1.17-.09,2.35-.15,3.52-.17.61-.01,1.21-.02,1.82-.02.4,0,.93-.11,1.38-.03h.02Z"/><path class="cls-3" d="m338.05,87.19c.16.03.31.09.42.21.24.25.22.59.1.89-.45,1.1-1.22,2.05-1.78,3.09-.62,1.13-1.3,2.26-2.12,3.25-.74.88-1.5,1.91-2.52,2.49-.79.45-2.47,1.4-4.46.86-.38-.1-2-.59-2.9-2.19-.66-1.17-.57-2.31-.53-2.86.03-.36.2-2.04,1.43-3.39.77-.83,1.78-1.25,2.87-1.51,1.44-.34,2.93-.56,4.4-.68.89-.07,1.78-.11,2.67-.13.46,0,.92-.01,1.38-.01.3,0,.71-.08,1.04-.02h0Z"/><path class="cls-7" d="m338.2,87.26c.11.02.2.06.28.14.16.17.15.39.07.59-.29.72-.8,1.35-1.17,2.04-.41.74-.85,1.49-1.4,2.14-.49.58-.99,1.26-1.66,1.64-.52.29-1.63.92-2.93.57-.25-.07-1.32-.39-1.91-1.44-.43-.77-.38-1.52-.35-1.88.02-.24.13-1.34.94-2.23.5-.55,1.17-.82,1.89-.99.95-.22,1.93-.37,2.9-.45.59-.05,1.17-.07,1.76-.09h.91c.2,0,.47-.06.69-.02l-.02-.02Z"/><path class="cls-8" d="m341.96,86.57c-.21-.04-.4-.12-.55-.27-.32-.33-.29-.78-.13-1.17.59-1.45,1.6-2.7,2.35-4.07.81-1.49,1.71-2.97,2.8-4.28.97-1.16,1.98-2.52,3.32-3.27,1.04-.59,3.25-1.84,5.87-1.14.5.13,2.64.77,3.82,2.88.87,1.54.75,3.04.7,3.77-.04.48-.26,2.69-1.88,4.46-1.01,1.1-2.35,1.64-3.77,1.98-1.89.45-3.86.74-5.79.89-1.17.09-2.35.15-3.52.17-.61.01-1.21.02-1.82.02-.4,0-.93.11-1.38.03h-.02Z"/><path class="cls-3" d="m341.82,86.51c-.16-.03-.31-.09-.42-.21-.24-.25-.22-.59-.1-.89.45-1.1,1.22-2.05,1.78-3.09.62-1.13,1.3-2.26,2.12-3.25.74-.88,1.5-1.91,2.52-2.49.79-.45,2.47-1.4,4.46-.86.38.1,2,.59,2.9,2.19.66,1.17.57,2.31.53,2.86-.03.36-.2,2.04-1.43,3.39-.77.83-1.78,1.25-2.87,1.51-1.44.34-2.93.56-4.4.68-.89.07-1.78.11-2.67.13-.46,0-.92.01-1.38.01-.3,0-.71.08-1.04.02h0Z"/><path class="cls-7" d="m341.67,86.43c-.11-.02-.2-.06-.28-.14-.16-.17-.15-.39-.07-.59.29-.72.8-1.35,1.17-2.04.41-.74.85-1.49,1.4-2.14.49-.58.99-1.26,1.66-1.64.52-.29,1.63-.92,2.93-.57.25.07,1.32.39,1.91,1.44.43.77.38,1.52.35,1.88-.02.24-.13,1.34-.94,2.23-.5.55-1.17.82-1.89.99-.95.22-1.93.37-2.9.45-.59.05-1.17.07-1.76.09h-.91c-.2,0-.47.06-.69.02l.02.02Z"/><path class="cls-8" d="m337.8,86.73c.21-.04.4-.12.55-.27.32-.33.29-.78.13-1.17-.59-1.45-1.6-2.7-2.35-4.07-.81-1.49-1.71-2.97-2.8-4.28-.97-1.16-1.98-2.52-3.32-3.27-1.04-.59-3.25-1.84-5.87-1.14-.5.13-2.64.77-3.82,2.88-.87,1.54-.75,3.04-.7,3.77.04.48.26,2.69,1.88,4.46,1.01,1.1,2.35,1.64,3.77,1.98,1.89.45,3.86.74,5.79.89,1.17.09,2.35.15,3.52.17.61.01,1.21.02,1.82.02.4,0,.93.11,1.38.03h.02Z"/><path class="cls-3" d="m337.94,86.66c.16-.03.31-.09.42-.21.24-.25.22-.59.1-.89-.45-1.1-1.22-2.05-1.78-3.09-.62-1.13-1.3-2.26-2.12-3.25-.74-.88-1.5-1.91-2.52-2.49-.79-.45-2.47-1.4-4.46-.86-.38.1-2,.59-2.9,2.19-.66,1.17-.57,2.31-.53,2.86.03.36.2,2.04,1.43,3.39.77.83,1.78,1.25,2.87,1.51,1.44.34,2.93.56,4.4.68.89.07,1.78.11,2.67.13.46,0,.92.01,1.38.01.3,0,.71.08,1.04.02h0Z"/><path class="cls-7" d="m338.09,86.59c.11-.02.2-.06.28-.14.16-.17.15-.39.07-.59-.29-.72-.8-1.35-1.17-2.04-.41-.74-.85-1.49-1.4-2.14-.49-.58-.99-1.26-1.66-1.64-.52-.29-1.63-.92-2.93-.57-.25.07-1.32.39-1.91,1.44-.43.77-.38,1.52-.35,1.88.02.24.13,1.34.94,2.23.5.55,1.17.82,1.89.99.95.22,1.93.37,2.9.45.59.05,1.17.07,1.76.09h.91c.2,0,.47.06.69.02l-.02.02Z"/><polygon class="cls-3" points="305.71 123.48 294.78 103.42 275.81 103.42 244.95 103.42 225.98 103.42 202.54 146.45 244.95 146.45 275.81 146.45 305.71 146.45 305.71 123.48"/><g class="cls-1"><path class="cls-7" d="m170.93,112.22c0,4.81-3.9,8.71-8.71,8.71h-16.46c-4.81,0-8.71-3.9-8.71-8.71h0c0-4.81,3.9-8.71,8.71-8.71h16.46c4.81,0,8.71,3.9,8.71,8.71h0Z"/></g><g class="cls-11"><path class="cls-3" d="m132.88,112.22h158.3c8.02,0,14.52,6.51,14.52,14.52v100.78c0,8.02-6.51,14.52-14.52,14.52h-158.3c-8.02,0-14.52-6.51-14.52-14.52v-100.78c0-8.02,6.51-14.52,14.52-14.52Z"/><rect class="cls-8" x="80.85" y="171.69" width="260.46" height="26.39"/><rect class="cls-9" x="80.85" y="203.16" width="260.46" height="10.03"/></g><path class="cls-7" d="m252.06,183.35c0,22.11-17.92,40.03-40.03,40.03s-40.03-17.92-40.03-40.03,17.92-40.03,40.03-40.03,40.03,17.92,40.03,40.03Z"/><path class="cls-8" d="m245.47,183.35c0,18.47-14.97,33.44-33.44,33.44s-33.44-14.97-33.44-33.44,14.97-33.44,33.44-33.44,33.44,14.97,33.44,33.44Z"/><path class="cls-7" d="m241.43,183.35c0,16.24-13.16,29.4-29.4,29.4s-29.4-13.16-29.4-29.4,13.16-29.4,29.4-29.4,29.4,13.16,29.4,29.4Z"/><path class="cls-4" d="m236.24,183.35c0,13.37-10.84,24.21-24.21,24.21s-24.21-10.84-24.21-24.21,10.84-24.21,24.21-24.21,24.21,10.84,24.21,24.21Z"/><path class="cls-10" d="m202.82,173.37h.32c2.06,0,3.79-1.72,3.79-3.79s-1.72-3.79-3.79-3.79h-.32c-2.06,0-3.79,1.72-3.79,3.79s1.72,3.79,3.79,3.79h0Z"/><path class="cls-10" d="m196.04,175.42c-6.97,8.34-1.02,21.97,8.61,25.26,4.63,1.59,6.61-5.73,2.01-7.3-3.89-1.33-8.4-8.85-5.27-12.61,3.11-3.72-2.22-9.11-5.36-5.35h0Z"/><rect class="cls-9" x="134.52" y="123.78" width="41.98" height="19.69" rx="9.85" ry="9.85"/><rect class="cls-9" x="137.6" y="125.89" width="35.82" height="15.47"/><rect class="cls-7" x="255.15" y="125.89" width="4.85" height="15.47" rx="2.42" ry="2.42"/><rect class="cls-7" x="263.16" y="125.89" width="4.85" height="15.47" rx="2.42" ry="2.42"/><rect class="cls-7" x="271.16" y="125.89" width="4.85" height="15.47" rx="2.42" ry="2.42"/><rect class="cls-7" x="279.16" y="125.89" width="4.85" height="15.47" rx="2.42" ry="2.42"/><rect class="cls-7" x="287.17" y="125.89" width="4.85" height="15.47" rx="2.42" ry="2.42"/><rect class="cls-7" x="255.15" y="125.89" width="4.85" height="15.47" rx="2.42" ry="2.42"/><rect class="cls-7" x="263.16" y="125.89" width="4.85" height="15.47" rx="2.42" ry="2.42"/><rect class="cls-7" x="271.16" y="125.89" width="4.85" height="15.47" rx="2.42" ry="2.42"/><rect class="cls-7" x="279.16" y="125.89" width="4.85" height="15.47" rx="2.42" ry="2.42"/><rect class="cls-7" x="287.17" y="125.89" width="4.85" height="15.47" rx="2.42" ry="2.42"/></svg>