<?xml version="1.0" encoding="UTF-8"?><svg id="Laag_1" xmlns="http://www.w3.org/2000/svg" viewBox="0 0 36.21 36.04"><defs><style>.cls-1{fill:#fff;stroke-width:0px;}</style></defs><path id="Path_1088" class="cls-1" d="m16.76.03c9.15-.51,18.5,5.81,19.38,16.32.15,1.77.03,3.55-.35,5.28-1.13,5.66-4.95,10.42-10.23,12.75-.78.37-1.61.64-2.46.97v-13.47h3.88l.58-4.5h-4.42s-.04-.09-.05-.13c0-1.13-.01-2.26.04-3.39-.01-.75.54-1.38,1.28-1.47.52-.08,1.05-.12,1.58-.12.56-.02,1.12,0,1.7,0v-3.99s-.09-.04-.14-.05c-1.27-.05-2.54-.15-3.81-.14-1.02,0-2.02.3-2.87.85-1.5.98-2.41,2.65-2.41,4.44-.07,1.2-.02,2.4-.03,3.6,0,.12-.01.25-.02.41h-3.84v4.49c1.17,0,2.31.01,3.45,0,.32,0,.42.08.42.41-.01,4.44-.01,8.88,0,13.32,0,.11-.01.23-.02.42-.97-.07-1.91-.09-2.83-.22C7.68,34.7,1.44,28.54.21,20.66c-.07-.47-.14-.95-.21-1.42v-2.68c.05-.39.1-.79.16-1.18.47-3.4,1.91-6.6,4.15-9.2C7.43,2.5,11.94.27,16.76.03"/></svg>