<?xml version="1.0" encoding="UTF-8"?><svg id="Laag_1" xmlns="http://www.w3.org/2000/svg" xmlns:xlink="http://www.w3.org/1999/xlink" viewBox="0 0 454.97 357.56"><defs><style>.cls-1{clip-path:url(#clippath);}.cls-2{fill:none;}.cls-2,.cls-3,.cls-4,.cls-5,.cls-6,.cls-7,.cls-8,.cls-9{stroke-width:0px;}.cls-3{fill:#161615;}.cls-4{fill:#cc3f17;}.cls-5{fill:#902e14;}.cls-6{fill:#98995e;}.cls-7{fill:#fddaa3;}.cls-8{fill:#f39214;}.cls-9{fill:#e4e6b6;}</style><clipPath id="clippath"><rect class="cls-2" x="117.02" y="64.19" width="187.26" height="210.81"/></clipPath></defs><g id="Group_23"><rect id="Rectangle_23-2" class="cls-7" x="75.1" y="102.38" width="36.92" height="18.48" transform="translate(-1.38 1.17) rotate(-.71)"/><g id="Group_12-2"><g id="Group_11-2"><path id="Path_950-2" class="cls-6" d="m107.06,122.37s.33-8.89-4.82-13.84-13.85-4.4-13.85-4.4c0,0-.34,8.58,4.81,13.53s13.86,4.71,13.86,4.71"/><path id="Path_951-2" class="cls-9" d="m70.16,122.83s-.55-8.88,4.48-13.96c5.03-5.08,13.73-4.74,13.73-4.74,0,0,.56,8.57-4.47,13.64s-13.74,5.06-13.74,5.06"/><path id="Path_952-2" class="cls-8" d="m106.6,85.4s.55,8.88-4.48,13.96c-5.03,5.08-13.73,4.74-13.73,4.74,0,0-.56-8.57,4.47-13.64s13.74-5.06,13.74-5.06"/><path id="Path_953-2" class="cls-5" d="m69.7,85.86s-.33,8.89,4.82,13.84c5.15,4.95,13.85,4.4,13.85,4.4,0,0,.34-8.58-4.81-13.53s-13.86-4.71-13.86-4.71"/><rect id="Rectangle_24-2" class="cls-5" x="50.6" y="135.23" width="36.92" height="18.48" transform="translate(-1.8 .87) rotate(-.71)"/><path id="Path_954-2" class="cls-9" d="m50.5,135.46s-.33,8.89,4.82,13.84c5.15,4.95,13.85,4.4,13.85,4.4,0,0,.34-8.58-4.81-13.53s-13.86-4.71-13.86-4.71"/><path id="Path_955-2" class="cls-6" d="m87.39,135s.55,8.88-4.48,13.96-13.73,4.74-13.73,4.74c0,0-.56-8.57,4.47-13.64s13.74-5.06,13.74-5.06"/><path id="Path_956-2" class="cls-7" d="m50.96,172.43s-.55-8.88,4.48-13.96c5.03-5.08,13.73-4.74,13.73-4.74,0,0,.56,8.57-4.47,13.64s-13.74,5.06-13.74,5.06"/><path id="Path_957-2" class="cls-8" d="m87.85,171.97s.33-8.89-4.82-13.84c-5.15-4.95-13.85-4.4-13.85-4.4,0,0-.34,8.58,4.81,13.53s13.86,4.71,13.86,4.71"/><rect id="Rectangle_25-2" class="cls-6" x="68.66" y="198.11" width="36.92" height="18.48" transform="translate(-2.58 1.1) rotate(-.71)"/><path id="Path_958-2" class="cls-5" d="m105.69,216.36s.33-8.89-4.82-13.84-13.85-4.4-13.85-4.4c0,0-.34,8.58,4.81,13.53s13.86,4.71,13.86,4.71"/><path id="Path_959-2" class="cls-9" d="m68.79,216.82s-.55-8.88,4.48-13.96c5.03-5.08,13.73-4.74,13.73-4.74,0,0,.56,8.57-4.47,13.64-5.03,5.08-13.74,5.06-13.74,5.06"/><path id="Path_960-2" class="cls-7" d="m105.23,179.4s.55,8.88-4.48,13.96c-5.03,5.08-13.73,4.74-13.73,4.74,0,0-.56-8.57,4.47-13.64,5.03-5.08,13.74-5.06,13.74-5.06"/><path id="Path_961-2" class="cls-8" d="m68.33,179.86s-.33,8.89,4.82,13.84c5.15,4.95,13.85,4.4,13.85,4.4,0,0,.34-8.58-4.81-13.53-5.15-4.95-13.86-4.71-13.86-4.71"/><rect id="Rectangle_26-2" class="cls-8" x=".97" y="135.69" width="36.92" height="18.48" transform="translate(-1.8 .25) rotate(-.71)"/><path id="Path_962-2" class="cls-6" d="m.87,135.92s-.33,8.89,4.82,13.84,13.85,4.4,13.85,4.4c0,0,.34-8.58-4.81-13.53s-13.86-4.71-13.86-4.71"/><path id="Path_963-2" class="cls-9" d="m37.76,135.46s.55,8.88-4.48,13.96-13.73,4.74-13.73,4.74c0,0-.56-8.57,4.47-13.64s13.74-5.06,13.74-5.06"/><path id="Path_964-2" class="cls-5" d="m1.33,172.89s-.55-8.88,4.48-13.96,13.73-4.74,13.73-4.74c0,0,.56,8.57-4.47,13.64-5.03,5.08-13.74,5.06-13.74,5.06"/><path id="Path_965-2" class="cls-7" d="m38.22,172.43s.33-8.89-4.82-13.84-13.85-4.4-13.85-4.4c0,0-.34,8.58,4.81,13.53,5.15,4.95,13.86,4.71,13.86,4.71"/><rect id="Rectangle_27-2" class="cls-7" x="125.08" y="178.92" width="36.92" height="18.48" transform="translate(-2.33 1.8) rotate(-.71)"/><path id="Path_966-2" class="cls-6" d="m124.97,179.15s-.33,8.89,4.82,13.84c5.15,4.95,13.85,4.4,13.85,4.4,0,0,.34-8.58-4.81-13.53s-13.86-4.71-13.86-4.71"/><path id="Path_967-2" class="cls-9" d="m161.87,178.69s.55,8.88-4.48,13.96c-5.03,5.08-13.73,4.74-13.73,4.74,0,0-.56-8.57,4.47-13.64,5.03-5.08,13.74-5.06,13.74-5.06"/><path id="Path_968-2" class="cls-8" d="m125.44,216.11s-.55-8.88,4.48-13.96,13.73-4.74,13.73-4.74c0,0,.56,8.57-4.47,13.65s-13.74,5.06-13.74,5.06"/><path id="Path_969-2" class="cls-5" d="m162.33,215.65s.33-8.89-4.82-13.84c-5.15-4.95-13.85-4.4-13.85-4.4,0,0-.34,8.58,4.81,13.53,5.15,4.95,13.86,4.71,13.86,4.71"/><rect id="Rectangle_28-2" class="cls-5" x="102.69" y="149.86" width="36.92" height="18.48" transform="translate(-1.97 1.52) rotate(-.71)"/><path id="Path_970-2" class="cls-9" d="m139.72,168.11s.33-8.89-4.82-13.84c-5.15-4.95-13.85-4.4-13.85-4.4,0,0-.34,8.58,4.81,13.53,5.15,4.95,13.86,4.71,13.86,4.71"/><path id="Path_971-2" class="cls-6" d="m102.82,168.57s-.55-8.88,4.48-13.96,13.73-4.74,13.73-4.74c0,0,.56,8.57-4.47,13.64s-13.74,5.06-13.74,5.06"/><path id="Path_972-2" class="cls-7" d="m139.26,131.15s.55,8.88-4.48,13.96c-5.03,5.08-13.73,4.74-13.73,4.74,0,0-.56-8.57,4.47-13.64,5.03-5.08,13.74-5.06,13.74-5.06"/><path id="Path_973-2" class="cls-8" d="m102.36,131.61s-.33,8.89,4.82,13.84,13.85,4.4,13.85,4.4c0,0,.34-8.58-4.81-13.53s-13.86-4.71-13.86-4.71"/><rect id="Rectangle_29-2" class="cls-6" x="129.58" y="85.64" width="36.92" height="18.48" transform="translate(-1.17 1.85) rotate(-.71)"/><path id="Path_974-2" class="cls-5" d="m129.48,85.87s-.33,8.89,4.82,13.84c5.15,4.95,13.85,4.4,13.85,4.4,0,0,.34-8.58-4.81-13.53-5.15-4.95-13.86-4.71-13.86-4.71"/><path id="Path_975-2" class="cls-9" d="m166.38,85.41s.55,8.88-4.48,13.96c-5.03,5.08-13.73,4.74-13.73,4.74,0,0-.56-8.57,4.47-13.64,5.03-5.08,13.74-5.06,13.74-5.06"/><path id="Path_976-2" class="cls-7" d="m129.94,122.83s-.55-8.88,4.48-13.96c5.03-5.08,13.73-4.74,13.73-4.74,0,0,.56,8.57-4.47,13.64-5.03,5.08-13.74,5.06-13.74,5.06"/><path id="Path_977-2" class="cls-8" d="m166.84,122.37s.33-8.89-4.82-13.84c-5.15-4.95-13.85-4.4-13.85-4.4,0,0-.34,8.58,4.81,13.53,5.15,4.95,13.86,4.71,13.86,4.71"/><rect id="Rectangle_30-2" class="cls-8" x="152.39" y="148.2" width="36.92" height="18.48" transform="translate(-1.95 2.14) rotate(-.71)"/><path id="Path_978-2" class="cls-6" d="m189.41,166.45s.33-8.89-4.82-13.84c-5.15-4.95-13.85-4.4-13.85-4.4,0,0-.34,8.58,4.81,13.53s13.86,4.71,13.86,4.71"/><path id="Path_979-2" class="cls-9" d="m152.51,166.91s-.55-8.88,4.48-13.96,13.73-4.74,13.73-4.74c0,0,.56,8.57-4.47,13.64-5.03,5.08-13.74,5.06-13.74,5.06"/><path id="Path_980-2" class="cls-5" d="m188.95,129.49s.55,8.88-4.48,13.96c-5.03,5.08-13.73,4.74-13.73,4.74,0,0-.56-8.57,4.47-13.64s13.74-5.06,13.74-5.06"/><path id="Path_981-2" class="cls-7" d="m152.05,129.95s-.33,8.89,4.82,13.84,13.85,4.4,13.85,4.4c0,0,.34-8.58-4.81-13.53s-13.86-4.71-13.86-4.71"/><rect id="Rectangle_31-2" class="cls-7" x=".34" y="52.16" width="36.92" height="18.48" transform="translate(-.76 .24) rotate(-.71)"/><path id="Path_982-2" class="cls-6" d="m37.36,70.41s.33-8.89-4.82-13.84c-5.15-4.95-13.85-4.4-13.85-4.4,0,0-.34,8.58,4.81,13.53,5.15,4.95,13.86,4.71,13.86,4.71"/><path id="Path_983-2" class="cls-9" d="m.46,70.87s-.55-8.88,4.48-13.96c5.03-5.08,13.73-4.74,13.73-4.74,0,0,.56,8.57-4.47,13.64-5.03,5.08-13.74,5.06-13.74,5.06"/><path id="Path_984-2" class="cls-8" d="m36.9,33.45s.55,8.88-4.48,13.96c-5.03,5.08-13.73,4.74-13.73,4.74,0,0-.56-8.57,4.47-13.64s13.74-5.06,13.74-5.06"/><path id="Path_985-2" class="cls-5" d="m0,33.91s-.33,8.89,4.82,13.84c5.15,4.95,13.85,4.4,13.85,4.4,0,0,.34-8.58-4.81-13.53C8.71,33.67,0,33.91,0,33.91"/><path id="Path_988-2" class="cls-7" d="m81.53,18.72s-.55-8.88,4.48-13.96C91.03-.32,99.74.02,99.74.02c0,0,.56,8.57-4.47,13.64s-13.74,5.06-13.74,5.06"/><path id="Path_989-2" class="cls-8" d="m118.43,18.26s.33-8.89-4.82-13.84S99.76.02,99.76.02c0,0-.34,8.58,4.81,13.53,5.15,4.95,13.86,4.71,13.86,4.71"/><path id="Path_1000-2" class="cls-8" d="m25.6,19.42s-.55-8.88,4.48-13.96S43.81.72,43.81.72c0,0,.56,8.57-4.47,13.64-5.03,5.08-13.74,5.06-13.74,5.06"/><path id="Path_1001-2" class="cls-5" d="m62.5,18.96s.33-8.89-4.82-13.84S43.83.72,43.83.72c0,0-.34,8.58,4.81,13.53s13.86,4.71,13.86,4.71"/><rect id="Rectangle_36-2" class="cls-5" x="51.24" y="55.09" width="36.92" height="18.48" transform="translate(-.8 .87) rotate(-.71)"/><path id="Path_1002-2" class="cls-9" d="m88.26,73.34s.33-8.89-4.82-13.84-13.85-4.4-13.85-4.4c0,0-.34,8.58,4.81,13.53,5.15,4.95,13.86,4.71,13.86,4.71"/><path id="Path_1003-2" class="cls-6" d="m51.36,73.8s-.55-8.88,4.48-13.96c5.03-5.08,13.73-4.74,13.73-4.74,0,0,.56,8.57-4.47,13.65s-13.74,5.06-13.74,5.06"/><path id="Path_1004-2" class="cls-7" d="m87.8,36.38s.55,8.88-4.48,13.96-13.73,4.74-13.73,4.74c0,0-.56-8.57,4.47-13.64s13.74-5.06,13.74-5.06"/><path id="Path_1005-2" class="cls-8" d="m50.9,36.84s-.33,8.89,4.82,13.84,13.85,4.4,13.85,4.4c0,0,.34-8.58-4.81-13.53s-13.86-4.71-13.86-4.71"/><rect id="Rectangle_37-2" class="cls-6" x="101.29" y="37.41" width="36.92" height="18.48" transform="translate(-.57 1.5) rotate(-.71)"/><path id="Path_1006-2" class="cls-5" d="m101.19,37.64s-.33,8.89,4.82,13.84,13.85,4.4,13.85,4.4c0,0,.34-8.58-4.81-13.53s-13.86-4.71-13.86-4.71"/><path id="Path_1007-2" class="cls-9" d="m138.08,37.18s.55,8.88-4.48,13.96c-5.03,5.08-13.73,4.74-13.73,4.74,0,0-.56-8.57,4.47-13.64,5.03-5.08,13.74-5.06,13.74-5.06"/><path id="Path_1008-2" class="cls-7" d="m101.65,74.6s-.55-8.88,4.48-13.96c5.03-5.08,13.73-4.74,13.73-4.74,0,0,.56,8.57-4.47,13.64-5.03,5.08-13.74,5.06-13.74,5.06"/><path id="Path_1009-2" class="cls-8" d="m138.55,74.14s.33-8.89-4.82-13.84-13.85-4.4-13.85-4.4c0,0-.34,8.58,4.81,13.53s13.86,4.71,13.86,4.71"/><rect id="Rectangle_38-2" class="cls-8" x="15.29" y="104.35" width="36.92" height="18.48" transform="translate(-1.41 .43) rotate(-.71)"/><path id="Path_1010-2" class="cls-6" d="m52.32,122.6s.33-8.89-4.82-13.84-13.85-4.4-13.85-4.4c0,0-.34,8.58,4.81,13.53,5.15,4.95,13.86,4.71,13.86,4.71"/><path id="Path_1011-2" class="cls-9" d="m15.42,123.06s-.55-8.88,4.48-13.96,13.73-4.74,13.73-4.74c0,0,.56,8.57-4.47,13.64s-13.74,5.06-13.74,5.06"/><path id="Path_1012-2" class="cls-5" d="m51.86,85.64s.55,8.88-4.48,13.96-13.73,4.74-13.73,4.74c0,0-.56-8.57,4.47-13.64,5.03-5.08,13.74-5.06,13.74-5.06"/><path id="Path_1013-2" class="cls-7" d="m14.96,86.1s-.33,8.89,4.82,13.84,13.85,4.4,13.85,4.4c0,0,.34-8.58-4.81-13.53s-13.86-4.71-13.86-4.71"/><rect id="Rectangle_40-2" class="cls-5" x="15.06" y="182.2" width="36.92" height="18.48" transform="translate(-2.38 .43) rotate(-.71)"/><path id="Path_1018-2" class="cls-9" d="m14.95,182.44s-.33,8.89,4.82,13.84c5.15,4.95,13.85,4.4,13.85,4.4,0,0,.34-8.58-4.81-13.53-5.15-4.95-13.86-4.71-13.86-4.71"/><path id="Path_1019-2" class="cls-6" d="m51.85,181.98s.55,8.88-4.48,13.96c-5.03,5.08-13.73,4.74-13.73,4.74,0,0-.56-8.57,4.47-13.65,5.03-5.08,13.74-5.06,13.74-5.06"/><path id="Path_1020-2" class="cls-7" d="m15.41,219.4s-.55-8.88,4.48-13.96c5.03-5.08,13.73-4.74,13.73-4.74,0,0,.56,8.57-4.47,13.65s-13.74,5.06-13.74,5.06"/><path id="Path_1021-2" class="cls-8" d="m52.31,218.94s.33-8.89-4.82-13.84c-5.15-4.95-13.85-4.4-13.85-4.4,0,0-.34,8.58,4.81,13.53,5.15,4.95,13.86,4.71,13.86,4.71"/></g></g></g><g id="Group_23-2"><rect id="Rectangle_23-2-2" class="cls-7" x="323.77" y="239.8" width="36.92" height="18.48"/><g id="Group_12-2-2"><g id="Group_11-2-2"><path id="Path_950-2-2" class="cls-6" d="m323.78,239.8s-.44,8.89,4.65,13.9,13.79,4.57,13.79,4.57c0,0,.45-8.57-4.64-13.59s-13.8-4.88-13.8-4.88"/><path id="Path_951-2-2" class="cls-9" d="m360.68,239.8s.44,8.89-4.65,13.9c-5.09,5.01-13.79,4.57-13.79,4.57,0,0-.45-8.57,4.64-13.59s13.8-4.88,13.8-4.88"/><path id="Path_952-2-2" class="cls-8" d="m323.78,276.76s-.44-8.89,4.65-13.9,13.79-4.57,13.79-4.57c0,0,.45,8.57-4.64,13.59s-13.8,4.88-13.8,4.88"/><path id="Path_953-2-2" class="cls-5" d="m360.68,276.76s.44-8.89-4.65-13.9c-5.09-5.01-13.79-4.57-13.79-4.57,0,0-.45,8.57,4.64,13.59s13.8,4.88,13.8,4.88"/><rect id="Rectangle_24-2-2" class="cls-5" x="348.68" y="207.25" width="36.92" height="18.48"/><path id="Path_954-2-2" class="cls-9" d="m385.59,225.73s.44-8.89-4.65-13.9c-5.09-5.01-13.79-4.57-13.79-4.57,0,0-.45,8.57,4.64,13.59s13.8,4.88,13.8,4.88"/><path id="Path_955-2-2" class="cls-6" d="m348.69,225.73s-.44-8.89,4.65-13.9,13.79-4.57,13.79-4.57c0,0,.45,8.57-4.64,13.59-5.09,5.01-13.8,4.88-13.8,4.88"/><path id="Path_956-2-2" class="cls-7" d="m385.59,188.77s.44,8.89-4.65,13.9c-5.09,5.01-13.79,4.57-13.79,4.57,0,0-.45-8.57,4.64-13.59s13.8-4.88,13.8-4.88"/><path id="Path_957-2-2" class="cls-8" d="m348.69,188.77s-.44,8.89,4.65,13.9c5.09,5.01,13.79,4.57,13.79,4.57,0,0,.45-8.57-4.64-13.59-5.09-5.01-13.8-4.88-13.8-4.88"/><rect id="Rectangle_25-2-2" class="cls-6" x="331.4" y="144.16" width="36.92" height="18.48"/><path id="Path_958-2-2" class="cls-5" d="m331.41,144.16s-.44,8.89,4.65,13.9,13.79,4.57,13.79,4.57c0,0,.45-8.57-4.64-13.59s-13.8-4.88-13.8-4.88"/><path id="Path_959-2-2" class="cls-9" d="m368.31,144.16s.44,8.89-4.65,13.9c-5.09,5.01-13.79,4.57-13.79,4.57,0,0-.45-8.57,4.64-13.59,5.09-5.01,13.8-4.88,13.8-4.88"/><path id="Path_960-2-2" class="cls-7" d="m331.41,181.12s-.44-8.89,4.65-13.9c5.09-5.01,13.79-4.57,13.79-4.57,0,0,.45,8.57-4.64,13.59-5.09,5.01-13.8,4.88-13.8,4.88"/><path id="Path_961-2-2" class="cls-8" d="m368.31,181.12s.44-8.89-4.65-13.9c-5.09-5.01-13.79-4.57-13.79-4.57,0,0-.45,8.57,4.64,13.59,5.09,5.01,13.8,4.88,13.8,4.88"/><rect id="Rectangle_26-2-2" class="cls-8" x="403.26" y="205.27" width="36.92" height="18.48"/><path id="Path_962-2-2" class="cls-6" d="m440.17,223.75s.44-8.89-4.65-13.9-13.79-4.57-13.79-4.57c0,0-.45,8.57,4.64,13.59s13.8,4.88,13.8,4.88"/><path id="Path_963-2-2" class="cls-9" d="m403.27,223.75s-.44-8.89,4.65-13.9,13.79-4.57,13.79-4.57c0,0,.45,8.57-4.64,13.59s-13.8,4.88-13.8,4.88"/><path id="Path_964-2-2" class="cls-5" d="m440.17,186.79s.44,8.89-4.65,13.9-13.79,4.57-13.79,4.57c0,0-.45-8.57,4.64-13.59,5.09-5.01,13.8-4.88,13.8-4.88"/><path id="Path_965-2-2" class="cls-7" d="m403.27,186.79s-.44,8.89,4.65,13.9,13.79,4.57,13.79,4.57c0,0,.45-8.57-4.64-13.59-5.09-5.01-13.8-4.88-13.8-4.88"/><rect id="Rectangle_27-2-2" class="cls-7" x="274.75" y="162.64" width="36.92" height="18.48"/><path id="Path_966-2-2" class="cls-6" d="m311.66,181.12s.44-8.89-4.65-13.9c-5.09-5.01-13.79-4.57-13.79-4.57,0,0-.45,8.58,4.64,13.59s13.8,4.88,13.8,4.88"/><path id="Path_967-2-2" class="cls-9" d="m274.76,181.12s-.44-8.89,4.65-13.9c5.09-5.01,13.79-4.57,13.79-4.57,0,0,.45,8.57-4.64,13.59-5.09,5.01-13.8,4.88-13.8,4.88"/><path id="Path_968-2-2" class="cls-8" d="m311.66,144.16s.44,8.89-4.65,13.9-13.79,4.57-13.79,4.57c0,0-.45-8.57,4.64-13.59s13.8-4.88,13.8-4.88"/><path id="Path_969-2-2" class="cls-5" d="m274.76,144.16s-.44,8.89,4.65,13.9c5.09,5.01,13.79,4.57,13.79,4.57,0,0,.45-8.57-4.64-13.59-5.09-5.01-13.8-4.88-13.8-4.88"/><rect id="Rectangle_28-2-2" class="cls-5" x="296.77" y="191.98" width="36.92" height="18.48"/><path id="Path_970-2-2" class="cls-9" d="m296.78,191.98s-.44,8.89,4.65,13.9,13.79,4.57,13.79,4.57c0,0,.45-8.57-4.64-13.59-5.09-5.01-13.8-4.88-13.8-4.88"/><path id="Path_971-2-2" class="cls-6" d="m333.68,191.98s.44,8.89-4.65,13.9-13.79,4.57-13.79,4.57c0,0-.45-8.57,4.64-13.59s13.8-4.88,13.8-4.88"/><path id="Path_972-2-2" class="cls-7" d="m296.78,228.94s-.44-8.89,4.65-13.9c5.09-5.01,13.79-4.57,13.79-4.57,0,0,.45,8.57-4.64,13.59-5.09,5.01-13.8,4.88-13.8,4.88"/><path id="Path_973-2-2" class="cls-8" d="m333.68,228.94s.44-8.89-4.65-13.9-13.79-4.57-13.79-4.57c0,0-.45,8.57,4.64,13.59s13.8,4.88,13.8,4.88"/><rect id="Rectangle_29-2-2" class="cls-6" x="269.08" y="255.85" width="36.92" height="18.48"/><path id="Path_974-2-2" class="cls-5" d="m305.99,274.33s.44-8.89-4.65-13.9-13.79-4.57-13.79-4.57c0,0-.45,8.57,4.64,13.59,5.09,5.02,13.8,4.88,13.8,4.88"/><path id="Path_975-2-2" class="cls-9" d="m269.09,274.33s-.44-8.89,4.65-13.9c5.09-5.01,13.79-4.57,13.79-4.57,0,0,.45,8.57-4.64,13.59-5.09,5.01-13.8,4.88-13.8,4.88"/><path id="Path_976-2-2" class="cls-7" d="m305.99,237.37s.44,8.89-4.65,13.9c-5.09,5.01-13.79,4.57-13.79,4.57,0,0-.45-8.57,4.64-13.59,5.09-5.01,13.8-4.88,13.8-4.88"/><path id="Path_977-2-2" class="cls-8" d="m269.09,237.37s-.44,8.89,4.65,13.9c5.09,5.01,13.79,4.57,13.79,4.57,0,0,.45-8.57-4.64-13.59-5.09-5.01-13.8-4.88-13.8-4.88"/><rect id="Rectangle_30-2-2" class="cls-8" x="247.06" y="193.01" width="36.92" height="18.48"/><path id="Path_978-2-2" class="cls-6" d="m247.07,193.01s-.44,8.89,4.65,13.9c5.09,5.01,13.79,4.57,13.79,4.57,0,0,.45-8.57-4.64-13.59s-13.8-4.88-13.8-4.88"/><path id="Path_979-2-2" class="cls-9" d="m283.97,193.01s.44,8.89-4.65,13.9c-5.09,5.01-13.79,4.57-13.79,4.57,0,0-.45-8.57,4.64-13.59s13.8-4.88,13.8-4.88"/><path id="Path_980-2-2" class="cls-5" d="m247.07,229.98s-.44-8.89,4.65-13.9c5.09-5.01,13.79-4.57,13.79-4.57,0,0,.45,8.57-4.64,13.59s-13.8,4.88-13.8,4.88"/><path id="Path_981-2-2" class="cls-7" d="m283.97,229.98s.44-8.89-4.65-13.9c-5.09-5.01-13.79-4.57-13.79-4.57,0,0-.45,8.57,4.64,13.59s13.8,4.88,13.8,4.88"/><rect id="Rectangle_31-2-2" class="cls-7" x="408.82" y="285.95" width="36.92" height="18.48"/><path id="Path_982-2-2" class="cls-6" d="m408.83,285.95s-.44,8.89,4.65,13.9c5.09,5.01,13.79,4.57,13.79,4.57,0,0,.45-8.57-4.64-13.59s-13.8-4.88-13.8-4.88"/><path id="Path_983-2-2" class="cls-9" d="m445.73,285.95s.44,8.89-4.65,13.9-13.79,4.57-13.79,4.57c0,0-.45-8.57,4.64-13.59,5.09-5.01,13.8-4.88,13.8-4.88"/><path id="Path_984-2-2" class="cls-8" d="m408.83,322.92s-.44-8.89,4.65-13.9,13.79-4.57,13.79-4.57c0,0,.45,8.57-4.64,13.59s-13.8,4.88-13.8,4.88"/><path id="Path_985-2-2" class="cls-5" d="m445.73,322.92s.44-8.89-4.65-13.9c-5.09-5.01-13.79-4.57-13.79-4.57,0,0-.45,8.57,4.64,13.59,5.09,5.01,13.8,4.88,13.8,4.88"/><path id="Path_988-2-2" class="cls-7" d="m343.1,339.08s.44,8.89-4.65,13.9c-5.09,5.01-13.79,4.57-13.79,4.57,0,0-.45-8.57,4.64-13.59,5.09-5.01,13.8-4.88,13.8-4.88"/><path id="Path_989-2-2" class="cls-8" d="m306.2,339.08s-.44,8.89,4.65,13.9,13.79,4.57,13.79,4.57c0,0,.45-8.57-4.64-13.59-5.09-5.01-13.8-4.88-13.8-4.88"/><rect id="Rectangle_33-2" class="cls-6" x="436.51" y="239.8" width="18.43" height="18.48"/><path id="Path_990-2" class="cls-5" d="m436.52,239.8s-.44,8.89,4.65,13.9,13.79,4.57,13.79,4.57c0,0,.45-8.57-4.64-13.59s-13.8-4.88-13.8-4.88"/><path id="Path_992-2" class="cls-7" d="m436.52,276.76s-.44-8.89,4.65-13.9,13.79-4.57,13.79-4.57c0,0,.45,8.57-4.64,13.59s-13.8,4.88-13.8,4.88"/><path id="Path_996-2" class="cls-5" d="m454.96,339.08s.44,8.89-4.65,13.9c-5.09,5.01-13.79,4.57-13.79,4.57,0,0-.45-8.57,4.64-13.59s13.8-4.88,13.8-4.88"/><path id="Path_997-2" class="cls-7" d="m418.06,339.08s-.44,8.89,4.65,13.9c5.09,5.01,13.79,4.57,13.79,4.57,0,0,.45-8.57-4.64-13.59s-13.8-4.88-13.8-4.88"/><path id="Path_1000-2-2" class="cls-8" d="m399.03,339.08s.44,8.89-4.65,13.9-13.79,4.57-13.79,4.57c0,0-.45-8.57,4.64-13.59,5.09-5.01,13.8-4.88,13.8-4.88"/><path id="Path_1001-2-2" class="cls-5" d="m362.13,339.08s-.44,8.89,4.65,13.9c5.09,5.01,13.79,4.57,13.79,4.57,0,0,.45-8.57-4.64-13.59-5.09-5.01-13.8-4.88-13.8-4.88"/><rect id="Rectangle_36-2-2" class="cls-5" x="352.89" y="287.38" width="36.92" height="18.48"/><path id="Path_1002-2-2" class="cls-9" d="m352.9,287.38s-.44,8.89,4.65,13.9c5.09,5.01,13.79,4.57,13.79,4.57,0,0,.45-8.57-4.64-13.59-5.09-5.01-13.8-4.88-13.8-4.88"/><path id="Path_1003-2-2" class="cls-6" d="m389.8,287.38s.44,8.89-4.65,13.9-13.79,4.57-13.79,4.57c0,0-.45-8.57,4.64-13.59s13.8-4.88,13.8-4.88"/><path id="Path_1004-2-2" class="cls-7" d="m352.9,324.35s-.44-8.89,4.65-13.9,13.79-4.57,13.79-4.57c0,0,.45,8.57-4.64,13.59-5.09,5.01-13.8,4.88-13.8,4.88"/><path id="Path_1005-2-2" class="cls-8" d="m389.8,324.35s.44-8.89-4.65-13.9-13.79-4.57-13.79-4.57c0,0-.45,8.57,4.64,13.59s13.8,4.88,13.8,4.88"/><rect id="Rectangle_37-2-2" class="cls-6" x="296.77" y="304.43" width="36.92" height="18.48"/><path id="Path_1006-2-2" class="cls-5" d="m333.68,322.92s.44-8.89-4.65-13.9-13.79-4.57-13.79-4.57c0,0-.45,8.57,4.64,13.59s13.8,4.88,13.8,4.88"/><path id="Path_1007-2-2" class="cls-9" d="m296.78,322.92s-.44-8.89,4.65-13.9,13.79-4.57,13.79-4.57c0,0,.45,8.57-4.64,13.59-5.09,5.01-13.8,4.88-13.8,4.88"/><path id="Path_1008-2-2" class="cls-7" d="m333.68,285.95s.44,8.89-4.65,13.9c-5.09,5.01-13.79,4.57-13.79,4.57,0,0-.45-8.57,4.64-13.59,5.09-5.01,13.8-4.88,13.8-4.88"/><path id="Path_1009-2-2" class="cls-8" d="m296.78,285.95s-.44,8.89,4.65,13.9,13.79,4.57,13.79,4.57c0,0,.45-8.57-4.64-13.59s-13.8-4.88-13.8-4.88"/><rect id="Rectangle_38-2-2" class="cls-8" x="379.44" y="239.8" width="36.92" height="18.48"/><path id="Path_1010-2-2" class="cls-6" d="m379.45,239.8s-.44,8.89,4.65,13.9,13.79,4.57,13.79,4.57c0,0,.45-8.57-4.64-13.59-5.09-5.01-13.8-4.88-13.8-4.88"/><path id="Path_1011-2-2" class="cls-9" d="m416.35,239.8s.44,8.89-4.65,13.9-13.79,4.57-13.79,4.57c0,0-.45-8.57,4.64-13.59s13.8-4.88,13.8-4.88"/><path id="Path_1012-2-2" class="cls-5" d="m379.45,276.76s-.44-8.89,4.65-13.9,13.79-4.57,13.79-4.57c0,0,.45,8.57-4.64,13.59-5.09,5.01-13.8,4.88-13.8,4.88"/><path id="Path_1013-2-2" class="cls-7" d="m416.35,276.76s.44-8.89-4.65-13.9-13.79-4.57-13.79-4.57c0,0-.45,8.57,4.64,13.59s13.8,4.88,13.8,4.88"/><rect id="Rectangle_40-2-2" class="cls-5" x="384.8" y="160.72" width="36.92" height="18.48"/><path id="Path_1018-2-2" class="cls-9" d="m421.71,179.21s.44-8.89-4.65-13.9c-5.09-5.01-13.79-4.57-13.79-4.57,0,0-.45,8.57,4.64,13.59,5.09,5.01,13.8,4.88,13.8,4.88"/><path id="Path_1019-2-2" class="cls-6" d="m384.81,179.21s-.44-8.89,4.65-13.9c5.09-5.01,13.79-4.57,13.79-4.57,0,0,.45,8.57-4.64,13.59-5.09,5.01-13.8,4.88-13.8,4.88"/><path id="Path_1020-2-2" class="cls-7" d="m421.71,142.24s.44,8.89-4.65,13.9c-5.09,5.01-13.79,4.57-13.79,4.57,0,0-.45-8.57,4.64-13.59s13.8-4.88,13.8-4.88"/><path id="Path_1021-2-2" class="cls-8" d="m384.81,142.24s-.44,8.89,4.65,13.9c5.09,5.01,13.79,4.57,13.79,4.57,0,0,.45-8.57-4.64-13.59s-13.8-4.88-13.8-4.88"/></g></g></g><g id="Group_22"><g class="cls-1"><g id="Group_21-2"><path id="Path_1046" class="cls-4" d="m129.09,172.15v-77.52c0-12.15,8.39-22.24,18.75-22.54l86.72-2.53c7.74-.23,15.22,5.22,17.85,15.8-.98-12.18-9.85-21.48-20.64-21.16l-94.01,2.75c-11.45.34-20.74,11.37-20.74,24.64v76.94c0,13.27,9.29,23.76,20.74,23.43l2.37-.07c-6.51-3.26-11.03-10.81-11.03-19.73"/><path id="Path_1047" class="cls-4" d="m234.56,69.56l-86.72,2.53c-10.35.3-18.75,10.39-18.75,22.54v77.52c0,8.92,4.53,16.47,11.04,19.73l91.64-2.68c11.45-.33,20.74-11.37,20.74-24.64v-76.94c0-.76-.04-1.52-.1-2.26-2.63-10.58-10.11-16.03-17.85-15.8"/><path id="Path_1048" class="cls-5" d="m231.37,72.27l-16.31.48c10.26-.3,18.59,9.3,18.59,21.45v72.95c0,12.15-8.32,22.24-18.59,22.54l16.31-.48c10.26-.3,18.59-11.74,18.59-23.89v-72.95c0-12.15-6.6-20.45-18.59-20.1"/><path id="Path_1049" class="cls-5" d="m233.64,167.15v-72.95c0-12.15-8.32-21.75-18.59-21.45l-65.12,1.9c-10.26.3-18.59,10.39-18.59,22.54v72.95c0,12.15,8.32,21.75,18.59,21.45l65.12-1.9c10.26-.3,18.59-10.39,18.59-22.54"/><path id="Path_1050" class="cls-4" d="m133.22,207.11v17.66c0,8.09,3.45,15.55,9.21,19.93l26.62,20.25c11.77,8.95,26.22,12.09,40.23,8.74l77.66-18.54c10.04-2.4,17.34-12.74,17.34-24.56v-14.54c0-6.61-3.56-12.42-8.91-14.55l-45.74-18.23c-1.71-.69-3.56-.96-5.39-.8l-98.07,8.5c-7.26.63-12.95,7.73-12.95,16.15"/><path id="Path_1051" class="cls-6" d="m279.45,202.86c0,15-27.18,27.95-60.7,28.93-33.52.98-60.7-10.38-60.7-25.38s27.18-27.95,60.7-28.93c33.53-.98,60.7,10.38,60.7,25.38"/><path id="Path_1052" class="cls-7" d="m245.71,202.8c0,6.66-12.08,12.42-26.98,12.85s-26.98-4.61-26.98-11.28,12.08-12.42,26.98-12.86c14.9-.44,26.98,4.61,26.98,11.28"/><path id="Path_1053" class="cls-3" d="m224.35,203.43c0,1.39-2.51,2.58-5.61,2.67s-5.61-.96-5.61-2.34,2.51-2.58,5.61-2.67,5.61.96,5.61,2.34"/><path id="Path_1054" class="cls-7" d="m287.94,207.87l-4.39.13c-1.42.04-2.57-1.26-2.57-2.91v-8.86c0-3.05,2.13-5.59,4.77-5.67s4.77,2.33,4.77,5.38v8.86c0,1.65-1.15,3.02-2.57,3.06"/><path id="Path_1055" class="cls-8" d="m223.16,177.65v.08c0-3.2,2.24-5.85,4.99-5.93,1.01-.03,1.99.3,2.79.91l29.82,21.13c1.67,1.32,2.74,3.26,2.96,5.37l1.09,8.55c.19,1.25-.43,2.48-1.54,3.08-1.36.64-2.87-.24-3.21-1.87l-1.44-6.87c-.35-1.86-1.42-3.51-2.98-4.59l-28.69-18.95-3.8-.91Z"/><path id="Path_1056" class="cls-7" d="m271.78,244.3l-47.31,11.23c-3,.71-5.42-1.54-5.42-5.03s2.43-6.89,5.42-7.6l47.31-11.23c3-.71,5.42,1.54,5.42,5.03s-2.43,6.89-5.42,7.6"/></g></g></g></svg>