<?xml version="1.0" encoding="UTF-8"?><svg id="Laag_1" xmlns="http://www.w3.org/2000/svg" viewBox="0 0 17.73 17.73"><defs><style>.cls-1{fill:#fff;stroke-width:0px;}</style></defs><path id="Path_1085" class="cls-1" d="m8.88,0c4.89,0,8.85,3.99,8.85,8.88,0,4.89-3.99,8.85-8.88,8.85C3.95,17.72,0,13.74,0,8.85c0-.02,0-.04,0-.06C.04,3.91,4.01-.01,8.88,0m5.48,8.86h.02c-.02-.9,0-1.81-.07-2.71-.05-.96-.6-1.83-1.45-2.28-.55-.29-1.17-.44-1.79-.43-1.46,0-2.91,0-4.37,0-.54,0-1.07.1-1.57.32-1.06.47-1.74,1.53-1.7,2.69-.05,1.48-.02,2.97-.01,4.45,0,.29.03.59.08.88.14.99.79,1.83,1.72,2.2.48.2,1,.29,1.52.29,1.34,0,2.69,0,4.03,0,.32,0,.65-.02.97-.06,1.06-.1,1.97-.78,2.36-1.77.18-.45.27-.93.27-1.42v-2.16"/><path id="Path_1086" class="cls-1" d="m8.87,13.29c-.76,0-1.53-.02-2.29-.04-.76.05-1.49-.34-1.87-1-.19-.34-.29-.71-.3-1.1,0-1.52-.03-3.05,0-4.57-.05-.83.44-1.6,1.21-1.91.3-.12.62-.18.95-.19,1.53-.02,3.06-.02,4.6,0,.3,0,.59.06.87.16.71.24,1.21.88,1.27,1.62.03.19.04.39.04.58,0,1.39.01,2.78,0,4.16,0,.32-.06.63-.16.93-.23.74-.91,1.26-1.68,1.28-.49.04-.98.05-1.47.06-.39,0-.78.01-1.17.01m.03-7.3c-1.59,0-2.88,1.28-2.88,2.87,0,1.59,1.28,2.88,2.87,2.88,1.58,0,2.87-1.27,2.88-2.86.01-1.58-1.26-2.88-2.84-2.89,0,0-.02,0-.03,0m2.88.58c.32,0,.58-.25.58-.56,0,0,0,0,0,0,0-.32-.26-.57-.58-.57-.31,0-.56.25-.57.56-.01.31.22.57.53.58.01,0,.02,0,.03,0"/><path id="Path_1087" class="cls-1" d="m8.89,6.99c1.03,0,1.86.84,1.86,1.88s-.84,1.86-1.88,1.86c-1.03,0-1.86-.84-1.86-1.87,0-1.03.84-1.86,1.88-1.87"/></svg>