<?xml version="1.0" encoding="UTF-8"?><svg id="Laag_1" xmlns="http://www.w3.org/2000/svg" xmlns:xlink="http://www.w3.org/1999/xlink" viewBox="0 0 19.48 23.78"><defs><style>.cls-1{clip-path:url(#clippath);}.cls-2{fill:none;}.cls-2,.cls-3{stroke-width:0px;}.cls-3{fill:#cc3f17;}</style><clipPath id="clippath"><rect class="cls-2" width="19.48" height="23.78"/></clipPath></defs><g class="cls-1"><g id="Group_15"><path id="Path_1034" class="cls-3" d="m19.48,9.5c.05,3.23-1.5,6.28-4.14,8.16-1.54,1.11-2.85,2.53-3.82,4.16-.26.43-.52.87-.78,1.3-.24.56-.89.81-1.45.56-.25-.11-.45-.31-.56-.56-.65-1.16-1.4-2.25-2.26-3.26-.77-.86-1.62-1.65-2.54-2.35C1.77,15.95.37,13.54.08,10.89-.57,5.56,3.22.72,8.55.07c5.02-.61,9.67,2.73,10.69,7.69.13.64.18,1.3.23,1.74m-9.75,4.54c2.38.02,4.33-1.9,4.35-4.28.02-2.38-1.9-4.33-4.28-4.35-2.38-.02-4.33,1.9-4.35,4.28-.02,2.38,1.9,4.33,4.28,4.35"/></g></g></svg>