<?xml version="1.0" encoding="UTF-8"?><svg id="Laag_1" xmlns="http://www.w3.org/2000/svg" viewBox="0 0 144.55 236.96"><defs><style>.cls-1{fill:#f3a624;}.cls-1,.cls-2,.cls-3,.cls-4,.cls-5,.cls-6,.cls-7,.cls-8,.cls-9,.cls-10,.cls-11,.cls-12,.cls-13,.cls-14{stroke-width:0px;}.cls-2{fill:#535b4b;}.cls-3{fill:#a2aa73;}.cls-4{fill:#3b5f38;}.cls-5{fill:#d75515;}.cls-6{fill:#af602b;}.cls-7{fill:#c1c48a;}.cls-8{fill:#a1411a;}.cls-9{fill:#656c49;}.cls-10{fill:#fff;}.cls-11{fill:#fae2b4;}.cls-12{fill:#ecf1df;}.cls-13{fill:#ecf1e1;}.cls-14{fill:#fbeccb;}</style></defs><path class="cls-9" d="m66.95,150c1.23-1.01,2.35-2.16,4.17-2.84.09,1.84.17,3.57.25,5.3-.01,2.04-.07,4.09-.03,6.13.04,1.57,0,2.7-2.21,2.57-1.87-.12-2.87-.49-2.69-2.58.24-2.85.34-5.71.5-8.56Z"/><path class="cls-5" d="m109.69,236.93s-.02.03-.02.03v-.07s.02.02.02.03Z"/><path class="cls-5" d="m107.5,207.97c-1.68-1.15-3.4-2.23-5.23-3.13-3.77-1.86-7.64-3.47-11.51-5.09-5.68-2.38-11.55-4.17-17.52-5.63-5.87-1.44-11.48-3.51-16.84-6.33-3.97-2.1-7.94-4.15-11.39-7.07-2.25-1.91-4.43-3.89-5.68-6.66-.69-.91-1.28-1.86-1.78-2.86,0,0-.01-.01-.01-.02-.85-1.71-1.44-3.52-1.86-5.41,0-.03-.01-.05-.02-.08-.02-.1-.03-.19-.05-.29h0c-.04-.23-.09-.45-.15-.67,0-.03,0,.03,0,0-.05.13-.05.12-.12.24,0,.03-.07.11-.06.14-4.52,9.08-7.4,19.26-7.24,29.4,0,.23,0,.46.01.69.46.58.92,1.14,1.4,1.7,1.85,2.16,3.92,4.12,6.17,5.85,2.75,2.12,5.88,3.59,9.02,5.03,2.88,1.32,5.75,2.66,8.69,3.86,1.96.8,3.95,1.57,5.96,2.22,2.31.75,4.63,1.46,6.98,2.07,2.05.53,4.09,1.11,6.15,1.59,2.92.69,5.8,1.47,8.63,2.45,3.02,1.05,5.94,2.31,8.84,3.67,1.82.85,3.59,1.77,5.32,2.76.11-.09.22-.18.33-.27,5.94-4.97,9.73-11.38,11.86-17.8,0,0,.01.01.02.02.05-.12.11-.24.17-.35-.02-.02-.04-.03-.07-.05Z"/><path class="cls-3" d="m51.55,230.36s.08-.01.12-.02c1.39-.17,2.84-1.35,4.23-1.54,1.29-.18,2.5-1.04,3.8-.98,2.66.12,5.32,2.31,7.83,3.2,1.09.39,2.16.85,3.18,1.39.8.42,1.58.89,2.32,1.4.29.2.57.41.84.64-5.17.12-10.24-.4-15.25-1.74-2.18-.58-4.34-1.29-6.43-2.16"/><path class="cls-3" d="m50.13,230.83s0,0,.01,0"/><path class="cls-8" d="m88.52,222.6c2.39,1.08,4.73,2.25,7,3.55-.11.09-.22.18-.33.27-.32.26-.64.51-.98.77-3.97,3.03-8.16,4.93-12.31,6.03-.16.04-.33.09-.49.13-.63-.46-1.28-.9-1.96-1.33-5.19-3.31-10.9-5.4-16.74-7.18-7.1-2.16-14.36-3.79-21.37-6.26-2.45-.86-4.86-1.83-7.17-2.96-.15-.21-.29-.43-.42-.64-2.98-4.7-4.88-10.12-5.5-16.28-.11-1.16-.19-2.32-.22-3.48,0-.23-.01-.47-.01-.69,1.66,2.17,3.51,4.19,5.58,6.04,1.93,1.74,4,3.28,6.28,4.49,2.69,1.43,5.47,2.64,8.22,3.92,3.53,1.64,7.13,3.09,10.79,4.38,2.54.89,5.17,1.58,7.78,2.3,2.7.74,5.42,1.45,8.14,2.11,2.18.54,4.35,1.17,6.46,1.91,2.45.87,4.86,1.86,7.23,2.94Z"/><path class="cls-8" d="m109.69,236.93s-.02.03-.02.03v-.07s.02.02.02.03Z"/><path class="cls-1" d="m109.69,184.28s-.01.02-.02.02v-.04s.02.02.02.02Z"/><path class="cls-1" d="m35.41,164.81c.01.09.03.17.04.25.03.18.07.36.11.54,2.29,14.86,17.63,22.23,30.32,26.59,3.11,1.07,6.26,2.03,9.41,2.98,11.06,3.35,22.53,6.51,32.05,13.34,2.49-7.38,2.9-15.46,1.17-23.06-.11-.5-.25-1.03-.6-1.4-.44-.47-1.11-.61-1.75-.7-5.33-.83-10.75-.41-16.14-.3-6.15.12-12.43-.2-18.17-2.41-2.79-1.08-5.48-2.65-7.32-5.02-3.44-4.45-3.2-10.75-1.73-16.17-6.16.05-12.32.11-18.48.16-1.81.02-3.68.04-5.36.74-.89.37-1.72.98-2.31,1.75-.61.81-.62,1.84-1.21,2.63"/><path class="cls-1" d="m51.55,230.36s.03-.03.05-.05c-7.2-3.05-13.56-8.81-17.82-15.3.65.99,2.4,1.31,3.45,1.68,1.68.6,3.35,1.19,5.04,1.76,4.3,1.43,8.64,2.65,13.01,3.85,4.61,1.26,9.2,2.6,13.67,4.31,4.17,1.59,9.49,3.49,12.83,6.53-1.75,1.25-6.4,1.94-8.47,1.23-.23-.08-.44-.2-.65-.33-5.96-3.54-13.98-6.19-20.82-3.62"/><path class="cls-1" d="m50.13,230.83s0,0,.01,0"/><path class="cls-10" d="m107.84,183.61c-.19-2.96-1.48-5.9-2.24-8.74-.8-2.99-1.42-6.01-2.07-9.03-1.84.57-3.47,1.65-5.1,2.7-1.62,1.04-3.3,2.08-5.17,2.52-3.9.93-7.33-1.64-8.63-5.24-.38-1.05-.59-2.17-.63-3.28-.02-.56.03-1.12.06-1.68.05-.78-.04-.85-.91-.88-3.55-.11-7.1-.14-10.65-.19-.95-.01-9.99-.57-10.08-.27-1.07,3.98-1.56,7.98-.37,12.04.96,3.31,2.94,5.85,5.94,7.58,2.38,1.38,5,2.19,7.6,3.03,2.76.89,5.87.89,8.76.92,3.69.04,7.35-.5,11.04-.51,2.09,0,4.18.03,6.27.22s4.14.91,6.21,1.19c0-.12-.01-.25-.02-.37Z"/><path class="cls-11" d="m109.69,184.28s-.01.02-.02.02v-.05c0-6.75,0-13.51,0-20.27v-.06s0,0,0,.01c.04.07.08.17.09.29,0,6.43,0,12.85,0,19.27,0,.26.09.54-.07.79Z"/><path class="cls-3" d="m103.52,165.75c-.68-3.19-1.15-5.06-2.05-5.11,0,0-7.19-.31-16.75-.62-.22.04-.45.07-.7.07-.08,0-.16,0-.24-.01-.35,2.13-.19,4.27.7,6.42,1.67,4.03,6.11,6.76,10.88,4.21,1.76-.94,3.42-2.04,5.16-3,1.01-.56,2.03-1.08,3.07-1.56-.03-.14-.05-.27-.08-.4Z"/><path class="cls-3" d="m109.67,163.94s0,.02,0,.02v-.03s0,0,0,.01Z"/><path class="cls-10" d="m109.69,236.93s-.02.03-.02.03v-.07s.02.02.02.03Z"/><path class="cls-10" d="m109.69,184.28s-.01.02-.02.02v-.05c0-6.75,0-13.51,0-20.27v-.06s0,0,0,.01c.04.07.08.17.09.29,0,6.43,0,12.85,0,19.27,0,.26.09.54-.07.79Z"/><path class="cls-14" d="m34.54,156.94c0,.06,0,.12,0,.18,0-.01-.02-.02-.02-.03,0-.05.01-.1.02-.15Z"/><path class="cls-6" d="m34.54,156.94c0,.06,0,.12,0,.18,0-.01-.02-.02-.02-.03-.03-.05-.08-.1-.14-.15h.15Z"/><path class="cls-7" d="m73.36,118.6c.24,2.07,1.18,3.69,2.58,5.29,4.05,4.61,4.28,10.91.02,17.35-2.41,3.64-4.52,7.11-4.46,11.56-1.39-1.05-.66-2.6-.9-3.93-1.25.37-1.99,1.86-3.52,1.48-9.44,2.4-14.96-3.06-19.81-9.87-.65-.34-.98-.91-1.22-1.56-1.74-6.07-1.06-11.75,2.7-16.97,3.68-5.11,8.85-5.79,14.53-5.01.63.53,1.34.27,2.04.19,1.79.1,3.49.54,5.06,1.41.99.54,1.97,1.4,2.99.05Z"/><path class="cls-9" d="m73.36,118.6c-.1.69-.21,1.38-.33,2.22-1.03-.53-1.99-1.03-2.95-1.52-.9-2.67-2.71-2.82-4.94-1.78-.42.1-.87.49-1.22-.11-.66-2.52,1.51-2.94,2.99-3.84-4.89-6.24-9.7-5.18-15.58-.93-3.66,2.64-5.92,6.51-7.36,10.83-.57,1.71-.69,3.7-2.44,4.84-1,.14-1.44-.42-1.65-1.29.37-4.52,2.66-8.28,4.86-12.07,1.13-1.35,2.13-2.8,3.27-4.14.82-.88,1.78-1.55,2.87-2.04,2.7-.93,5.37-1.93,8.22-2.44-1.56-.79-3.17-1.49-4.08-3.11-.12-.66.05-1.18.69-1.47,1.73-.27,3,.76,4.09,1.75,2.6,2.35,5.7,2.95,9.51,3.17-3.86-4.93-9.63-6.65-13.83-10.4-.83-1.03-2.19-1.83-1.55-3.51,2.02-.48,3.22,1.05,4.55,2.02,3.3,2.42,6.8,4.49,10.62,6.91.44-3.68.41-6.8-2.12-9.42-.57-.59-1.17-1.16-1.45-1.96-.14-1.3.52-1.6,1.64-1.31.47.14,1.18.73,1.26.6.64-.91-.02-1.83-.21-2.74-.17-.55-.28-1.11-.12-1.69.89-1.47.63-2.98.16-4.5-.22-1.66-.31-3.33-.29-5.01.53-1.07.83-2.2.74-3.4,1.12-4.49-1.38-8.01-3.16-11.73-.72-1.32-1.83-2.52-1.14-4.22,2.59-.53,2.88,1.95,4.21,3.14-1.04-5.69-3.31-10.9-6.12-15.91-.55-.97-1.3-1.85-1.4-3.04.05-.71.37-1.18,1.12-1.27,1.15.09,1.84.86,2.42,1.73,3.18,4.76,5.32,9.97,6.47,14.84-.25-3.81.6-8.29.72-12.81.16-6-1.32-11.62-2.7-17.32.3-1.12.79-1.44,1.63-.41,3.14,7.33,3.79,15.03,3.54,22.96,1.72-6.97,4.26-13.53,8.83-19.13,1-.26,1.38.12,1.14,1.12-4.08,5.45-5.99,11.74-7.29,18.67,1.92-1.84,3.39-3.79,6.01-3.84,1.15.42,1.15.49,0,1.82-4.25,2.34-5.83,6.45-7.01,10.77-1.05,3.83-1.5,7.8-2.36,11.34,1.95-3.35,4.28-6.82,6.88-10.11.88-1.1,1.74-2.35,3.44-2.28.68.33.96.78.45,1.47-3.4,3.99-6.43,8.25-9.39,12.57-1.23,1.8-1.81,3.44-1.36,5.68.38,1.93.08,3.99.08,6.7,1.58-3.34,2.75-6.18,4.92-8.37,1.47-1.48,3.07-2.44,5.18-1.19.43.99-.28,1.4-.93,1.84-2.36.35-3.77,1.89-4.9,3.85-1.68,2.89-2.46,6.09-3.46,9.37,2.16-1.05,2.88-3.97,5.64-3.86.5.71.29,1.42,0,2.13-.72,1.39-1.83,2.49-2.99,3.47-2.3,1.96-3,4.43-2.75,7.41,2.91-1.5,4.66-4.51,7.9-5.27.98.24,1.3.67.45,1.47-1.57,1.17-3.06,2.46-4.72,3.48-3.78,2.31-5.81,5.36-4.4,10.42,2.1-3.7,6.13-4.69,9.18-7.1,3.51-2.78,5.62-2.38,6.93,1.85,1.42,4.59,4.2,7.74,7.83,10.6,7.15,5.65,12.98,12.58,18.37,19.88.65,1.03.07,1.4-.85,1.58-1.36-.2-2.02-1.29-2.78-2.24-2.36-2.94-4.75-5.87-7.22-8.73-1.45-1.56-2.97-3.05-4.51-4.52-1.81-1.91-4.09-3.26-6.12-5.48-.17,1.8.9,3.26.06,4.68-.78.86-1.56.83-2.35,0-.68-1.18-.98-2.5-1.17-3.81-.51-3.53-2.45-5.97-5.37-7.86-3.19-2.06-4.39-2-6.89.75-.68.75-1.25,1.58-1.97,2.39,5.64-2.46,7.53-2.06,11.38,2.85,1.41,1.79,3.46,3.34,3.35,6.02-.65.92-1.33,1.39-2.12.14-1.45-2.11-2.83-4.27-4.36-6.32-1.83-2.45-4.12-2.83-6.74-1.2-2.75,1.71-5.96,3.11-4.94,7.35Z"/><path class="cls-3" d="m82.36,46.48c.37-.4,1.59-.43.63-1.42,2.75-9.05,10.9-11.25,16.75-9.37,1.99.64,3.72,1.64,5.21,3.09.8.51,2.01-.19,2.61.91-1.51.48-1.1,1.23-.41,2.19,3.32,4.54,3.77,9.53,2.68,14.94-1.61,8.03-8.08,11.64-15.72,8.56-3.9-1.58-6.64-4.66-9.73-7.3-.03-.6-.25-1.08-.85-1.32-2.8-3.15-2.08-6.7-1.18-10.28Z"/><path class="cls-3" d="m114.02,38.36c.66-.1,1.02-.5,1.39-1.05,5.46-8,14.75-9.97,22.84-4.9,7.48,4.7,8.47,13.49,2.05,19.6-3.02,2.88-6.68,4.77-10.88,5.41-9.54,1.44-16.45-5.13-15.58-14.81.11-1.2.6-2.48-1.15-2.92.21-.68,1.05-.73,1.33-1.33Z"/><path class="cls-7" d="m110.99,158.38c.87,3.43,2.37,6.68,2.15,10.4-.32,5.45-6.35,11.04-12.19,11.52-2.62,1.22-5.01.51-7.32-.86-2.6-.93-3.58-3.33-4.9-5.42-1.39-2.06-2.08-4.38-2.56-6.78-.73-2.38.87-4.29,1.32-6.43,2.14-5.07,5.73-8.56,11.06-10.16.57-.3,1.16-.48,1.81-.39,2.78.87,5.32,2.24,7.75,3.81,1.31,1.2,2.67,2.37,2.88,4.32Z"/><path class="cls-7" d="m82.56,74.85c.52-.37,1.29-.52,1.25-1.39,4.26-3.53,8.83-5.53,14.32-2.83.56.39,1.31.3,1.86.7,1.18,1.4,2.42,2.75,3.54,4.19,3.09,3.98,3.77,8.33,1.8,13.01-.32.76-.75,1.47-.46,2.34-.16.6-.65.88-1.14,1.16-1.32-.03-1.92,1.05-2.72,1.8-6.29,5.85-10.99,5.92-17.39.26-.2-.18-.58-.15-.87-.21.12-.49.44-1.04-.41-1.19-1.96-1.56-2.09-3.94-2.74-6.09.36-.59.62-1.2.3-1.9-1.42-3.9.21-6.98,2.65-9.84Z"/><path class="cls-3" d="m89.41,118.77c.69.4,1.34.37,1.92-.22.37-.35.79-.56,1.31-.5.59.38,1.2.26,1.8.03,2.39-1.72,4.56-.74,6.71.55,1.45,1.42,2.9,2.85,4.36,4.27,3.1,4.89,2.21,9.75-.1,14.62-1.29,2.71-3.16,5.02-4.88,7.44-.72.77-1.66,1.2-2.61,1.62-.45-.5-.97-.62-1.66-.5-5.69,1.03-9.87-1.47-12.77-6.05-3.05-4.81-3.38-9.78-.85-15.21,1.51-3.24,4.53-4.04,6.77-6.05Z"/><path class="cls-3" d="m55.98,101.91c-.75.2-.6.76-.53,1.29-.37,2.83-1.96,4.8-4.37,6.19-.86.61-1.72,1.21-2.59,1.82-3.98,3.74-8.4,3.43-13.01,1.42-5.47-2.67-7.29-7.29-6.94-13.05.02-.95.7-1.67.86-2.57,1.46-.91,2.02-2.52,2.98-3.82,2.5-3.36,5.72-5.76,9.64-7.23.91-.89,1.81.52,2.72,0,2.25,1.06,4.5,2.12,6.75,3.17.63.2.85.83,1.32,1.2.38.33.77.66,1.09,1.05.28.46.61.9.19,1.45.14,1.28,1.15,1.99,1.85,2.91.45,2.05,1.26,4.1.03,6.16Z"/><path class="cls-3" d="m116.6,102.55c.72.46,1.49.78,2.33.5,3.39-1.16,6.46-.05,9,1.92,5.53,4.28,10.49,11.09,7.93,17.55-2.19,5.56-8.07,8.69-13.71,6.77-7.05-2.41-12.92-12.65-11.3-19.64.46-1.97,1.33-3.65,2.82-5.02.57-.53,1.48-.88,1.05-1.95.61-.3,1.26.09,1.87-.13Z"/><path class="cls-3" d="m27.93,166.97c-.35,1.43.74,2.27,1.38,3.28,5.03,7.86-.09,20.15-9.38,21.54-6.59.99-14.68-4.45-13.37-14.46,1.14-8.71,8.95-15.46,19.57-11.23.72.03,1.27.42,1.79.87Z"/><path class="cls-3" d="m84.28,30.23c-.11-.65-.37-1.14-1.14-1.12-3.97-5.16-5.99-10.54-2.18-16.74,2.9-4.71,9.22-8.16,13.69-7.33,4.7.87,7.71,3.62,9.08,8.2,1.58,5.3.04,9.82-3.75,13.53-4.44,4.34-9.59,6.27-15.7,3.47Z"/><path class="cls-7" d="m34.32,69.19c-1.22.15-1.53,1.29-2.18,2.04-3.32,3.83-7.36,6.65-12.16,8.17-3.84,1.21-7.71.94-10.5-2.37-2.76-3.28-2.6-7.11-.7-10.73,3.11-5.93,8.07-9.91,14.4-11.88,7.15-2.23,12.58,2.9,11.68,10.86-.15,1.35-.27,2.33,1.3,2.69-.36.78-1.42.52-1.84,1.23Z"/><path class="cls-7" d="m44.19,125.58c.11.7.23,1.39,1.19,1.34,2.31,3.58,1.88,7.37.89,11.21-1.71,3.43-3.51,6.78-7.71,7.73-8.7,4.61-18.31-3.66-17.2-13.21-.16-4.6,2.44-7.64,5.8-10.25,6.19-3.68,13.49-2.31,17.03,3.19Z"/><path class="cls-3" d="m30.55,40.1c-1.76.02-2.53,1.58-3.71,2.46-4.01,2.97-8.27,4.99-13.43,4.27-7.12-.99-11.08-8.37-7.93-14.83,4.09-8.4,17.02-11.3,23.47-5.34,2.95,2.73,4.1,5.8,2.68,9.68-.31.85-.88,1.67-.49,2.65-.06.44-.29.79-.59,1.11Z"/><path class="cls-7" d="m114.77,134.13c.79.04,1.14-.39,1.18-1.13,1.68.83,3.41-.24,5.15.18,5.58,1.35,9.32,4.84,11.04,10.13,1.5,4.61-1.2,8.08-4.38,11.05-3.95,3.69-8.41,5.47-13.79,3.24-.38-.16-.76-.3-1.15-.44-1.82-.52-3.23-1.62-4.37-3.11-3.48-5.52-3.31-11.2.47-16.37,1.46-1.99,3.3-3.35,5.86-3.53Z"/><path class="cls-7" d="m62.34,39.47c-.74.16-.77.72-.75,1.32-1.92,5.06-7.67,8.85-12.46,8.22-4.74-.62-9.79-6.11-10.48-11.22-.71-5.27,1.13-9.62,4.61-13.41,1.61-1.76,3.77-2.36,6.05-2.67,2.01.25,4.03,1.02,6.03-.04.14.04.28.07.43.1,2.02,1.68,4.38,2.96,6.06,5.07,2.21,4.13,2.82,8.32.51,12.63Z"/><path class="cls-7" d="m70.76,25.28c-.42-.13-.86-.87-1.25.03-1.64,1.44-3.55.93-5.42.78-3.4-.56-5.75-3.2-8.81-4.47,0,0,.05.03.05.03.43-1.38,0-2.56-.68-3.79-2.72-4.84-1.87-9.57.94-13.97,2.94-4.62,11.26-5.21,16.08-1.37,7.25,5.78,7.5,14.37.58,20.59-.68.61-1.53,1.07-1.48,2.16Z"/><path class="cls-3" d="m64.64,56.09c.07,1.59,1,2.82,1.72,4.15.28,3.39-.26,6.49-3.16,8.74-1.18-.3-.97.65-1.12,1.27-3.48,3.37-7.88,3.19-12.24,3.15-1.34-.33-2.84-.44-3.25-2.17-4.23-5.62-6.27-11.48-2.01-18.06.17-.27,0-.77-.02-1.16.16-.5.46-.88.89-1.17,2.71-1.6,5.75-2.22,8.79-2.68,4.64-.71,9.74,3.26,10.4,7.94Z"/><path class="cls-3" d="m120.91,73.71c1.35.58,2.63-.12,3.93-.22,6.73-.51,13.07,4.83,13.33,11.29.27,6.61-5.42,12.46-12.19,12.55-5.09.07-9.12-3.52-11.34-10.11-.51-1.76-.25-3.59-.41-5.38-.18-2.08,1.11-3.58,2.92-4.57h.01c.69-1,1.19-2.15,2.28-2.82.43-.36.97-.49,1.45-.75Z"/><path class="cls-7" d="m19.41,86.03c1.98,4.24,2.86,8.51.69,12.99-1.74,3.6-4.43,6.19-8.09,7.66-5.75,2.3-11.29-1.14-11.56-7.52-.24-5.57,1.73-10.54,6.4-14.01,2.56-1.9,5.31-2.55,8.31-.68.82.51,1.95.53,2.93.78.55.08,1.08.18,1.31.78Z"/><path class="cls-3" d="m15.72,130.51c-5.12,3.2-10.02,2.56-13.37-1.76-3.52-4.54-3.03-11.3,1.11-15.11,4.04-3.73,7.38-4.17,12.31-1.71.74.37,1.34,1.47,2.42.67.67.4.95,1.13,1.43,1.69,2.37,3.32,2.6,6.86,1.08,10.58-1.33,2.16-2.72,4.29-4.98,5.63Z"/><path class="cls-3" d="m51.96,88.55c-1.18-2.28-1.48-5.12-1.22-7.64.14-1.36.27-2.93.9-4.17s2.16-2.13,3.5-2.62c5.53-1.99,12.5.16,13.4,6.61.2,1.44.53,3.38-.11,4.73-.07.14-.14.28-.15.44-.01.31.24.55.35.84.16.41,0,.88-.21,1.27-.33.62-.56,1.38-1.09,1.87-.24.23-.61.36-.92.24-.1-.04-.19-.1-.3-.1-.24,0-.36.3-.37.54-.09,1.28-1.78,1.83-2.77,2.27-1.04.47-2.18.67-3.32.6-1.33-.09-2.54-.65-3.75-1.16-1.83-.76-3.11-2.1-3.95-3.73Z"/><path class="cls-9" d="m27.93,166.97c-1.05.65-1.49.03-1.8-.86,2.12-5.88,5.47-11.09,8.81-16.31.94-3.5,4-5.19,6.37-7.46.95-.91,2-1.71,3.07-2.47.73-.35,1.3-1.34,2.32-.61.47.28.65.7.56,1.23-8.62,5.93-14.54,13.9-18.03,23.72-.34.95-.87,1.84-1.31,2.75Z"/><path class="cls-9" d="m19.41,86.03c-.59,0-1.23.08-1.31-.78,5.92-5.71,12.75-5.41,19.84-2.88,2.42.86,4.7,2.09,6.8,3.6-.91,1.28-1.81-.05-2.72,0-4.34-2.72-8.97-4.23-14.17-3.75-3.28.3-6.04,1.64-8.45,3.82Z"/><path class="cls-9" d="m120.84,73.74s.01.02.02.04c.27.62-.46,1.07-.98,1.11-1.2.09-1.9-.99-2.87-1.48-.7-.35-1.44-.6-2.13-.97-1.27-.68-2.44-1.56-3.84-1.99-1.57-.48-3.25-.5-4.88-.36-1.9.16-3.78.52-5.59,1.09-.45.14-.91.29-1.38.25-.29-.03-1.17-.39-.97-.81.17-.34,1.47-.68,1.83-.81,1.27-.48,2.59-.83,3.93-1.05,2.65-.42,5.39-.31,7.99.37,3.07.8,5.91,2.34,8.48,4.21.15.11.31.23.39.39Z"/><path class="cls-9" d="m54.06,74.87c-.35,1.15-1.15.82-1.93.6-5.8-2.47-11.51-5.2-17.81-6.27-.73-2.42,1.42-.53,1.84-1.23,3.67.45,6.99,2.06,10.43,3.26.88,1.01,2.09,1.38,3.33,1.68,1.64.11,3.3.17,4.14,1.97Z"/><path class="cls-9" d="m18.87,114.31c-.83-.34-.61-1.08-.68-1.72,2.87-5.81,5.6-11.73,11.22-15.58,1.31.82-.16,1.28-.25,1.93-2.96,4.78-6.34,9.3-8.8,14.4-.26.55-.82.91-1.49.97Z"/><path class="cls-9" d="m116.6,102.55c-.51,1.68-1.22.57-1.87.13-3.41-3.81-6.85-7.59-10.99-10.65-.28-1.04.31-1.22,1.14-1.16,4.41,3.38,8.53,7.06,11.72,11.68Z"/><path class="cls-9" d="m35.42,41.66c3.35,3.21,6.69,6.43,10.04,9.64-.13.45-.45.65-.89.71-4.43-4.25-8.78-8.59-14.01-11.9-.35-.66-.45-1.18.59-1.11,1.43.89,2.85,1.78,4.28,2.67Z"/><path class="cls-9" d="m114.02,38.36c1.06,1.95-.86.91-1.33,1.33-1.71,0-3.42,0-5.13,0-.88-.27-2.06.31-2.61-.91,2.98-1,6-1.3,9.07-.42Z"/><path class="cls-9" d="m97.92,146.57c.27-.91.15-2.35,1.83-1.33,1.41,1.65,1.92,3.42.75,5.43-.65.21-1.3.37-1.95-.02-.21-1.36-.41-2.72-.62-4.08Z"/><path class="cls-9" d="m64.01,127.42c.13.98-.84,1.41-1.9,1.42-1.4.01-1.8-1.07-1.85-2.28-.04-1.11.29-2.18,1.6-2.08,1.39.1,2.04,1.14,2.14,2.94Z"/><path class="cls-13" d="m66.27,108.38c4.47.19,4.61.33,4.43,5.24-1.58-1.88-3.16-3.75-4.43-5.24Z"/><path class="cls-2" d="m68.19,75.47c-2.38-1.49-4.13-3.66-6.11-5.59-.2-.62-.46-1.26.63-1.19,1.91,2.05,3.83,4.1,5.89,6.32.35-1.14.6-1.96.85-2.79,0,1.25.89,2.84-1.27,3.25Z"/><path class="cls-9" d="m93.07,46.66c.03,1.18-.61,1.63-1.71,1.57-1.18-.06-1.92-.62-1.92-1.86,0-1.25.71-1.86,1.93-1.78,1.26.08,1.69.93,1.71,2.07Z"/><path class="cls-9" d="m122.78,40.14c.01,1.24-.19,2.34-1.49,2.37-1.27.04-2.03-.88-2.16-2.11-.13-1.24.47-2.35,1.74-2.4,1.29-.05,1.8,1.07,1.91,2.13Z"/><path class="cls-9" d="m100.69,161.87c-1.24-.19-1.91-.99-2.01-2.23-.08-1.06.47-1.77,1.55-1.88,1.28-.13,2.31.51,2.48,1.72.17,1.25-.83,1.96-2.02,2.39Z"/><path class="cls-9" d="m90.48,78.64c-.02,1.18-.66,1.71-1.75,1.7-1.09,0-1.73-.59-1.78-1.69-.05-1.07.44-1.8,1.56-1.9,1.35-.12,1.68.9,1.98,1.89Z"/><path class="cls-9" d="m93.46,123.17c1.1.19,1.51.94,1.43,1.97-.07.92-.59,1.59-1.56,1.52-1.13-.08-1.52-.92-1.45-1.95.07-.93.58-1.49,1.58-1.54Z"/><path class="cls-9" d="m49.14,94.83c.01,1.29-.44,2.24-1.89,2.19-1.4-.05-2.26-.87-2.38-2.27-.12-1.39.83-2.16,2.01-2.2,1.35-.05,2.27.76,2.27,2.28Z"/><path class="cls-9" d="m120.83,109.58c-.09,1.05-.85,1.5-1.65,1.48-1.15-.02-1.85-.85-1.87-1.97-.01-.92.67-1.43,1.61-1.44,1.3,0,1.62.97,1.9,1.93Z"/><path class="cls-9" d="m24.81,172.53c-.2.99-.81,1.67-1.79,1.78-1.12.12-1.65-.62-1.68-1.66-.03-1.04.42-1.83,1.55-1.79,1,.03,1.6.73,1.92,1.68Z"/><path class="cls-9" d="m86.96,22.93c1.04.06,1.64.62,1.7,1.7.05,1.01-.6,1.53-1.44,1.67-1.26.21-1.51-.73-1.57-1.71-.05-.89.16-1.63,1.31-1.66Z"/><path class="cls-9" d="m26.97,61.86c1.25.15,1.78.91,1.66,2.1-.11,1.09-.83,1.62-1.89,1.55-1.26-.08-1.79-.89-1.67-2.08.11-1.09.84-1.56,1.9-1.57Z"/><path class="cls-9" d="m32.49,128.22c1.25.31,1.88.94,1.77,2.17-.07.84-.43,1.36-1.3,1.28-1.27-.11-1.61-1.1-1.66-2.13-.04-.79.51-1.24,1.19-1.33Z"/><path class="cls-9" d="m25.46,37.08c-.86-.14-1.52-.45-1.24-1.58.25-1.02.49-2.11,1.85-1.97,1.13.12,1.45,1.01,1.35,2.02-.12,1.11-.86,1.54-1.95,1.53Z"/><path class="cls-4" d="m117.36,137.94c1.46-.03,1.76.75,1.68,1.81-.07.89-.38,1.78-1.42,1.6-.95-.17-1.56-.97-1.62-2.01-.06-1.06.54-1.47,1.35-1.41Z"/><path class="cls-12" d="m63.5,25.29c-1.02.21-2.43-.31-2.65,1.41-1.51-2.06-4.65-2.34-5.55-5.06.79-.81,1.6-.78,2.35.02,1.63,1.73,3.76,2.66,5.86,3.64Z"/><path class="cls-9" d="m56.36,35.85c-.15.88-.71,1.5-1.54,1.62-.85.12-1.27-.56-1.27-1.34,0-.79.47-1.34,1.29-1.42.79-.07,1.34.3,1.52,1.14Z"/><path class="cls-9" d="m67.26,16.14c1.02.02,1.52.58,1.61,1.51.08.8-.19,1.41-1.12,1.45-.92.04-1.63-.3-1.79-1.27-.15-.97.42-1.49,1.3-1.69Z"/><path class="cls-9" d="m58.93,63.23c-.07,1.18-.74,1.67-1.79,1.66-1.07,0-1.7-.59-1.76-1.68-.05-1.04.38-1.87,1.51-1.85,1.14.02,1.77.83,2.04,1.87Z"/><path class="cls-9" d="m127.67,80.49c-.23,1.54-1.27,2.13-2.4,2.13-1.14,0-1.77-.97-1.82-2.1-.05-1.21.56-1.97,1.84-1.93,1.33.04,1.93.96,2.37,1.91Z"/><path class="cls-9" d="m14.48,89.88c-.02,1.14-.27,2.17-1.61,2.13-1.12-.04-1.91-.83-1.97-1.94-.07-1.15.76-1.92,1.82-2.08,1.33-.19,1.68.81,1.76,1.88Z"/><path class="cls-9" d="m15.07,117.36c0,.84-.37,1.35-1.26,1.35-.93,0-1.59-.44-1.67-1.39-.08-.97.51-1.56,1.45-1.55.95,0,1.41.67,1.48,1.59Z"/><path class="cls-9" d="m62.08,81.37c-.08.66-.37,1.23-1.06,1.29-.87.07-1.28-.56-1.29-1.34,0-.65.36-1.23,1.04-1.28.88-.07,1.22.55,1.3,1.34Z"/></svg>