<?xml version="1.0" encoding="UTF-8"?><svg id="Laag_1" xmlns="http://www.w3.org/2000/svg" xmlns:xlink="http://www.w3.org/1999/xlink" viewBox="0 0 18.2 18.19"><defs><style>.cls-1{clip-path:url(#clippath);}.cls-2{fill:none;}.cls-2,.cls-3{stroke-width:0px;}.cls-3{fill:#fff;}</style><clipPath id="clippath"><rect class="cls-2" y="0" width="18.19" height="18.18"/></clipPath></defs><g class="cls-1"><g id="Group_32"><path id="Path_1084" class="cls-3" d="m0,1.25c.07-.35.26-.66.52-.9C.77.13,1.09,0,1.42,0,2.56,0,3.7,0,4.84,0c.76.01,1.37.61,1.41,1.37.02.81.11,1.63.28,2.42.08.33.18.66.27.99.12.45.01.94-.29,1.3-.51.67-1.02,1.34-1.52,2.01-.03.06-.04.14,0,.2,1.02,2.01,2.63,3.66,4.61,4.73.41.22.4.23.78-.06.6-.45,1.19-.92,1.8-1.36.35-.26.8-.34,1.22-.22.59.14,1.16.31,1.76.41.51.08,1.03.12,1.55.13.81-.01,1.48.64,1.49,1.45,0,.03,0,.06,0,.09,0,1.05-.02,2.1,0,3.14.04.74-.47,1.41-1.2,1.55-.02,0-.03.01-.05.02h-1.1c-.27-.03-.54-.05-.81-.08-1.09-.12-2.17-.34-3.22-.66-2.51-.77-4.8-2.12-6.69-3.95-1.7-1.62-3.03-3.59-3.91-5.76C.59,6.2.2,4.56.07,2.9c-.02-.18-.04-.37-.07-.55v-1.1"/></g></g></svg>