<?xml version="1.0" encoding="UTF-8"?><svg id="Laag_1" xmlns="http://www.w3.org/2000/svg" xmlns:xlink="http://www.w3.org/1999/xlink" viewBox="0 0 18.17 18.18"><defs><style>.cls-1{clip-path:url(#clippath);}.cls-2{fill:none;}.cls-2,.cls-3{stroke-width:0px;}.cls-3{fill:#fff;}</style><clipPath id="clippath"><rect class="cls-2" width="18.17" height="18.18"/></clipPath></defs><g id="Group_31"><g class="cls-1"><g id="Group_30"><path id="Path_1083" class="cls-3" d="m6.59,0h.99s.07.02.1.03c.89.07,1.76.31,2.56.71,1.12.54,2.07,1.37,2.76,2.41.85,1.26,1.27,2.77,1.19,4.29-.04.99-.29,1.97-.74,2.85-.15.3-.33.59-.49.88.33.08.63.26.85.52,1.2,1.21,2.41,2.41,3.62,3.62.35.3.61.69.74,1.14v.5c-.02.05-.05.11-.06.16-.19.65-.78,1.09-1.46,1.08-.43,0-.84-.2-1.13-.52-1.27-1.27-2.54-2.55-3.82-3.82-.27-.23-.46-.54-.54-.89-.06.04-.11.06-.16.09-1.39.92-3.06,1.31-4.71,1.11-1.38-.13-2.69-.69-3.74-1.59C.65,11.03-.3,8.6.06,6.17c.13-1.1.52-2.14,1.15-3.05C2.21,1.62,3.75.57,5.51.18c.35-.08.72-.12,1.08-.18m.5,12.42c2.93,0,5.3-2.37,5.3-5.3S10.03,1.81,7.1,1.81c-2.92,0-5.3,2.36-5.3,5.29-.02,2.92,2.33,5.3,5.25,5.32.02,0,.03,0,.05,0"/></g></g></g></svg>